%TF.GenerationSoftware,KiCad,Pcbnew,8.0.1*%
%TF.CreationDate,2024-07-20T19:57:27+09:00*%
%TF.ProjectId,lowd75,6c6f7764-3735-42e6-9b69-6361645f7063,rev?*%
%TF.SameCoordinates,Original*%
%TF.FileFunction,Soldermask,Bot*%
%TF.FilePolarity,Negative*%
%FSLAX46Y46*%
G04 Gerber Fmt 4.6, Leading zero omitted, Abs format (unit mm)*
G04 Created by KiCad (PCBNEW 8.0.1) date 2024-07-20 19:57:27*
%MOMM*%
%LPD*%
G01*
G04 APERTURE LIST*
G04 Aperture macros list*
%AMRoundRect*
0 Rectangle with rounded corners*
0 $1 Rounding radius*
0 $2 $3 $4 $5 $6 $7 $8 $9 X,Y pos of 4 corners*
0 Add a 4 corners polygon primitive as box body*
4,1,4,$2,$3,$4,$5,$6,$7,$8,$9,$2,$3,0*
0 Add four circle primitives for the rounded corners*
1,1,$1+$1,$2,$3*
1,1,$1+$1,$4,$5*
1,1,$1+$1,$6,$7*
1,1,$1+$1,$8,$9*
0 Add four rect primitives between the rounded corners*
20,1,$1+$1,$2,$3,$4,$5,0*
20,1,$1+$1,$4,$5,$6,$7,0*
20,1,$1+$1,$6,$7,$8,$9,0*
20,1,$1+$1,$8,$9,$2,$3,0*%
G04 Aperture macros list end*
%ADD10C,1.700000*%
%ADD11C,3.400000*%
%ADD12C,2.000000*%
%ADD13R,2.000000X2.000000*%
%ADD14R,2.500000X3.000000*%
%ADD15C,1.600000*%
%ADD16O,1.600000X1.600000*%
%ADD17R,2.200000X2.200000*%
%ADD18O,2.200000X2.200000*%
%ADD19R,1.700000X1.700000*%
%ADD20O,1.700000X1.700000*%
%ADD21RoundRect,0.250000X-0.350000X-0.625000X0.350000X-0.625000X0.350000X0.625000X-0.350000X0.625000X0*%
%ADD22O,1.200000X1.750000*%
%ADD23C,3.800000*%
%ADD24C,3.500000*%
%ADD25O,3.500000X3.500000*%
%ADD26R,1.905000X2.000000*%
%ADD27O,1.905000X2.000000*%
%ADD28RoundRect,0.225000X0.375000X-0.225000X0.375000X0.225000X-0.375000X0.225000X-0.375000X-0.225000X0*%
G04 APERTURE END LIST*
D10*
%TO.C,SW42*%
X645775000Y-173525000D03*
D11*
X651275000Y-173525000D03*
D10*
X656775000Y-173525000D03*
D12*
X646275000Y-177325000D03*
X651275000Y-179425000D03*
%TD*%
D10*
%TO.C,SW44*%
X679775000Y-173525000D03*
D11*
X685275000Y-173525000D03*
D10*
X690775000Y-173525000D03*
D12*
X680275000Y-177325000D03*
X685275000Y-179425000D03*
%TD*%
D10*
%TO.C,SW16*%
X790275000Y-139525000D03*
D11*
X795775000Y-139525000D03*
D10*
X801275000Y-139525000D03*
D12*
X790775000Y-143325000D03*
X795775000Y-145425000D03*
%TD*%
D13*
%TO.C,encoder1*%
X497500000Y-196500000D03*
D12*
X492500000Y-196500000D03*
X495000000Y-196500000D03*
D14*
X500600000Y-204000000D03*
X489400000Y-204000000D03*
%TD*%
D10*
%TO.C,SW41*%
X628775000Y-173525000D03*
D11*
X634275000Y-173525000D03*
D10*
X639775000Y-173525000D03*
D12*
X629275000Y-177325000D03*
X634275000Y-179425000D03*
%TD*%
D10*
%TO.C,SW26*%
X658525000Y-156525000D03*
D11*
X664025000Y-156525000D03*
D10*
X669525000Y-156525000D03*
D12*
X659025000Y-160325000D03*
X664025000Y-162425000D03*
%TD*%
D15*
%TO.C,R1*%
X468830000Y-133615000D03*
D16*
X476450000Y-133615000D03*
%TD*%
D10*
%TO.C,SW39*%
X594775000Y-173525000D03*
D11*
X600275000Y-173525000D03*
D10*
X605775000Y-173525000D03*
D12*
X595275000Y-177325000D03*
X600275000Y-179425000D03*
%TD*%
D10*
%TO.C,SW24*%
X624525000Y-156525000D03*
D11*
X630025000Y-156525000D03*
D10*
X635525000Y-156525000D03*
D12*
X625025000Y-160325000D03*
X630025000Y-162425000D03*
%TD*%
D10*
%TO.C,SW45*%
X696775000Y-173525000D03*
D11*
X702275000Y-173525000D03*
D10*
X707775000Y-173525000D03*
D12*
X697275000Y-177325000D03*
X702275000Y-179425000D03*
%TD*%
D10*
%TO.C,SW66*%
X622400000Y-207525000D03*
D11*
X627900000Y-207525000D03*
D10*
X633400000Y-207525000D03*
D12*
X622900000Y-211325000D03*
X627900000Y-213425000D03*
%TD*%
D10*
%TO.C,SW12*%
X701025000Y-139525000D03*
D11*
X706525000Y-139525000D03*
D10*
X712025000Y-139525000D03*
D12*
X701525000Y-143325000D03*
X706525000Y-145425000D03*
%TD*%
D10*
%TO.C,SW20*%
X556525000Y-156525000D03*
D11*
X562025000Y-156525000D03*
D10*
X567525000Y-156525000D03*
D12*
X557025000Y-160325000D03*
X562025000Y-162425000D03*
%TD*%
D10*
%TO.C,SW54*%
X637275000Y-190525000D03*
D11*
X642775000Y-190525000D03*
D10*
X648275000Y-190525000D03*
D12*
X637775000Y-194325000D03*
X642775000Y-196425000D03*
%TD*%
D10*
%TO.C,SW1*%
X514025000Y-139525000D03*
D11*
X519525000Y-139525000D03*
D10*
X525025000Y-139525000D03*
D12*
X514525000Y-143325000D03*
X519525000Y-145425000D03*
%TD*%
D10*
%TO.C,SW40*%
X611775000Y-173525000D03*
D11*
X617275000Y-173525000D03*
D10*
X622775000Y-173525000D03*
D12*
X612275000Y-177325000D03*
X617275000Y-179425000D03*
%TD*%
D10*
%TO.C,SW23*%
X607525000Y-156525000D03*
D11*
X613025000Y-156525000D03*
D10*
X618525000Y-156525000D03*
D12*
X608025000Y-160325000D03*
X613025000Y-162425000D03*
%TD*%
D10*
%TO.C,SW35*%
X520400000Y-173525000D03*
D11*
X525900000Y-173525000D03*
D10*
X531400000Y-173525000D03*
D12*
X520900000Y-177325000D03*
X525900000Y-179425000D03*
%TD*%
D17*
%TO.C,D75*%
X467560000Y-163515000D03*
D18*
X477720000Y-163515000D03*
%TD*%
D10*
%TO.C,SW7*%
X616025000Y-139525000D03*
D11*
X621525000Y-139525000D03*
D10*
X627025000Y-139525000D03*
D12*
X616525000Y-143325000D03*
X621525000Y-145425000D03*
%TD*%
D10*
%TO.C,SW60*%
X752025000Y-190525000D03*
D11*
X757525000Y-190525000D03*
D10*
X763025000Y-190525000D03*
D12*
X752525000Y-194325000D03*
X757525000Y-196425000D03*
%TD*%
D10*
%TO.C,SW21*%
X573525000Y-156525000D03*
D11*
X579025000Y-156525000D03*
D10*
X584525000Y-156525000D03*
D12*
X574025000Y-160325000D03*
X579025000Y-162425000D03*
%TD*%
D10*
%TO.C,SW9*%
X650025000Y-139525000D03*
D11*
X655525000Y-139525000D03*
D10*
X661025000Y-139525000D03*
D12*
X650525000Y-143325000D03*
X655525000Y-145425000D03*
%TD*%
D10*
%TO.C,SW70*%
X728650000Y-207525000D03*
D11*
X734150000Y-207525000D03*
D10*
X739650000Y-207525000D03*
D12*
X729150000Y-211325000D03*
X734150000Y-213425000D03*
%TD*%
D10*
%TO.C,SW4*%
X565025000Y-139525000D03*
D11*
X570525000Y-139525000D03*
D10*
X576025000Y-139525000D03*
D12*
X565525000Y-143325000D03*
X570525000Y-145425000D03*
%TD*%
D10*
%TO.C,SW3*%
X548025000Y-139525000D03*
D11*
X553525000Y-139525000D03*
D10*
X559025000Y-139525000D03*
D12*
X548525000Y-143325000D03*
X553525000Y-145425000D03*
%TD*%
D10*
%TO.C,SW51*%
X586275000Y-190525000D03*
D11*
X591775000Y-190525000D03*
D10*
X597275000Y-190525000D03*
D12*
X586775000Y-194325000D03*
X591775000Y-196425000D03*
%TD*%
D10*
%TO.C,SW64*%
X558650000Y-207525000D03*
D11*
X564150000Y-207525000D03*
D10*
X569650000Y-207525000D03*
D12*
X559150000Y-211325000D03*
X564150000Y-213425000D03*
%TD*%
D10*
%TO.C,SW74*%
X807275000Y-207525000D03*
D11*
X812775000Y-207525000D03*
D10*
X818275000Y-207525000D03*
D12*
X807775000Y-211325000D03*
X812775000Y-213425000D03*
%TD*%
D10*
%TO.C,SW15*%
X773275000Y-139525000D03*
D11*
X778775000Y-139525000D03*
D10*
X784275000Y-139525000D03*
D12*
X773775000Y-143325000D03*
X778775000Y-145425000D03*
%TD*%
D10*
%TO.C,SW31*%
X747775000Y-156525000D03*
D11*
X753275000Y-156525000D03*
D10*
X758775000Y-156525000D03*
D12*
X748275000Y-160325000D03*
X753275000Y-162425000D03*
%TD*%
D10*
%TO.C,SW68*%
X686150000Y-207525000D03*
D11*
X691650000Y-207525000D03*
D10*
X697150000Y-207525000D03*
D12*
X686650000Y-211325000D03*
X691650000Y-213425000D03*
%TD*%
D10*
%TO.C,SW36*%
X543775000Y-173525000D03*
D11*
X549275000Y-173525000D03*
D10*
X554775000Y-173525000D03*
D12*
X544275000Y-177325000D03*
X549275000Y-179425000D03*
%TD*%
D10*
%TO.C,SW72*%
X773275000Y-207525000D03*
D11*
X778775000Y-207525000D03*
D10*
X784275000Y-207525000D03*
D12*
X773775000Y-211325000D03*
X778775000Y-213425000D03*
%TD*%
D10*
%TO.C,SW46*%
X713775000Y-173525000D03*
D11*
X719275000Y-173525000D03*
D10*
X724775000Y-173525000D03*
D12*
X714275000Y-177325000D03*
X719275000Y-179425000D03*
%TD*%
D10*
%TO.C,SW53*%
X620275000Y-190525000D03*
D11*
X625775000Y-190525000D03*
D10*
X631275000Y-190525000D03*
D12*
X620775000Y-194325000D03*
X625775000Y-196425000D03*
%TD*%
D10*
%TO.C,SW49*%
X552275000Y-190525000D03*
D11*
X557775000Y-190525000D03*
D10*
X563275000Y-190525000D03*
D12*
X552775000Y-194325000D03*
X557775000Y-196425000D03*
%TD*%
D10*
%TO.C,SW62*%
X516150000Y-207525000D03*
D11*
X521650000Y-207525000D03*
D10*
X527150000Y-207525000D03*
D12*
X516650000Y-211325000D03*
X521650000Y-213425000D03*
%TD*%
D10*
%TO.C,SW69*%
X707400000Y-207525000D03*
D11*
X712900000Y-207525000D03*
D10*
X718400000Y-207525000D03*
D12*
X707900000Y-211325000D03*
X712900000Y-213425000D03*
%TD*%
D10*
%TO.C,SW52*%
X603275000Y-190525000D03*
D11*
X608775000Y-190525000D03*
D10*
X614275000Y-190525000D03*
D12*
X603775000Y-194325000D03*
X608775000Y-196425000D03*
%TD*%
D19*
%TO.C,J1*%
X483545000Y-133234999D03*
D20*
X483545000Y-135774999D03*
X483545000Y-138314998D03*
X483545000Y-140854999D03*
X483545000Y-143394999D03*
X483545000Y-145934999D03*
X483545000Y-148474999D03*
X483545000Y-151015000D03*
X483545000Y-153554999D03*
X483545000Y-156094999D03*
X483545000Y-158634999D03*
X483545000Y-161174998D03*
X483545000Y-163714999D03*
X483545000Y-166254999D03*
X483545000Y-168794999D03*
X483545000Y-171334998D03*
X483545000Y-173875000D03*
X483545000Y-176414999D03*
X483545000Y-178954999D03*
X483545000Y-181494999D03*
%TD*%
D10*
%TO.C,SW6*%
X599025000Y-139525000D03*
D11*
X604525000Y-139525000D03*
D10*
X610025000Y-139525000D03*
D12*
X599525000Y-143325000D03*
X604525000Y-145425000D03*
%TD*%
D10*
%TO.C,SW50*%
X569275000Y-190525000D03*
D11*
X574775000Y-190525000D03*
D10*
X580275000Y-190525000D03*
D12*
X569775000Y-194325000D03*
X574775000Y-196425000D03*
%TD*%
D21*
%TO.C,J3*%
X471640000Y-168765000D03*
D22*
X473640000Y-168765000D03*
%TD*%
D10*
%TO.C,SW57*%
X688275000Y-190525000D03*
D11*
X693775000Y-190525000D03*
D10*
X699275000Y-190525000D03*
D12*
X688775000Y-194325000D03*
X693775000Y-196425000D03*
%TD*%
D23*
%TO.C,REF\u002A\u002A*%
X462000000Y-214000000D03*
%TD*%
D10*
%TO.C,SW59*%
X728650000Y-190525000D03*
D11*
X734150000Y-190525000D03*
D10*
X739650000Y-190525000D03*
D12*
X729150000Y-194325000D03*
X734150000Y-196425000D03*
%TD*%
D10*
%TO.C,SW43*%
X662775000Y-173525000D03*
D11*
X668275000Y-173525000D03*
D10*
X673775000Y-173525000D03*
D12*
X663275000Y-177325000D03*
X668275000Y-179425000D03*
%TD*%
D10*
%TO.C,SW56*%
X671275000Y-190525000D03*
D11*
X676775000Y-190525000D03*
D10*
X682275000Y-190525000D03*
D12*
X671775000Y-194325000D03*
X676775000Y-196425000D03*
%TD*%
D10*
%TO.C,SW10*%
X667025000Y-139525000D03*
D11*
X672525000Y-139525000D03*
D10*
X678025000Y-139525000D03*
D12*
X667525000Y-143325000D03*
X672525000Y-145425000D03*
%TD*%
D10*
%TO.C,SW55*%
X654275000Y-190525000D03*
D11*
X659775000Y-190525000D03*
D10*
X665275000Y-190525000D03*
D12*
X654775000Y-194325000D03*
X659775000Y-196425000D03*
%TD*%
D10*
%TO.C,SW58*%
X705275000Y-190525000D03*
D11*
X710775000Y-190525000D03*
D10*
X716275000Y-190525000D03*
D12*
X705775000Y-194325000D03*
X710775000Y-196425000D03*
%TD*%
D10*
%TO.C,SW17*%
X807275000Y-139525000D03*
D11*
X812775000Y-139525000D03*
D10*
X818275000Y-139525000D03*
D12*
X807775000Y-143325000D03*
X812775000Y-145425000D03*
%TD*%
D10*
%TO.C,SW37*%
X560775000Y-173525000D03*
D11*
X566275000Y-173525000D03*
D10*
X571775000Y-173525000D03*
D12*
X561275000Y-177325000D03*
X566275000Y-179425000D03*
%TD*%
D10*
%TO.C,SW61*%
X790275000Y-190525000D03*
D11*
X795775000Y-190525000D03*
D10*
X801275000Y-190525000D03*
D12*
X790775000Y-194325000D03*
X795775000Y-196425000D03*
%TD*%
D10*
%TO.C,SW34*%
X807275000Y-156525000D03*
D11*
X812775000Y-156525000D03*
D10*
X818275000Y-156525000D03*
D12*
X807775000Y-160325000D03*
X812775000Y-162425000D03*
%TD*%
D23*
%TO.C,REF\u002A\u002A*%
X462000000Y-133000000D03*
%TD*%
D10*
%TO.C,SW8*%
X633025000Y-139525000D03*
D11*
X638525000Y-139525000D03*
D10*
X644025000Y-139525000D03*
D12*
X633525000Y-143325000D03*
X638525000Y-145425000D03*
%TD*%
D10*
%TO.C,SW71*%
X749900000Y-207525000D03*
D11*
X755400000Y-207525000D03*
D10*
X760900000Y-207525000D03*
D12*
X750400000Y-211325000D03*
X755400000Y-213425000D03*
%TD*%
D10*
%TO.C,SW28*%
X692525000Y-156525000D03*
D11*
X698025000Y-156525000D03*
D10*
X703525000Y-156525000D03*
D12*
X693025000Y-160325000D03*
X698025000Y-162425000D03*
%TD*%
D10*
%TO.C,SW33*%
X790275000Y-156525000D03*
D11*
X795775000Y-156525000D03*
D10*
X801275000Y-156525000D03*
D12*
X790775000Y-160325000D03*
X795775000Y-162425000D03*
%TD*%
D10*
%TO.C,SW48*%
X524650000Y-190525000D03*
D11*
X530150000Y-190525000D03*
D10*
X535650000Y-190525000D03*
D12*
X525150000Y-194325000D03*
X530150000Y-196425000D03*
%TD*%
D10*
%TO.C,SW14*%
X743525000Y-139525000D03*
D11*
X749025000Y-139525000D03*
D10*
X754525000Y-139525000D03*
D12*
X744025000Y-143325000D03*
X749025000Y-145425000D03*
%TD*%
D10*
%TO.C,SW73*%
X790275000Y-207525000D03*
D11*
X795775000Y-207525000D03*
D10*
X801275000Y-207525000D03*
D12*
X790775000Y-211325000D03*
X795775000Y-213425000D03*
%TD*%
D10*
%TO.C,SW2*%
X531025000Y-139525000D03*
D11*
X536525000Y-139525000D03*
D10*
X542025000Y-139525000D03*
D12*
X531525000Y-143325000D03*
X536525000Y-145425000D03*
%TD*%
D19*
%TO.C,J2*%
X501300000Y-180964999D03*
D20*
X501300000Y-178424999D03*
X501300000Y-175885000D03*
X501300000Y-173344999D03*
X501300000Y-170804999D03*
X501300000Y-168264999D03*
X501300000Y-165724999D03*
X501300000Y-163184998D03*
X501300000Y-160644999D03*
X501300000Y-158104999D03*
X501300000Y-155564999D03*
X501300000Y-153025000D03*
X501300000Y-150484999D03*
X501300000Y-147944999D03*
X501300000Y-145404999D03*
X501300000Y-142865000D03*
X501300000Y-140324998D03*
X501300000Y-137784999D03*
X501300000Y-135244999D03*
X501300000Y-132704999D03*
%TD*%
D10*
%TO.C,SW65*%
X588400000Y-207525000D03*
D11*
X593900000Y-207525000D03*
D10*
X599400000Y-207525000D03*
D12*
X588900000Y-211325000D03*
X593900000Y-213425000D03*
%TD*%
D10*
%TO.C,SW5*%
X582025000Y-139525000D03*
D11*
X587525000Y-139525000D03*
D10*
X593025000Y-139525000D03*
D12*
X582525000Y-143325000D03*
X587525000Y-145425000D03*
%TD*%
D10*
%TO.C,SW30*%
X726525000Y-156525000D03*
D11*
X732025000Y-156525000D03*
D10*
X737525000Y-156525000D03*
D12*
X727025000Y-160325000D03*
X732025000Y-162425000D03*
%TD*%
D10*
%TO.C,SW13*%
X718025000Y-139525000D03*
D11*
X723525000Y-139525000D03*
D10*
X729025000Y-139525000D03*
D12*
X718525000Y-143325000D03*
X723525000Y-145425000D03*
%TD*%
D10*
%TO.C,SW38*%
X577775000Y-173525000D03*
D11*
X583275000Y-173525000D03*
D10*
X588775000Y-173525000D03*
D12*
X578275000Y-177325000D03*
X583275000Y-179425000D03*
%TD*%
D10*
%TO.C,SW67*%
X656400000Y-207525000D03*
D11*
X661900000Y-207525000D03*
D10*
X667400000Y-207525000D03*
D12*
X656900000Y-211325000D03*
X661900000Y-213425000D03*
%TD*%
D10*
%TO.C,SW11*%
X684025000Y-139525000D03*
D11*
X689525000Y-139525000D03*
D10*
X695025000Y-139525000D03*
D12*
X684525000Y-143325000D03*
X689525000Y-145425000D03*
%TD*%
D10*
%TO.C,SW29*%
X709525000Y-156525000D03*
D11*
X715025000Y-156525000D03*
D10*
X720525000Y-156525000D03*
D12*
X710025000Y-160325000D03*
X715025000Y-162425000D03*
%TD*%
D10*
%TO.C,SW25*%
X641525000Y-156525000D03*
D11*
X647025000Y-156525000D03*
D10*
X652525000Y-156525000D03*
D12*
X642025000Y-160325000D03*
X647025000Y-162425000D03*
%TD*%
D24*
%TO.C,REF\u002A\u002A*%
X473000000Y-194125000D03*
X467000000Y-184125000D03*
%TD*%
D10*
%TO.C,SW18*%
X518275000Y-156525000D03*
D11*
X523775000Y-156525000D03*
D10*
X529275000Y-156525000D03*
D12*
X518775000Y-160325000D03*
X523775000Y-162425000D03*
%TD*%
D10*
%TO.C,SW63*%
X537400000Y-207525000D03*
D11*
X542900000Y-207525000D03*
D10*
X548400000Y-207525000D03*
D12*
X537900000Y-211325000D03*
X542900000Y-213425000D03*
%TD*%
D10*
%TO.C,SW27*%
X675525000Y-156525000D03*
D11*
X681025000Y-156525000D03*
D10*
X686525000Y-156525000D03*
D12*
X676025000Y-160325000D03*
X681025000Y-162425000D03*
%TD*%
D25*
%TO.C,Q1*%
X472640000Y-141465000D03*
D26*
X470100000Y-158125000D03*
D27*
X472640000Y-158125000D03*
X475179999Y-158125000D03*
%TD*%
D10*
%TO.C,SW32*%
X773275000Y-156525000D03*
D11*
X778775000Y-156525000D03*
D10*
X784275000Y-156525000D03*
D12*
X773775000Y-160325000D03*
X778775000Y-162425000D03*
%TD*%
D10*
%TO.C,SW47*%
X741400000Y-173525000D03*
D11*
X746900000Y-173525000D03*
D10*
X752400000Y-173525000D03*
D12*
X741900000Y-177325000D03*
X746900000Y-179425000D03*
%TD*%
D10*
%TO.C,SW19*%
X539525000Y-156525000D03*
D11*
X545025000Y-156525000D03*
D10*
X550525000Y-156525000D03*
D12*
X540025000Y-160325000D03*
X545025000Y-162425000D03*
%TD*%
D10*
%TO.C,SW22*%
X590525000Y-156525000D03*
D11*
X596025000Y-156525000D03*
D10*
X601525000Y-156525000D03*
D12*
X591025000Y-160325000D03*
X596025000Y-162425000D03*
%TD*%
D28*
%TO.C,D2*%
X542525000Y-147175000D03*
X542525000Y-143875000D03*
%TD*%
%TO.C,D39*%
X606275000Y-181175000D03*
X606275000Y-177875000D03*
%TD*%
%TO.C,D23*%
X619025000Y-164175000D03*
X619025000Y-160875000D03*
%TD*%
%TO.C,D30*%
X739675000Y-164175000D03*
X739675000Y-160875000D03*
%TD*%
%TO.C,D55*%
X665775000Y-198175000D03*
X665775000Y-194875000D03*
%TD*%
%TO.C,D59*%
X740150000Y-198175000D03*
X740150000Y-194875000D03*
%TD*%
%TO.C,D49*%
X563775000Y-198175000D03*
X563775000Y-194875000D03*
%TD*%
%TO.C,D64*%
X570150000Y-215175000D03*
X570150000Y-211875000D03*
%TD*%
%TO.C,D8*%
X644525000Y-147175000D03*
X644525000Y-143875000D03*
%TD*%
%TO.C,D34*%
X818775000Y-164175000D03*
X818775000Y-160875000D03*
%TD*%
%TO.C,D45*%
X708275000Y-181175000D03*
X708275000Y-177875000D03*
%TD*%
%TO.C,D35*%
X531900000Y-181175000D03*
X531900000Y-177875000D03*
%TD*%
%TO.C,D53*%
X631775000Y-198175000D03*
X631775000Y-194875000D03*
%TD*%
%TO.C,D43*%
X674275000Y-181175000D03*
X674275000Y-177875000D03*
%TD*%
%TO.C,D72*%
X784775000Y-215175000D03*
X784775000Y-211875000D03*
%TD*%
%TO.C,D14*%
X755025000Y-147175000D03*
X755025000Y-143875000D03*
%TD*%
%TO.C,D44*%
X691275000Y-181175000D03*
X691275000Y-177875000D03*
%TD*%
%TO.C,D12*%
X712525000Y-147175000D03*
X712525000Y-143875000D03*
%TD*%
%TO.C,D33*%
X801775000Y-164175000D03*
X801775000Y-160875000D03*
%TD*%
%TO.C,D54*%
X645675000Y-198175000D03*
X645675000Y-194875000D03*
%TD*%
%TO.C,D48*%
X536150000Y-198175000D03*
X536150000Y-194875000D03*
%TD*%
%TO.C,D32*%
X784775000Y-164175000D03*
X784775000Y-160875000D03*
%TD*%
%TO.C,D58*%
X716775000Y-198175000D03*
X716775000Y-194875000D03*
%TD*%
%TO.C,D36*%
X555275000Y-181175000D03*
X555275000Y-177875000D03*
%TD*%
%TO.C,D41*%
X640275000Y-181175000D03*
X640275000Y-177875000D03*
%TD*%
%TO.C,D51*%
X597775000Y-198175000D03*
X597775000Y-194875000D03*
%TD*%
%TO.C,D22*%
X602025000Y-164175000D03*
X602025000Y-160875000D03*
%TD*%
%TO.C,D3*%
X559525000Y-147175000D03*
X559525000Y-143875000D03*
%TD*%
%TO.C,D46*%
X725275000Y-181175000D03*
X725275000Y-177875000D03*
%TD*%
%TO.C,D40*%
X623275000Y-181175000D03*
X623275000Y-177875000D03*
%TD*%
%TO.C,D56*%
X682775000Y-198175000D03*
X682775000Y-194875000D03*
%TD*%
%TO.C,D73*%
X801775000Y-215175000D03*
X801775000Y-211875000D03*
%TD*%
%TO.C,D25*%
X653025000Y-164175000D03*
X653025000Y-160875000D03*
%TD*%
%TO.C,D5*%
X593525000Y-147175000D03*
X593525000Y-143875000D03*
%TD*%
%TO.C,D27*%
X687025000Y-164175000D03*
X687025000Y-160875000D03*
%TD*%
%TO.C,D18*%
X529775000Y-164175000D03*
X529775000Y-160875000D03*
%TD*%
%TO.C,D4*%
X576525000Y-147175000D03*
X576525000Y-143875000D03*
%TD*%
%TO.C,D70*%
X740150000Y-215175000D03*
X740150000Y-211875000D03*
%TD*%
%TO.C,D52*%
X614775000Y-198175000D03*
X614775000Y-194875000D03*
%TD*%
%TO.C,D37*%
X572275000Y-181175000D03*
X572275000Y-177875000D03*
%TD*%
%TO.C,D13*%
X729525000Y-147175000D03*
X729525000Y-143875000D03*
%TD*%
%TO.C,D69*%
X718900000Y-215175000D03*
X718900000Y-211875000D03*
%TD*%
%TO.C,D38*%
X589275000Y-181175000D03*
X589275000Y-177875000D03*
%TD*%
%TO.C,D21*%
X585025000Y-164175000D03*
X585025000Y-160875000D03*
%TD*%
%TO.C,D71*%
X761400000Y-215175000D03*
X761400000Y-211875000D03*
%TD*%
%TO.C,D65*%
X599900000Y-215175000D03*
X599900000Y-211875000D03*
%TD*%
%TO.C,D67*%
X667900000Y-215175000D03*
X667900000Y-211875000D03*
%TD*%
%TO.C,D15*%
X784775000Y-147175000D03*
X784775000Y-143875000D03*
%TD*%
%TO.C,D10*%
X678525000Y-147175000D03*
X678525000Y-143875000D03*
%TD*%
%TO.C,D6*%
X610525000Y-147175000D03*
X610525000Y-143875000D03*
%TD*%
%TO.C,D60*%
X763525000Y-198175000D03*
X763525000Y-194875000D03*
%TD*%
%TO.C,D11*%
X695525000Y-147175000D03*
X695525000Y-143875000D03*
%TD*%
%TO.C,D62*%
X527650000Y-215175000D03*
X527650000Y-211875000D03*
%TD*%
%TO.C,D50*%
X577675000Y-198175000D03*
X577675000Y-194875000D03*
%TD*%
%TO.C,D42*%
X657275000Y-181175000D03*
X657275000Y-177875000D03*
%TD*%
%TO.C,D47*%
X752900000Y-181175000D03*
X752900000Y-177875000D03*
%TD*%
%TO.C,D1*%
X525525000Y-147175000D03*
X525525000Y-143875000D03*
%TD*%
%TO.C,D17*%
X818775000Y-147175000D03*
X818775000Y-143875000D03*
%TD*%
%TO.C,D20*%
X568025000Y-164175000D03*
X568025000Y-160875000D03*
%TD*%
%TO.C,D31*%
X762675000Y-164175000D03*
X762675000Y-160875000D03*
%TD*%
%TO.C,D26*%
X670025000Y-164175000D03*
X670025000Y-160875000D03*
%TD*%
%TO.C,D7*%
X627525000Y-147175000D03*
X627525000Y-143875000D03*
%TD*%
%TO.C,D74*%
X818775000Y-215175000D03*
X818775000Y-211875000D03*
%TD*%
%TO.C,D28*%
X704025000Y-164175000D03*
X704025000Y-160875000D03*
%TD*%
%TO.C,D19*%
X551025000Y-164175000D03*
X551025000Y-160875000D03*
%TD*%
%TO.C,D66*%
X633900000Y-215175000D03*
X633900000Y-211875000D03*
%TD*%
%TO.C,D9*%
X661525000Y-147175000D03*
X661525000Y-143875000D03*
%TD*%
%TO.C,D68*%
X697650000Y-215175000D03*
X697650000Y-211875000D03*
%TD*%
%TO.C,D57*%
X699775000Y-198175000D03*
X699775000Y-194875000D03*
%TD*%
%TO.C,D63*%
X548900000Y-215175000D03*
X548900000Y-211875000D03*
%TD*%
%TO.C,D24*%
X636025000Y-164175000D03*
X636025000Y-160875000D03*
%TD*%
%TO.C,D16*%
X801775000Y-147175000D03*
X801775000Y-143875000D03*
%TD*%
%TO.C,D29*%
X721025000Y-164175000D03*
X721025000Y-160875000D03*
%TD*%
%TO.C,D61*%
X801775000Y-198175000D03*
X801775000Y-194875000D03*
%TD*%
M02*
