%TF.GenerationSoftware,KiCad,Pcbnew,8.0.1*%
%TF.CreationDate,2024-07-20T19:57:27+09:00*%
%TF.ProjectId,lowd75,6c6f7764-3735-42e6-9b69-6361645f7063,rev?*%
%TF.SameCoordinates,Original*%
%TF.FileFunction,Profile,NP*%
%FSLAX46Y46*%
G04 Gerber Fmt 4.6, Leading zero omitted, Abs format (unit mm)*
G04 Created by KiCad (PCBNEW 8.0.1) date 2024-07-20 19:57:27*
%MOMM*%
%LPD*%
G01*
G04 APERTURE LIST*
%TA.AperFunction,Profile*%
%ADD10C,0.050000*%
%TD*%
%TA.AperFunction,Profile*%
%ADD11C,0.120000*%
%TD*%
G04 APERTURE END LIST*
D10*
X461000000Y-217000000D02*
X820000000Y-217000000D01*
X458000000Y-131000000D02*
X458000000Y-214000000D01*
X458000000Y-131000000D02*
G75*
G02*
X461000000Y-128000000I3000000J0D01*
G01*
X820000000Y-128000000D02*
X461000000Y-128000000D01*
X823000000Y-214000000D02*
X823000000Y-131000000D01*
X823000000Y-214000000D02*
G75*
G02*
X820000000Y-217000000I-3000000J0D01*
G01*
X461000000Y-217000000D02*
G75*
G02*
X458000000Y-214000000I0J3000000D01*
G01*
X820000000Y-128000000D02*
G75*
G02*
X823000000Y-131000000I0J-3000000D01*
G01*
D11*
%TO.C,REF\u002A\u002A*%
X734375000Y-141325000D02*
X734375000Y-136825000D01*
X734875000Y-136325000D02*
X739175000Y-136325000D01*
X734875000Y-141825000D02*
X739175000Y-141825000D01*
X735025000Y-133525000D02*
X735025000Y-131025000D01*
X735525000Y-130525000D02*
X738525000Y-130525000D01*
X735525000Y-134025000D02*
X738525000Y-134025000D01*
X739025000Y-133525000D02*
X739025000Y-131025000D01*
X739675000Y-141325000D02*
X739675000Y-136825000D01*
X758375000Y-141325000D02*
X758375000Y-136825000D01*
X759025000Y-133525000D02*
X759025000Y-131025000D01*
X762525000Y-130525000D02*
X759525000Y-130525000D01*
X762525000Y-134025000D02*
X759525000Y-134025000D01*
X763025000Y-133525000D02*
X763025000Y-131025000D01*
X763175000Y-136325000D02*
X758875000Y-136325000D01*
X763175000Y-141825000D02*
X758875000Y-141825000D01*
X763675000Y-141325000D02*
X763675000Y-136825000D01*
X734375000Y-136825000D02*
G75*
G02*
X734875000Y-136325000I500001J-1D01*
G01*
X734875000Y-141825000D02*
G75*
G02*
X734375000Y-141325000I1J500001D01*
G01*
X735025000Y-131025000D02*
G75*
G02*
X735525000Y-130525000I500001J-1D01*
G01*
X735525000Y-134025000D02*
G75*
G02*
X735025000Y-133525000I1J500001D01*
G01*
X738525000Y-130525000D02*
G75*
G02*
X739025000Y-131025000I-1J-500001D01*
G01*
X739025000Y-133525000D02*
G75*
G02*
X738525000Y-134025000I-500001J1D01*
G01*
X739175000Y-136325000D02*
G75*
G02*
X739675000Y-136825000I-1J-500001D01*
G01*
X739675000Y-141325000D02*
G75*
G02*
X739175000Y-141825000I-500001J1D01*
G01*
X758375000Y-136825000D02*
G75*
G02*
X758875000Y-136325000I500000J0D01*
G01*
X758875000Y-141825000D02*
G75*
G02*
X758375000Y-141325000I0J500000D01*
G01*
X759025000Y-131025000D02*
G75*
G02*
X759525000Y-130525000I500000J0D01*
G01*
X759525000Y-134025000D02*
G75*
G02*
X759025000Y-133525000I0J500000D01*
G01*
X762525000Y-130525000D02*
G75*
G02*
X763025000Y-131025000I0J-500000D01*
G01*
X763025000Y-133525000D02*
G75*
G02*
X762525000Y-134025000I-500000J0D01*
G01*
X763175000Y-136325000D02*
G75*
G02*
X763675000Y-136825000I0J-500000D01*
G01*
X763675000Y-141325000D02*
G75*
G02*
X763175000Y-141825000I-500000J0D01*
G01*
X579250000Y-209325000D02*
X579250000Y-204825000D01*
X579750000Y-204325000D02*
X584050000Y-204325000D01*
X579750000Y-209825000D02*
X584050000Y-209825000D01*
X579900000Y-201525000D02*
X579900000Y-199025000D01*
X580400000Y-198525000D02*
X583400000Y-198525000D01*
X580400000Y-202025000D02*
X583400000Y-202025000D01*
X583900000Y-201525000D02*
X583900000Y-199025000D01*
X584550000Y-209325000D02*
X584550000Y-204825000D01*
X603250000Y-209325000D02*
X603250000Y-204825000D01*
X603900000Y-201525000D02*
X603900000Y-199025000D01*
X607400000Y-198525000D02*
X604400000Y-198525000D01*
X607400000Y-202025000D02*
X604400000Y-202025000D01*
X607900000Y-201525000D02*
X607900000Y-199025000D01*
X608050000Y-204325000D02*
X603750000Y-204325000D01*
X608050000Y-209825000D02*
X603750000Y-209825000D01*
X608550000Y-209325000D02*
X608550000Y-204825000D01*
X579250000Y-204825000D02*
G75*
G02*
X579750000Y-204325000I500001J-1D01*
G01*
X579750000Y-209825000D02*
G75*
G02*
X579250000Y-209325000I1J500001D01*
G01*
X579900000Y-199025000D02*
G75*
G02*
X580400000Y-198525000I500001J-1D01*
G01*
X580400000Y-202025000D02*
G75*
G02*
X579900000Y-201525000I1J500001D01*
G01*
X583400000Y-198525000D02*
G75*
G02*
X583900000Y-199025000I-1J-500001D01*
G01*
X583900000Y-201525000D02*
G75*
G02*
X583400000Y-202025000I-500001J1D01*
G01*
X584050000Y-204325000D02*
G75*
G02*
X584550000Y-204825000I-1J-500001D01*
G01*
X584550000Y-209325000D02*
G75*
G02*
X584050000Y-209825000I-500001J1D01*
G01*
X603250000Y-204825000D02*
G75*
G02*
X603750000Y-204325000I500000J0D01*
G01*
X603750000Y-209825000D02*
G75*
G02*
X603250000Y-209325000I0J500000D01*
G01*
X603900000Y-199025000D02*
G75*
G02*
X604400000Y-198525000I500000J0D01*
G01*
X604400000Y-202025000D02*
G75*
G02*
X603900000Y-201525000I0J500000D01*
G01*
X607400000Y-198525000D02*
G75*
G02*
X607900000Y-199025000I0J-500000D01*
G01*
X607900000Y-201525000D02*
G75*
G02*
X607400000Y-202025000I-500000J0D01*
G01*
X608050000Y-204325000D02*
G75*
G02*
X608550000Y-204825000I0J-500000D01*
G01*
X608550000Y-209325000D02*
G75*
G02*
X608050000Y-209825000I-500000J0D01*
G01*
X515500000Y-192325000D02*
X515500000Y-187825000D01*
X516000000Y-187325000D02*
X520300000Y-187325000D01*
X516000000Y-192825000D02*
X520300000Y-192825000D01*
X516150000Y-184525000D02*
X516150000Y-182025000D01*
X516650000Y-181525000D02*
X519650000Y-181525000D01*
X516650000Y-185025000D02*
X519650000Y-185025000D01*
X520150000Y-184525000D02*
X520150000Y-182025000D01*
X520800000Y-192325000D02*
X520800000Y-187825000D01*
X539500000Y-192325000D02*
X539500000Y-187825000D01*
X540150000Y-184525000D02*
X540150000Y-182025000D01*
X543650000Y-181525000D02*
X540650000Y-181525000D01*
X543650000Y-185025000D02*
X540650000Y-185025000D01*
X544150000Y-184525000D02*
X544150000Y-182025000D01*
X544300000Y-187325000D02*
X540000000Y-187325000D01*
X544300000Y-192825000D02*
X540000000Y-192825000D01*
X544800000Y-192325000D02*
X544800000Y-187825000D01*
X515500000Y-187825000D02*
G75*
G02*
X516000000Y-187325000I500001J-1D01*
G01*
X516000000Y-192825000D02*
G75*
G02*
X515500000Y-192325000I1J500001D01*
G01*
X516150000Y-182025000D02*
G75*
G02*
X516650000Y-181525000I500001J-1D01*
G01*
X516650000Y-185025000D02*
G75*
G02*
X516150000Y-184525000I1J500001D01*
G01*
X519650000Y-181525000D02*
G75*
G02*
X520150000Y-182025000I-1J-500001D01*
G01*
X520150000Y-184525000D02*
G75*
G02*
X519650000Y-185025000I-500001J1D01*
G01*
X520300000Y-187325000D02*
G75*
G02*
X520800000Y-187825000I-1J-500001D01*
G01*
X520800000Y-192325000D02*
G75*
G02*
X520300000Y-192825000I-500001J1D01*
G01*
X539500000Y-187825000D02*
G75*
G02*
X540000000Y-187325000I500000J0D01*
G01*
X540000000Y-192825000D02*
G75*
G02*
X539500000Y-192325000I0J500000D01*
G01*
X540150000Y-182025000D02*
G75*
G02*
X540650000Y-181525000I500000J0D01*
G01*
X540650000Y-185025000D02*
G75*
G02*
X540150000Y-184525000I0J500000D01*
G01*
X543650000Y-181525000D02*
G75*
G02*
X544150000Y-182025000I0J-500000D01*
G01*
X544150000Y-184525000D02*
G75*
G02*
X543650000Y-185025000I-500000J0D01*
G01*
X544300000Y-187325000D02*
G75*
G02*
X544800000Y-187825000I0J-500000D01*
G01*
X544800000Y-192325000D02*
G75*
G02*
X544300000Y-192825000I-500000J0D01*
G01*
X647250000Y-209325000D02*
X647250000Y-204825000D01*
X647750000Y-204325000D02*
X652050000Y-204325000D01*
X647750000Y-209825000D02*
X652050000Y-209825000D01*
X647900000Y-201525000D02*
X647900000Y-199025000D01*
X648400000Y-198525000D02*
X651400000Y-198525000D01*
X648400000Y-202025000D02*
X651400000Y-202025000D01*
X651900000Y-201525000D02*
X651900000Y-199025000D01*
X652550000Y-209325000D02*
X652550000Y-204825000D01*
X671250000Y-209325000D02*
X671250000Y-204825000D01*
X671900000Y-201525000D02*
X671900000Y-199025000D01*
X675400000Y-198525000D02*
X672400000Y-198525000D01*
X675400000Y-202025000D02*
X672400000Y-202025000D01*
X675900000Y-201525000D02*
X675900000Y-199025000D01*
X676050000Y-204325000D02*
X671750000Y-204325000D01*
X676050000Y-209825000D02*
X671750000Y-209825000D01*
X676550000Y-209325000D02*
X676550000Y-204825000D01*
X647250000Y-204825000D02*
G75*
G02*
X647750000Y-204325000I500001J-1D01*
G01*
X647750000Y-209825000D02*
G75*
G02*
X647250000Y-209325000I1J500001D01*
G01*
X647900000Y-199025000D02*
G75*
G02*
X648400000Y-198525000I500001J-1D01*
G01*
X648400000Y-202025000D02*
G75*
G02*
X647900000Y-201525000I1J500001D01*
G01*
X651400000Y-198525000D02*
G75*
G02*
X651900000Y-199025000I-1J-500001D01*
G01*
X651900000Y-201525000D02*
G75*
G02*
X651400000Y-202025000I-500001J1D01*
G01*
X652050000Y-204325000D02*
G75*
G02*
X652550000Y-204825000I-1J-500001D01*
G01*
X652550000Y-209325000D02*
G75*
G02*
X652050000Y-209825000I-500001J1D01*
G01*
X671250000Y-204825000D02*
G75*
G02*
X671750000Y-204325000I500000J0D01*
G01*
X671750000Y-209825000D02*
G75*
G02*
X671250000Y-209325000I0J500000D01*
G01*
X671900000Y-199025000D02*
G75*
G02*
X672400000Y-198525000I500000J0D01*
G01*
X672400000Y-202025000D02*
G75*
G02*
X671900000Y-201525000I0J500000D01*
G01*
X675400000Y-198525000D02*
G75*
G02*
X675900000Y-199025000I0J-500000D01*
G01*
X675900000Y-201525000D02*
G75*
G02*
X675400000Y-202025000I-500000J0D01*
G01*
X676050000Y-204325000D02*
G75*
G02*
X676550000Y-204825000I0J-500000D01*
G01*
X676550000Y-209325000D02*
G75*
G02*
X676050000Y-209825000I-500000J0D01*
G01*
X732250000Y-175325000D02*
X732250000Y-170825000D01*
X732750000Y-170325000D02*
X737050000Y-170325000D01*
X732750000Y-175825000D02*
X737050000Y-175825000D01*
X732900000Y-167525000D02*
X732900000Y-165025000D01*
X733400000Y-164525000D02*
X736400000Y-164525000D01*
X733400000Y-168025000D02*
X736400000Y-168025000D01*
X736900000Y-167525000D02*
X736900000Y-165025000D01*
X737550000Y-175325000D02*
X737550000Y-170825000D01*
X756250000Y-175325000D02*
X756250000Y-170825000D01*
X756900000Y-167525000D02*
X756900000Y-165025000D01*
X760400000Y-164525000D02*
X757400000Y-164525000D01*
X760400000Y-168025000D02*
X757400000Y-168025000D01*
X760900000Y-167525000D02*
X760900000Y-165025000D01*
X761050000Y-170325000D02*
X756750000Y-170325000D01*
X761050000Y-175825000D02*
X756750000Y-175825000D01*
X761550000Y-175325000D02*
X761550000Y-170825000D01*
X732250000Y-170825000D02*
G75*
G02*
X732750000Y-170325000I500001J-1D01*
G01*
X732750000Y-175825000D02*
G75*
G02*
X732250000Y-175325000I1J500001D01*
G01*
X732900000Y-165025000D02*
G75*
G02*
X733400000Y-164525000I500001J-1D01*
G01*
X733400000Y-168025000D02*
G75*
G02*
X732900000Y-167525000I1J500001D01*
G01*
X736400000Y-164525000D02*
G75*
G02*
X736900000Y-165025000I-1J-500001D01*
G01*
X736900000Y-167525000D02*
G75*
G02*
X736400000Y-168025000I-500001J1D01*
G01*
X737050000Y-170325000D02*
G75*
G02*
X737550000Y-170825000I-1J-500001D01*
G01*
X737550000Y-175325000D02*
G75*
G02*
X737050000Y-175825000I-500001J1D01*
G01*
X756250000Y-170825000D02*
G75*
G02*
X756750000Y-170325000I500000J0D01*
G01*
X756750000Y-175825000D02*
G75*
G02*
X756250000Y-175325000I0J500000D01*
G01*
X756900000Y-165025000D02*
G75*
G02*
X757400000Y-164525000I500000J0D01*
G01*
X757400000Y-168025000D02*
G75*
G02*
X756900000Y-167525000I0J500000D01*
G01*
X760400000Y-164525000D02*
G75*
G02*
X760900000Y-165025000I0J-500000D01*
G01*
X760900000Y-167525000D02*
G75*
G02*
X760400000Y-168025000I-500000J0D01*
G01*
X761050000Y-170325000D02*
G75*
G02*
X761550000Y-170825000I0J-500000D01*
G01*
X761550000Y-175325000D02*
G75*
G02*
X761050000Y-175825000I-500000J0D01*
G01*
%TD*%
M02*
