%TF.GenerationSoftware,KiCad,Pcbnew,8.0.1*%
%TF.CreationDate,2024-07-20T19:57:27+09:00*%
%TF.ProjectId,lowd75,6c6f7764-3735-42e6-9b69-6361645f7063,rev?*%
%TF.SameCoordinates,Original*%
%TF.FileFunction,Legend,Bot*%
%TF.FilePolarity,Positive*%
%FSLAX46Y46*%
G04 Gerber Fmt 4.6, Leading zero omitted, Abs format (unit mm)*
G04 Created by KiCad (PCBNEW 8.0.1) date 2024-07-20 19:57:27*
%MOMM*%
%LPD*%
G01*
G04 APERTURE LIST*
G04 Aperture macros list*
%AMRoundRect*
0 Rectangle with rounded corners*
0 $1 Rounding radius*
0 $2 $3 $4 $5 $6 $7 $8 $9 X,Y pos of 4 corners*
0 Add a 4 corners polygon primitive as box body*
4,1,4,$2,$3,$4,$5,$6,$7,$8,$9,$2,$3,0*
0 Add four circle primitives for the rounded corners*
1,1,$1+$1,$2,$3*
1,1,$1+$1,$4,$5*
1,1,$1+$1,$6,$7*
1,1,$1+$1,$8,$9*
0 Add four rect primitives between the rounded corners*
20,1,$1+$1,$2,$3,$4,$5,0*
20,1,$1+$1,$4,$5,$6,$7,0*
20,1,$1+$1,$6,$7,$8,$9,0*
20,1,$1+$1,$8,$9,$2,$3,0*%
G04 Aperture macros list end*
%ADD10C,0.150000*%
%ADD11C,0.120000*%
%ADD12C,1.700000*%
%ADD13C,3.400000*%
%ADD14C,2.000000*%
%ADD15R,2.000000X2.000000*%
%ADD16R,2.500000X3.000000*%
%ADD17C,1.600000*%
%ADD18O,1.600000X1.600000*%
%ADD19R,2.200000X2.200000*%
%ADD20O,2.200000X2.200000*%
%ADD21R,1.700000X1.700000*%
%ADD22O,1.700000X1.700000*%
%ADD23RoundRect,0.250000X-0.350000X-0.625000X0.350000X-0.625000X0.350000X0.625000X-0.350000X0.625000X0*%
%ADD24O,1.200000X1.750000*%
%ADD25C,3.800000*%
%ADD26C,3.500000*%
%ADD27O,3.500000X3.500000*%
%ADD28R,1.905000X2.000000*%
%ADD29O,1.905000X2.000000*%
%ADD30RoundRect,0.225000X0.375000X-0.225000X0.375000X0.225000X-0.375000X0.225000X-0.375000X-0.225000X0*%
G04 APERTURE END LIST*
D10*
X544979820Y-144786905D02*
X543979820Y-144786905D01*
X543979820Y-144786905D02*
X543979820Y-145025000D01*
X543979820Y-145025000D02*
X544027439Y-145167857D01*
X544027439Y-145167857D02*
X544122677Y-145263095D01*
X544122677Y-145263095D02*
X544217915Y-145310714D01*
X544217915Y-145310714D02*
X544408391Y-145358333D01*
X544408391Y-145358333D02*
X544551248Y-145358333D01*
X544551248Y-145358333D02*
X544741724Y-145310714D01*
X544741724Y-145310714D02*
X544836962Y-145263095D01*
X544836962Y-145263095D02*
X544932201Y-145167857D01*
X544932201Y-145167857D02*
X544979820Y-145025000D01*
X544979820Y-145025000D02*
X544979820Y-144786905D01*
X544075058Y-145739286D02*
X544027439Y-145786905D01*
X544027439Y-145786905D02*
X543979820Y-145882143D01*
X543979820Y-145882143D02*
X543979820Y-146120238D01*
X543979820Y-146120238D02*
X544027439Y-146215476D01*
X544027439Y-146215476D02*
X544075058Y-146263095D01*
X544075058Y-146263095D02*
X544170296Y-146310714D01*
X544170296Y-146310714D02*
X544265534Y-146310714D01*
X544265534Y-146310714D02*
X544408391Y-146263095D01*
X544408391Y-146263095D02*
X544979820Y-145691667D01*
X544979820Y-145691667D02*
X544979820Y-146310714D01*
X608729820Y-178310714D02*
X607729820Y-178310714D01*
X607729820Y-178310714D02*
X607729820Y-178548809D01*
X607729820Y-178548809D02*
X607777439Y-178691666D01*
X607777439Y-178691666D02*
X607872677Y-178786904D01*
X607872677Y-178786904D02*
X607967915Y-178834523D01*
X607967915Y-178834523D02*
X608158391Y-178882142D01*
X608158391Y-178882142D02*
X608301248Y-178882142D01*
X608301248Y-178882142D02*
X608491724Y-178834523D01*
X608491724Y-178834523D02*
X608586962Y-178786904D01*
X608586962Y-178786904D02*
X608682201Y-178691666D01*
X608682201Y-178691666D02*
X608729820Y-178548809D01*
X608729820Y-178548809D02*
X608729820Y-178310714D01*
X607729820Y-179215476D02*
X607729820Y-179834523D01*
X607729820Y-179834523D02*
X608110772Y-179501190D01*
X608110772Y-179501190D02*
X608110772Y-179644047D01*
X608110772Y-179644047D02*
X608158391Y-179739285D01*
X608158391Y-179739285D02*
X608206010Y-179786904D01*
X608206010Y-179786904D02*
X608301248Y-179834523D01*
X608301248Y-179834523D02*
X608539343Y-179834523D01*
X608539343Y-179834523D02*
X608634581Y-179786904D01*
X608634581Y-179786904D02*
X608682201Y-179739285D01*
X608682201Y-179739285D02*
X608729820Y-179644047D01*
X608729820Y-179644047D02*
X608729820Y-179358333D01*
X608729820Y-179358333D02*
X608682201Y-179263095D01*
X608682201Y-179263095D02*
X608634581Y-179215476D01*
X608729820Y-180310714D02*
X608729820Y-180501190D01*
X608729820Y-180501190D02*
X608682201Y-180596428D01*
X608682201Y-180596428D02*
X608634581Y-180644047D01*
X608634581Y-180644047D02*
X608491724Y-180739285D01*
X608491724Y-180739285D02*
X608301248Y-180786904D01*
X608301248Y-180786904D02*
X607920296Y-180786904D01*
X607920296Y-180786904D02*
X607825058Y-180739285D01*
X607825058Y-180739285D02*
X607777439Y-180691666D01*
X607777439Y-180691666D02*
X607729820Y-180596428D01*
X607729820Y-180596428D02*
X607729820Y-180405952D01*
X607729820Y-180405952D02*
X607777439Y-180310714D01*
X607777439Y-180310714D02*
X607825058Y-180263095D01*
X607825058Y-180263095D02*
X607920296Y-180215476D01*
X607920296Y-180215476D02*
X608158391Y-180215476D01*
X608158391Y-180215476D02*
X608253629Y-180263095D01*
X608253629Y-180263095D02*
X608301248Y-180310714D01*
X608301248Y-180310714D02*
X608348867Y-180405952D01*
X608348867Y-180405952D02*
X608348867Y-180596428D01*
X608348867Y-180596428D02*
X608301248Y-180691666D01*
X608301248Y-180691666D02*
X608253629Y-180739285D01*
X608253629Y-180739285D02*
X608158391Y-180786904D01*
X621479820Y-161310714D02*
X620479820Y-161310714D01*
X620479820Y-161310714D02*
X620479820Y-161548809D01*
X620479820Y-161548809D02*
X620527439Y-161691666D01*
X620527439Y-161691666D02*
X620622677Y-161786904D01*
X620622677Y-161786904D02*
X620717915Y-161834523D01*
X620717915Y-161834523D02*
X620908391Y-161882142D01*
X620908391Y-161882142D02*
X621051248Y-161882142D01*
X621051248Y-161882142D02*
X621241724Y-161834523D01*
X621241724Y-161834523D02*
X621336962Y-161786904D01*
X621336962Y-161786904D02*
X621432201Y-161691666D01*
X621432201Y-161691666D02*
X621479820Y-161548809D01*
X621479820Y-161548809D02*
X621479820Y-161310714D01*
X620575058Y-162263095D02*
X620527439Y-162310714D01*
X620527439Y-162310714D02*
X620479820Y-162405952D01*
X620479820Y-162405952D02*
X620479820Y-162644047D01*
X620479820Y-162644047D02*
X620527439Y-162739285D01*
X620527439Y-162739285D02*
X620575058Y-162786904D01*
X620575058Y-162786904D02*
X620670296Y-162834523D01*
X620670296Y-162834523D02*
X620765534Y-162834523D01*
X620765534Y-162834523D02*
X620908391Y-162786904D01*
X620908391Y-162786904D02*
X621479820Y-162215476D01*
X621479820Y-162215476D02*
X621479820Y-162834523D01*
X620479820Y-163167857D02*
X620479820Y-163786904D01*
X620479820Y-163786904D02*
X620860772Y-163453571D01*
X620860772Y-163453571D02*
X620860772Y-163596428D01*
X620860772Y-163596428D02*
X620908391Y-163691666D01*
X620908391Y-163691666D02*
X620956010Y-163739285D01*
X620956010Y-163739285D02*
X621051248Y-163786904D01*
X621051248Y-163786904D02*
X621289343Y-163786904D01*
X621289343Y-163786904D02*
X621384581Y-163739285D01*
X621384581Y-163739285D02*
X621432201Y-163691666D01*
X621432201Y-163691666D02*
X621479820Y-163596428D01*
X621479820Y-163596428D02*
X621479820Y-163310714D01*
X621479820Y-163310714D02*
X621432201Y-163215476D01*
X621432201Y-163215476D02*
X621384581Y-163167857D01*
X742129820Y-161310714D02*
X741129820Y-161310714D01*
X741129820Y-161310714D02*
X741129820Y-161548809D01*
X741129820Y-161548809D02*
X741177439Y-161691666D01*
X741177439Y-161691666D02*
X741272677Y-161786904D01*
X741272677Y-161786904D02*
X741367915Y-161834523D01*
X741367915Y-161834523D02*
X741558391Y-161882142D01*
X741558391Y-161882142D02*
X741701248Y-161882142D01*
X741701248Y-161882142D02*
X741891724Y-161834523D01*
X741891724Y-161834523D02*
X741986962Y-161786904D01*
X741986962Y-161786904D02*
X742082201Y-161691666D01*
X742082201Y-161691666D02*
X742129820Y-161548809D01*
X742129820Y-161548809D02*
X742129820Y-161310714D01*
X741129820Y-162215476D02*
X741129820Y-162834523D01*
X741129820Y-162834523D02*
X741510772Y-162501190D01*
X741510772Y-162501190D02*
X741510772Y-162644047D01*
X741510772Y-162644047D02*
X741558391Y-162739285D01*
X741558391Y-162739285D02*
X741606010Y-162786904D01*
X741606010Y-162786904D02*
X741701248Y-162834523D01*
X741701248Y-162834523D02*
X741939343Y-162834523D01*
X741939343Y-162834523D02*
X742034581Y-162786904D01*
X742034581Y-162786904D02*
X742082201Y-162739285D01*
X742082201Y-162739285D02*
X742129820Y-162644047D01*
X742129820Y-162644047D02*
X742129820Y-162358333D01*
X742129820Y-162358333D02*
X742082201Y-162263095D01*
X742082201Y-162263095D02*
X742034581Y-162215476D01*
X741129820Y-163453571D02*
X741129820Y-163548809D01*
X741129820Y-163548809D02*
X741177439Y-163644047D01*
X741177439Y-163644047D02*
X741225058Y-163691666D01*
X741225058Y-163691666D02*
X741320296Y-163739285D01*
X741320296Y-163739285D02*
X741510772Y-163786904D01*
X741510772Y-163786904D02*
X741748867Y-163786904D01*
X741748867Y-163786904D02*
X741939343Y-163739285D01*
X741939343Y-163739285D02*
X742034581Y-163691666D01*
X742034581Y-163691666D02*
X742082201Y-163644047D01*
X742082201Y-163644047D02*
X742129820Y-163548809D01*
X742129820Y-163548809D02*
X742129820Y-163453571D01*
X742129820Y-163453571D02*
X742082201Y-163358333D01*
X742082201Y-163358333D02*
X742034581Y-163310714D01*
X742034581Y-163310714D02*
X741939343Y-163263095D01*
X741939343Y-163263095D02*
X741748867Y-163215476D01*
X741748867Y-163215476D02*
X741510772Y-163215476D01*
X741510772Y-163215476D02*
X741320296Y-163263095D01*
X741320296Y-163263095D02*
X741225058Y-163310714D01*
X741225058Y-163310714D02*
X741177439Y-163358333D01*
X741177439Y-163358333D02*
X741129820Y-163453571D01*
X668229820Y-195310714D02*
X667229820Y-195310714D01*
X667229820Y-195310714D02*
X667229820Y-195548809D01*
X667229820Y-195548809D02*
X667277439Y-195691666D01*
X667277439Y-195691666D02*
X667372677Y-195786904D01*
X667372677Y-195786904D02*
X667467915Y-195834523D01*
X667467915Y-195834523D02*
X667658391Y-195882142D01*
X667658391Y-195882142D02*
X667801248Y-195882142D01*
X667801248Y-195882142D02*
X667991724Y-195834523D01*
X667991724Y-195834523D02*
X668086962Y-195786904D01*
X668086962Y-195786904D02*
X668182201Y-195691666D01*
X668182201Y-195691666D02*
X668229820Y-195548809D01*
X668229820Y-195548809D02*
X668229820Y-195310714D01*
X667229820Y-196786904D02*
X667229820Y-196310714D01*
X667229820Y-196310714D02*
X667706010Y-196263095D01*
X667706010Y-196263095D02*
X667658391Y-196310714D01*
X667658391Y-196310714D02*
X667610772Y-196405952D01*
X667610772Y-196405952D02*
X667610772Y-196644047D01*
X667610772Y-196644047D02*
X667658391Y-196739285D01*
X667658391Y-196739285D02*
X667706010Y-196786904D01*
X667706010Y-196786904D02*
X667801248Y-196834523D01*
X667801248Y-196834523D02*
X668039343Y-196834523D01*
X668039343Y-196834523D02*
X668134581Y-196786904D01*
X668134581Y-196786904D02*
X668182201Y-196739285D01*
X668182201Y-196739285D02*
X668229820Y-196644047D01*
X668229820Y-196644047D02*
X668229820Y-196405952D01*
X668229820Y-196405952D02*
X668182201Y-196310714D01*
X668182201Y-196310714D02*
X668134581Y-196263095D01*
X667229820Y-197739285D02*
X667229820Y-197263095D01*
X667229820Y-197263095D02*
X667706010Y-197215476D01*
X667706010Y-197215476D02*
X667658391Y-197263095D01*
X667658391Y-197263095D02*
X667610772Y-197358333D01*
X667610772Y-197358333D02*
X667610772Y-197596428D01*
X667610772Y-197596428D02*
X667658391Y-197691666D01*
X667658391Y-197691666D02*
X667706010Y-197739285D01*
X667706010Y-197739285D02*
X667801248Y-197786904D01*
X667801248Y-197786904D02*
X668039343Y-197786904D01*
X668039343Y-197786904D02*
X668134581Y-197739285D01*
X668134581Y-197739285D02*
X668182201Y-197691666D01*
X668182201Y-197691666D02*
X668229820Y-197596428D01*
X668229820Y-197596428D02*
X668229820Y-197358333D01*
X668229820Y-197358333D02*
X668182201Y-197263095D01*
X668182201Y-197263095D02*
X668134581Y-197215476D01*
X742604820Y-195310714D02*
X741604820Y-195310714D01*
X741604820Y-195310714D02*
X741604820Y-195548809D01*
X741604820Y-195548809D02*
X741652439Y-195691666D01*
X741652439Y-195691666D02*
X741747677Y-195786904D01*
X741747677Y-195786904D02*
X741842915Y-195834523D01*
X741842915Y-195834523D02*
X742033391Y-195882142D01*
X742033391Y-195882142D02*
X742176248Y-195882142D01*
X742176248Y-195882142D02*
X742366724Y-195834523D01*
X742366724Y-195834523D02*
X742461962Y-195786904D01*
X742461962Y-195786904D02*
X742557201Y-195691666D01*
X742557201Y-195691666D02*
X742604820Y-195548809D01*
X742604820Y-195548809D02*
X742604820Y-195310714D01*
X741604820Y-196786904D02*
X741604820Y-196310714D01*
X741604820Y-196310714D02*
X742081010Y-196263095D01*
X742081010Y-196263095D02*
X742033391Y-196310714D01*
X742033391Y-196310714D02*
X741985772Y-196405952D01*
X741985772Y-196405952D02*
X741985772Y-196644047D01*
X741985772Y-196644047D02*
X742033391Y-196739285D01*
X742033391Y-196739285D02*
X742081010Y-196786904D01*
X742081010Y-196786904D02*
X742176248Y-196834523D01*
X742176248Y-196834523D02*
X742414343Y-196834523D01*
X742414343Y-196834523D02*
X742509581Y-196786904D01*
X742509581Y-196786904D02*
X742557201Y-196739285D01*
X742557201Y-196739285D02*
X742604820Y-196644047D01*
X742604820Y-196644047D02*
X742604820Y-196405952D01*
X742604820Y-196405952D02*
X742557201Y-196310714D01*
X742557201Y-196310714D02*
X742509581Y-196263095D01*
X742604820Y-197310714D02*
X742604820Y-197501190D01*
X742604820Y-197501190D02*
X742557201Y-197596428D01*
X742557201Y-197596428D02*
X742509581Y-197644047D01*
X742509581Y-197644047D02*
X742366724Y-197739285D01*
X742366724Y-197739285D02*
X742176248Y-197786904D01*
X742176248Y-197786904D02*
X741795296Y-197786904D01*
X741795296Y-197786904D02*
X741700058Y-197739285D01*
X741700058Y-197739285D02*
X741652439Y-197691666D01*
X741652439Y-197691666D02*
X741604820Y-197596428D01*
X741604820Y-197596428D02*
X741604820Y-197405952D01*
X741604820Y-197405952D02*
X741652439Y-197310714D01*
X741652439Y-197310714D02*
X741700058Y-197263095D01*
X741700058Y-197263095D02*
X741795296Y-197215476D01*
X741795296Y-197215476D02*
X742033391Y-197215476D01*
X742033391Y-197215476D02*
X742128629Y-197263095D01*
X742128629Y-197263095D02*
X742176248Y-197310714D01*
X742176248Y-197310714D02*
X742223867Y-197405952D01*
X742223867Y-197405952D02*
X742223867Y-197596428D01*
X742223867Y-197596428D02*
X742176248Y-197691666D01*
X742176248Y-197691666D02*
X742128629Y-197739285D01*
X742128629Y-197739285D02*
X742033391Y-197786904D01*
X566229820Y-195310714D02*
X565229820Y-195310714D01*
X565229820Y-195310714D02*
X565229820Y-195548809D01*
X565229820Y-195548809D02*
X565277439Y-195691666D01*
X565277439Y-195691666D02*
X565372677Y-195786904D01*
X565372677Y-195786904D02*
X565467915Y-195834523D01*
X565467915Y-195834523D02*
X565658391Y-195882142D01*
X565658391Y-195882142D02*
X565801248Y-195882142D01*
X565801248Y-195882142D02*
X565991724Y-195834523D01*
X565991724Y-195834523D02*
X566086962Y-195786904D01*
X566086962Y-195786904D02*
X566182201Y-195691666D01*
X566182201Y-195691666D02*
X566229820Y-195548809D01*
X566229820Y-195548809D02*
X566229820Y-195310714D01*
X565563153Y-196739285D02*
X566229820Y-196739285D01*
X565182201Y-196501190D02*
X565896486Y-196263095D01*
X565896486Y-196263095D02*
X565896486Y-196882142D01*
X566229820Y-197310714D02*
X566229820Y-197501190D01*
X566229820Y-197501190D02*
X566182201Y-197596428D01*
X566182201Y-197596428D02*
X566134581Y-197644047D01*
X566134581Y-197644047D02*
X565991724Y-197739285D01*
X565991724Y-197739285D02*
X565801248Y-197786904D01*
X565801248Y-197786904D02*
X565420296Y-197786904D01*
X565420296Y-197786904D02*
X565325058Y-197739285D01*
X565325058Y-197739285D02*
X565277439Y-197691666D01*
X565277439Y-197691666D02*
X565229820Y-197596428D01*
X565229820Y-197596428D02*
X565229820Y-197405952D01*
X565229820Y-197405952D02*
X565277439Y-197310714D01*
X565277439Y-197310714D02*
X565325058Y-197263095D01*
X565325058Y-197263095D02*
X565420296Y-197215476D01*
X565420296Y-197215476D02*
X565658391Y-197215476D01*
X565658391Y-197215476D02*
X565753629Y-197263095D01*
X565753629Y-197263095D02*
X565801248Y-197310714D01*
X565801248Y-197310714D02*
X565848867Y-197405952D01*
X565848867Y-197405952D02*
X565848867Y-197596428D01*
X565848867Y-197596428D02*
X565801248Y-197691666D01*
X565801248Y-197691666D02*
X565753629Y-197739285D01*
X565753629Y-197739285D02*
X565658391Y-197786904D01*
X572604820Y-212310714D02*
X571604820Y-212310714D01*
X571604820Y-212310714D02*
X571604820Y-212548809D01*
X571604820Y-212548809D02*
X571652439Y-212691666D01*
X571652439Y-212691666D02*
X571747677Y-212786904D01*
X571747677Y-212786904D02*
X571842915Y-212834523D01*
X571842915Y-212834523D02*
X572033391Y-212882142D01*
X572033391Y-212882142D02*
X572176248Y-212882142D01*
X572176248Y-212882142D02*
X572366724Y-212834523D01*
X572366724Y-212834523D02*
X572461962Y-212786904D01*
X572461962Y-212786904D02*
X572557201Y-212691666D01*
X572557201Y-212691666D02*
X572604820Y-212548809D01*
X572604820Y-212548809D02*
X572604820Y-212310714D01*
X571604820Y-213739285D02*
X571604820Y-213548809D01*
X571604820Y-213548809D02*
X571652439Y-213453571D01*
X571652439Y-213453571D02*
X571700058Y-213405952D01*
X571700058Y-213405952D02*
X571842915Y-213310714D01*
X571842915Y-213310714D02*
X572033391Y-213263095D01*
X572033391Y-213263095D02*
X572414343Y-213263095D01*
X572414343Y-213263095D02*
X572509581Y-213310714D01*
X572509581Y-213310714D02*
X572557201Y-213358333D01*
X572557201Y-213358333D02*
X572604820Y-213453571D01*
X572604820Y-213453571D02*
X572604820Y-213644047D01*
X572604820Y-213644047D02*
X572557201Y-213739285D01*
X572557201Y-213739285D02*
X572509581Y-213786904D01*
X572509581Y-213786904D02*
X572414343Y-213834523D01*
X572414343Y-213834523D02*
X572176248Y-213834523D01*
X572176248Y-213834523D02*
X572081010Y-213786904D01*
X572081010Y-213786904D02*
X572033391Y-213739285D01*
X572033391Y-213739285D02*
X571985772Y-213644047D01*
X571985772Y-213644047D02*
X571985772Y-213453571D01*
X571985772Y-213453571D02*
X572033391Y-213358333D01*
X572033391Y-213358333D02*
X572081010Y-213310714D01*
X572081010Y-213310714D02*
X572176248Y-213263095D01*
X571938153Y-214691666D02*
X572604820Y-214691666D01*
X571557201Y-214453571D02*
X572271486Y-214215476D01*
X572271486Y-214215476D02*
X572271486Y-214834523D01*
X646979820Y-144786905D02*
X645979820Y-144786905D01*
X645979820Y-144786905D02*
X645979820Y-145025000D01*
X645979820Y-145025000D02*
X646027439Y-145167857D01*
X646027439Y-145167857D02*
X646122677Y-145263095D01*
X646122677Y-145263095D02*
X646217915Y-145310714D01*
X646217915Y-145310714D02*
X646408391Y-145358333D01*
X646408391Y-145358333D02*
X646551248Y-145358333D01*
X646551248Y-145358333D02*
X646741724Y-145310714D01*
X646741724Y-145310714D02*
X646836962Y-145263095D01*
X646836962Y-145263095D02*
X646932201Y-145167857D01*
X646932201Y-145167857D02*
X646979820Y-145025000D01*
X646979820Y-145025000D02*
X646979820Y-144786905D01*
X646408391Y-145929762D02*
X646360772Y-145834524D01*
X646360772Y-145834524D02*
X646313153Y-145786905D01*
X646313153Y-145786905D02*
X646217915Y-145739286D01*
X646217915Y-145739286D02*
X646170296Y-145739286D01*
X646170296Y-145739286D02*
X646075058Y-145786905D01*
X646075058Y-145786905D02*
X646027439Y-145834524D01*
X646027439Y-145834524D02*
X645979820Y-145929762D01*
X645979820Y-145929762D02*
X645979820Y-146120238D01*
X645979820Y-146120238D02*
X646027439Y-146215476D01*
X646027439Y-146215476D02*
X646075058Y-146263095D01*
X646075058Y-146263095D02*
X646170296Y-146310714D01*
X646170296Y-146310714D02*
X646217915Y-146310714D01*
X646217915Y-146310714D02*
X646313153Y-146263095D01*
X646313153Y-146263095D02*
X646360772Y-146215476D01*
X646360772Y-146215476D02*
X646408391Y-146120238D01*
X646408391Y-146120238D02*
X646408391Y-145929762D01*
X646408391Y-145929762D02*
X646456010Y-145834524D01*
X646456010Y-145834524D02*
X646503629Y-145786905D01*
X646503629Y-145786905D02*
X646598867Y-145739286D01*
X646598867Y-145739286D02*
X646789343Y-145739286D01*
X646789343Y-145739286D02*
X646884581Y-145786905D01*
X646884581Y-145786905D02*
X646932201Y-145834524D01*
X646932201Y-145834524D02*
X646979820Y-145929762D01*
X646979820Y-145929762D02*
X646979820Y-146120238D01*
X646979820Y-146120238D02*
X646932201Y-146215476D01*
X646932201Y-146215476D02*
X646884581Y-146263095D01*
X646884581Y-146263095D02*
X646789343Y-146310714D01*
X646789343Y-146310714D02*
X646598867Y-146310714D01*
X646598867Y-146310714D02*
X646503629Y-146263095D01*
X646503629Y-146263095D02*
X646456010Y-146215476D01*
X646456010Y-146215476D02*
X646408391Y-146120238D01*
X821229820Y-161310714D02*
X820229820Y-161310714D01*
X820229820Y-161310714D02*
X820229820Y-161548809D01*
X820229820Y-161548809D02*
X820277439Y-161691666D01*
X820277439Y-161691666D02*
X820372677Y-161786904D01*
X820372677Y-161786904D02*
X820467915Y-161834523D01*
X820467915Y-161834523D02*
X820658391Y-161882142D01*
X820658391Y-161882142D02*
X820801248Y-161882142D01*
X820801248Y-161882142D02*
X820991724Y-161834523D01*
X820991724Y-161834523D02*
X821086962Y-161786904D01*
X821086962Y-161786904D02*
X821182201Y-161691666D01*
X821182201Y-161691666D02*
X821229820Y-161548809D01*
X821229820Y-161548809D02*
X821229820Y-161310714D01*
X820229820Y-162215476D02*
X820229820Y-162834523D01*
X820229820Y-162834523D02*
X820610772Y-162501190D01*
X820610772Y-162501190D02*
X820610772Y-162644047D01*
X820610772Y-162644047D02*
X820658391Y-162739285D01*
X820658391Y-162739285D02*
X820706010Y-162786904D01*
X820706010Y-162786904D02*
X820801248Y-162834523D01*
X820801248Y-162834523D02*
X821039343Y-162834523D01*
X821039343Y-162834523D02*
X821134581Y-162786904D01*
X821134581Y-162786904D02*
X821182201Y-162739285D01*
X821182201Y-162739285D02*
X821229820Y-162644047D01*
X821229820Y-162644047D02*
X821229820Y-162358333D01*
X821229820Y-162358333D02*
X821182201Y-162263095D01*
X821182201Y-162263095D02*
X821134581Y-162215476D01*
X820563153Y-163691666D02*
X821229820Y-163691666D01*
X820182201Y-163453571D02*
X820896486Y-163215476D01*
X820896486Y-163215476D02*
X820896486Y-163834523D01*
X710729820Y-178310714D02*
X709729820Y-178310714D01*
X709729820Y-178310714D02*
X709729820Y-178548809D01*
X709729820Y-178548809D02*
X709777439Y-178691666D01*
X709777439Y-178691666D02*
X709872677Y-178786904D01*
X709872677Y-178786904D02*
X709967915Y-178834523D01*
X709967915Y-178834523D02*
X710158391Y-178882142D01*
X710158391Y-178882142D02*
X710301248Y-178882142D01*
X710301248Y-178882142D02*
X710491724Y-178834523D01*
X710491724Y-178834523D02*
X710586962Y-178786904D01*
X710586962Y-178786904D02*
X710682201Y-178691666D01*
X710682201Y-178691666D02*
X710729820Y-178548809D01*
X710729820Y-178548809D02*
X710729820Y-178310714D01*
X710063153Y-179739285D02*
X710729820Y-179739285D01*
X709682201Y-179501190D02*
X710396486Y-179263095D01*
X710396486Y-179263095D02*
X710396486Y-179882142D01*
X709729820Y-180739285D02*
X709729820Y-180263095D01*
X709729820Y-180263095D02*
X710206010Y-180215476D01*
X710206010Y-180215476D02*
X710158391Y-180263095D01*
X710158391Y-180263095D02*
X710110772Y-180358333D01*
X710110772Y-180358333D02*
X710110772Y-180596428D01*
X710110772Y-180596428D02*
X710158391Y-180691666D01*
X710158391Y-180691666D02*
X710206010Y-180739285D01*
X710206010Y-180739285D02*
X710301248Y-180786904D01*
X710301248Y-180786904D02*
X710539343Y-180786904D01*
X710539343Y-180786904D02*
X710634581Y-180739285D01*
X710634581Y-180739285D02*
X710682201Y-180691666D01*
X710682201Y-180691666D02*
X710729820Y-180596428D01*
X710729820Y-180596428D02*
X710729820Y-180358333D01*
X710729820Y-180358333D02*
X710682201Y-180263095D01*
X710682201Y-180263095D02*
X710634581Y-180215476D01*
X534354820Y-178310714D02*
X533354820Y-178310714D01*
X533354820Y-178310714D02*
X533354820Y-178548809D01*
X533354820Y-178548809D02*
X533402439Y-178691666D01*
X533402439Y-178691666D02*
X533497677Y-178786904D01*
X533497677Y-178786904D02*
X533592915Y-178834523D01*
X533592915Y-178834523D02*
X533783391Y-178882142D01*
X533783391Y-178882142D02*
X533926248Y-178882142D01*
X533926248Y-178882142D02*
X534116724Y-178834523D01*
X534116724Y-178834523D02*
X534211962Y-178786904D01*
X534211962Y-178786904D02*
X534307201Y-178691666D01*
X534307201Y-178691666D02*
X534354820Y-178548809D01*
X534354820Y-178548809D02*
X534354820Y-178310714D01*
X533354820Y-179215476D02*
X533354820Y-179834523D01*
X533354820Y-179834523D02*
X533735772Y-179501190D01*
X533735772Y-179501190D02*
X533735772Y-179644047D01*
X533735772Y-179644047D02*
X533783391Y-179739285D01*
X533783391Y-179739285D02*
X533831010Y-179786904D01*
X533831010Y-179786904D02*
X533926248Y-179834523D01*
X533926248Y-179834523D02*
X534164343Y-179834523D01*
X534164343Y-179834523D02*
X534259581Y-179786904D01*
X534259581Y-179786904D02*
X534307201Y-179739285D01*
X534307201Y-179739285D02*
X534354820Y-179644047D01*
X534354820Y-179644047D02*
X534354820Y-179358333D01*
X534354820Y-179358333D02*
X534307201Y-179263095D01*
X534307201Y-179263095D02*
X534259581Y-179215476D01*
X533354820Y-180739285D02*
X533354820Y-180263095D01*
X533354820Y-180263095D02*
X533831010Y-180215476D01*
X533831010Y-180215476D02*
X533783391Y-180263095D01*
X533783391Y-180263095D02*
X533735772Y-180358333D01*
X533735772Y-180358333D02*
X533735772Y-180596428D01*
X533735772Y-180596428D02*
X533783391Y-180691666D01*
X533783391Y-180691666D02*
X533831010Y-180739285D01*
X533831010Y-180739285D02*
X533926248Y-180786904D01*
X533926248Y-180786904D02*
X534164343Y-180786904D01*
X534164343Y-180786904D02*
X534259581Y-180739285D01*
X534259581Y-180739285D02*
X534307201Y-180691666D01*
X534307201Y-180691666D02*
X534354820Y-180596428D01*
X534354820Y-180596428D02*
X534354820Y-180358333D01*
X534354820Y-180358333D02*
X534307201Y-180263095D01*
X534307201Y-180263095D02*
X534259581Y-180215476D01*
X634229820Y-195310714D02*
X633229820Y-195310714D01*
X633229820Y-195310714D02*
X633229820Y-195548809D01*
X633229820Y-195548809D02*
X633277439Y-195691666D01*
X633277439Y-195691666D02*
X633372677Y-195786904D01*
X633372677Y-195786904D02*
X633467915Y-195834523D01*
X633467915Y-195834523D02*
X633658391Y-195882142D01*
X633658391Y-195882142D02*
X633801248Y-195882142D01*
X633801248Y-195882142D02*
X633991724Y-195834523D01*
X633991724Y-195834523D02*
X634086962Y-195786904D01*
X634086962Y-195786904D02*
X634182201Y-195691666D01*
X634182201Y-195691666D02*
X634229820Y-195548809D01*
X634229820Y-195548809D02*
X634229820Y-195310714D01*
X633229820Y-196786904D02*
X633229820Y-196310714D01*
X633229820Y-196310714D02*
X633706010Y-196263095D01*
X633706010Y-196263095D02*
X633658391Y-196310714D01*
X633658391Y-196310714D02*
X633610772Y-196405952D01*
X633610772Y-196405952D02*
X633610772Y-196644047D01*
X633610772Y-196644047D02*
X633658391Y-196739285D01*
X633658391Y-196739285D02*
X633706010Y-196786904D01*
X633706010Y-196786904D02*
X633801248Y-196834523D01*
X633801248Y-196834523D02*
X634039343Y-196834523D01*
X634039343Y-196834523D02*
X634134581Y-196786904D01*
X634134581Y-196786904D02*
X634182201Y-196739285D01*
X634182201Y-196739285D02*
X634229820Y-196644047D01*
X634229820Y-196644047D02*
X634229820Y-196405952D01*
X634229820Y-196405952D02*
X634182201Y-196310714D01*
X634182201Y-196310714D02*
X634134581Y-196263095D01*
X633229820Y-197167857D02*
X633229820Y-197786904D01*
X633229820Y-197786904D02*
X633610772Y-197453571D01*
X633610772Y-197453571D02*
X633610772Y-197596428D01*
X633610772Y-197596428D02*
X633658391Y-197691666D01*
X633658391Y-197691666D02*
X633706010Y-197739285D01*
X633706010Y-197739285D02*
X633801248Y-197786904D01*
X633801248Y-197786904D02*
X634039343Y-197786904D01*
X634039343Y-197786904D02*
X634134581Y-197739285D01*
X634134581Y-197739285D02*
X634182201Y-197691666D01*
X634182201Y-197691666D02*
X634229820Y-197596428D01*
X634229820Y-197596428D02*
X634229820Y-197310714D01*
X634229820Y-197310714D02*
X634182201Y-197215476D01*
X634182201Y-197215476D02*
X634134581Y-197167857D01*
X676729820Y-178310714D02*
X675729820Y-178310714D01*
X675729820Y-178310714D02*
X675729820Y-178548809D01*
X675729820Y-178548809D02*
X675777439Y-178691666D01*
X675777439Y-178691666D02*
X675872677Y-178786904D01*
X675872677Y-178786904D02*
X675967915Y-178834523D01*
X675967915Y-178834523D02*
X676158391Y-178882142D01*
X676158391Y-178882142D02*
X676301248Y-178882142D01*
X676301248Y-178882142D02*
X676491724Y-178834523D01*
X676491724Y-178834523D02*
X676586962Y-178786904D01*
X676586962Y-178786904D02*
X676682201Y-178691666D01*
X676682201Y-178691666D02*
X676729820Y-178548809D01*
X676729820Y-178548809D02*
X676729820Y-178310714D01*
X676063153Y-179739285D02*
X676729820Y-179739285D01*
X675682201Y-179501190D02*
X676396486Y-179263095D01*
X676396486Y-179263095D02*
X676396486Y-179882142D01*
X675729820Y-180167857D02*
X675729820Y-180786904D01*
X675729820Y-180786904D02*
X676110772Y-180453571D01*
X676110772Y-180453571D02*
X676110772Y-180596428D01*
X676110772Y-180596428D02*
X676158391Y-180691666D01*
X676158391Y-180691666D02*
X676206010Y-180739285D01*
X676206010Y-180739285D02*
X676301248Y-180786904D01*
X676301248Y-180786904D02*
X676539343Y-180786904D01*
X676539343Y-180786904D02*
X676634581Y-180739285D01*
X676634581Y-180739285D02*
X676682201Y-180691666D01*
X676682201Y-180691666D02*
X676729820Y-180596428D01*
X676729820Y-180596428D02*
X676729820Y-180310714D01*
X676729820Y-180310714D02*
X676682201Y-180215476D01*
X676682201Y-180215476D02*
X676634581Y-180167857D01*
X787229820Y-212310714D02*
X786229820Y-212310714D01*
X786229820Y-212310714D02*
X786229820Y-212548809D01*
X786229820Y-212548809D02*
X786277439Y-212691666D01*
X786277439Y-212691666D02*
X786372677Y-212786904D01*
X786372677Y-212786904D02*
X786467915Y-212834523D01*
X786467915Y-212834523D02*
X786658391Y-212882142D01*
X786658391Y-212882142D02*
X786801248Y-212882142D01*
X786801248Y-212882142D02*
X786991724Y-212834523D01*
X786991724Y-212834523D02*
X787086962Y-212786904D01*
X787086962Y-212786904D02*
X787182201Y-212691666D01*
X787182201Y-212691666D02*
X787229820Y-212548809D01*
X787229820Y-212548809D02*
X787229820Y-212310714D01*
X786229820Y-213215476D02*
X786229820Y-213882142D01*
X786229820Y-213882142D02*
X787229820Y-213453571D01*
X786325058Y-214215476D02*
X786277439Y-214263095D01*
X786277439Y-214263095D02*
X786229820Y-214358333D01*
X786229820Y-214358333D02*
X786229820Y-214596428D01*
X786229820Y-214596428D02*
X786277439Y-214691666D01*
X786277439Y-214691666D02*
X786325058Y-214739285D01*
X786325058Y-214739285D02*
X786420296Y-214786904D01*
X786420296Y-214786904D02*
X786515534Y-214786904D01*
X786515534Y-214786904D02*
X786658391Y-214739285D01*
X786658391Y-214739285D02*
X787229820Y-214167857D01*
X787229820Y-214167857D02*
X787229820Y-214786904D01*
X757479820Y-144310714D02*
X756479820Y-144310714D01*
X756479820Y-144310714D02*
X756479820Y-144548809D01*
X756479820Y-144548809D02*
X756527439Y-144691666D01*
X756527439Y-144691666D02*
X756622677Y-144786904D01*
X756622677Y-144786904D02*
X756717915Y-144834523D01*
X756717915Y-144834523D02*
X756908391Y-144882142D01*
X756908391Y-144882142D02*
X757051248Y-144882142D01*
X757051248Y-144882142D02*
X757241724Y-144834523D01*
X757241724Y-144834523D02*
X757336962Y-144786904D01*
X757336962Y-144786904D02*
X757432201Y-144691666D01*
X757432201Y-144691666D02*
X757479820Y-144548809D01*
X757479820Y-144548809D02*
X757479820Y-144310714D01*
X757479820Y-145834523D02*
X757479820Y-145263095D01*
X757479820Y-145548809D02*
X756479820Y-145548809D01*
X756479820Y-145548809D02*
X756622677Y-145453571D01*
X756622677Y-145453571D02*
X756717915Y-145358333D01*
X756717915Y-145358333D02*
X756765534Y-145263095D01*
X756813153Y-146691666D02*
X757479820Y-146691666D01*
X756432201Y-146453571D02*
X757146486Y-146215476D01*
X757146486Y-146215476D02*
X757146486Y-146834523D01*
X693729820Y-178310714D02*
X692729820Y-178310714D01*
X692729820Y-178310714D02*
X692729820Y-178548809D01*
X692729820Y-178548809D02*
X692777439Y-178691666D01*
X692777439Y-178691666D02*
X692872677Y-178786904D01*
X692872677Y-178786904D02*
X692967915Y-178834523D01*
X692967915Y-178834523D02*
X693158391Y-178882142D01*
X693158391Y-178882142D02*
X693301248Y-178882142D01*
X693301248Y-178882142D02*
X693491724Y-178834523D01*
X693491724Y-178834523D02*
X693586962Y-178786904D01*
X693586962Y-178786904D02*
X693682201Y-178691666D01*
X693682201Y-178691666D02*
X693729820Y-178548809D01*
X693729820Y-178548809D02*
X693729820Y-178310714D01*
X693063153Y-179739285D02*
X693729820Y-179739285D01*
X692682201Y-179501190D02*
X693396486Y-179263095D01*
X693396486Y-179263095D02*
X693396486Y-179882142D01*
X693063153Y-180691666D02*
X693729820Y-180691666D01*
X692682201Y-180453571D02*
X693396486Y-180215476D01*
X693396486Y-180215476D02*
X693396486Y-180834523D01*
X714979820Y-144310714D02*
X713979820Y-144310714D01*
X713979820Y-144310714D02*
X713979820Y-144548809D01*
X713979820Y-144548809D02*
X714027439Y-144691666D01*
X714027439Y-144691666D02*
X714122677Y-144786904D01*
X714122677Y-144786904D02*
X714217915Y-144834523D01*
X714217915Y-144834523D02*
X714408391Y-144882142D01*
X714408391Y-144882142D02*
X714551248Y-144882142D01*
X714551248Y-144882142D02*
X714741724Y-144834523D01*
X714741724Y-144834523D02*
X714836962Y-144786904D01*
X714836962Y-144786904D02*
X714932201Y-144691666D01*
X714932201Y-144691666D02*
X714979820Y-144548809D01*
X714979820Y-144548809D02*
X714979820Y-144310714D01*
X714979820Y-145834523D02*
X714979820Y-145263095D01*
X714979820Y-145548809D02*
X713979820Y-145548809D01*
X713979820Y-145548809D02*
X714122677Y-145453571D01*
X714122677Y-145453571D02*
X714217915Y-145358333D01*
X714217915Y-145358333D02*
X714265534Y-145263095D01*
X714075058Y-146215476D02*
X714027439Y-146263095D01*
X714027439Y-146263095D02*
X713979820Y-146358333D01*
X713979820Y-146358333D02*
X713979820Y-146596428D01*
X713979820Y-146596428D02*
X714027439Y-146691666D01*
X714027439Y-146691666D02*
X714075058Y-146739285D01*
X714075058Y-146739285D02*
X714170296Y-146786904D01*
X714170296Y-146786904D02*
X714265534Y-146786904D01*
X714265534Y-146786904D02*
X714408391Y-146739285D01*
X714408391Y-146739285D02*
X714979820Y-146167857D01*
X714979820Y-146167857D02*
X714979820Y-146786904D01*
X804229820Y-161310714D02*
X803229820Y-161310714D01*
X803229820Y-161310714D02*
X803229820Y-161548809D01*
X803229820Y-161548809D02*
X803277439Y-161691666D01*
X803277439Y-161691666D02*
X803372677Y-161786904D01*
X803372677Y-161786904D02*
X803467915Y-161834523D01*
X803467915Y-161834523D02*
X803658391Y-161882142D01*
X803658391Y-161882142D02*
X803801248Y-161882142D01*
X803801248Y-161882142D02*
X803991724Y-161834523D01*
X803991724Y-161834523D02*
X804086962Y-161786904D01*
X804086962Y-161786904D02*
X804182201Y-161691666D01*
X804182201Y-161691666D02*
X804229820Y-161548809D01*
X804229820Y-161548809D02*
X804229820Y-161310714D01*
X803229820Y-162215476D02*
X803229820Y-162834523D01*
X803229820Y-162834523D02*
X803610772Y-162501190D01*
X803610772Y-162501190D02*
X803610772Y-162644047D01*
X803610772Y-162644047D02*
X803658391Y-162739285D01*
X803658391Y-162739285D02*
X803706010Y-162786904D01*
X803706010Y-162786904D02*
X803801248Y-162834523D01*
X803801248Y-162834523D02*
X804039343Y-162834523D01*
X804039343Y-162834523D02*
X804134581Y-162786904D01*
X804134581Y-162786904D02*
X804182201Y-162739285D01*
X804182201Y-162739285D02*
X804229820Y-162644047D01*
X804229820Y-162644047D02*
X804229820Y-162358333D01*
X804229820Y-162358333D02*
X804182201Y-162263095D01*
X804182201Y-162263095D02*
X804134581Y-162215476D01*
X803229820Y-163167857D02*
X803229820Y-163786904D01*
X803229820Y-163786904D02*
X803610772Y-163453571D01*
X803610772Y-163453571D02*
X803610772Y-163596428D01*
X803610772Y-163596428D02*
X803658391Y-163691666D01*
X803658391Y-163691666D02*
X803706010Y-163739285D01*
X803706010Y-163739285D02*
X803801248Y-163786904D01*
X803801248Y-163786904D02*
X804039343Y-163786904D01*
X804039343Y-163786904D02*
X804134581Y-163739285D01*
X804134581Y-163739285D02*
X804182201Y-163691666D01*
X804182201Y-163691666D02*
X804229820Y-163596428D01*
X804229820Y-163596428D02*
X804229820Y-163310714D01*
X804229820Y-163310714D02*
X804182201Y-163215476D01*
X804182201Y-163215476D02*
X804134581Y-163167857D01*
X648129820Y-195310714D02*
X647129820Y-195310714D01*
X647129820Y-195310714D02*
X647129820Y-195548809D01*
X647129820Y-195548809D02*
X647177439Y-195691666D01*
X647177439Y-195691666D02*
X647272677Y-195786904D01*
X647272677Y-195786904D02*
X647367915Y-195834523D01*
X647367915Y-195834523D02*
X647558391Y-195882142D01*
X647558391Y-195882142D02*
X647701248Y-195882142D01*
X647701248Y-195882142D02*
X647891724Y-195834523D01*
X647891724Y-195834523D02*
X647986962Y-195786904D01*
X647986962Y-195786904D02*
X648082201Y-195691666D01*
X648082201Y-195691666D02*
X648129820Y-195548809D01*
X648129820Y-195548809D02*
X648129820Y-195310714D01*
X647129820Y-196786904D02*
X647129820Y-196310714D01*
X647129820Y-196310714D02*
X647606010Y-196263095D01*
X647606010Y-196263095D02*
X647558391Y-196310714D01*
X647558391Y-196310714D02*
X647510772Y-196405952D01*
X647510772Y-196405952D02*
X647510772Y-196644047D01*
X647510772Y-196644047D02*
X647558391Y-196739285D01*
X647558391Y-196739285D02*
X647606010Y-196786904D01*
X647606010Y-196786904D02*
X647701248Y-196834523D01*
X647701248Y-196834523D02*
X647939343Y-196834523D01*
X647939343Y-196834523D02*
X648034581Y-196786904D01*
X648034581Y-196786904D02*
X648082201Y-196739285D01*
X648082201Y-196739285D02*
X648129820Y-196644047D01*
X648129820Y-196644047D02*
X648129820Y-196405952D01*
X648129820Y-196405952D02*
X648082201Y-196310714D01*
X648082201Y-196310714D02*
X648034581Y-196263095D01*
X647463153Y-197691666D02*
X648129820Y-197691666D01*
X647082201Y-197453571D02*
X647796486Y-197215476D01*
X647796486Y-197215476D02*
X647796486Y-197834523D01*
X538604820Y-195310714D02*
X537604820Y-195310714D01*
X537604820Y-195310714D02*
X537604820Y-195548809D01*
X537604820Y-195548809D02*
X537652439Y-195691666D01*
X537652439Y-195691666D02*
X537747677Y-195786904D01*
X537747677Y-195786904D02*
X537842915Y-195834523D01*
X537842915Y-195834523D02*
X538033391Y-195882142D01*
X538033391Y-195882142D02*
X538176248Y-195882142D01*
X538176248Y-195882142D02*
X538366724Y-195834523D01*
X538366724Y-195834523D02*
X538461962Y-195786904D01*
X538461962Y-195786904D02*
X538557201Y-195691666D01*
X538557201Y-195691666D02*
X538604820Y-195548809D01*
X538604820Y-195548809D02*
X538604820Y-195310714D01*
X537938153Y-196739285D02*
X538604820Y-196739285D01*
X537557201Y-196501190D02*
X538271486Y-196263095D01*
X538271486Y-196263095D02*
X538271486Y-196882142D01*
X538033391Y-197405952D02*
X537985772Y-197310714D01*
X537985772Y-197310714D02*
X537938153Y-197263095D01*
X537938153Y-197263095D02*
X537842915Y-197215476D01*
X537842915Y-197215476D02*
X537795296Y-197215476D01*
X537795296Y-197215476D02*
X537700058Y-197263095D01*
X537700058Y-197263095D02*
X537652439Y-197310714D01*
X537652439Y-197310714D02*
X537604820Y-197405952D01*
X537604820Y-197405952D02*
X537604820Y-197596428D01*
X537604820Y-197596428D02*
X537652439Y-197691666D01*
X537652439Y-197691666D02*
X537700058Y-197739285D01*
X537700058Y-197739285D02*
X537795296Y-197786904D01*
X537795296Y-197786904D02*
X537842915Y-197786904D01*
X537842915Y-197786904D02*
X537938153Y-197739285D01*
X537938153Y-197739285D02*
X537985772Y-197691666D01*
X537985772Y-197691666D02*
X538033391Y-197596428D01*
X538033391Y-197596428D02*
X538033391Y-197405952D01*
X538033391Y-197405952D02*
X538081010Y-197310714D01*
X538081010Y-197310714D02*
X538128629Y-197263095D01*
X538128629Y-197263095D02*
X538223867Y-197215476D01*
X538223867Y-197215476D02*
X538414343Y-197215476D01*
X538414343Y-197215476D02*
X538509581Y-197263095D01*
X538509581Y-197263095D02*
X538557201Y-197310714D01*
X538557201Y-197310714D02*
X538604820Y-197405952D01*
X538604820Y-197405952D02*
X538604820Y-197596428D01*
X538604820Y-197596428D02*
X538557201Y-197691666D01*
X538557201Y-197691666D02*
X538509581Y-197739285D01*
X538509581Y-197739285D02*
X538414343Y-197786904D01*
X538414343Y-197786904D02*
X538223867Y-197786904D01*
X538223867Y-197786904D02*
X538128629Y-197739285D01*
X538128629Y-197739285D02*
X538081010Y-197691666D01*
X538081010Y-197691666D02*
X538033391Y-197596428D01*
X787229820Y-161310714D02*
X786229820Y-161310714D01*
X786229820Y-161310714D02*
X786229820Y-161548809D01*
X786229820Y-161548809D02*
X786277439Y-161691666D01*
X786277439Y-161691666D02*
X786372677Y-161786904D01*
X786372677Y-161786904D02*
X786467915Y-161834523D01*
X786467915Y-161834523D02*
X786658391Y-161882142D01*
X786658391Y-161882142D02*
X786801248Y-161882142D01*
X786801248Y-161882142D02*
X786991724Y-161834523D01*
X786991724Y-161834523D02*
X787086962Y-161786904D01*
X787086962Y-161786904D02*
X787182201Y-161691666D01*
X787182201Y-161691666D02*
X787229820Y-161548809D01*
X787229820Y-161548809D02*
X787229820Y-161310714D01*
X786229820Y-162215476D02*
X786229820Y-162834523D01*
X786229820Y-162834523D02*
X786610772Y-162501190D01*
X786610772Y-162501190D02*
X786610772Y-162644047D01*
X786610772Y-162644047D02*
X786658391Y-162739285D01*
X786658391Y-162739285D02*
X786706010Y-162786904D01*
X786706010Y-162786904D02*
X786801248Y-162834523D01*
X786801248Y-162834523D02*
X787039343Y-162834523D01*
X787039343Y-162834523D02*
X787134581Y-162786904D01*
X787134581Y-162786904D02*
X787182201Y-162739285D01*
X787182201Y-162739285D02*
X787229820Y-162644047D01*
X787229820Y-162644047D02*
X787229820Y-162358333D01*
X787229820Y-162358333D02*
X787182201Y-162263095D01*
X787182201Y-162263095D02*
X787134581Y-162215476D01*
X786325058Y-163215476D02*
X786277439Y-163263095D01*
X786277439Y-163263095D02*
X786229820Y-163358333D01*
X786229820Y-163358333D02*
X786229820Y-163596428D01*
X786229820Y-163596428D02*
X786277439Y-163691666D01*
X786277439Y-163691666D02*
X786325058Y-163739285D01*
X786325058Y-163739285D02*
X786420296Y-163786904D01*
X786420296Y-163786904D02*
X786515534Y-163786904D01*
X786515534Y-163786904D02*
X786658391Y-163739285D01*
X786658391Y-163739285D02*
X787229820Y-163167857D01*
X787229820Y-163167857D02*
X787229820Y-163786904D01*
X719229820Y-195310714D02*
X718229820Y-195310714D01*
X718229820Y-195310714D02*
X718229820Y-195548809D01*
X718229820Y-195548809D02*
X718277439Y-195691666D01*
X718277439Y-195691666D02*
X718372677Y-195786904D01*
X718372677Y-195786904D02*
X718467915Y-195834523D01*
X718467915Y-195834523D02*
X718658391Y-195882142D01*
X718658391Y-195882142D02*
X718801248Y-195882142D01*
X718801248Y-195882142D02*
X718991724Y-195834523D01*
X718991724Y-195834523D02*
X719086962Y-195786904D01*
X719086962Y-195786904D02*
X719182201Y-195691666D01*
X719182201Y-195691666D02*
X719229820Y-195548809D01*
X719229820Y-195548809D02*
X719229820Y-195310714D01*
X718229820Y-196786904D02*
X718229820Y-196310714D01*
X718229820Y-196310714D02*
X718706010Y-196263095D01*
X718706010Y-196263095D02*
X718658391Y-196310714D01*
X718658391Y-196310714D02*
X718610772Y-196405952D01*
X718610772Y-196405952D02*
X718610772Y-196644047D01*
X718610772Y-196644047D02*
X718658391Y-196739285D01*
X718658391Y-196739285D02*
X718706010Y-196786904D01*
X718706010Y-196786904D02*
X718801248Y-196834523D01*
X718801248Y-196834523D02*
X719039343Y-196834523D01*
X719039343Y-196834523D02*
X719134581Y-196786904D01*
X719134581Y-196786904D02*
X719182201Y-196739285D01*
X719182201Y-196739285D02*
X719229820Y-196644047D01*
X719229820Y-196644047D02*
X719229820Y-196405952D01*
X719229820Y-196405952D02*
X719182201Y-196310714D01*
X719182201Y-196310714D02*
X719134581Y-196263095D01*
X718658391Y-197405952D02*
X718610772Y-197310714D01*
X718610772Y-197310714D02*
X718563153Y-197263095D01*
X718563153Y-197263095D02*
X718467915Y-197215476D01*
X718467915Y-197215476D02*
X718420296Y-197215476D01*
X718420296Y-197215476D02*
X718325058Y-197263095D01*
X718325058Y-197263095D02*
X718277439Y-197310714D01*
X718277439Y-197310714D02*
X718229820Y-197405952D01*
X718229820Y-197405952D02*
X718229820Y-197596428D01*
X718229820Y-197596428D02*
X718277439Y-197691666D01*
X718277439Y-197691666D02*
X718325058Y-197739285D01*
X718325058Y-197739285D02*
X718420296Y-197786904D01*
X718420296Y-197786904D02*
X718467915Y-197786904D01*
X718467915Y-197786904D02*
X718563153Y-197739285D01*
X718563153Y-197739285D02*
X718610772Y-197691666D01*
X718610772Y-197691666D02*
X718658391Y-197596428D01*
X718658391Y-197596428D02*
X718658391Y-197405952D01*
X718658391Y-197405952D02*
X718706010Y-197310714D01*
X718706010Y-197310714D02*
X718753629Y-197263095D01*
X718753629Y-197263095D02*
X718848867Y-197215476D01*
X718848867Y-197215476D02*
X719039343Y-197215476D01*
X719039343Y-197215476D02*
X719134581Y-197263095D01*
X719134581Y-197263095D02*
X719182201Y-197310714D01*
X719182201Y-197310714D02*
X719229820Y-197405952D01*
X719229820Y-197405952D02*
X719229820Y-197596428D01*
X719229820Y-197596428D02*
X719182201Y-197691666D01*
X719182201Y-197691666D02*
X719134581Y-197739285D01*
X719134581Y-197739285D02*
X719039343Y-197786904D01*
X719039343Y-197786904D02*
X718848867Y-197786904D01*
X718848867Y-197786904D02*
X718753629Y-197739285D01*
X718753629Y-197739285D02*
X718706010Y-197691666D01*
X718706010Y-197691666D02*
X718658391Y-197596428D01*
X557729820Y-178310714D02*
X556729820Y-178310714D01*
X556729820Y-178310714D02*
X556729820Y-178548809D01*
X556729820Y-178548809D02*
X556777439Y-178691666D01*
X556777439Y-178691666D02*
X556872677Y-178786904D01*
X556872677Y-178786904D02*
X556967915Y-178834523D01*
X556967915Y-178834523D02*
X557158391Y-178882142D01*
X557158391Y-178882142D02*
X557301248Y-178882142D01*
X557301248Y-178882142D02*
X557491724Y-178834523D01*
X557491724Y-178834523D02*
X557586962Y-178786904D01*
X557586962Y-178786904D02*
X557682201Y-178691666D01*
X557682201Y-178691666D02*
X557729820Y-178548809D01*
X557729820Y-178548809D02*
X557729820Y-178310714D01*
X556729820Y-179215476D02*
X556729820Y-179834523D01*
X556729820Y-179834523D02*
X557110772Y-179501190D01*
X557110772Y-179501190D02*
X557110772Y-179644047D01*
X557110772Y-179644047D02*
X557158391Y-179739285D01*
X557158391Y-179739285D02*
X557206010Y-179786904D01*
X557206010Y-179786904D02*
X557301248Y-179834523D01*
X557301248Y-179834523D02*
X557539343Y-179834523D01*
X557539343Y-179834523D02*
X557634581Y-179786904D01*
X557634581Y-179786904D02*
X557682201Y-179739285D01*
X557682201Y-179739285D02*
X557729820Y-179644047D01*
X557729820Y-179644047D02*
X557729820Y-179358333D01*
X557729820Y-179358333D02*
X557682201Y-179263095D01*
X557682201Y-179263095D02*
X557634581Y-179215476D01*
X556729820Y-180691666D02*
X556729820Y-180501190D01*
X556729820Y-180501190D02*
X556777439Y-180405952D01*
X556777439Y-180405952D02*
X556825058Y-180358333D01*
X556825058Y-180358333D02*
X556967915Y-180263095D01*
X556967915Y-180263095D02*
X557158391Y-180215476D01*
X557158391Y-180215476D02*
X557539343Y-180215476D01*
X557539343Y-180215476D02*
X557634581Y-180263095D01*
X557634581Y-180263095D02*
X557682201Y-180310714D01*
X557682201Y-180310714D02*
X557729820Y-180405952D01*
X557729820Y-180405952D02*
X557729820Y-180596428D01*
X557729820Y-180596428D02*
X557682201Y-180691666D01*
X557682201Y-180691666D02*
X557634581Y-180739285D01*
X557634581Y-180739285D02*
X557539343Y-180786904D01*
X557539343Y-180786904D02*
X557301248Y-180786904D01*
X557301248Y-180786904D02*
X557206010Y-180739285D01*
X557206010Y-180739285D02*
X557158391Y-180691666D01*
X557158391Y-180691666D02*
X557110772Y-180596428D01*
X557110772Y-180596428D02*
X557110772Y-180405952D01*
X557110772Y-180405952D02*
X557158391Y-180310714D01*
X557158391Y-180310714D02*
X557206010Y-180263095D01*
X557206010Y-180263095D02*
X557301248Y-180215476D01*
X642729820Y-178310714D02*
X641729820Y-178310714D01*
X641729820Y-178310714D02*
X641729820Y-178548809D01*
X641729820Y-178548809D02*
X641777439Y-178691666D01*
X641777439Y-178691666D02*
X641872677Y-178786904D01*
X641872677Y-178786904D02*
X641967915Y-178834523D01*
X641967915Y-178834523D02*
X642158391Y-178882142D01*
X642158391Y-178882142D02*
X642301248Y-178882142D01*
X642301248Y-178882142D02*
X642491724Y-178834523D01*
X642491724Y-178834523D02*
X642586962Y-178786904D01*
X642586962Y-178786904D02*
X642682201Y-178691666D01*
X642682201Y-178691666D02*
X642729820Y-178548809D01*
X642729820Y-178548809D02*
X642729820Y-178310714D01*
X642063153Y-179739285D02*
X642729820Y-179739285D01*
X641682201Y-179501190D02*
X642396486Y-179263095D01*
X642396486Y-179263095D02*
X642396486Y-179882142D01*
X642729820Y-180786904D02*
X642729820Y-180215476D01*
X642729820Y-180501190D02*
X641729820Y-180501190D01*
X641729820Y-180501190D02*
X641872677Y-180405952D01*
X641872677Y-180405952D02*
X641967915Y-180310714D01*
X641967915Y-180310714D02*
X642015534Y-180215476D01*
X600229820Y-195310714D02*
X599229820Y-195310714D01*
X599229820Y-195310714D02*
X599229820Y-195548809D01*
X599229820Y-195548809D02*
X599277439Y-195691666D01*
X599277439Y-195691666D02*
X599372677Y-195786904D01*
X599372677Y-195786904D02*
X599467915Y-195834523D01*
X599467915Y-195834523D02*
X599658391Y-195882142D01*
X599658391Y-195882142D02*
X599801248Y-195882142D01*
X599801248Y-195882142D02*
X599991724Y-195834523D01*
X599991724Y-195834523D02*
X600086962Y-195786904D01*
X600086962Y-195786904D02*
X600182201Y-195691666D01*
X600182201Y-195691666D02*
X600229820Y-195548809D01*
X600229820Y-195548809D02*
X600229820Y-195310714D01*
X599229820Y-196786904D02*
X599229820Y-196310714D01*
X599229820Y-196310714D02*
X599706010Y-196263095D01*
X599706010Y-196263095D02*
X599658391Y-196310714D01*
X599658391Y-196310714D02*
X599610772Y-196405952D01*
X599610772Y-196405952D02*
X599610772Y-196644047D01*
X599610772Y-196644047D02*
X599658391Y-196739285D01*
X599658391Y-196739285D02*
X599706010Y-196786904D01*
X599706010Y-196786904D02*
X599801248Y-196834523D01*
X599801248Y-196834523D02*
X600039343Y-196834523D01*
X600039343Y-196834523D02*
X600134581Y-196786904D01*
X600134581Y-196786904D02*
X600182201Y-196739285D01*
X600182201Y-196739285D02*
X600229820Y-196644047D01*
X600229820Y-196644047D02*
X600229820Y-196405952D01*
X600229820Y-196405952D02*
X600182201Y-196310714D01*
X600182201Y-196310714D02*
X600134581Y-196263095D01*
X600229820Y-197786904D02*
X600229820Y-197215476D01*
X600229820Y-197501190D02*
X599229820Y-197501190D01*
X599229820Y-197501190D02*
X599372677Y-197405952D01*
X599372677Y-197405952D02*
X599467915Y-197310714D01*
X599467915Y-197310714D02*
X599515534Y-197215476D01*
X604479820Y-161310714D02*
X603479820Y-161310714D01*
X603479820Y-161310714D02*
X603479820Y-161548809D01*
X603479820Y-161548809D02*
X603527439Y-161691666D01*
X603527439Y-161691666D02*
X603622677Y-161786904D01*
X603622677Y-161786904D02*
X603717915Y-161834523D01*
X603717915Y-161834523D02*
X603908391Y-161882142D01*
X603908391Y-161882142D02*
X604051248Y-161882142D01*
X604051248Y-161882142D02*
X604241724Y-161834523D01*
X604241724Y-161834523D02*
X604336962Y-161786904D01*
X604336962Y-161786904D02*
X604432201Y-161691666D01*
X604432201Y-161691666D02*
X604479820Y-161548809D01*
X604479820Y-161548809D02*
X604479820Y-161310714D01*
X603575058Y-162263095D02*
X603527439Y-162310714D01*
X603527439Y-162310714D02*
X603479820Y-162405952D01*
X603479820Y-162405952D02*
X603479820Y-162644047D01*
X603479820Y-162644047D02*
X603527439Y-162739285D01*
X603527439Y-162739285D02*
X603575058Y-162786904D01*
X603575058Y-162786904D02*
X603670296Y-162834523D01*
X603670296Y-162834523D02*
X603765534Y-162834523D01*
X603765534Y-162834523D02*
X603908391Y-162786904D01*
X603908391Y-162786904D02*
X604479820Y-162215476D01*
X604479820Y-162215476D02*
X604479820Y-162834523D01*
X603575058Y-163215476D02*
X603527439Y-163263095D01*
X603527439Y-163263095D02*
X603479820Y-163358333D01*
X603479820Y-163358333D02*
X603479820Y-163596428D01*
X603479820Y-163596428D02*
X603527439Y-163691666D01*
X603527439Y-163691666D02*
X603575058Y-163739285D01*
X603575058Y-163739285D02*
X603670296Y-163786904D01*
X603670296Y-163786904D02*
X603765534Y-163786904D01*
X603765534Y-163786904D02*
X603908391Y-163739285D01*
X603908391Y-163739285D02*
X604479820Y-163167857D01*
X604479820Y-163167857D02*
X604479820Y-163786904D01*
X561979820Y-144786905D02*
X560979820Y-144786905D01*
X560979820Y-144786905D02*
X560979820Y-145025000D01*
X560979820Y-145025000D02*
X561027439Y-145167857D01*
X561027439Y-145167857D02*
X561122677Y-145263095D01*
X561122677Y-145263095D02*
X561217915Y-145310714D01*
X561217915Y-145310714D02*
X561408391Y-145358333D01*
X561408391Y-145358333D02*
X561551248Y-145358333D01*
X561551248Y-145358333D02*
X561741724Y-145310714D01*
X561741724Y-145310714D02*
X561836962Y-145263095D01*
X561836962Y-145263095D02*
X561932201Y-145167857D01*
X561932201Y-145167857D02*
X561979820Y-145025000D01*
X561979820Y-145025000D02*
X561979820Y-144786905D01*
X560979820Y-145691667D02*
X560979820Y-146310714D01*
X560979820Y-146310714D02*
X561360772Y-145977381D01*
X561360772Y-145977381D02*
X561360772Y-146120238D01*
X561360772Y-146120238D02*
X561408391Y-146215476D01*
X561408391Y-146215476D02*
X561456010Y-146263095D01*
X561456010Y-146263095D02*
X561551248Y-146310714D01*
X561551248Y-146310714D02*
X561789343Y-146310714D01*
X561789343Y-146310714D02*
X561884581Y-146263095D01*
X561884581Y-146263095D02*
X561932201Y-146215476D01*
X561932201Y-146215476D02*
X561979820Y-146120238D01*
X561979820Y-146120238D02*
X561979820Y-145834524D01*
X561979820Y-145834524D02*
X561932201Y-145739286D01*
X561932201Y-145739286D02*
X561884581Y-145691667D01*
X727729820Y-178310714D02*
X726729820Y-178310714D01*
X726729820Y-178310714D02*
X726729820Y-178548809D01*
X726729820Y-178548809D02*
X726777439Y-178691666D01*
X726777439Y-178691666D02*
X726872677Y-178786904D01*
X726872677Y-178786904D02*
X726967915Y-178834523D01*
X726967915Y-178834523D02*
X727158391Y-178882142D01*
X727158391Y-178882142D02*
X727301248Y-178882142D01*
X727301248Y-178882142D02*
X727491724Y-178834523D01*
X727491724Y-178834523D02*
X727586962Y-178786904D01*
X727586962Y-178786904D02*
X727682201Y-178691666D01*
X727682201Y-178691666D02*
X727729820Y-178548809D01*
X727729820Y-178548809D02*
X727729820Y-178310714D01*
X727063153Y-179739285D02*
X727729820Y-179739285D01*
X726682201Y-179501190D02*
X727396486Y-179263095D01*
X727396486Y-179263095D02*
X727396486Y-179882142D01*
X726729820Y-180691666D02*
X726729820Y-180501190D01*
X726729820Y-180501190D02*
X726777439Y-180405952D01*
X726777439Y-180405952D02*
X726825058Y-180358333D01*
X726825058Y-180358333D02*
X726967915Y-180263095D01*
X726967915Y-180263095D02*
X727158391Y-180215476D01*
X727158391Y-180215476D02*
X727539343Y-180215476D01*
X727539343Y-180215476D02*
X727634581Y-180263095D01*
X727634581Y-180263095D02*
X727682201Y-180310714D01*
X727682201Y-180310714D02*
X727729820Y-180405952D01*
X727729820Y-180405952D02*
X727729820Y-180596428D01*
X727729820Y-180596428D02*
X727682201Y-180691666D01*
X727682201Y-180691666D02*
X727634581Y-180739285D01*
X727634581Y-180739285D02*
X727539343Y-180786904D01*
X727539343Y-180786904D02*
X727301248Y-180786904D01*
X727301248Y-180786904D02*
X727206010Y-180739285D01*
X727206010Y-180739285D02*
X727158391Y-180691666D01*
X727158391Y-180691666D02*
X727110772Y-180596428D01*
X727110772Y-180596428D02*
X727110772Y-180405952D01*
X727110772Y-180405952D02*
X727158391Y-180310714D01*
X727158391Y-180310714D02*
X727206010Y-180263095D01*
X727206010Y-180263095D02*
X727301248Y-180215476D01*
X625729820Y-178310714D02*
X624729820Y-178310714D01*
X624729820Y-178310714D02*
X624729820Y-178548809D01*
X624729820Y-178548809D02*
X624777439Y-178691666D01*
X624777439Y-178691666D02*
X624872677Y-178786904D01*
X624872677Y-178786904D02*
X624967915Y-178834523D01*
X624967915Y-178834523D02*
X625158391Y-178882142D01*
X625158391Y-178882142D02*
X625301248Y-178882142D01*
X625301248Y-178882142D02*
X625491724Y-178834523D01*
X625491724Y-178834523D02*
X625586962Y-178786904D01*
X625586962Y-178786904D02*
X625682201Y-178691666D01*
X625682201Y-178691666D02*
X625729820Y-178548809D01*
X625729820Y-178548809D02*
X625729820Y-178310714D01*
X625063153Y-179739285D02*
X625729820Y-179739285D01*
X624682201Y-179501190D02*
X625396486Y-179263095D01*
X625396486Y-179263095D02*
X625396486Y-179882142D01*
X624729820Y-180453571D02*
X624729820Y-180548809D01*
X624729820Y-180548809D02*
X624777439Y-180644047D01*
X624777439Y-180644047D02*
X624825058Y-180691666D01*
X624825058Y-180691666D02*
X624920296Y-180739285D01*
X624920296Y-180739285D02*
X625110772Y-180786904D01*
X625110772Y-180786904D02*
X625348867Y-180786904D01*
X625348867Y-180786904D02*
X625539343Y-180739285D01*
X625539343Y-180739285D02*
X625634581Y-180691666D01*
X625634581Y-180691666D02*
X625682201Y-180644047D01*
X625682201Y-180644047D02*
X625729820Y-180548809D01*
X625729820Y-180548809D02*
X625729820Y-180453571D01*
X625729820Y-180453571D02*
X625682201Y-180358333D01*
X625682201Y-180358333D02*
X625634581Y-180310714D01*
X625634581Y-180310714D02*
X625539343Y-180263095D01*
X625539343Y-180263095D02*
X625348867Y-180215476D01*
X625348867Y-180215476D02*
X625110772Y-180215476D01*
X625110772Y-180215476D02*
X624920296Y-180263095D01*
X624920296Y-180263095D02*
X624825058Y-180310714D01*
X624825058Y-180310714D02*
X624777439Y-180358333D01*
X624777439Y-180358333D02*
X624729820Y-180453571D01*
X685229820Y-195310714D02*
X684229820Y-195310714D01*
X684229820Y-195310714D02*
X684229820Y-195548809D01*
X684229820Y-195548809D02*
X684277439Y-195691666D01*
X684277439Y-195691666D02*
X684372677Y-195786904D01*
X684372677Y-195786904D02*
X684467915Y-195834523D01*
X684467915Y-195834523D02*
X684658391Y-195882142D01*
X684658391Y-195882142D02*
X684801248Y-195882142D01*
X684801248Y-195882142D02*
X684991724Y-195834523D01*
X684991724Y-195834523D02*
X685086962Y-195786904D01*
X685086962Y-195786904D02*
X685182201Y-195691666D01*
X685182201Y-195691666D02*
X685229820Y-195548809D01*
X685229820Y-195548809D02*
X685229820Y-195310714D01*
X684229820Y-196786904D02*
X684229820Y-196310714D01*
X684229820Y-196310714D02*
X684706010Y-196263095D01*
X684706010Y-196263095D02*
X684658391Y-196310714D01*
X684658391Y-196310714D02*
X684610772Y-196405952D01*
X684610772Y-196405952D02*
X684610772Y-196644047D01*
X684610772Y-196644047D02*
X684658391Y-196739285D01*
X684658391Y-196739285D02*
X684706010Y-196786904D01*
X684706010Y-196786904D02*
X684801248Y-196834523D01*
X684801248Y-196834523D02*
X685039343Y-196834523D01*
X685039343Y-196834523D02*
X685134581Y-196786904D01*
X685134581Y-196786904D02*
X685182201Y-196739285D01*
X685182201Y-196739285D02*
X685229820Y-196644047D01*
X685229820Y-196644047D02*
X685229820Y-196405952D01*
X685229820Y-196405952D02*
X685182201Y-196310714D01*
X685182201Y-196310714D02*
X685134581Y-196263095D01*
X684229820Y-197691666D02*
X684229820Y-197501190D01*
X684229820Y-197501190D02*
X684277439Y-197405952D01*
X684277439Y-197405952D02*
X684325058Y-197358333D01*
X684325058Y-197358333D02*
X684467915Y-197263095D01*
X684467915Y-197263095D02*
X684658391Y-197215476D01*
X684658391Y-197215476D02*
X685039343Y-197215476D01*
X685039343Y-197215476D02*
X685134581Y-197263095D01*
X685134581Y-197263095D02*
X685182201Y-197310714D01*
X685182201Y-197310714D02*
X685229820Y-197405952D01*
X685229820Y-197405952D02*
X685229820Y-197596428D01*
X685229820Y-197596428D02*
X685182201Y-197691666D01*
X685182201Y-197691666D02*
X685134581Y-197739285D01*
X685134581Y-197739285D02*
X685039343Y-197786904D01*
X685039343Y-197786904D02*
X684801248Y-197786904D01*
X684801248Y-197786904D02*
X684706010Y-197739285D01*
X684706010Y-197739285D02*
X684658391Y-197691666D01*
X684658391Y-197691666D02*
X684610772Y-197596428D01*
X684610772Y-197596428D02*
X684610772Y-197405952D01*
X684610772Y-197405952D02*
X684658391Y-197310714D01*
X684658391Y-197310714D02*
X684706010Y-197263095D01*
X684706010Y-197263095D02*
X684801248Y-197215476D01*
X804229820Y-212310714D02*
X803229820Y-212310714D01*
X803229820Y-212310714D02*
X803229820Y-212548809D01*
X803229820Y-212548809D02*
X803277439Y-212691666D01*
X803277439Y-212691666D02*
X803372677Y-212786904D01*
X803372677Y-212786904D02*
X803467915Y-212834523D01*
X803467915Y-212834523D02*
X803658391Y-212882142D01*
X803658391Y-212882142D02*
X803801248Y-212882142D01*
X803801248Y-212882142D02*
X803991724Y-212834523D01*
X803991724Y-212834523D02*
X804086962Y-212786904D01*
X804086962Y-212786904D02*
X804182201Y-212691666D01*
X804182201Y-212691666D02*
X804229820Y-212548809D01*
X804229820Y-212548809D02*
X804229820Y-212310714D01*
X803229820Y-213215476D02*
X803229820Y-213882142D01*
X803229820Y-213882142D02*
X804229820Y-213453571D01*
X803229820Y-214167857D02*
X803229820Y-214786904D01*
X803229820Y-214786904D02*
X803610772Y-214453571D01*
X803610772Y-214453571D02*
X803610772Y-214596428D01*
X803610772Y-214596428D02*
X803658391Y-214691666D01*
X803658391Y-214691666D02*
X803706010Y-214739285D01*
X803706010Y-214739285D02*
X803801248Y-214786904D01*
X803801248Y-214786904D02*
X804039343Y-214786904D01*
X804039343Y-214786904D02*
X804134581Y-214739285D01*
X804134581Y-214739285D02*
X804182201Y-214691666D01*
X804182201Y-214691666D02*
X804229820Y-214596428D01*
X804229820Y-214596428D02*
X804229820Y-214310714D01*
X804229820Y-214310714D02*
X804182201Y-214215476D01*
X804182201Y-214215476D02*
X804134581Y-214167857D01*
X655479820Y-161310714D02*
X654479820Y-161310714D01*
X654479820Y-161310714D02*
X654479820Y-161548809D01*
X654479820Y-161548809D02*
X654527439Y-161691666D01*
X654527439Y-161691666D02*
X654622677Y-161786904D01*
X654622677Y-161786904D02*
X654717915Y-161834523D01*
X654717915Y-161834523D02*
X654908391Y-161882142D01*
X654908391Y-161882142D02*
X655051248Y-161882142D01*
X655051248Y-161882142D02*
X655241724Y-161834523D01*
X655241724Y-161834523D02*
X655336962Y-161786904D01*
X655336962Y-161786904D02*
X655432201Y-161691666D01*
X655432201Y-161691666D02*
X655479820Y-161548809D01*
X655479820Y-161548809D02*
X655479820Y-161310714D01*
X654575058Y-162263095D02*
X654527439Y-162310714D01*
X654527439Y-162310714D02*
X654479820Y-162405952D01*
X654479820Y-162405952D02*
X654479820Y-162644047D01*
X654479820Y-162644047D02*
X654527439Y-162739285D01*
X654527439Y-162739285D02*
X654575058Y-162786904D01*
X654575058Y-162786904D02*
X654670296Y-162834523D01*
X654670296Y-162834523D02*
X654765534Y-162834523D01*
X654765534Y-162834523D02*
X654908391Y-162786904D01*
X654908391Y-162786904D02*
X655479820Y-162215476D01*
X655479820Y-162215476D02*
X655479820Y-162834523D01*
X654479820Y-163739285D02*
X654479820Y-163263095D01*
X654479820Y-163263095D02*
X654956010Y-163215476D01*
X654956010Y-163215476D02*
X654908391Y-163263095D01*
X654908391Y-163263095D02*
X654860772Y-163358333D01*
X654860772Y-163358333D02*
X654860772Y-163596428D01*
X654860772Y-163596428D02*
X654908391Y-163691666D01*
X654908391Y-163691666D02*
X654956010Y-163739285D01*
X654956010Y-163739285D02*
X655051248Y-163786904D01*
X655051248Y-163786904D02*
X655289343Y-163786904D01*
X655289343Y-163786904D02*
X655384581Y-163739285D01*
X655384581Y-163739285D02*
X655432201Y-163691666D01*
X655432201Y-163691666D02*
X655479820Y-163596428D01*
X655479820Y-163596428D02*
X655479820Y-163358333D01*
X655479820Y-163358333D02*
X655432201Y-163263095D01*
X655432201Y-163263095D02*
X655384581Y-163215476D01*
X595979820Y-144786905D02*
X594979820Y-144786905D01*
X594979820Y-144786905D02*
X594979820Y-145025000D01*
X594979820Y-145025000D02*
X595027439Y-145167857D01*
X595027439Y-145167857D02*
X595122677Y-145263095D01*
X595122677Y-145263095D02*
X595217915Y-145310714D01*
X595217915Y-145310714D02*
X595408391Y-145358333D01*
X595408391Y-145358333D02*
X595551248Y-145358333D01*
X595551248Y-145358333D02*
X595741724Y-145310714D01*
X595741724Y-145310714D02*
X595836962Y-145263095D01*
X595836962Y-145263095D02*
X595932201Y-145167857D01*
X595932201Y-145167857D02*
X595979820Y-145025000D01*
X595979820Y-145025000D02*
X595979820Y-144786905D01*
X594979820Y-146263095D02*
X594979820Y-145786905D01*
X594979820Y-145786905D02*
X595456010Y-145739286D01*
X595456010Y-145739286D02*
X595408391Y-145786905D01*
X595408391Y-145786905D02*
X595360772Y-145882143D01*
X595360772Y-145882143D02*
X595360772Y-146120238D01*
X595360772Y-146120238D02*
X595408391Y-146215476D01*
X595408391Y-146215476D02*
X595456010Y-146263095D01*
X595456010Y-146263095D02*
X595551248Y-146310714D01*
X595551248Y-146310714D02*
X595789343Y-146310714D01*
X595789343Y-146310714D02*
X595884581Y-146263095D01*
X595884581Y-146263095D02*
X595932201Y-146215476D01*
X595932201Y-146215476D02*
X595979820Y-146120238D01*
X595979820Y-146120238D02*
X595979820Y-145882143D01*
X595979820Y-145882143D02*
X595932201Y-145786905D01*
X595932201Y-145786905D02*
X595884581Y-145739286D01*
X689479820Y-161310714D02*
X688479820Y-161310714D01*
X688479820Y-161310714D02*
X688479820Y-161548809D01*
X688479820Y-161548809D02*
X688527439Y-161691666D01*
X688527439Y-161691666D02*
X688622677Y-161786904D01*
X688622677Y-161786904D02*
X688717915Y-161834523D01*
X688717915Y-161834523D02*
X688908391Y-161882142D01*
X688908391Y-161882142D02*
X689051248Y-161882142D01*
X689051248Y-161882142D02*
X689241724Y-161834523D01*
X689241724Y-161834523D02*
X689336962Y-161786904D01*
X689336962Y-161786904D02*
X689432201Y-161691666D01*
X689432201Y-161691666D02*
X689479820Y-161548809D01*
X689479820Y-161548809D02*
X689479820Y-161310714D01*
X688575058Y-162263095D02*
X688527439Y-162310714D01*
X688527439Y-162310714D02*
X688479820Y-162405952D01*
X688479820Y-162405952D02*
X688479820Y-162644047D01*
X688479820Y-162644047D02*
X688527439Y-162739285D01*
X688527439Y-162739285D02*
X688575058Y-162786904D01*
X688575058Y-162786904D02*
X688670296Y-162834523D01*
X688670296Y-162834523D02*
X688765534Y-162834523D01*
X688765534Y-162834523D02*
X688908391Y-162786904D01*
X688908391Y-162786904D02*
X689479820Y-162215476D01*
X689479820Y-162215476D02*
X689479820Y-162834523D01*
X688479820Y-163167857D02*
X688479820Y-163834523D01*
X688479820Y-163834523D02*
X689479820Y-163405952D01*
X532229820Y-161310714D02*
X531229820Y-161310714D01*
X531229820Y-161310714D02*
X531229820Y-161548809D01*
X531229820Y-161548809D02*
X531277439Y-161691666D01*
X531277439Y-161691666D02*
X531372677Y-161786904D01*
X531372677Y-161786904D02*
X531467915Y-161834523D01*
X531467915Y-161834523D02*
X531658391Y-161882142D01*
X531658391Y-161882142D02*
X531801248Y-161882142D01*
X531801248Y-161882142D02*
X531991724Y-161834523D01*
X531991724Y-161834523D02*
X532086962Y-161786904D01*
X532086962Y-161786904D02*
X532182201Y-161691666D01*
X532182201Y-161691666D02*
X532229820Y-161548809D01*
X532229820Y-161548809D02*
X532229820Y-161310714D01*
X532229820Y-162834523D02*
X532229820Y-162263095D01*
X532229820Y-162548809D02*
X531229820Y-162548809D01*
X531229820Y-162548809D02*
X531372677Y-162453571D01*
X531372677Y-162453571D02*
X531467915Y-162358333D01*
X531467915Y-162358333D02*
X531515534Y-162263095D01*
X531658391Y-163405952D02*
X531610772Y-163310714D01*
X531610772Y-163310714D02*
X531563153Y-163263095D01*
X531563153Y-163263095D02*
X531467915Y-163215476D01*
X531467915Y-163215476D02*
X531420296Y-163215476D01*
X531420296Y-163215476D02*
X531325058Y-163263095D01*
X531325058Y-163263095D02*
X531277439Y-163310714D01*
X531277439Y-163310714D02*
X531229820Y-163405952D01*
X531229820Y-163405952D02*
X531229820Y-163596428D01*
X531229820Y-163596428D02*
X531277439Y-163691666D01*
X531277439Y-163691666D02*
X531325058Y-163739285D01*
X531325058Y-163739285D02*
X531420296Y-163786904D01*
X531420296Y-163786904D02*
X531467915Y-163786904D01*
X531467915Y-163786904D02*
X531563153Y-163739285D01*
X531563153Y-163739285D02*
X531610772Y-163691666D01*
X531610772Y-163691666D02*
X531658391Y-163596428D01*
X531658391Y-163596428D02*
X531658391Y-163405952D01*
X531658391Y-163405952D02*
X531706010Y-163310714D01*
X531706010Y-163310714D02*
X531753629Y-163263095D01*
X531753629Y-163263095D02*
X531848867Y-163215476D01*
X531848867Y-163215476D02*
X532039343Y-163215476D01*
X532039343Y-163215476D02*
X532134581Y-163263095D01*
X532134581Y-163263095D02*
X532182201Y-163310714D01*
X532182201Y-163310714D02*
X532229820Y-163405952D01*
X532229820Y-163405952D02*
X532229820Y-163596428D01*
X532229820Y-163596428D02*
X532182201Y-163691666D01*
X532182201Y-163691666D02*
X532134581Y-163739285D01*
X532134581Y-163739285D02*
X532039343Y-163786904D01*
X532039343Y-163786904D02*
X531848867Y-163786904D01*
X531848867Y-163786904D02*
X531753629Y-163739285D01*
X531753629Y-163739285D02*
X531706010Y-163691666D01*
X531706010Y-163691666D02*
X531658391Y-163596428D01*
X578979820Y-144786905D02*
X577979820Y-144786905D01*
X577979820Y-144786905D02*
X577979820Y-145025000D01*
X577979820Y-145025000D02*
X578027439Y-145167857D01*
X578027439Y-145167857D02*
X578122677Y-145263095D01*
X578122677Y-145263095D02*
X578217915Y-145310714D01*
X578217915Y-145310714D02*
X578408391Y-145358333D01*
X578408391Y-145358333D02*
X578551248Y-145358333D01*
X578551248Y-145358333D02*
X578741724Y-145310714D01*
X578741724Y-145310714D02*
X578836962Y-145263095D01*
X578836962Y-145263095D02*
X578932201Y-145167857D01*
X578932201Y-145167857D02*
X578979820Y-145025000D01*
X578979820Y-145025000D02*
X578979820Y-144786905D01*
X578313153Y-146215476D02*
X578979820Y-146215476D01*
X577932201Y-145977381D02*
X578646486Y-145739286D01*
X578646486Y-145739286D02*
X578646486Y-146358333D01*
X742604820Y-212310714D02*
X741604820Y-212310714D01*
X741604820Y-212310714D02*
X741604820Y-212548809D01*
X741604820Y-212548809D02*
X741652439Y-212691666D01*
X741652439Y-212691666D02*
X741747677Y-212786904D01*
X741747677Y-212786904D02*
X741842915Y-212834523D01*
X741842915Y-212834523D02*
X742033391Y-212882142D01*
X742033391Y-212882142D02*
X742176248Y-212882142D01*
X742176248Y-212882142D02*
X742366724Y-212834523D01*
X742366724Y-212834523D02*
X742461962Y-212786904D01*
X742461962Y-212786904D02*
X742557201Y-212691666D01*
X742557201Y-212691666D02*
X742604820Y-212548809D01*
X742604820Y-212548809D02*
X742604820Y-212310714D01*
X741604820Y-213215476D02*
X741604820Y-213882142D01*
X741604820Y-213882142D02*
X742604820Y-213453571D01*
X741604820Y-214453571D02*
X741604820Y-214548809D01*
X741604820Y-214548809D02*
X741652439Y-214644047D01*
X741652439Y-214644047D02*
X741700058Y-214691666D01*
X741700058Y-214691666D02*
X741795296Y-214739285D01*
X741795296Y-214739285D02*
X741985772Y-214786904D01*
X741985772Y-214786904D02*
X742223867Y-214786904D01*
X742223867Y-214786904D02*
X742414343Y-214739285D01*
X742414343Y-214739285D02*
X742509581Y-214691666D01*
X742509581Y-214691666D02*
X742557201Y-214644047D01*
X742557201Y-214644047D02*
X742604820Y-214548809D01*
X742604820Y-214548809D02*
X742604820Y-214453571D01*
X742604820Y-214453571D02*
X742557201Y-214358333D01*
X742557201Y-214358333D02*
X742509581Y-214310714D01*
X742509581Y-214310714D02*
X742414343Y-214263095D01*
X742414343Y-214263095D02*
X742223867Y-214215476D01*
X742223867Y-214215476D02*
X741985772Y-214215476D01*
X741985772Y-214215476D02*
X741795296Y-214263095D01*
X741795296Y-214263095D02*
X741700058Y-214310714D01*
X741700058Y-214310714D02*
X741652439Y-214358333D01*
X741652439Y-214358333D02*
X741604820Y-214453571D01*
X617229820Y-195310714D02*
X616229820Y-195310714D01*
X616229820Y-195310714D02*
X616229820Y-195548809D01*
X616229820Y-195548809D02*
X616277439Y-195691666D01*
X616277439Y-195691666D02*
X616372677Y-195786904D01*
X616372677Y-195786904D02*
X616467915Y-195834523D01*
X616467915Y-195834523D02*
X616658391Y-195882142D01*
X616658391Y-195882142D02*
X616801248Y-195882142D01*
X616801248Y-195882142D02*
X616991724Y-195834523D01*
X616991724Y-195834523D02*
X617086962Y-195786904D01*
X617086962Y-195786904D02*
X617182201Y-195691666D01*
X617182201Y-195691666D02*
X617229820Y-195548809D01*
X617229820Y-195548809D02*
X617229820Y-195310714D01*
X616229820Y-196786904D02*
X616229820Y-196310714D01*
X616229820Y-196310714D02*
X616706010Y-196263095D01*
X616706010Y-196263095D02*
X616658391Y-196310714D01*
X616658391Y-196310714D02*
X616610772Y-196405952D01*
X616610772Y-196405952D02*
X616610772Y-196644047D01*
X616610772Y-196644047D02*
X616658391Y-196739285D01*
X616658391Y-196739285D02*
X616706010Y-196786904D01*
X616706010Y-196786904D02*
X616801248Y-196834523D01*
X616801248Y-196834523D02*
X617039343Y-196834523D01*
X617039343Y-196834523D02*
X617134581Y-196786904D01*
X617134581Y-196786904D02*
X617182201Y-196739285D01*
X617182201Y-196739285D02*
X617229820Y-196644047D01*
X617229820Y-196644047D02*
X617229820Y-196405952D01*
X617229820Y-196405952D02*
X617182201Y-196310714D01*
X617182201Y-196310714D02*
X617134581Y-196263095D01*
X616325058Y-197215476D02*
X616277439Y-197263095D01*
X616277439Y-197263095D02*
X616229820Y-197358333D01*
X616229820Y-197358333D02*
X616229820Y-197596428D01*
X616229820Y-197596428D02*
X616277439Y-197691666D01*
X616277439Y-197691666D02*
X616325058Y-197739285D01*
X616325058Y-197739285D02*
X616420296Y-197786904D01*
X616420296Y-197786904D02*
X616515534Y-197786904D01*
X616515534Y-197786904D02*
X616658391Y-197739285D01*
X616658391Y-197739285D02*
X617229820Y-197167857D01*
X617229820Y-197167857D02*
X617229820Y-197786904D01*
X574729820Y-178310714D02*
X573729820Y-178310714D01*
X573729820Y-178310714D02*
X573729820Y-178548809D01*
X573729820Y-178548809D02*
X573777439Y-178691666D01*
X573777439Y-178691666D02*
X573872677Y-178786904D01*
X573872677Y-178786904D02*
X573967915Y-178834523D01*
X573967915Y-178834523D02*
X574158391Y-178882142D01*
X574158391Y-178882142D02*
X574301248Y-178882142D01*
X574301248Y-178882142D02*
X574491724Y-178834523D01*
X574491724Y-178834523D02*
X574586962Y-178786904D01*
X574586962Y-178786904D02*
X574682201Y-178691666D01*
X574682201Y-178691666D02*
X574729820Y-178548809D01*
X574729820Y-178548809D02*
X574729820Y-178310714D01*
X573729820Y-179215476D02*
X573729820Y-179834523D01*
X573729820Y-179834523D02*
X574110772Y-179501190D01*
X574110772Y-179501190D02*
X574110772Y-179644047D01*
X574110772Y-179644047D02*
X574158391Y-179739285D01*
X574158391Y-179739285D02*
X574206010Y-179786904D01*
X574206010Y-179786904D02*
X574301248Y-179834523D01*
X574301248Y-179834523D02*
X574539343Y-179834523D01*
X574539343Y-179834523D02*
X574634581Y-179786904D01*
X574634581Y-179786904D02*
X574682201Y-179739285D01*
X574682201Y-179739285D02*
X574729820Y-179644047D01*
X574729820Y-179644047D02*
X574729820Y-179358333D01*
X574729820Y-179358333D02*
X574682201Y-179263095D01*
X574682201Y-179263095D02*
X574634581Y-179215476D01*
X573729820Y-180167857D02*
X573729820Y-180834523D01*
X573729820Y-180834523D02*
X574729820Y-180405952D01*
X731979820Y-144310714D02*
X730979820Y-144310714D01*
X730979820Y-144310714D02*
X730979820Y-144548809D01*
X730979820Y-144548809D02*
X731027439Y-144691666D01*
X731027439Y-144691666D02*
X731122677Y-144786904D01*
X731122677Y-144786904D02*
X731217915Y-144834523D01*
X731217915Y-144834523D02*
X731408391Y-144882142D01*
X731408391Y-144882142D02*
X731551248Y-144882142D01*
X731551248Y-144882142D02*
X731741724Y-144834523D01*
X731741724Y-144834523D02*
X731836962Y-144786904D01*
X731836962Y-144786904D02*
X731932201Y-144691666D01*
X731932201Y-144691666D02*
X731979820Y-144548809D01*
X731979820Y-144548809D02*
X731979820Y-144310714D01*
X731979820Y-145834523D02*
X731979820Y-145263095D01*
X731979820Y-145548809D02*
X730979820Y-145548809D01*
X730979820Y-145548809D02*
X731122677Y-145453571D01*
X731122677Y-145453571D02*
X731217915Y-145358333D01*
X731217915Y-145358333D02*
X731265534Y-145263095D01*
X730979820Y-146167857D02*
X730979820Y-146786904D01*
X730979820Y-146786904D02*
X731360772Y-146453571D01*
X731360772Y-146453571D02*
X731360772Y-146596428D01*
X731360772Y-146596428D02*
X731408391Y-146691666D01*
X731408391Y-146691666D02*
X731456010Y-146739285D01*
X731456010Y-146739285D02*
X731551248Y-146786904D01*
X731551248Y-146786904D02*
X731789343Y-146786904D01*
X731789343Y-146786904D02*
X731884581Y-146739285D01*
X731884581Y-146739285D02*
X731932201Y-146691666D01*
X731932201Y-146691666D02*
X731979820Y-146596428D01*
X731979820Y-146596428D02*
X731979820Y-146310714D01*
X731979820Y-146310714D02*
X731932201Y-146215476D01*
X731932201Y-146215476D02*
X731884581Y-146167857D01*
X721354820Y-212310714D02*
X720354820Y-212310714D01*
X720354820Y-212310714D02*
X720354820Y-212548809D01*
X720354820Y-212548809D02*
X720402439Y-212691666D01*
X720402439Y-212691666D02*
X720497677Y-212786904D01*
X720497677Y-212786904D02*
X720592915Y-212834523D01*
X720592915Y-212834523D02*
X720783391Y-212882142D01*
X720783391Y-212882142D02*
X720926248Y-212882142D01*
X720926248Y-212882142D02*
X721116724Y-212834523D01*
X721116724Y-212834523D02*
X721211962Y-212786904D01*
X721211962Y-212786904D02*
X721307201Y-212691666D01*
X721307201Y-212691666D02*
X721354820Y-212548809D01*
X721354820Y-212548809D02*
X721354820Y-212310714D01*
X720354820Y-213739285D02*
X720354820Y-213548809D01*
X720354820Y-213548809D02*
X720402439Y-213453571D01*
X720402439Y-213453571D02*
X720450058Y-213405952D01*
X720450058Y-213405952D02*
X720592915Y-213310714D01*
X720592915Y-213310714D02*
X720783391Y-213263095D01*
X720783391Y-213263095D02*
X721164343Y-213263095D01*
X721164343Y-213263095D02*
X721259581Y-213310714D01*
X721259581Y-213310714D02*
X721307201Y-213358333D01*
X721307201Y-213358333D02*
X721354820Y-213453571D01*
X721354820Y-213453571D02*
X721354820Y-213644047D01*
X721354820Y-213644047D02*
X721307201Y-213739285D01*
X721307201Y-213739285D02*
X721259581Y-213786904D01*
X721259581Y-213786904D02*
X721164343Y-213834523D01*
X721164343Y-213834523D02*
X720926248Y-213834523D01*
X720926248Y-213834523D02*
X720831010Y-213786904D01*
X720831010Y-213786904D02*
X720783391Y-213739285D01*
X720783391Y-213739285D02*
X720735772Y-213644047D01*
X720735772Y-213644047D02*
X720735772Y-213453571D01*
X720735772Y-213453571D02*
X720783391Y-213358333D01*
X720783391Y-213358333D02*
X720831010Y-213310714D01*
X720831010Y-213310714D02*
X720926248Y-213263095D01*
X721354820Y-214310714D02*
X721354820Y-214501190D01*
X721354820Y-214501190D02*
X721307201Y-214596428D01*
X721307201Y-214596428D02*
X721259581Y-214644047D01*
X721259581Y-214644047D02*
X721116724Y-214739285D01*
X721116724Y-214739285D02*
X720926248Y-214786904D01*
X720926248Y-214786904D02*
X720545296Y-214786904D01*
X720545296Y-214786904D02*
X720450058Y-214739285D01*
X720450058Y-214739285D02*
X720402439Y-214691666D01*
X720402439Y-214691666D02*
X720354820Y-214596428D01*
X720354820Y-214596428D02*
X720354820Y-214405952D01*
X720354820Y-214405952D02*
X720402439Y-214310714D01*
X720402439Y-214310714D02*
X720450058Y-214263095D01*
X720450058Y-214263095D02*
X720545296Y-214215476D01*
X720545296Y-214215476D02*
X720783391Y-214215476D01*
X720783391Y-214215476D02*
X720878629Y-214263095D01*
X720878629Y-214263095D02*
X720926248Y-214310714D01*
X720926248Y-214310714D02*
X720973867Y-214405952D01*
X720973867Y-214405952D02*
X720973867Y-214596428D01*
X720973867Y-214596428D02*
X720926248Y-214691666D01*
X720926248Y-214691666D02*
X720878629Y-214739285D01*
X720878629Y-214739285D02*
X720783391Y-214786904D01*
X591729820Y-178310714D02*
X590729820Y-178310714D01*
X590729820Y-178310714D02*
X590729820Y-178548809D01*
X590729820Y-178548809D02*
X590777439Y-178691666D01*
X590777439Y-178691666D02*
X590872677Y-178786904D01*
X590872677Y-178786904D02*
X590967915Y-178834523D01*
X590967915Y-178834523D02*
X591158391Y-178882142D01*
X591158391Y-178882142D02*
X591301248Y-178882142D01*
X591301248Y-178882142D02*
X591491724Y-178834523D01*
X591491724Y-178834523D02*
X591586962Y-178786904D01*
X591586962Y-178786904D02*
X591682201Y-178691666D01*
X591682201Y-178691666D02*
X591729820Y-178548809D01*
X591729820Y-178548809D02*
X591729820Y-178310714D01*
X590729820Y-179215476D02*
X590729820Y-179834523D01*
X590729820Y-179834523D02*
X591110772Y-179501190D01*
X591110772Y-179501190D02*
X591110772Y-179644047D01*
X591110772Y-179644047D02*
X591158391Y-179739285D01*
X591158391Y-179739285D02*
X591206010Y-179786904D01*
X591206010Y-179786904D02*
X591301248Y-179834523D01*
X591301248Y-179834523D02*
X591539343Y-179834523D01*
X591539343Y-179834523D02*
X591634581Y-179786904D01*
X591634581Y-179786904D02*
X591682201Y-179739285D01*
X591682201Y-179739285D02*
X591729820Y-179644047D01*
X591729820Y-179644047D02*
X591729820Y-179358333D01*
X591729820Y-179358333D02*
X591682201Y-179263095D01*
X591682201Y-179263095D02*
X591634581Y-179215476D01*
X591158391Y-180405952D02*
X591110772Y-180310714D01*
X591110772Y-180310714D02*
X591063153Y-180263095D01*
X591063153Y-180263095D02*
X590967915Y-180215476D01*
X590967915Y-180215476D02*
X590920296Y-180215476D01*
X590920296Y-180215476D02*
X590825058Y-180263095D01*
X590825058Y-180263095D02*
X590777439Y-180310714D01*
X590777439Y-180310714D02*
X590729820Y-180405952D01*
X590729820Y-180405952D02*
X590729820Y-180596428D01*
X590729820Y-180596428D02*
X590777439Y-180691666D01*
X590777439Y-180691666D02*
X590825058Y-180739285D01*
X590825058Y-180739285D02*
X590920296Y-180786904D01*
X590920296Y-180786904D02*
X590967915Y-180786904D01*
X590967915Y-180786904D02*
X591063153Y-180739285D01*
X591063153Y-180739285D02*
X591110772Y-180691666D01*
X591110772Y-180691666D02*
X591158391Y-180596428D01*
X591158391Y-180596428D02*
X591158391Y-180405952D01*
X591158391Y-180405952D02*
X591206010Y-180310714D01*
X591206010Y-180310714D02*
X591253629Y-180263095D01*
X591253629Y-180263095D02*
X591348867Y-180215476D01*
X591348867Y-180215476D02*
X591539343Y-180215476D01*
X591539343Y-180215476D02*
X591634581Y-180263095D01*
X591634581Y-180263095D02*
X591682201Y-180310714D01*
X591682201Y-180310714D02*
X591729820Y-180405952D01*
X591729820Y-180405952D02*
X591729820Y-180596428D01*
X591729820Y-180596428D02*
X591682201Y-180691666D01*
X591682201Y-180691666D02*
X591634581Y-180739285D01*
X591634581Y-180739285D02*
X591539343Y-180786904D01*
X591539343Y-180786904D02*
X591348867Y-180786904D01*
X591348867Y-180786904D02*
X591253629Y-180739285D01*
X591253629Y-180739285D02*
X591206010Y-180691666D01*
X591206010Y-180691666D02*
X591158391Y-180596428D01*
X587479820Y-161310714D02*
X586479820Y-161310714D01*
X586479820Y-161310714D02*
X586479820Y-161548809D01*
X586479820Y-161548809D02*
X586527439Y-161691666D01*
X586527439Y-161691666D02*
X586622677Y-161786904D01*
X586622677Y-161786904D02*
X586717915Y-161834523D01*
X586717915Y-161834523D02*
X586908391Y-161882142D01*
X586908391Y-161882142D02*
X587051248Y-161882142D01*
X587051248Y-161882142D02*
X587241724Y-161834523D01*
X587241724Y-161834523D02*
X587336962Y-161786904D01*
X587336962Y-161786904D02*
X587432201Y-161691666D01*
X587432201Y-161691666D02*
X587479820Y-161548809D01*
X587479820Y-161548809D02*
X587479820Y-161310714D01*
X586575058Y-162263095D02*
X586527439Y-162310714D01*
X586527439Y-162310714D02*
X586479820Y-162405952D01*
X586479820Y-162405952D02*
X586479820Y-162644047D01*
X586479820Y-162644047D02*
X586527439Y-162739285D01*
X586527439Y-162739285D02*
X586575058Y-162786904D01*
X586575058Y-162786904D02*
X586670296Y-162834523D01*
X586670296Y-162834523D02*
X586765534Y-162834523D01*
X586765534Y-162834523D02*
X586908391Y-162786904D01*
X586908391Y-162786904D02*
X587479820Y-162215476D01*
X587479820Y-162215476D02*
X587479820Y-162834523D01*
X587479820Y-163786904D02*
X587479820Y-163215476D01*
X587479820Y-163501190D02*
X586479820Y-163501190D01*
X586479820Y-163501190D02*
X586622677Y-163405952D01*
X586622677Y-163405952D02*
X586717915Y-163310714D01*
X586717915Y-163310714D02*
X586765534Y-163215476D01*
X763854820Y-212310714D02*
X762854820Y-212310714D01*
X762854820Y-212310714D02*
X762854820Y-212548809D01*
X762854820Y-212548809D02*
X762902439Y-212691666D01*
X762902439Y-212691666D02*
X762997677Y-212786904D01*
X762997677Y-212786904D02*
X763092915Y-212834523D01*
X763092915Y-212834523D02*
X763283391Y-212882142D01*
X763283391Y-212882142D02*
X763426248Y-212882142D01*
X763426248Y-212882142D02*
X763616724Y-212834523D01*
X763616724Y-212834523D02*
X763711962Y-212786904D01*
X763711962Y-212786904D02*
X763807201Y-212691666D01*
X763807201Y-212691666D02*
X763854820Y-212548809D01*
X763854820Y-212548809D02*
X763854820Y-212310714D01*
X762854820Y-213215476D02*
X762854820Y-213882142D01*
X762854820Y-213882142D02*
X763854820Y-213453571D01*
X763854820Y-214786904D02*
X763854820Y-214215476D01*
X763854820Y-214501190D02*
X762854820Y-214501190D01*
X762854820Y-214501190D02*
X762997677Y-214405952D01*
X762997677Y-214405952D02*
X763092915Y-214310714D01*
X763092915Y-214310714D02*
X763140534Y-214215476D01*
X602354820Y-212310714D02*
X601354820Y-212310714D01*
X601354820Y-212310714D02*
X601354820Y-212548809D01*
X601354820Y-212548809D02*
X601402439Y-212691666D01*
X601402439Y-212691666D02*
X601497677Y-212786904D01*
X601497677Y-212786904D02*
X601592915Y-212834523D01*
X601592915Y-212834523D02*
X601783391Y-212882142D01*
X601783391Y-212882142D02*
X601926248Y-212882142D01*
X601926248Y-212882142D02*
X602116724Y-212834523D01*
X602116724Y-212834523D02*
X602211962Y-212786904D01*
X602211962Y-212786904D02*
X602307201Y-212691666D01*
X602307201Y-212691666D02*
X602354820Y-212548809D01*
X602354820Y-212548809D02*
X602354820Y-212310714D01*
X601354820Y-213739285D02*
X601354820Y-213548809D01*
X601354820Y-213548809D02*
X601402439Y-213453571D01*
X601402439Y-213453571D02*
X601450058Y-213405952D01*
X601450058Y-213405952D02*
X601592915Y-213310714D01*
X601592915Y-213310714D02*
X601783391Y-213263095D01*
X601783391Y-213263095D02*
X602164343Y-213263095D01*
X602164343Y-213263095D02*
X602259581Y-213310714D01*
X602259581Y-213310714D02*
X602307201Y-213358333D01*
X602307201Y-213358333D02*
X602354820Y-213453571D01*
X602354820Y-213453571D02*
X602354820Y-213644047D01*
X602354820Y-213644047D02*
X602307201Y-213739285D01*
X602307201Y-213739285D02*
X602259581Y-213786904D01*
X602259581Y-213786904D02*
X602164343Y-213834523D01*
X602164343Y-213834523D02*
X601926248Y-213834523D01*
X601926248Y-213834523D02*
X601831010Y-213786904D01*
X601831010Y-213786904D02*
X601783391Y-213739285D01*
X601783391Y-213739285D02*
X601735772Y-213644047D01*
X601735772Y-213644047D02*
X601735772Y-213453571D01*
X601735772Y-213453571D02*
X601783391Y-213358333D01*
X601783391Y-213358333D02*
X601831010Y-213310714D01*
X601831010Y-213310714D02*
X601926248Y-213263095D01*
X601354820Y-214739285D02*
X601354820Y-214263095D01*
X601354820Y-214263095D02*
X601831010Y-214215476D01*
X601831010Y-214215476D02*
X601783391Y-214263095D01*
X601783391Y-214263095D02*
X601735772Y-214358333D01*
X601735772Y-214358333D02*
X601735772Y-214596428D01*
X601735772Y-214596428D02*
X601783391Y-214691666D01*
X601783391Y-214691666D02*
X601831010Y-214739285D01*
X601831010Y-214739285D02*
X601926248Y-214786904D01*
X601926248Y-214786904D02*
X602164343Y-214786904D01*
X602164343Y-214786904D02*
X602259581Y-214739285D01*
X602259581Y-214739285D02*
X602307201Y-214691666D01*
X602307201Y-214691666D02*
X602354820Y-214596428D01*
X602354820Y-214596428D02*
X602354820Y-214358333D01*
X602354820Y-214358333D02*
X602307201Y-214263095D01*
X602307201Y-214263095D02*
X602259581Y-214215476D01*
X670354820Y-212310714D02*
X669354820Y-212310714D01*
X669354820Y-212310714D02*
X669354820Y-212548809D01*
X669354820Y-212548809D02*
X669402439Y-212691666D01*
X669402439Y-212691666D02*
X669497677Y-212786904D01*
X669497677Y-212786904D02*
X669592915Y-212834523D01*
X669592915Y-212834523D02*
X669783391Y-212882142D01*
X669783391Y-212882142D02*
X669926248Y-212882142D01*
X669926248Y-212882142D02*
X670116724Y-212834523D01*
X670116724Y-212834523D02*
X670211962Y-212786904D01*
X670211962Y-212786904D02*
X670307201Y-212691666D01*
X670307201Y-212691666D02*
X670354820Y-212548809D01*
X670354820Y-212548809D02*
X670354820Y-212310714D01*
X669354820Y-213739285D02*
X669354820Y-213548809D01*
X669354820Y-213548809D02*
X669402439Y-213453571D01*
X669402439Y-213453571D02*
X669450058Y-213405952D01*
X669450058Y-213405952D02*
X669592915Y-213310714D01*
X669592915Y-213310714D02*
X669783391Y-213263095D01*
X669783391Y-213263095D02*
X670164343Y-213263095D01*
X670164343Y-213263095D02*
X670259581Y-213310714D01*
X670259581Y-213310714D02*
X670307201Y-213358333D01*
X670307201Y-213358333D02*
X670354820Y-213453571D01*
X670354820Y-213453571D02*
X670354820Y-213644047D01*
X670354820Y-213644047D02*
X670307201Y-213739285D01*
X670307201Y-213739285D02*
X670259581Y-213786904D01*
X670259581Y-213786904D02*
X670164343Y-213834523D01*
X670164343Y-213834523D02*
X669926248Y-213834523D01*
X669926248Y-213834523D02*
X669831010Y-213786904D01*
X669831010Y-213786904D02*
X669783391Y-213739285D01*
X669783391Y-213739285D02*
X669735772Y-213644047D01*
X669735772Y-213644047D02*
X669735772Y-213453571D01*
X669735772Y-213453571D02*
X669783391Y-213358333D01*
X669783391Y-213358333D02*
X669831010Y-213310714D01*
X669831010Y-213310714D02*
X669926248Y-213263095D01*
X669354820Y-214167857D02*
X669354820Y-214834523D01*
X669354820Y-214834523D02*
X670354820Y-214405952D01*
X787229820Y-144310714D02*
X786229820Y-144310714D01*
X786229820Y-144310714D02*
X786229820Y-144548809D01*
X786229820Y-144548809D02*
X786277439Y-144691666D01*
X786277439Y-144691666D02*
X786372677Y-144786904D01*
X786372677Y-144786904D02*
X786467915Y-144834523D01*
X786467915Y-144834523D02*
X786658391Y-144882142D01*
X786658391Y-144882142D02*
X786801248Y-144882142D01*
X786801248Y-144882142D02*
X786991724Y-144834523D01*
X786991724Y-144834523D02*
X787086962Y-144786904D01*
X787086962Y-144786904D02*
X787182201Y-144691666D01*
X787182201Y-144691666D02*
X787229820Y-144548809D01*
X787229820Y-144548809D02*
X787229820Y-144310714D01*
X787229820Y-145834523D02*
X787229820Y-145263095D01*
X787229820Y-145548809D02*
X786229820Y-145548809D01*
X786229820Y-145548809D02*
X786372677Y-145453571D01*
X786372677Y-145453571D02*
X786467915Y-145358333D01*
X786467915Y-145358333D02*
X786515534Y-145263095D01*
X786229820Y-146739285D02*
X786229820Y-146263095D01*
X786229820Y-146263095D02*
X786706010Y-146215476D01*
X786706010Y-146215476D02*
X786658391Y-146263095D01*
X786658391Y-146263095D02*
X786610772Y-146358333D01*
X786610772Y-146358333D02*
X786610772Y-146596428D01*
X786610772Y-146596428D02*
X786658391Y-146691666D01*
X786658391Y-146691666D02*
X786706010Y-146739285D01*
X786706010Y-146739285D02*
X786801248Y-146786904D01*
X786801248Y-146786904D02*
X787039343Y-146786904D01*
X787039343Y-146786904D02*
X787134581Y-146739285D01*
X787134581Y-146739285D02*
X787182201Y-146691666D01*
X787182201Y-146691666D02*
X787229820Y-146596428D01*
X787229820Y-146596428D02*
X787229820Y-146358333D01*
X787229820Y-146358333D02*
X787182201Y-146263095D01*
X787182201Y-146263095D02*
X787134581Y-146215476D01*
X680979820Y-144310714D02*
X679979820Y-144310714D01*
X679979820Y-144310714D02*
X679979820Y-144548809D01*
X679979820Y-144548809D02*
X680027439Y-144691666D01*
X680027439Y-144691666D02*
X680122677Y-144786904D01*
X680122677Y-144786904D02*
X680217915Y-144834523D01*
X680217915Y-144834523D02*
X680408391Y-144882142D01*
X680408391Y-144882142D02*
X680551248Y-144882142D01*
X680551248Y-144882142D02*
X680741724Y-144834523D01*
X680741724Y-144834523D02*
X680836962Y-144786904D01*
X680836962Y-144786904D02*
X680932201Y-144691666D01*
X680932201Y-144691666D02*
X680979820Y-144548809D01*
X680979820Y-144548809D02*
X680979820Y-144310714D01*
X680979820Y-145834523D02*
X680979820Y-145263095D01*
X680979820Y-145548809D02*
X679979820Y-145548809D01*
X679979820Y-145548809D02*
X680122677Y-145453571D01*
X680122677Y-145453571D02*
X680217915Y-145358333D01*
X680217915Y-145358333D02*
X680265534Y-145263095D01*
X679979820Y-146453571D02*
X679979820Y-146548809D01*
X679979820Y-146548809D02*
X680027439Y-146644047D01*
X680027439Y-146644047D02*
X680075058Y-146691666D01*
X680075058Y-146691666D02*
X680170296Y-146739285D01*
X680170296Y-146739285D02*
X680360772Y-146786904D01*
X680360772Y-146786904D02*
X680598867Y-146786904D01*
X680598867Y-146786904D02*
X680789343Y-146739285D01*
X680789343Y-146739285D02*
X680884581Y-146691666D01*
X680884581Y-146691666D02*
X680932201Y-146644047D01*
X680932201Y-146644047D02*
X680979820Y-146548809D01*
X680979820Y-146548809D02*
X680979820Y-146453571D01*
X680979820Y-146453571D02*
X680932201Y-146358333D01*
X680932201Y-146358333D02*
X680884581Y-146310714D01*
X680884581Y-146310714D02*
X680789343Y-146263095D01*
X680789343Y-146263095D02*
X680598867Y-146215476D01*
X680598867Y-146215476D02*
X680360772Y-146215476D01*
X680360772Y-146215476D02*
X680170296Y-146263095D01*
X680170296Y-146263095D02*
X680075058Y-146310714D01*
X680075058Y-146310714D02*
X680027439Y-146358333D01*
X680027439Y-146358333D02*
X679979820Y-146453571D01*
X612979820Y-144786905D02*
X611979820Y-144786905D01*
X611979820Y-144786905D02*
X611979820Y-145025000D01*
X611979820Y-145025000D02*
X612027439Y-145167857D01*
X612027439Y-145167857D02*
X612122677Y-145263095D01*
X612122677Y-145263095D02*
X612217915Y-145310714D01*
X612217915Y-145310714D02*
X612408391Y-145358333D01*
X612408391Y-145358333D02*
X612551248Y-145358333D01*
X612551248Y-145358333D02*
X612741724Y-145310714D01*
X612741724Y-145310714D02*
X612836962Y-145263095D01*
X612836962Y-145263095D02*
X612932201Y-145167857D01*
X612932201Y-145167857D02*
X612979820Y-145025000D01*
X612979820Y-145025000D02*
X612979820Y-144786905D01*
X611979820Y-146215476D02*
X611979820Y-146025000D01*
X611979820Y-146025000D02*
X612027439Y-145929762D01*
X612027439Y-145929762D02*
X612075058Y-145882143D01*
X612075058Y-145882143D02*
X612217915Y-145786905D01*
X612217915Y-145786905D02*
X612408391Y-145739286D01*
X612408391Y-145739286D02*
X612789343Y-145739286D01*
X612789343Y-145739286D02*
X612884581Y-145786905D01*
X612884581Y-145786905D02*
X612932201Y-145834524D01*
X612932201Y-145834524D02*
X612979820Y-145929762D01*
X612979820Y-145929762D02*
X612979820Y-146120238D01*
X612979820Y-146120238D02*
X612932201Y-146215476D01*
X612932201Y-146215476D02*
X612884581Y-146263095D01*
X612884581Y-146263095D02*
X612789343Y-146310714D01*
X612789343Y-146310714D02*
X612551248Y-146310714D01*
X612551248Y-146310714D02*
X612456010Y-146263095D01*
X612456010Y-146263095D02*
X612408391Y-146215476D01*
X612408391Y-146215476D02*
X612360772Y-146120238D01*
X612360772Y-146120238D02*
X612360772Y-145929762D01*
X612360772Y-145929762D02*
X612408391Y-145834524D01*
X612408391Y-145834524D02*
X612456010Y-145786905D01*
X612456010Y-145786905D02*
X612551248Y-145739286D01*
X765979820Y-195310714D02*
X764979820Y-195310714D01*
X764979820Y-195310714D02*
X764979820Y-195548809D01*
X764979820Y-195548809D02*
X765027439Y-195691666D01*
X765027439Y-195691666D02*
X765122677Y-195786904D01*
X765122677Y-195786904D02*
X765217915Y-195834523D01*
X765217915Y-195834523D02*
X765408391Y-195882142D01*
X765408391Y-195882142D02*
X765551248Y-195882142D01*
X765551248Y-195882142D02*
X765741724Y-195834523D01*
X765741724Y-195834523D02*
X765836962Y-195786904D01*
X765836962Y-195786904D02*
X765932201Y-195691666D01*
X765932201Y-195691666D02*
X765979820Y-195548809D01*
X765979820Y-195548809D02*
X765979820Y-195310714D01*
X764979820Y-196739285D02*
X764979820Y-196548809D01*
X764979820Y-196548809D02*
X765027439Y-196453571D01*
X765027439Y-196453571D02*
X765075058Y-196405952D01*
X765075058Y-196405952D02*
X765217915Y-196310714D01*
X765217915Y-196310714D02*
X765408391Y-196263095D01*
X765408391Y-196263095D02*
X765789343Y-196263095D01*
X765789343Y-196263095D02*
X765884581Y-196310714D01*
X765884581Y-196310714D02*
X765932201Y-196358333D01*
X765932201Y-196358333D02*
X765979820Y-196453571D01*
X765979820Y-196453571D02*
X765979820Y-196644047D01*
X765979820Y-196644047D02*
X765932201Y-196739285D01*
X765932201Y-196739285D02*
X765884581Y-196786904D01*
X765884581Y-196786904D02*
X765789343Y-196834523D01*
X765789343Y-196834523D02*
X765551248Y-196834523D01*
X765551248Y-196834523D02*
X765456010Y-196786904D01*
X765456010Y-196786904D02*
X765408391Y-196739285D01*
X765408391Y-196739285D02*
X765360772Y-196644047D01*
X765360772Y-196644047D02*
X765360772Y-196453571D01*
X765360772Y-196453571D02*
X765408391Y-196358333D01*
X765408391Y-196358333D02*
X765456010Y-196310714D01*
X765456010Y-196310714D02*
X765551248Y-196263095D01*
X764979820Y-197453571D02*
X764979820Y-197548809D01*
X764979820Y-197548809D02*
X765027439Y-197644047D01*
X765027439Y-197644047D02*
X765075058Y-197691666D01*
X765075058Y-197691666D02*
X765170296Y-197739285D01*
X765170296Y-197739285D02*
X765360772Y-197786904D01*
X765360772Y-197786904D02*
X765598867Y-197786904D01*
X765598867Y-197786904D02*
X765789343Y-197739285D01*
X765789343Y-197739285D02*
X765884581Y-197691666D01*
X765884581Y-197691666D02*
X765932201Y-197644047D01*
X765932201Y-197644047D02*
X765979820Y-197548809D01*
X765979820Y-197548809D02*
X765979820Y-197453571D01*
X765979820Y-197453571D02*
X765932201Y-197358333D01*
X765932201Y-197358333D02*
X765884581Y-197310714D01*
X765884581Y-197310714D02*
X765789343Y-197263095D01*
X765789343Y-197263095D02*
X765598867Y-197215476D01*
X765598867Y-197215476D02*
X765360772Y-197215476D01*
X765360772Y-197215476D02*
X765170296Y-197263095D01*
X765170296Y-197263095D02*
X765075058Y-197310714D01*
X765075058Y-197310714D02*
X765027439Y-197358333D01*
X765027439Y-197358333D02*
X764979820Y-197453571D01*
X697979820Y-144310714D02*
X696979820Y-144310714D01*
X696979820Y-144310714D02*
X696979820Y-144548809D01*
X696979820Y-144548809D02*
X697027439Y-144691666D01*
X697027439Y-144691666D02*
X697122677Y-144786904D01*
X697122677Y-144786904D02*
X697217915Y-144834523D01*
X697217915Y-144834523D02*
X697408391Y-144882142D01*
X697408391Y-144882142D02*
X697551248Y-144882142D01*
X697551248Y-144882142D02*
X697741724Y-144834523D01*
X697741724Y-144834523D02*
X697836962Y-144786904D01*
X697836962Y-144786904D02*
X697932201Y-144691666D01*
X697932201Y-144691666D02*
X697979820Y-144548809D01*
X697979820Y-144548809D02*
X697979820Y-144310714D01*
X697979820Y-145834523D02*
X697979820Y-145263095D01*
X697979820Y-145548809D02*
X696979820Y-145548809D01*
X696979820Y-145548809D02*
X697122677Y-145453571D01*
X697122677Y-145453571D02*
X697217915Y-145358333D01*
X697217915Y-145358333D02*
X697265534Y-145263095D01*
X697979820Y-146786904D02*
X697979820Y-146215476D01*
X697979820Y-146501190D02*
X696979820Y-146501190D01*
X696979820Y-146501190D02*
X697122677Y-146405952D01*
X697122677Y-146405952D02*
X697217915Y-146310714D01*
X697217915Y-146310714D02*
X697265534Y-146215476D01*
X530104820Y-212310714D02*
X529104820Y-212310714D01*
X529104820Y-212310714D02*
X529104820Y-212548809D01*
X529104820Y-212548809D02*
X529152439Y-212691666D01*
X529152439Y-212691666D02*
X529247677Y-212786904D01*
X529247677Y-212786904D02*
X529342915Y-212834523D01*
X529342915Y-212834523D02*
X529533391Y-212882142D01*
X529533391Y-212882142D02*
X529676248Y-212882142D01*
X529676248Y-212882142D02*
X529866724Y-212834523D01*
X529866724Y-212834523D02*
X529961962Y-212786904D01*
X529961962Y-212786904D02*
X530057201Y-212691666D01*
X530057201Y-212691666D02*
X530104820Y-212548809D01*
X530104820Y-212548809D02*
X530104820Y-212310714D01*
X529104820Y-213739285D02*
X529104820Y-213548809D01*
X529104820Y-213548809D02*
X529152439Y-213453571D01*
X529152439Y-213453571D02*
X529200058Y-213405952D01*
X529200058Y-213405952D02*
X529342915Y-213310714D01*
X529342915Y-213310714D02*
X529533391Y-213263095D01*
X529533391Y-213263095D02*
X529914343Y-213263095D01*
X529914343Y-213263095D02*
X530009581Y-213310714D01*
X530009581Y-213310714D02*
X530057201Y-213358333D01*
X530057201Y-213358333D02*
X530104820Y-213453571D01*
X530104820Y-213453571D02*
X530104820Y-213644047D01*
X530104820Y-213644047D02*
X530057201Y-213739285D01*
X530057201Y-213739285D02*
X530009581Y-213786904D01*
X530009581Y-213786904D02*
X529914343Y-213834523D01*
X529914343Y-213834523D02*
X529676248Y-213834523D01*
X529676248Y-213834523D02*
X529581010Y-213786904D01*
X529581010Y-213786904D02*
X529533391Y-213739285D01*
X529533391Y-213739285D02*
X529485772Y-213644047D01*
X529485772Y-213644047D02*
X529485772Y-213453571D01*
X529485772Y-213453571D02*
X529533391Y-213358333D01*
X529533391Y-213358333D02*
X529581010Y-213310714D01*
X529581010Y-213310714D02*
X529676248Y-213263095D01*
X529200058Y-214215476D02*
X529152439Y-214263095D01*
X529152439Y-214263095D02*
X529104820Y-214358333D01*
X529104820Y-214358333D02*
X529104820Y-214596428D01*
X529104820Y-214596428D02*
X529152439Y-214691666D01*
X529152439Y-214691666D02*
X529200058Y-214739285D01*
X529200058Y-214739285D02*
X529295296Y-214786904D01*
X529295296Y-214786904D02*
X529390534Y-214786904D01*
X529390534Y-214786904D02*
X529533391Y-214739285D01*
X529533391Y-214739285D02*
X530104820Y-214167857D01*
X530104820Y-214167857D02*
X530104820Y-214786904D01*
X580129820Y-195310714D02*
X579129820Y-195310714D01*
X579129820Y-195310714D02*
X579129820Y-195548809D01*
X579129820Y-195548809D02*
X579177439Y-195691666D01*
X579177439Y-195691666D02*
X579272677Y-195786904D01*
X579272677Y-195786904D02*
X579367915Y-195834523D01*
X579367915Y-195834523D02*
X579558391Y-195882142D01*
X579558391Y-195882142D02*
X579701248Y-195882142D01*
X579701248Y-195882142D02*
X579891724Y-195834523D01*
X579891724Y-195834523D02*
X579986962Y-195786904D01*
X579986962Y-195786904D02*
X580082201Y-195691666D01*
X580082201Y-195691666D02*
X580129820Y-195548809D01*
X580129820Y-195548809D02*
X580129820Y-195310714D01*
X579129820Y-196786904D02*
X579129820Y-196310714D01*
X579129820Y-196310714D02*
X579606010Y-196263095D01*
X579606010Y-196263095D02*
X579558391Y-196310714D01*
X579558391Y-196310714D02*
X579510772Y-196405952D01*
X579510772Y-196405952D02*
X579510772Y-196644047D01*
X579510772Y-196644047D02*
X579558391Y-196739285D01*
X579558391Y-196739285D02*
X579606010Y-196786904D01*
X579606010Y-196786904D02*
X579701248Y-196834523D01*
X579701248Y-196834523D02*
X579939343Y-196834523D01*
X579939343Y-196834523D02*
X580034581Y-196786904D01*
X580034581Y-196786904D02*
X580082201Y-196739285D01*
X580082201Y-196739285D02*
X580129820Y-196644047D01*
X580129820Y-196644047D02*
X580129820Y-196405952D01*
X580129820Y-196405952D02*
X580082201Y-196310714D01*
X580082201Y-196310714D02*
X580034581Y-196263095D01*
X579129820Y-197453571D02*
X579129820Y-197548809D01*
X579129820Y-197548809D02*
X579177439Y-197644047D01*
X579177439Y-197644047D02*
X579225058Y-197691666D01*
X579225058Y-197691666D02*
X579320296Y-197739285D01*
X579320296Y-197739285D02*
X579510772Y-197786904D01*
X579510772Y-197786904D02*
X579748867Y-197786904D01*
X579748867Y-197786904D02*
X579939343Y-197739285D01*
X579939343Y-197739285D02*
X580034581Y-197691666D01*
X580034581Y-197691666D02*
X580082201Y-197644047D01*
X580082201Y-197644047D02*
X580129820Y-197548809D01*
X580129820Y-197548809D02*
X580129820Y-197453571D01*
X580129820Y-197453571D02*
X580082201Y-197358333D01*
X580082201Y-197358333D02*
X580034581Y-197310714D01*
X580034581Y-197310714D02*
X579939343Y-197263095D01*
X579939343Y-197263095D02*
X579748867Y-197215476D01*
X579748867Y-197215476D02*
X579510772Y-197215476D01*
X579510772Y-197215476D02*
X579320296Y-197263095D01*
X579320296Y-197263095D02*
X579225058Y-197310714D01*
X579225058Y-197310714D02*
X579177439Y-197358333D01*
X579177439Y-197358333D02*
X579129820Y-197453571D01*
X659729820Y-178310714D02*
X658729820Y-178310714D01*
X658729820Y-178310714D02*
X658729820Y-178548809D01*
X658729820Y-178548809D02*
X658777439Y-178691666D01*
X658777439Y-178691666D02*
X658872677Y-178786904D01*
X658872677Y-178786904D02*
X658967915Y-178834523D01*
X658967915Y-178834523D02*
X659158391Y-178882142D01*
X659158391Y-178882142D02*
X659301248Y-178882142D01*
X659301248Y-178882142D02*
X659491724Y-178834523D01*
X659491724Y-178834523D02*
X659586962Y-178786904D01*
X659586962Y-178786904D02*
X659682201Y-178691666D01*
X659682201Y-178691666D02*
X659729820Y-178548809D01*
X659729820Y-178548809D02*
X659729820Y-178310714D01*
X659063153Y-179739285D02*
X659729820Y-179739285D01*
X658682201Y-179501190D02*
X659396486Y-179263095D01*
X659396486Y-179263095D02*
X659396486Y-179882142D01*
X658825058Y-180215476D02*
X658777439Y-180263095D01*
X658777439Y-180263095D02*
X658729820Y-180358333D01*
X658729820Y-180358333D02*
X658729820Y-180596428D01*
X658729820Y-180596428D02*
X658777439Y-180691666D01*
X658777439Y-180691666D02*
X658825058Y-180739285D01*
X658825058Y-180739285D02*
X658920296Y-180786904D01*
X658920296Y-180786904D02*
X659015534Y-180786904D01*
X659015534Y-180786904D02*
X659158391Y-180739285D01*
X659158391Y-180739285D02*
X659729820Y-180167857D01*
X659729820Y-180167857D02*
X659729820Y-180786904D01*
X755354820Y-178310714D02*
X754354820Y-178310714D01*
X754354820Y-178310714D02*
X754354820Y-178548809D01*
X754354820Y-178548809D02*
X754402439Y-178691666D01*
X754402439Y-178691666D02*
X754497677Y-178786904D01*
X754497677Y-178786904D02*
X754592915Y-178834523D01*
X754592915Y-178834523D02*
X754783391Y-178882142D01*
X754783391Y-178882142D02*
X754926248Y-178882142D01*
X754926248Y-178882142D02*
X755116724Y-178834523D01*
X755116724Y-178834523D02*
X755211962Y-178786904D01*
X755211962Y-178786904D02*
X755307201Y-178691666D01*
X755307201Y-178691666D02*
X755354820Y-178548809D01*
X755354820Y-178548809D02*
X755354820Y-178310714D01*
X754688153Y-179739285D02*
X755354820Y-179739285D01*
X754307201Y-179501190D02*
X755021486Y-179263095D01*
X755021486Y-179263095D02*
X755021486Y-179882142D01*
X754354820Y-180167857D02*
X754354820Y-180834523D01*
X754354820Y-180834523D02*
X755354820Y-180405952D01*
X527979820Y-144786905D02*
X526979820Y-144786905D01*
X526979820Y-144786905D02*
X526979820Y-145025000D01*
X526979820Y-145025000D02*
X527027439Y-145167857D01*
X527027439Y-145167857D02*
X527122677Y-145263095D01*
X527122677Y-145263095D02*
X527217915Y-145310714D01*
X527217915Y-145310714D02*
X527408391Y-145358333D01*
X527408391Y-145358333D02*
X527551248Y-145358333D01*
X527551248Y-145358333D02*
X527741724Y-145310714D01*
X527741724Y-145310714D02*
X527836962Y-145263095D01*
X527836962Y-145263095D02*
X527932201Y-145167857D01*
X527932201Y-145167857D02*
X527979820Y-145025000D01*
X527979820Y-145025000D02*
X527979820Y-144786905D01*
X527979820Y-146310714D02*
X527979820Y-145739286D01*
X527979820Y-146025000D02*
X526979820Y-146025000D01*
X526979820Y-146025000D02*
X527122677Y-145929762D01*
X527122677Y-145929762D02*
X527217915Y-145834524D01*
X527217915Y-145834524D02*
X527265534Y-145739286D01*
X821229820Y-144310714D02*
X820229820Y-144310714D01*
X820229820Y-144310714D02*
X820229820Y-144548809D01*
X820229820Y-144548809D02*
X820277439Y-144691666D01*
X820277439Y-144691666D02*
X820372677Y-144786904D01*
X820372677Y-144786904D02*
X820467915Y-144834523D01*
X820467915Y-144834523D02*
X820658391Y-144882142D01*
X820658391Y-144882142D02*
X820801248Y-144882142D01*
X820801248Y-144882142D02*
X820991724Y-144834523D01*
X820991724Y-144834523D02*
X821086962Y-144786904D01*
X821086962Y-144786904D02*
X821182201Y-144691666D01*
X821182201Y-144691666D02*
X821229820Y-144548809D01*
X821229820Y-144548809D02*
X821229820Y-144310714D01*
X821229820Y-145834523D02*
X821229820Y-145263095D01*
X821229820Y-145548809D02*
X820229820Y-145548809D01*
X820229820Y-145548809D02*
X820372677Y-145453571D01*
X820372677Y-145453571D02*
X820467915Y-145358333D01*
X820467915Y-145358333D02*
X820515534Y-145263095D01*
X820229820Y-146167857D02*
X820229820Y-146834523D01*
X820229820Y-146834523D02*
X821229820Y-146405952D01*
X570479820Y-161310714D02*
X569479820Y-161310714D01*
X569479820Y-161310714D02*
X569479820Y-161548809D01*
X569479820Y-161548809D02*
X569527439Y-161691666D01*
X569527439Y-161691666D02*
X569622677Y-161786904D01*
X569622677Y-161786904D02*
X569717915Y-161834523D01*
X569717915Y-161834523D02*
X569908391Y-161882142D01*
X569908391Y-161882142D02*
X570051248Y-161882142D01*
X570051248Y-161882142D02*
X570241724Y-161834523D01*
X570241724Y-161834523D02*
X570336962Y-161786904D01*
X570336962Y-161786904D02*
X570432201Y-161691666D01*
X570432201Y-161691666D02*
X570479820Y-161548809D01*
X570479820Y-161548809D02*
X570479820Y-161310714D01*
X569575058Y-162263095D02*
X569527439Y-162310714D01*
X569527439Y-162310714D02*
X569479820Y-162405952D01*
X569479820Y-162405952D02*
X569479820Y-162644047D01*
X569479820Y-162644047D02*
X569527439Y-162739285D01*
X569527439Y-162739285D02*
X569575058Y-162786904D01*
X569575058Y-162786904D02*
X569670296Y-162834523D01*
X569670296Y-162834523D02*
X569765534Y-162834523D01*
X569765534Y-162834523D02*
X569908391Y-162786904D01*
X569908391Y-162786904D02*
X570479820Y-162215476D01*
X570479820Y-162215476D02*
X570479820Y-162834523D01*
X569479820Y-163453571D02*
X569479820Y-163548809D01*
X569479820Y-163548809D02*
X569527439Y-163644047D01*
X569527439Y-163644047D02*
X569575058Y-163691666D01*
X569575058Y-163691666D02*
X569670296Y-163739285D01*
X569670296Y-163739285D02*
X569860772Y-163786904D01*
X569860772Y-163786904D02*
X570098867Y-163786904D01*
X570098867Y-163786904D02*
X570289343Y-163739285D01*
X570289343Y-163739285D02*
X570384581Y-163691666D01*
X570384581Y-163691666D02*
X570432201Y-163644047D01*
X570432201Y-163644047D02*
X570479820Y-163548809D01*
X570479820Y-163548809D02*
X570479820Y-163453571D01*
X570479820Y-163453571D02*
X570432201Y-163358333D01*
X570432201Y-163358333D02*
X570384581Y-163310714D01*
X570384581Y-163310714D02*
X570289343Y-163263095D01*
X570289343Y-163263095D02*
X570098867Y-163215476D01*
X570098867Y-163215476D02*
X569860772Y-163215476D01*
X569860772Y-163215476D02*
X569670296Y-163263095D01*
X569670296Y-163263095D02*
X569575058Y-163310714D01*
X569575058Y-163310714D02*
X569527439Y-163358333D01*
X569527439Y-163358333D02*
X569479820Y-163453571D01*
X765129820Y-161310714D02*
X764129820Y-161310714D01*
X764129820Y-161310714D02*
X764129820Y-161548809D01*
X764129820Y-161548809D02*
X764177439Y-161691666D01*
X764177439Y-161691666D02*
X764272677Y-161786904D01*
X764272677Y-161786904D02*
X764367915Y-161834523D01*
X764367915Y-161834523D02*
X764558391Y-161882142D01*
X764558391Y-161882142D02*
X764701248Y-161882142D01*
X764701248Y-161882142D02*
X764891724Y-161834523D01*
X764891724Y-161834523D02*
X764986962Y-161786904D01*
X764986962Y-161786904D02*
X765082201Y-161691666D01*
X765082201Y-161691666D02*
X765129820Y-161548809D01*
X765129820Y-161548809D02*
X765129820Y-161310714D01*
X764129820Y-162215476D02*
X764129820Y-162834523D01*
X764129820Y-162834523D02*
X764510772Y-162501190D01*
X764510772Y-162501190D02*
X764510772Y-162644047D01*
X764510772Y-162644047D02*
X764558391Y-162739285D01*
X764558391Y-162739285D02*
X764606010Y-162786904D01*
X764606010Y-162786904D02*
X764701248Y-162834523D01*
X764701248Y-162834523D02*
X764939343Y-162834523D01*
X764939343Y-162834523D02*
X765034581Y-162786904D01*
X765034581Y-162786904D02*
X765082201Y-162739285D01*
X765082201Y-162739285D02*
X765129820Y-162644047D01*
X765129820Y-162644047D02*
X765129820Y-162358333D01*
X765129820Y-162358333D02*
X765082201Y-162263095D01*
X765082201Y-162263095D02*
X765034581Y-162215476D01*
X765129820Y-163786904D02*
X765129820Y-163215476D01*
X765129820Y-163501190D02*
X764129820Y-163501190D01*
X764129820Y-163501190D02*
X764272677Y-163405952D01*
X764272677Y-163405952D02*
X764367915Y-163310714D01*
X764367915Y-163310714D02*
X764415534Y-163215476D01*
X672479820Y-161310714D02*
X671479820Y-161310714D01*
X671479820Y-161310714D02*
X671479820Y-161548809D01*
X671479820Y-161548809D02*
X671527439Y-161691666D01*
X671527439Y-161691666D02*
X671622677Y-161786904D01*
X671622677Y-161786904D02*
X671717915Y-161834523D01*
X671717915Y-161834523D02*
X671908391Y-161882142D01*
X671908391Y-161882142D02*
X672051248Y-161882142D01*
X672051248Y-161882142D02*
X672241724Y-161834523D01*
X672241724Y-161834523D02*
X672336962Y-161786904D01*
X672336962Y-161786904D02*
X672432201Y-161691666D01*
X672432201Y-161691666D02*
X672479820Y-161548809D01*
X672479820Y-161548809D02*
X672479820Y-161310714D01*
X671575058Y-162263095D02*
X671527439Y-162310714D01*
X671527439Y-162310714D02*
X671479820Y-162405952D01*
X671479820Y-162405952D02*
X671479820Y-162644047D01*
X671479820Y-162644047D02*
X671527439Y-162739285D01*
X671527439Y-162739285D02*
X671575058Y-162786904D01*
X671575058Y-162786904D02*
X671670296Y-162834523D01*
X671670296Y-162834523D02*
X671765534Y-162834523D01*
X671765534Y-162834523D02*
X671908391Y-162786904D01*
X671908391Y-162786904D02*
X672479820Y-162215476D01*
X672479820Y-162215476D02*
X672479820Y-162834523D01*
X671479820Y-163691666D02*
X671479820Y-163501190D01*
X671479820Y-163501190D02*
X671527439Y-163405952D01*
X671527439Y-163405952D02*
X671575058Y-163358333D01*
X671575058Y-163358333D02*
X671717915Y-163263095D01*
X671717915Y-163263095D02*
X671908391Y-163215476D01*
X671908391Y-163215476D02*
X672289343Y-163215476D01*
X672289343Y-163215476D02*
X672384581Y-163263095D01*
X672384581Y-163263095D02*
X672432201Y-163310714D01*
X672432201Y-163310714D02*
X672479820Y-163405952D01*
X672479820Y-163405952D02*
X672479820Y-163596428D01*
X672479820Y-163596428D02*
X672432201Y-163691666D01*
X672432201Y-163691666D02*
X672384581Y-163739285D01*
X672384581Y-163739285D02*
X672289343Y-163786904D01*
X672289343Y-163786904D02*
X672051248Y-163786904D01*
X672051248Y-163786904D02*
X671956010Y-163739285D01*
X671956010Y-163739285D02*
X671908391Y-163691666D01*
X671908391Y-163691666D02*
X671860772Y-163596428D01*
X671860772Y-163596428D02*
X671860772Y-163405952D01*
X671860772Y-163405952D02*
X671908391Y-163310714D01*
X671908391Y-163310714D02*
X671956010Y-163263095D01*
X671956010Y-163263095D02*
X672051248Y-163215476D01*
X629979820Y-144786905D02*
X628979820Y-144786905D01*
X628979820Y-144786905D02*
X628979820Y-145025000D01*
X628979820Y-145025000D02*
X629027439Y-145167857D01*
X629027439Y-145167857D02*
X629122677Y-145263095D01*
X629122677Y-145263095D02*
X629217915Y-145310714D01*
X629217915Y-145310714D02*
X629408391Y-145358333D01*
X629408391Y-145358333D02*
X629551248Y-145358333D01*
X629551248Y-145358333D02*
X629741724Y-145310714D01*
X629741724Y-145310714D02*
X629836962Y-145263095D01*
X629836962Y-145263095D02*
X629932201Y-145167857D01*
X629932201Y-145167857D02*
X629979820Y-145025000D01*
X629979820Y-145025000D02*
X629979820Y-144786905D01*
X628979820Y-145691667D02*
X628979820Y-146358333D01*
X628979820Y-146358333D02*
X629979820Y-145929762D01*
X821229820Y-212310714D02*
X820229820Y-212310714D01*
X820229820Y-212310714D02*
X820229820Y-212548809D01*
X820229820Y-212548809D02*
X820277439Y-212691666D01*
X820277439Y-212691666D02*
X820372677Y-212786904D01*
X820372677Y-212786904D02*
X820467915Y-212834523D01*
X820467915Y-212834523D02*
X820658391Y-212882142D01*
X820658391Y-212882142D02*
X820801248Y-212882142D01*
X820801248Y-212882142D02*
X820991724Y-212834523D01*
X820991724Y-212834523D02*
X821086962Y-212786904D01*
X821086962Y-212786904D02*
X821182201Y-212691666D01*
X821182201Y-212691666D02*
X821229820Y-212548809D01*
X821229820Y-212548809D02*
X821229820Y-212310714D01*
X820229820Y-213215476D02*
X820229820Y-213882142D01*
X820229820Y-213882142D02*
X821229820Y-213453571D01*
X820563153Y-214691666D02*
X821229820Y-214691666D01*
X820182201Y-214453571D02*
X820896486Y-214215476D01*
X820896486Y-214215476D02*
X820896486Y-214834523D01*
X706479820Y-161310714D02*
X705479820Y-161310714D01*
X705479820Y-161310714D02*
X705479820Y-161548809D01*
X705479820Y-161548809D02*
X705527439Y-161691666D01*
X705527439Y-161691666D02*
X705622677Y-161786904D01*
X705622677Y-161786904D02*
X705717915Y-161834523D01*
X705717915Y-161834523D02*
X705908391Y-161882142D01*
X705908391Y-161882142D02*
X706051248Y-161882142D01*
X706051248Y-161882142D02*
X706241724Y-161834523D01*
X706241724Y-161834523D02*
X706336962Y-161786904D01*
X706336962Y-161786904D02*
X706432201Y-161691666D01*
X706432201Y-161691666D02*
X706479820Y-161548809D01*
X706479820Y-161548809D02*
X706479820Y-161310714D01*
X705575058Y-162263095D02*
X705527439Y-162310714D01*
X705527439Y-162310714D02*
X705479820Y-162405952D01*
X705479820Y-162405952D02*
X705479820Y-162644047D01*
X705479820Y-162644047D02*
X705527439Y-162739285D01*
X705527439Y-162739285D02*
X705575058Y-162786904D01*
X705575058Y-162786904D02*
X705670296Y-162834523D01*
X705670296Y-162834523D02*
X705765534Y-162834523D01*
X705765534Y-162834523D02*
X705908391Y-162786904D01*
X705908391Y-162786904D02*
X706479820Y-162215476D01*
X706479820Y-162215476D02*
X706479820Y-162834523D01*
X705908391Y-163405952D02*
X705860772Y-163310714D01*
X705860772Y-163310714D02*
X705813153Y-163263095D01*
X705813153Y-163263095D02*
X705717915Y-163215476D01*
X705717915Y-163215476D02*
X705670296Y-163215476D01*
X705670296Y-163215476D02*
X705575058Y-163263095D01*
X705575058Y-163263095D02*
X705527439Y-163310714D01*
X705527439Y-163310714D02*
X705479820Y-163405952D01*
X705479820Y-163405952D02*
X705479820Y-163596428D01*
X705479820Y-163596428D02*
X705527439Y-163691666D01*
X705527439Y-163691666D02*
X705575058Y-163739285D01*
X705575058Y-163739285D02*
X705670296Y-163786904D01*
X705670296Y-163786904D02*
X705717915Y-163786904D01*
X705717915Y-163786904D02*
X705813153Y-163739285D01*
X705813153Y-163739285D02*
X705860772Y-163691666D01*
X705860772Y-163691666D02*
X705908391Y-163596428D01*
X705908391Y-163596428D02*
X705908391Y-163405952D01*
X705908391Y-163405952D02*
X705956010Y-163310714D01*
X705956010Y-163310714D02*
X706003629Y-163263095D01*
X706003629Y-163263095D02*
X706098867Y-163215476D01*
X706098867Y-163215476D02*
X706289343Y-163215476D01*
X706289343Y-163215476D02*
X706384581Y-163263095D01*
X706384581Y-163263095D02*
X706432201Y-163310714D01*
X706432201Y-163310714D02*
X706479820Y-163405952D01*
X706479820Y-163405952D02*
X706479820Y-163596428D01*
X706479820Y-163596428D02*
X706432201Y-163691666D01*
X706432201Y-163691666D02*
X706384581Y-163739285D01*
X706384581Y-163739285D02*
X706289343Y-163786904D01*
X706289343Y-163786904D02*
X706098867Y-163786904D01*
X706098867Y-163786904D02*
X706003629Y-163739285D01*
X706003629Y-163739285D02*
X705956010Y-163691666D01*
X705956010Y-163691666D02*
X705908391Y-163596428D01*
X553479820Y-161310714D02*
X552479820Y-161310714D01*
X552479820Y-161310714D02*
X552479820Y-161548809D01*
X552479820Y-161548809D02*
X552527439Y-161691666D01*
X552527439Y-161691666D02*
X552622677Y-161786904D01*
X552622677Y-161786904D02*
X552717915Y-161834523D01*
X552717915Y-161834523D02*
X552908391Y-161882142D01*
X552908391Y-161882142D02*
X553051248Y-161882142D01*
X553051248Y-161882142D02*
X553241724Y-161834523D01*
X553241724Y-161834523D02*
X553336962Y-161786904D01*
X553336962Y-161786904D02*
X553432201Y-161691666D01*
X553432201Y-161691666D02*
X553479820Y-161548809D01*
X553479820Y-161548809D02*
X553479820Y-161310714D01*
X553479820Y-162834523D02*
X553479820Y-162263095D01*
X553479820Y-162548809D02*
X552479820Y-162548809D01*
X552479820Y-162548809D02*
X552622677Y-162453571D01*
X552622677Y-162453571D02*
X552717915Y-162358333D01*
X552717915Y-162358333D02*
X552765534Y-162263095D01*
X553479820Y-163310714D02*
X553479820Y-163501190D01*
X553479820Y-163501190D02*
X553432201Y-163596428D01*
X553432201Y-163596428D02*
X553384581Y-163644047D01*
X553384581Y-163644047D02*
X553241724Y-163739285D01*
X553241724Y-163739285D02*
X553051248Y-163786904D01*
X553051248Y-163786904D02*
X552670296Y-163786904D01*
X552670296Y-163786904D02*
X552575058Y-163739285D01*
X552575058Y-163739285D02*
X552527439Y-163691666D01*
X552527439Y-163691666D02*
X552479820Y-163596428D01*
X552479820Y-163596428D02*
X552479820Y-163405952D01*
X552479820Y-163405952D02*
X552527439Y-163310714D01*
X552527439Y-163310714D02*
X552575058Y-163263095D01*
X552575058Y-163263095D02*
X552670296Y-163215476D01*
X552670296Y-163215476D02*
X552908391Y-163215476D01*
X552908391Y-163215476D02*
X553003629Y-163263095D01*
X553003629Y-163263095D02*
X553051248Y-163310714D01*
X553051248Y-163310714D02*
X553098867Y-163405952D01*
X553098867Y-163405952D02*
X553098867Y-163596428D01*
X553098867Y-163596428D02*
X553051248Y-163691666D01*
X553051248Y-163691666D02*
X553003629Y-163739285D01*
X553003629Y-163739285D02*
X552908391Y-163786904D01*
X636354820Y-212310714D02*
X635354820Y-212310714D01*
X635354820Y-212310714D02*
X635354820Y-212548809D01*
X635354820Y-212548809D02*
X635402439Y-212691666D01*
X635402439Y-212691666D02*
X635497677Y-212786904D01*
X635497677Y-212786904D02*
X635592915Y-212834523D01*
X635592915Y-212834523D02*
X635783391Y-212882142D01*
X635783391Y-212882142D02*
X635926248Y-212882142D01*
X635926248Y-212882142D02*
X636116724Y-212834523D01*
X636116724Y-212834523D02*
X636211962Y-212786904D01*
X636211962Y-212786904D02*
X636307201Y-212691666D01*
X636307201Y-212691666D02*
X636354820Y-212548809D01*
X636354820Y-212548809D02*
X636354820Y-212310714D01*
X635354820Y-213739285D02*
X635354820Y-213548809D01*
X635354820Y-213548809D02*
X635402439Y-213453571D01*
X635402439Y-213453571D02*
X635450058Y-213405952D01*
X635450058Y-213405952D02*
X635592915Y-213310714D01*
X635592915Y-213310714D02*
X635783391Y-213263095D01*
X635783391Y-213263095D02*
X636164343Y-213263095D01*
X636164343Y-213263095D02*
X636259581Y-213310714D01*
X636259581Y-213310714D02*
X636307201Y-213358333D01*
X636307201Y-213358333D02*
X636354820Y-213453571D01*
X636354820Y-213453571D02*
X636354820Y-213644047D01*
X636354820Y-213644047D02*
X636307201Y-213739285D01*
X636307201Y-213739285D02*
X636259581Y-213786904D01*
X636259581Y-213786904D02*
X636164343Y-213834523D01*
X636164343Y-213834523D02*
X635926248Y-213834523D01*
X635926248Y-213834523D02*
X635831010Y-213786904D01*
X635831010Y-213786904D02*
X635783391Y-213739285D01*
X635783391Y-213739285D02*
X635735772Y-213644047D01*
X635735772Y-213644047D02*
X635735772Y-213453571D01*
X635735772Y-213453571D02*
X635783391Y-213358333D01*
X635783391Y-213358333D02*
X635831010Y-213310714D01*
X635831010Y-213310714D02*
X635926248Y-213263095D01*
X635354820Y-214691666D02*
X635354820Y-214501190D01*
X635354820Y-214501190D02*
X635402439Y-214405952D01*
X635402439Y-214405952D02*
X635450058Y-214358333D01*
X635450058Y-214358333D02*
X635592915Y-214263095D01*
X635592915Y-214263095D02*
X635783391Y-214215476D01*
X635783391Y-214215476D02*
X636164343Y-214215476D01*
X636164343Y-214215476D02*
X636259581Y-214263095D01*
X636259581Y-214263095D02*
X636307201Y-214310714D01*
X636307201Y-214310714D02*
X636354820Y-214405952D01*
X636354820Y-214405952D02*
X636354820Y-214596428D01*
X636354820Y-214596428D02*
X636307201Y-214691666D01*
X636307201Y-214691666D02*
X636259581Y-214739285D01*
X636259581Y-214739285D02*
X636164343Y-214786904D01*
X636164343Y-214786904D02*
X635926248Y-214786904D01*
X635926248Y-214786904D02*
X635831010Y-214739285D01*
X635831010Y-214739285D02*
X635783391Y-214691666D01*
X635783391Y-214691666D02*
X635735772Y-214596428D01*
X635735772Y-214596428D02*
X635735772Y-214405952D01*
X635735772Y-214405952D02*
X635783391Y-214310714D01*
X635783391Y-214310714D02*
X635831010Y-214263095D01*
X635831010Y-214263095D02*
X635926248Y-214215476D01*
X663979820Y-144786905D02*
X662979820Y-144786905D01*
X662979820Y-144786905D02*
X662979820Y-145025000D01*
X662979820Y-145025000D02*
X663027439Y-145167857D01*
X663027439Y-145167857D02*
X663122677Y-145263095D01*
X663122677Y-145263095D02*
X663217915Y-145310714D01*
X663217915Y-145310714D02*
X663408391Y-145358333D01*
X663408391Y-145358333D02*
X663551248Y-145358333D01*
X663551248Y-145358333D02*
X663741724Y-145310714D01*
X663741724Y-145310714D02*
X663836962Y-145263095D01*
X663836962Y-145263095D02*
X663932201Y-145167857D01*
X663932201Y-145167857D02*
X663979820Y-145025000D01*
X663979820Y-145025000D02*
X663979820Y-144786905D01*
X663979820Y-145834524D02*
X663979820Y-146025000D01*
X663979820Y-146025000D02*
X663932201Y-146120238D01*
X663932201Y-146120238D02*
X663884581Y-146167857D01*
X663884581Y-146167857D02*
X663741724Y-146263095D01*
X663741724Y-146263095D02*
X663551248Y-146310714D01*
X663551248Y-146310714D02*
X663170296Y-146310714D01*
X663170296Y-146310714D02*
X663075058Y-146263095D01*
X663075058Y-146263095D02*
X663027439Y-146215476D01*
X663027439Y-146215476D02*
X662979820Y-146120238D01*
X662979820Y-146120238D02*
X662979820Y-145929762D01*
X662979820Y-145929762D02*
X663027439Y-145834524D01*
X663027439Y-145834524D02*
X663075058Y-145786905D01*
X663075058Y-145786905D02*
X663170296Y-145739286D01*
X663170296Y-145739286D02*
X663408391Y-145739286D01*
X663408391Y-145739286D02*
X663503629Y-145786905D01*
X663503629Y-145786905D02*
X663551248Y-145834524D01*
X663551248Y-145834524D02*
X663598867Y-145929762D01*
X663598867Y-145929762D02*
X663598867Y-146120238D01*
X663598867Y-146120238D02*
X663551248Y-146215476D01*
X663551248Y-146215476D02*
X663503629Y-146263095D01*
X663503629Y-146263095D02*
X663408391Y-146310714D01*
X700104820Y-212310714D02*
X699104820Y-212310714D01*
X699104820Y-212310714D02*
X699104820Y-212548809D01*
X699104820Y-212548809D02*
X699152439Y-212691666D01*
X699152439Y-212691666D02*
X699247677Y-212786904D01*
X699247677Y-212786904D02*
X699342915Y-212834523D01*
X699342915Y-212834523D02*
X699533391Y-212882142D01*
X699533391Y-212882142D02*
X699676248Y-212882142D01*
X699676248Y-212882142D02*
X699866724Y-212834523D01*
X699866724Y-212834523D02*
X699961962Y-212786904D01*
X699961962Y-212786904D02*
X700057201Y-212691666D01*
X700057201Y-212691666D02*
X700104820Y-212548809D01*
X700104820Y-212548809D02*
X700104820Y-212310714D01*
X699104820Y-213739285D02*
X699104820Y-213548809D01*
X699104820Y-213548809D02*
X699152439Y-213453571D01*
X699152439Y-213453571D02*
X699200058Y-213405952D01*
X699200058Y-213405952D02*
X699342915Y-213310714D01*
X699342915Y-213310714D02*
X699533391Y-213263095D01*
X699533391Y-213263095D02*
X699914343Y-213263095D01*
X699914343Y-213263095D02*
X700009581Y-213310714D01*
X700009581Y-213310714D02*
X700057201Y-213358333D01*
X700057201Y-213358333D02*
X700104820Y-213453571D01*
X700104820Y-213453571D02*
X700104820Y-213644047D01*
X700104820Y-213644047D02*
X700057201Y-213739285D01*
X700057201Y-213739285D02*
X700009581Y-213786904D01*
X700009581Y-213786904D02*
X699914343Y-213834523D01*
X699914343Y-213834523D02*
X699676248Y-213834523D01*
X699676248Y-213834523D02*
X699581010Y-213786904D01*
X699581010Y-213786904D02*
X699533391Y-213739285D01*
X699533391Y-213739285D02*
X699485772Y-213644047D01*
X699485772Y-213644047D02*
X699485772Y-213453571D01*
X699485772Y-213453571D02*
X699533391Y-213358333D01*
X699533391Y-213358333D02*
X699581010Y-213310714D01*
X699581010Y-213310714D02*
X699676248Y-213263095D01*
X699533391Y-214405952D02*
X699485772Y-214310714D01*
X699485772Y-214310714D02*
X699438153Y-214263095D01*
X699438153Y-214263095D02*
X699342915Y-214215476D01*
X699342915Y-214215476D02*
X699295296Y-214215476D01*
X699295296Y-214215476D02*
X699200058Y-214263095D01*
X699200058Y-214263095D02*
X699152439Y-214310714D01*
X699152439Y-214310714D02*
X699104820Y-214405952D01*
X699104820Y-214405952D02*
X699104820Y-214596428D01*
X699104820Y-214596428D02*
X699152439Y-214691666D01*
X699152439Y-214691666D02*
X699200058Y-214739285D01*
X699200058Y-214739285D02*
X699295296Y-214786904D01*
X699295296Y-214786904D02*
X699342915Y-214786904D01*
X699342915Y-214786904D02*
X699438153Y-214739285D01*
X699438153Y-214739285D02*
X699485772Y-214691666D01*
X699485772Y-214691666D02*
X699533391Y-214596428D01*
X699533391Y-214596428D02*
X699533391Y-214405952D01*
X699533391Y-214405952D02*
X699581010Y-214310714D01*
X699581010Y-214310714D02*
X699628629Y-214263095D01*
X699628629Y-214263095D02*
X699723867Y-214215476D01*
X699723867Y-214215476D02*
X699914343Y-214215476D01*
X699914343Y-214215476D02*
X700009581Y-214263095D01*
X700009581Y-214263095D02*
X700057201Y-214310714D01*
X700057201Y-214310714D02*
X700104820Y-214405952D01*
X700104820Y-214405952D02*
X700104820Y-214596428D01*
X700104820Y-214596428D02*
X700057201Y-214691666D01*
X700057201Y-214691666D02*
X700009581Y-214739285D01*
X700009581Y-214739285D02*
X699914343Y-214786904D01*
X699914343Y-214786904D02*
X699723867Y-214786904D01*
X699723867Y-214786904D02*
X699628629Y-214739285D01*
X699628629Y-214739285D02*
X699581010Y-214691666D01*
X699581010Y-214691666D02*
X699533391Y-214596428D01*
X702229820Y-195310714D02*
X701229820Y-195310714D01*
X701229820Y-195310714D02*
X701229820Y-195548809D01*
X701229820Y-195548809D02*
X701277439Y-195691666D01*
X701277439Y-195691666D02*
X701372677Y-195786904D01*
X701372677Y-195786904D02*
X701467915Y-195834523D01*
X701467915Y-195834523D02*
X701658391Y-195882142D01*
X701658391Y-195882142D02*
X701801248Y-195882142D01*
X701801248Y-195882142D02*
X701991724Y-195834523D01*
X701991724Y-195834523D02*
X702086962Y-195786904D01*
X702086962Y-195786904D02*
X702182201Y-195691666D01*
X702182201Y-195691666D02*
X702229820Y-195548809D01*
X702229820Y-195548809D02*
X702229820Y-195310714D01*
X701229820Y-196786904D02*
X701229820Y-196310714D01*
X701229820Y-196310714D02*
X701706010Y-196263095D01*
X701706010Y-196263095D02*
X701658391Y-196310714D01*
X701658391Y-196310714D02*
X701610772Y-196405952D01*
X701610772Y-196405952D02*
X701610772Y-196644047D01*
X701610772Y-196644047D02*
X701658391Y-196739285D01*
X701658391Y-196739285D02*
X701706010Y-196786904D01*
X701706010Y-196786904D02*
X701801248Y-196834523D01*
X701801248Y-196834523D02*
X702039343Y-196834523D01*
X702039343Y-196834523D02*
X702134581Y-196786904D01*
X702134581Y-196786904D02*
X702182201Y-196739285D01*
X702182201Y-196739285D02*
X702229820Y-196644047D01*
X702229820Y-196644047D02*
X702229820Y-196405952D01*
X702229820Y-196405952D02*
X702182201Y-196310714D01*
X702182201Y-196310714D02*
X702134581Y-196263095D01*
X701229820Y-197167857D02*
X701229820Y-197834523D01*
X701229820Y-197834523D02*
X702229820Y-197405952D01*
X551354820Y-212310714D02*
X550354820Y-212310714D01*
X550354820Y-212310714D02*
X550354820Y-212548809D01*
X550354820Y-212548809D02*
X550402439Y-212691666D01*
X550402439Y-212691666D02*
X550497677Y-212786904D01*
X550497677Y-212786904D02*
X550592915Y-212834523D01*
X550592915Y-212834523D02*
X550783391Y-212882142D01*
X550783391Y-212882142D02*
X550926248Y-212882142D01*
X550926248Y-212882142D02*
X551116724Y-212834523D01*
X551116724Y-212834523D02*
X551211962Y-212786904D01*
X551211962Y-212786904D02*
X551307201Y-212691666D01*
X551307201Y-212691666D02*
X551354820Y-212548809D01*
X551354820Y-212548809D02*
X551354820Y-212310714D01*
X550354820Y-213739285D02*
X550354820Y-213548809D01*
X550354820Y-213548809D02*
X550402439Y-213453571D01*
X550402439Y-213453571D02*
X550450058Y-213405952D01*
X550450058Y-213405952D02*
X550592915Y-213310714D01*
X550592915Y-213310714D02*
X550783391Y-213263095D01*
X550783391Y-213263095D02*
X551164343Y-213263095D01*
X551164343Y-213263095D02*
X551259581Y-213310714D01*
X551259581Y-213310714D02*
X551307201Y-213358333D01*
X551307201Y-213358333D02*
X551354820Y-213453571D01*
X551354820Y-213453571D02*
X551354820Y-213644047D01*
X551354820Y-213644047D02*
X551307201Y-213739285D01*
X551307201Y-213739285D02*
X551259581Y-213786904D01*
X551259581Y-213786904D02*
X551164343Y-213834523D01*
X551164343Y-213834523D02*
X550926248Y-213834523D01*
X550926248Y-213834523D02*
X550831010Y-213786904D01*
X550831010Y-213786904D02*
X550783391Y-213739285D01*
X550783391Y-213739285D02*
X550735772Y-213644047D01*
X550735772Y-213644047D02*
X550735772Y-213453571D01*
X550735772Y-213453571D02*
X550783391Y-213358333D01*
X550783391Y-213358333D02*
X550831010Y-213310714D01*
X550831010Y-213310714D02*
X550926248Y-213263095D01*
X550354820Y-214167857D02*
X550354820Y-214786904D01*
X550354820Y-214786904D02*
X550735772Y-214453571D01*
X550735772Y-214453571D02*
X550735772Y-214596428D01*
X550735772Y-214596428D02*
X550783391Y-214691666D01*
X550783391Y-214691666D02*
X550831010Y-214739285D01*
X550831010Y-214739285D02*
X550926248Y-214786904D01*
X550926248Y-214786904D02*
X551164343Y-214786904D01*
X551164343Y-214786904D02*
X551259581Y-214739285D01*
X551259581Y-214739285D02*
X551307201Y-214691666D01*
X551307201Y-214691666D02*
X551354820Y-214596428D01*
X551354820Y-214596428D02*
X551354820Y-214310714D01*
X551354820Y-214310714D02*
X551307201Y-214215476D01*
X551307201Y-214215476D02*
X551259581Y-214167857D01*
X638479820Y-161310714D02*
X637479820Y-161310714D01*
X637479820Y-161310714D02*
X637479820Y-161548809D01*
X637479820Y-161548809D02*
X637527439Y-161691666D01*
X637527439Y-161691666D02*
X637622677Y-161786904D01*
X637622677Y-161786904D02*
X637717915Y-161834523D01*
X637717915Y-161834523D02*
X637908391Y-161882142D01*
X637908391Y-161882142D02*
X638051248Y-161882142D01*
X638051248Y-161882142D02*
X638241724Y-161834523D01*
X638241724Y-161834523D02*
X638336962Y-161786904D01*
X638336962Y-161786904D02*
X638432201Y-161691666D01*
X638432201Y-161691666D02*
X638479820Y-161548809D01*
X638479820Y-161548809D02*
X638479820Y-161310714D01*
X637575058Y-162263095D02*
X637527439Y-162310714D01*
X637527439Y-162310714D02*
X637479820Y-162405952D01*
X637479820Y-162405952D02*
X637479820Y-162644047D01*
X637479820Y-162644047D02*
X637527439Y-162739285D01*
X637527439Y-162739285D02*
X637575058Y-162786904D01*
X637575058Y-162786904D02*
X637670296Y-162834523D01*
X637670296Y-162834523D02*
X637765534Y-162834523D01*
X637765534Y-162834523D02*
X637908391Y-162786904D01*
X637908391Y-162786904D02*
X638479820Y-162215476D01*
X638479820Y-162215476D02*
X638479820Y-162834523D01*
X637813153Y-163691666D02*
X638479820Y-163691666D01*
X637432201Y-163453571D02*
X638146486Y-163215476D01*
X638146486Y-163215476D02*
X638146486Y-163834523D01*
X804229820Y-144310714D02*
X803229820Y-144310714D01*
X803229820Y-144310714D02*
X803229820Y-144548809D01*
X803229820Y-144548809D02*
X803277439Y-144691666D01*
X803277439Y-144691666D02*
X803372677Y-144786904D01*
X803372677Y-144786904D02*
X803467915Y-144834523D01*
X803467915Y-144834523D02*
X803658391Y-144882142D01*
X803658391Y-144882142D02*
X803801248Y-144882142D01*
X803801248Y-144882142D02*
X803991724Y-144834523D01*
X803991724Y-144834523D02*
X804086962Y-144786904D01*
X804086962Y-144786904D02*
X804182201Y-144691666D01*
X804182201Y-144691666D02*
X804229820Y-144548809D01*
X804229820Y-144548809D02*
X804229820Y-144310714D01*
X804229820Y-145834523D02*
X804229820Y-145263095D01*
X804229820Y-145548809D02*
X803229820Y-145548809D01*
X803229820Y-145548809D02*
X803372677Y-145453571D01*
X803372677Y-145453571D02*
X803467915Y-145358333D01*
X803467915Y-145358333D02*
X803515534Y-145263095D01*
X803229820Y-146691666D02*
X803229820Y-146501190D01*
X803229820Y-146501190D02*
X803277439Y-146405952D01*
X803277439Y-146405952D02*
X803325058Y-146358333D01*
X803325058Y-146358333D02*
X803467915Y-146263095D01*
X803467915Y-146263095D02*
X803658391Y-146215476D01*
X803658391Y-146215476D02*
X804039343Y-146215476D01*
X804039343Y-146215476D02*
X804134581Y-146263095D01*
X804134581Y-146263095D02*
X804182201Y-146310714D01*
X804182201Y-146310714D02*
X804229820Y-146405952D01*
X804229820Y-146405952D02*
X804229820Y-146596428D01*
X804229820Y-146596428D02*
X804182201Y-146691666D01*
X804182201Y-146691666D02*
X804134581Y-146739285D01*
X804134581Y-146739285D02*
X804039343Y-146786904D01*
X804039343Y-146786904D02*
X803801248Y-146786904D01*
X803801248Y-146786904D02*
X803706010Y-146739285D01*
X803706010Y-146739285D02*
X803658391Y-146691666D01*
X803658391Y-146691666D02*
X803610772Y-146596428D01*
X803610772Y-146596428D02*
X803610772Y-146405952D01*
X803610772Y-146405952D02*
X803658391Y-146310714D01*
X803658391Y-146310714D02*
X803706010Y-146263095D01*
X803706010Y-146263095D02*
X803801248Y-146215476D01*
X723479820Y-161310714D02*
X722479820Y-161310714D01*
X722479820Y-161310714D02*
X722479820Y-161548809D01*
X722479820Y-161548809D02*
X722527439Y-161691666D01*
X722527439Y-161691666D02*
X722622677Y-161786904D01*
X722622677Y-161786904D02*
X722717915Y-161834523D01*
X722717915Y-161834523D02*
X722908391Y-161882142D01*
X722908391Y-161882142D02*
X723051248Y-161882142D01*
X723051248Y-161882142D02*
X723241724Y-161834523D01*
X723241724Y-161834523D02*
X723336962Y-161786904D01*
X723336962Y-161786904D02*
X723432201Y-161691666D01*
X723432201Y-161691666D02*
X723479820Y-161548809D01*
X723479820Y-161548809D02*
X723479820Y-161310714D01*
X722575058Y-162263095D02*
X722527439Y-162310714D01*
X722527439Y-162310714D02*
X722479820Y-162405952D01*
X722479820Y-162405952D02*
X722479820Y-162644047D01*
X722479820Y-162644047D02*
X722527439Y-162739285D01*
X722527439Y-162739285D02*
X722575058Y-162786904D01*
X722575058Y-162786904D02*
X722670296Y-162834523D01*
X722670296Y-162834523D02*
X722765534Y-162834523D01*
X722765534Y-162834523D02*
X722908391Y-162786904D01*
X722908391Y-162786904D02*
X723479820Y-162215476D01*
X723479820Y-162215476D02*
X723479820Y-162834523D01*
X723479820Y-163310714D02*
X723479820Y-163501190D01*
X723479820Y-163501190D02*
X723432201Y-163596428D01*
X723432201Y-163596428D02*
X723384581Y-163644047D01*
X723384581Y-163644047D02*
X723241724Y-163739285D01*
X723241724Y-163739285D02*
X723051248Y-163786904D01*
X723051248Y-163786904D02*
X722670296Y-163786904D01*
X722670296Y-163786904D02*
X722575058Y-163739285D01*
X722575058Y-163739285D02*
X722527439Y-163691666D01*
X722527439Y-163691666D02*
X722479820Y-163596428D01*
X722479820Y-163596428D02*
X722479820Y-163405952D01*
X722479820Y-163405952D02*
X722527439Y-163310714D01*
X722527439Y-163310714D02*
X722575058Y-163263095D01*
X722575058Y-163263095D02*
X722670296Y-163215476D01*
X722670296Y-163215476D02*
X722908391Y-163215476D01*
X722908391Y-163215476D02*
X723003629Y-163263095D01*
X723003629Y-163263095D02*
X723051248Y-163310714D01*
X723051248Y-163310714D02*
X723098867Y-163405952D01*
X723098867Y-163405952D02*
X723098867Y-163596428D01*
X723098867Y-163596428D02*
X723051248Y-163691666D01*
X723051248Y-163691666D02*
X723003629Y-163739285D01*
X723003629Y-163739285D02*
X722908391Y-163786904D01*
X804229820Y-195310714D02*
X803229820Y-195310714D01*
X803229820Y-195310714D02*
X803229820Y-195548809D01*
X803229820Y-195548809D02*
X803277439Y-195691666D01*
X803277439Y-195691666D02*
X803372677Y-195786904D01*
X803372677Y-195786904D02*
X803467915Y-195834523D01*
X803467915Y-195834523D02*
X803658391Y-195882142D01*
X803658391Y-195882142D02*
X803801248Y-195882142D01*
X803801248Y-195882142D02*
X803991724Y-195834523D01*
X803991724Y-195834523D02*
X804086962Y-195786904D01*
X804086962Y-195786904D02*
X804182201Y-195691666D01*
X804182201Y-195691666D02*
X804229820Y-195548809D01*
X804229820Y-195548809D02*
X804229820Y-195310714D01*
X803229820Y-196739285D02*
X803229820Y-196548809D01*
X803229820Y-196548809D02*
X803277439Y-196453571D01*
X803277439Y-196453571D02*
X803325058Y-196405952D01*
X803325058Y-196405952D02*
X803467915Y-196310714D01*
X803467915Y-196310714D02*
X803658391Y-196263095D01*
X803658391Y-196263095D02*
X804039343Y-196263095D01*
X804039343Y-196263095D02*
X804134581Y-196310714D01*
X804134581Y-196310714D02*
X804182201Y-196358333D01*
X804182201Y-196358333D02*
X804229820Y-196453571D01*
X804229820Y-196453571D02*
X804229820Y-196644047D01*
X804229820Y-196644047D02*
X804182201Y-196739285D01*
X804182201Y-196739285D02*
X804134581Y-196786904D01*
X804134581Y-196786904D02*
X804039343Y-196834523D01*
X804039343Y-196834523D02*
X803801248Y-196834523D01*
X803801248Y-196834523D02*
X803706010Y-196786904D01*
X803706010Y-196786904D02*
X803658391Y-196739285D01*
X803658391Y-196739285D02*
X803610772Y-196644047D01*
X803610772Y-196644047D02*
X803610772Y-196453571D01*
X803610772Y-196453571D02*
X803658391Y-196358333D01*
X803658391Y-196358333D02*
X803706010Y-196310714D01*
X803706010Y-196310714D02*
X803801248Y-196263095D01*
X804229820Y-197786904D02*
X804229820Y-197215476D01*
X804229820Y-197501190D02*
X803229820Y-197501190D01*
X803229820Y-197501190D02*
X803372677Y-197405952D01*
X803372677Y-197405952D02*
X803467915Y-197310714D01*
X803467915Y-197310714D02*
X803515534Y-197215476D01*
D11*
%TO.C,D2*%
X541525000Y-143875000D02*
X541525000Y-147885000D01*
X541525000Y-147885000D02*
X543525000Y-147885000D01*
X543525000Y-143875000D02*
X543525000Y-147885000D01*
%TO.C,D39*%
X605275000Y-177875000D02*
X605275000Y-181885000D01*
X605275000Y-181885000D02*
X607275000Y-181885000D01*
X607275000Y-177875000D02*
X607275000Y-181885000D01*
%TO.C,D23*%
X618025000Y-160875000D02*
X618025000Y-164885000D01*
X618025000Y-164885000D02*
X620025000Y-164885000D01*
X620025000Y-160875000D02*
X620025000Y-164885000D01*
%TO.C,D30*%
X738675000Y-160875000D02*
X738675000Y-164885000D01*
X738675000Y-164885000D02*
X740675000Y-164885000D01*
X740675000Y-160875000D02*
X740675000Y-164885000D01*
%TO.C,D55*%
X664775000Y-194875000D02*
X664775000Y-198885000D01*
X664775000Y-198885000D02*
X666775000Y-198885000D01*
X666775000Y-194875000D02*
X666775000Y-198885000D01*
%TO.C,D59*%
X739150000Y-194875000D02*
X739150000Y-198885000D01*
X739150000Y-198885000D02*
X741150000Y-198885000D01*
X741150000Y-194875000D02*
X741150000Y-198885000D01*
%TO.C,D49*%
X562775000Y-194875000D02*
X562775000Y-198885000D01*
X562775000Y-198885000D02*
X564775000Y-198885000D01*
X564775000Y-194875000D02*
X564775000Y-198885000D01*
%TO.C,D64*%
X569150000Y-211875000D02*
X569150000Y-215885000D01*
X569150000Y-215885000D02*
X571150000Y-215885000D01*
X571150000Y-211875000D02*
X571150000Y-215885000D01*
%TO.C,D8*%
X643525000Y-143875000D02*
X643525000Y-147885000D01*
X643525000Y-147885000D02*
X645525000Y-147885000D01*
X645525000Y-143875000D02*
X645525000Y-147885000D01*
%TO.C,D34*%
X817775000Y-160875000D02*
X817775000Y-164885000D01*
X817775000Y-164885000D02*
X819775000Y-164885000D01*
X819775000Y-160875000D02*
X819775000Y-164885000D01*
%TO.C,D45*%
X707275000Y-177875000D02*
X707275000Y-181885000D01*
X707275000Y-181885000D02*
X709275000Y-181885000D01*
X709275000Y-177875000D02*
X709275000Y-181885000D01*
%TO.C,D35*%
X530900000Y-177875000D02*
X530900000Y-181885000D01*
X530900000Y-181885000D02*
X532900000Y-181885000D01*
X532900000Y-177875000D02*
X532900000Y-181885000D01*
%TO.C,D53*%
X630775000Y-194875000D02*
X630775000Y-198885000D01*
X630775000Y-198885000D02*
X632775000Y-198885000D01*
X632775000Y-194875000D02*
X632775000Y-198885000D01*
%TO.C,D43*%
X673275000Y-177875000D02*
X673275000Y-181885000D01*
X673275000Y-181885000D02*
X675275000Y-181885000D01*
X675275000Y-177875000D02*
X675275000Y-181885000D01*
%TO.C,D72*%
X783775000Y-211875000D02*
X783775000Y-215885000D01*
X783775000Y-215885000D02*
X785775000Y-215885000D01*
X785775000Y-211875000D02*
X785775000Y-215885000D01*
%TO.C,D14*%
X754025000Y-143875000D02*
X754025000Y-147885000D01*
X754025000Y-147885000D02*
X756025000Y-147885000D01*
X756025000Y-143875000D02*
X756025000Y-147885000D01*
%TO.C,D44*%
X690275000Y-177875000D02*
X690275000Y-181885000D01*
X690275000Y-181885000D02*
X692275000Y-181885000D01*
X692275000Y-177875000D02*
X692275000Y-181885000D01*
%TO.C,D12*%
X711525000Y-143875000D02*
X711525000Y-147885000D01*
X711525000Y-147885000D02*
X713525000Y-147885000D01*
X713525000Y-143875000D02*
X713525000Y-147885000D01*
%TO.C,D33*%
X800775000Y-160875000D02*
X800775000Y-164885000D01*
X800775000Y-164885000D02*
X802775000Y-164885000D01*
X802775000Y-160875000D02*
X802775000Y-164885000D01*
%TO.C,D54*%
X644675000Y-194875000D02*
X644675000Y-198885000D01*
X644675000Y-198885000D02*
X646675000Y-198885000D01*
X646675000Y-194875000D02*
X646675000Y-198885000D01*
%TO.C,D48*%
X535150000Y-194875000D02*
X535150000Y-198885000D01*
X535150000Y-198885000D02*
X537150000Y-198885000D01*
X537150000Y-194875000D02*
X537150000Y-198885000D01*
%TO.C,D32*%
X783775000Y-160875000D02*
X783775000Y-164885000D01*
X783775000Y-164885000D02*
X785775000Y-164885000D01*
X785775000Y-160875000D02*
X785775000Y-164885000D01*
%TO.C,D58*%
X715775000Y-194875000D02*
X715775000Y-198885000D01*
X715775000Y-198885000D02*
X717775000Y-198885000D01*
X717775000Y-194875000D02*
X717775000Y-198885000D01*
%TO.C,D36*%
X554275000Y-177875000D02*
X554275000Y-181885000D01*
X554275000Y-181885000D02*
X556275000Y-181885000D01*
X556275000Y-177875000D02*
X556275000Y-181885000D01*
%TO.C,D41*%
X639275000Y-177875000D02*
X639275000Y-181885000D01*
X639275000Y-181885000D02*
X641275000Y-181885000D01*
X641275000Y-177875000D02*
X641275000Y-181885000D01*
%TO.C,D51*%
X596775000Y-194875000D02*
X596775000Y-198885000D01*
X596775000Y-198885000D02*
X598775000Y-198885000D01*
X598775000Y-194875000D02*
X598775000Y-198885000D01*
%TO.C,D22*%
X601025000Y-160875000D02*
X601025000Y-164885000D01*
X601025000Y-164885000D02*
X603025000Y-164885000D01*
X603025000Y-160875000D02*
X603025000Y-164885000D01*
%TO.C,D3*%
X558525000Y-143875000D02*
X558525000Y-147885000D01*
X558525000Y-147885000D02*
X560525000Y-147885000D01*
X560525000Y-143875000D02*
X560525000Y-147885000D01*
%TO.C,D46*%
X724275000Y-177875000D02*
X724275000Y-181885000D01*
X724275000Y-181885000D02*
X726275000Y-181885000D01*
X726275000Y-177875000D02*
X726275000Y-181885000D01*
%TO.C,D40*%
X622275000Y-177875000D02*
X622275000Y-181885000D01*
X622275000Y-181885000D02*
X624275000Y-181885000D01*
X624275000Y-177875000D02*
X624275000Y-181885000D01*
%TO.C,D56*%
X681775000Y-194875000D02*
X681775000Y-198885000D01*
X681775000Y-198885000D02*
X683775000Y-198885000D01*
X683775000Y-194875000D02*
X683775000Y-198885000D01*
%TO.C,D73*%
X800775000Y-211875000D02*
X800775000Y-215885000D01*
X800775000Y-215885000D02*
X802775000Y-215885000D01*
X802775000Y-211875000D02*
X802775000Y-215885000D01*
%TO.C,D25*%
X652025000Y-160875000D02*
X652025000Y-164885000D01*
X652025000Y-164885000D02*
X654025000Y-164885000D01*
X654025000Y-160875000D02*
X654025000Y-164885000D01*
%TO.C,D5*%
X592525000Y-143875000D02*
X592525000Y-147885000D01*
X592525000Y-147885000D02*
X594525000Y-147885000D01*
X594525000Y-143875000D02*
X594525000Y-147885000D01*
%TO.C,D27*%
X686025000Y-160875000D02*
X686025000Y-164885000D01*
X686025000Y-164885000D02*
X688025000Y-164885000D01*
X688025000Y-160875000D02*
X688025000Y-164885000D01*
%TO.C,D18*%
X528775000Y-160875000D02*
X528775000Y-164885000D01*
X528775000Y-164885000D02*
X530775000Y-164885000D01*
X530775000Y-160875000D02*
X530775000Y-164885000D01*
%TO.C,D4*%
X575525000Y-143875000D02*
X575525000Y-147885000D01*
X575525000Y-147885000D02*
X577525000Y-147885000D01*
X577525000Y-143875000D02*
X577525000Y-147885000D01*
%TO.C,D70*%
X739150000Y-211875000D02*
X739150000Y-215885000D01*
X739150000Y-215885000D02*
X741150000Y-215885000D01*
X741150000Y-211875000D02*
X741150000Y-215885000D01*
%TO.C,D52*%
X613775000Y-194875000D02*
X613775000Y-198885000D01*
X613775000Y-198885000D02*
X615775000Y-198885000D01*
X615775000Y-194875000D02*
X615775000Y-198885000D01*
%TO.C,D37*%
X571275000Y-177875000D02*
X571275000Y-181885000D01*
X571275000Y-181885000D02*
X573275000Y-181885000D01*
X573275000Y-177875000D02*
X573275000Y-181885000D01*
%TO.C,D13*%
X728525000Y-143875000D02*
X728525000Y-147885000D01*
X728525000Y-147885000D02*
X730525000Y-147885000D01*
X730525000Y-143875000D02*
X730525000Y-147885000D01*
%TO.C,D69*%
X717900000Y-211875000D02*
X717900000Y-215885000D01*
X717900000Y-215885000D02*
X719900000Y-215885000D01*
X719900000Y-211875000D02*
X719900000Y-215885000D01*
%TO.C,D38*%
X588275000Y-177875000D02*
X588275000Y-181885000D01*
X588275000Y-181885000D02*
X590275000Y-181885000D01*
X590275000Y-177875000D02*
X590275000Y-181885000D01*
%TO.C,D21*%
X584025000Y-160875000D02*
X584025000Y-164885000D01*
X584025000Y-164885000D02*
X586025000Y-164885000D01*
X586025000Y-160875000D02*
X586025000Y-164885000D01*
%TO.C,D71*%
X760400000Y-211875000D02*
X760400000Y-215885000D01*
X760400000Y-215885000D02*
X762400000Y-215885000D01*
X762400000Y-211875000D02*
X762400000Y-215885000D01*
%TO.C,D65*%
X598900000Y-211875000D02*
X598900000Y-215885000D01*
X598900000Y-215885000D02*
X600900000Y-215885000D01*
X600900000Y-211875000D02*
X600900000Y-215885000D01*
%TO.C,D67*%
X666900000Y-211875000D02*
X666900000Y-215885000D01*
X666900000Y-215885000D02*
X668900000Y-215885000D01*
X668900000Y-211875000D02*
X668900000Y-215885000D01*
%TO.C,D15*%
X783775000Y-143875000D02*
X783775000Y-147885000D01*
X783775000Y-147885000D02*
X785775000Y-147885000D01*
X785775000Y-143875000D02*
X785775000Y-147885000D01*
%TO.C,D10*%
X677525000Y-143875000D02*
X677525000Y-147885000D01*
X677525000Y-147885000D02*
X679525000Y-147885000D01*
X679525000Y-143875000D02*
X679525000Y-147885000D01*
%TO.C,D6*%
X609525000Y-143875000D02*
X609525000Y-147885000D01*
X609525000Y-147885000D02*
X611525000Y-147885000D01*
X611525000Y-143875000D02*
X611525000Y-147885000D01*
%TO.C,D60*%
X762525000Y-194875000D02*
X762525000Y-198885000D01*
X762525000Y-198885000D02*
X764525000Y-198885000D01*
X764525000Y-194875000D02*
X764525000Y-198885000D01*
%TO.C,D11*%
X694525000Y-143875000D02*
X694525000Y-147885000D01*
X694525000Y-147885000D02*
X696525000Y-147885000D01*
X696525000Y-143875000D02*
X696525000Y-147885000D01*
%TO.C,D62*%
X526650000Y-211875000D02*
X526650000Y-215885000D01*
X526650000Y-215885000D02*
X528650000Y-215885000D01*
X528650000Y-211875000D02*
X528650000Y-215885000D01*
%TO.C,D50*%
X576675000Y-194875000D02*
X576675000Y-198885000D01*
X576675000Y-198885000D02*
X578675000Y-198885000D01*
X578675000Y-194875000D02*
X578675000Y-198885000D01*
%TO.C,D42*%
X656275000Y-177875000D02*
X656275000Y-181885000D01*
X656275000Y-181885000D02*
X658275000Y-181885000D01*
X658275000Y-177875000D02*
X658275000Y-181885000D01*
%TO.C,D47*%
X751900000Y-177875000D02*
X751900000Y-181885000D01*
X751900000Y-181885000D02*
X753900000Y-181885000D01*
X753900000Y-177875000D02*
X753900000Y-181885000D01*
%TO.C,D1*%
X524525000Y-143875000D02*
X524525000Y-147885000D01*
X524525000Y-147885000D02*
X526525000Y-147885000D01*
X526525000Y-143875000D02*
X526525000Y-147885000D01*
%TO.C,D17*%
X817775000Y-143875000D02*
X817775000Y-147885000D01*
X817775000Y-147885000D02*
X819775000Y-147885000D01*
X819775000Y-143875000D02*
X819775000Y-147885000D01*
%TO.C,D20*%
X567025000Y-160875000D02*
X567025000Y-164885000D01*
X567025000Y-164885000D02*
X569025000Y-164885000D01*
X569025000Y-160875000D02*
X569025000Y-164885000D01*
%TO.C,D31*%
X761675000Y-160875000D02*
X761675000Y-164885000D01*
X761675000Y-164885000D02*
X763675000Y-164885000D01*
X763675000Y-160875000D02*
X763675000Y-164885000D01*
%TO.C,D26*%
X669025000Y-160875000D02*
X669025000Y-164885000D01*
X669025000Y-164885000D02*
X671025000Y-164885000D01*
X671025000Y-160875000D02*
X671025000Y-164885000D01*
%TO.C,D7*%
X626525000Y-143875000D02*
X626525000Y-147885000D01*
X626525000Y-147885000D02*
X628525000Y-147885000D01*
X628525000Y-143875000D02*
X628525000Y-147885000D01*
%TO.C,D74*%
X817775000Y-211875000D02*
X817775000Y-215885000D01*
X817775000Y-215885000D02*
X819775000Y-215885000D01*
X819775000Y-211875000D02*
X819775000Y-215885000D01*
%TO.C,D28*%
X703025000Y-160875000D02*
X703025000Y-164885000D01*
X703025000Y-164885000D02*
X705025000Y-164885000D01*
X705025000Y-160875000D02*
X705025000Y-164885000D01*
%TO.C,D19*%
X550025000Y-160875000D02*
X550025000Y-164885000D01*
X550025000Y-164885000D02*
X552025000Y-164885000D01*
X552025000Y-160875000D02*
X552025000Y-164885000D01*
%TO.C,D66*%
X632900000Y-211875000D02*
X632900000Y-215885000D01*
X632900000Y-215885000D02*
X634900000Y-215885000D01*
X634900000Y-211875000D02*
X634900000Y-215885000D01*
%TO.C,D9*%
X660525000Y-143875000D02*
X660525000Y-147885000D01*
X660525000Y-147885000D02*
X662525000Y-147885000D01*
X662525000Y-143875000D02*
X662525000Y-147885000D01*
%TO.C,D68*%
X696650000Y-211875000D02*
X696650000Y-215885000D01*
X696650000Y-215885000D02*
X698650000Y-215885000D01*
X698650000Y-211875000D02*
X698650000Y-215885000D01*
%TO.C,D57*%
X698775000Y-194875000D02*
X698775000Y-198885000D01*
X698775000Y-198885000D02*
X700775000Y-198885000D01*
X700775000Y-194875000D02*
X700775000Y-198885000D01*
%TO.C,D63*%
X547900000Y-211875000D02*
X547900000Y-215885000D01*
X547900000Y-215885000D02*
X549900000Y-215885000D01*
X549900000Y-211875000D02*
X549900000Y-215885000D01*
%TO.C,D24*%
X635025000Y-160875000D02*
X635025000Y-164885000D01*
X635025000Y-164885000D02*
X637025000Y-164885000D01*
X637025000Y-160875000D02*
X637025000Y-164885000D01*
%TO.C,D16*%
X800775000Y-143875000D02*
X800775000Y-147885000D01*
X800775000Y-147885000D02*
X802775000Y-147885000D01*
X802775000Y-143875000D02*
X802775000Y-147885000D01*
%TO.C,D29*%
X720025000Y-160875000D02*
X720025000Y-164885000D01*
X720025000Y-164885000D02*
X722025000Y-164885000D01*
X722025000Y-160875000D02*
X722025000Y-164885000D01*
%TO.C,D61*%
X800775000Y-194875000D02*
X800775000Y-198885000D01*
X800775000Y-198885000D02*
X802775000Y-198885000D01*
X802775000Y-194875000D02*
X802775000Y-198885000D01*
%TD*%
%LPC*%
D12*
%TO.C,SW42*%
X645775000Y-173525000D03*
D13*
X651275000Y-173525000D03*
D12*
X656775000Y-173525000D03*
D14*
X646275000Y-177325000D03*
X651275000Y-179425000D03*
%TD*%
D12*
%TO.C,SW44*%
X679775000Y-173525000D03*
D13*
X685275000Y-173525000D03*
D12*
X690775000Y-173525000D03*
D14*
X680275000Y-177325000D03*
X685275000Y-179425000D03*
%TD*%
D12*
%TO.C,SW16*%
X790275000Y-139525000D03*
D13*
X795775000Y-139525000D03*
D12*
X801275000Y-139525000D03*
D14*
X790775000Y-143325000D03*
X795775000Y-145425000D03*
%TD*%
D15*
%TO.C,encoder1*%
X497500000Y-196500000D03*
D14*
X492500000Y-196500000D03*
X495000000Y-196500000D03*
D16*
X500600000Y-204000000D03*
X489400000Y-204000000D03*
%TD*%
D12*
%TO.C,SW41*%
X628775000Y-173525000D03*
D13*
X634275000Y-173525000D03*
D12*
X639775000Y-173525000D03*
D14*
X629275000Y-177325000D03*
X634275000Y-179425000D03*
%TD*%
D12*
%TO.C,SW26*%
X658525000Y-156525000D03*
D13*
X664025000Y-156525000D03*
D12*
X669525000Y-156525000D03*
D14*
X659025000Y-160325000D03*
X664025000Y-162425000D03*
%TD*%
D17*
%TO.C,R1*%
X468830000Y-133615000D03*
D18*
X476450000Y-133615000D03*
%TD*%
D12*
%TO.C,SW39*%
X594775000Y-173525000D03*
D13*
X600275000Y-173525000D03*
D12*
X605775000Y-173525000D03*
D14*
X595275000Y-177325000D03*
X600275000Y-179425000D03*
%TD*%
D12*
%TO.C,SW24*%
X624525000Y-156525000D03*
D13*
X630025000Y-156525000D03*
D12*
X635525000Y-156525000D03*
D14*
X625025000Y-160325000D03*
X630025000Y-162425000D03*
%TD*%
D12*
%TO.C,SW45*%
X696775000Y-173525000D03*
D13*
X702275000Y-173525000D03*
D12*
X707775000Y-173525000D03*
D14*
X697275000Y-177325000D03*
X702275000Y-179425000D03*
%TD*%
D12*
%TO.C,SW66*%
X622400000Y-207525000D03*
D13*
X627900000Y-207525000D03*
D12*
X633400000Y-207525000D03*
D14*
X622900000Y-211325000D03*
X627900000Y-213425000D03*
%TD*%
D12*
%TO.C,SW12*%
X701025000Y-139525000D03*
D13*
X706525000Y-139525000D03*
D12*
X712025000Y-139525000D03*
D14*
X701525000Y-143325000D03*
X706525000Y-145425000D03*
%TD*%
D12*
%TO.C,SW20*%
X556525000Y-156525000D03*
D13*
X562025000Y-156525000D03*
D12*
X567525000Y-156525000D03*
D14*
X557025000Y-160325000D03*
X562025000Y-162425000D03*
%TD*%
D12*
%TO.C,SW54*%
X637275000Y-190525000D03*
D13*
X642775000Y-190525000D03*
D12*
X648275000Y-190525000D03*
D14*
X637775000Y-194325000D03*
X642775000Y-196425000D03*
%TD*%
D12*
%TO.C,SW1*%
X514025000Y-139525000D03*
D13*
X519525000Y-139525000D03*
D12*
X525025000Y-139525000D03*
D14*
X514525000Y-143325000D03*
X519525000Y-145425000D03*
%TD*%
D12*
%TO.C,SW40*%
X611775000Y-173525000D03*
D13*
X617275000Y-173525000D03*
D12*
X622775000Y-173525000D03*
D14*
X612275000Y-177325000D03*
X617275000Y-179425000D03*
%TD*%
D12*
%TO.C,SW23*%
X607525000Y-156525000D03*
D13*
X613025000Y-156525000D03*
D12*
X618525000Y-156525000D03*
D14*
X608025000Y-160325000D03*
X613025000Y-162425000D03*
%TD*%
D12*
%TO.C,SW35*%
X520400000Y-173525000D03*
D13*
X525900000Y-173525000D03*
D12*
X531400000Y-173525000D03*
D14*
X520900000Y-177325000D03*
X525900000Y-179425000D03*
%TD*%
D19*
%TO.C,D75*%
X467560000Y-163515000D03*
D20*
X477720000Y-163515000D03*
%TD*%
D12*
%TO.C,SW7*%
X616025000Y-139525000D03*
D13*
X621525000Y-139525000D03*
D12*
X627025000Y-139525000D03*
D14*
X616525000Y-143325000D03*
X621525000Y-145425000D03*
%TD*%
D12*
%TO.C,SW60*%
X752025000Y-190525000D03*
D13*
X757525000Y-190525000D03*
D12*
X763025000Y-190525000D03*
D14*
X752525000Y-194325000D03*
X757525000Y-196425000D03*
%TD*%
D12*
%TO.C,SW21*%
X573525000Y-156525000D03*
D13*
X579025000Y-156525000D03*
D12*
X584525000Y-156525000D03*
D14*
X574025000Y-160325000D03*
X579025000Y-162425000D03*
%TD*%
D12*
%TO.C,SW9*%
X650025000Y-139525000D03*
D13*
X655525000Y-139525000D03*
D12*
X661025000Y-139525000D03*
D14*
X650525000Y-143325000D03*
X655525000Y-145425000D03*
%TD*%
D12*
%TO.C,SW70*%
X728650000Y-207525000D03*
D13*
X734150000Y-207525000D03*
D12*
X739650000Y-207525000D03*
D14*
X729150000Y-211325000D03*
X734150000Y-213425000D03*
%TD*%
D12*
%TO.C,SW4*%
X565025000Y-139525000D03*
D13*
X570525000Y-139525000D03*
D12*
X576025000Y-139525000D03*
D14*
X565525000Y-143325000D03*
X570525000Y-145425000D03*
%TD*%
D12*
%TO.C,SW3*%
X548025000Y-139525000D03*
D13*
X553525000Y-139525000D03*
D12*
X559025000Y-139525000D03*
D14*
X548525000Y-143325000D03*
X553525000Y-145425000D03*
%TD*%
D12*
%TO.C,SW51*%
X586275000Y-190525000D03*
D13*
X591775000Y-190525000D03*
D12*
X597275000Y-190525000D03*
D14*
X586775000Y-194325000D03*
X591775000Y-196425000D03*
%TD*%
D12*
%TO.C,SW64*%
X558650000Y-207525000D03*
D13*
X564150000Y-207525000D03*
D12*
X569650000Y-207525000D03*
D14*
X559150000Y-211325000D03*
X564150000Y-213425000D03*
%TD*%
D12*
%TO.C,SW74*%
X807275000Y-207525000D03*
D13*
X812775000Y-207525000D03*
D12*
X818275000Y-207525000D03*
D14*
X807775000Y-211325000D03*
X812775000Y-213425000D03*
%TD*%
D12*
%TO.C,SW15*%
X773275000Y-139525000D03*
D13*
X778775000Y-139525000D03*
D12*
X784275000Y-139525000D03*
D14*
X773775000Y-143325000D03*
X778775000Y-145425000D03*
%TD*%
D12*
%TO.C,SW31*%
X747775000Y-156525000D03*
D13*
X753275000Y-156525000D03*
D12*
X758775000Y-156525000D03*
D14*
X748275000Y-160325000D03*
X753275000Y-162425000D03*
%TD*%
D12*
%TO.C,SW68*%
X686150000Y-207525000D03*
D13*
X691650000Y-207525000D03*
D12*
X697150000Y-207525000D03*
D14*
X686650000Y-211325000D03*
X691650000Y-213425000D03*
%TD*%
D12*
%TO.C,SW36*%
X543775000Y-173525000D03*
D13*
X549275000Y-173525000D03*
D12*
X554775000Y-173525000D03*
D14*
X544275000Y-177325000D03*
X549275000Y-179425000D03*
%TD*%
D12*
%TO.C,SW72*%
X773275000Y-207525000D03*
D13*
X778775000Y-207525000D03*
D12*
X784275000Y-207525000D03*
D14*
X773775000Y-211325000D03*
X778775000Y-213425000D03*
%TD*%
D12*
%TO.C,SW46*%
X713775000Y-173525000D03*
D13*
X719275000Y-173525000D03*
D12*
X724775000Y-173525000D03*
D14*
X714275000Y-177325000D03*
X719275000Y-179425000D03*
%TD*%
D12*
%TO.C,SW53*%
X620275000Y-190525000D03*
D13*
X625775000Y-190525000D03*
D12*
X631275000Y-190525000D03*
D14*
X620775000Y-194325000D03*
X625775000Y-196425000D03*
%TD*%
D12*
%TO.C,SW49*%
X552275000Y-190525000D03*
D13*
X557775000Y-190525000D03*
D12*
X563275000Y-190525000D03*
D14*
X552775000Y-194325000D03*
X557775000Y-196425000D03*
%TD*%
D12*
%TO.C,SW62*%
X516150000Y-207525000D03*
D13*
X521650000Y-207525000D03*
D12*
X527150000Y-207525000D03*
D14*
X516650000Y-211325000D03*
X521650000Y-213425000D03*
%TD*%
D12*
%TO.C,SW69*%
X707400000Y-207525000D03*
D13*
X712900000Y-207525000D03*
D12*
X718400000Y-207525000D03*
D14*
X707900000Y-211325000D03*
X712900000Y-213425000D03*
%TD*%
D12*
%TO.C,SW52*%
X603275000Y-190525000D03*
D13*
X608775000Y-190525000D03*
D12*
X614275000Y-190525000D03*
D14*
X603775000Y-194325000D03*
X608775000Y-196425000D03*
%TD*%
D21*
%TO.C,J1*%
X483545000Y-133234999D03*
D22*
X483545000Y-135774999D03*
X483545000Y-138314998D03*
X483545000Y-140854999D03*
X483545000Y-143394999D03*
X483545000Y-145934999D03*
X483545000Y-148474999D03*
X483545000Y-151015000D03*
X483545000Y-153554999D03*
X483545000Y-156094999D03*
X483545000Y-158634999D03*
X483545000Y-161174998D03*
X483545000Y-163714999D03*
X483545000Y-166254999D03*
X483545000Y-168794999D03*
X483545000Y-171334998D03*
X483545000Y-173875000D03*
X483545000Y-176414999D03*
X483545000Y-178954999D03*
X483545000Y-181494999D03*
%TD*%
D12*
%TO.C,SW6*%
X599025000Y-139525000D03*
D13*
X604525000Y-139525000D03*
D12*
X610025000Y-139525000D03*
D14*
X599525000Y-143325000D03*
X604525000Y-145425000D03*
%TD*%
D12*
%TO.C,SW50*%
X569275000Y-190525000D03*
D13*
X574775000Y-190525000D03*
D12*
X580275000Y-190525000D03*
D14*
X569775000Y-194325000D03*
X574775000Y-196425000D03*
%TD*%
D23*
%TO.C,J3*%
X471640000Y-168765000D03*
D24*
X473640000Y-168765000D03*
%TD*%
D12*
%TO.C,SW57*%
X688275000Y-190525000D03*
D13*
X693775000Y-190525000D03*
D12*
X699275000Y-190525000D03*
D14*
X688775000Y-194325000D03*
X693775000Y-196425000D03*
%TD*%
D25*
%TO.C,REF\u002A\u002A*%
X462000000Y-214000000D03*
%TD*%
D12*
%TO.C,SW59*%
X728650000Y-190525000D03*
D13*
X734150000Y-190525000D03*
D12*
X739650000Y-190525000D03*
D14*
X729150000Y-194325000D03*
X734150000Y-196425000D03*
%TD*%
D12*
%TO.C,SW43*%
X662775000Y-173525000D03*
D13*
X668275000Y-173525000D03*
D12*
X673775000Y-173525000D03*
D14*
X663275000Y-177325000D03*
X668275000Y-179425000D03*
%TD*%
D12*
%TO.C,SW56*%
X671275000Y-190525000D03*
D13*
X676775000Y-190525000D03*
D12*
X682275000Y-190525000D03*
D14*
X671775000Y-194325000D03*
X676775000Y-196425000D03*
%TD*%
D12*
%TO.C,SW10*%
X667025000Y-139525000D03*
D13*
X672525000Y-139525000D03*
D12*
X678025000Y-139525000D03*
D14*
X667525000Y-143325000D03*
X672525000Y-145425000D03*
%TD*%
D12*
%TO.C,SW55*%
X654275000Y-190525000D03*
D13*
X659775000Y-190525000D03*
D12*
X665275000Y-190525000D03*
D14*
X654775000Y-194325000D03*
X659775000Y-196425000D03*
%TD*%
D12*
%TO.C,SW58*%
X705275000Y-190525000D03*
D13*
X710775000Y-190525000D03*
D12*
X716275000Y-190525000D03*
D14*
X705775000Y-194325000D03*
X710775000Y-196425000D03*
%TD*%
D12*
%TO.C,SW17*%
X807275000Y-139525000D03*
D13*
X812775000Y-139525000D03*
D12*
X818275000Y-139525000D03*
D14*
X807775000Y-143325000D03*
X812775000Y-145425000D03*
%TD*%
D12*
%TO.C,SW37*%
X560775000Y-173525000D03*
D13*
X566275000Y-173525000D03*
D12*
X571775000Y-173525000D03*
D14*
X561275000Y-177325000D03*
X566275000Y-179425000D03*
%TD*%
D12*
%TO.C,SW61*%
X790275000Y-190525000D03*
D13*
X795775000Y-190525000D03*
D12*
X801275000Y-190525000D03*
D14*
X790775000Y-194325000D03*
X795775000Y-196425000D03*
%TD*%
D12*
%TO.C,SW34*%
X807275000Y-156525000D03*
D13*
X812775000Y-156525000D03*
D12*
X818275000Y-156525000D03*
D14*
X807775000Y-160325000D03*
X812775000Y-162425000D03*
%TD*%
D25*
%TO.C,REF\u002A\u002A*%
X462000000Y-133000000D03*
%TD*%
D12*
%TO.C,SW8*%
X633025000Y-139525000D03*
D13*
X638525000Y-139525000D03*
D12*
X644025000Y-139525000D03*
D14*
X633525000Y-143325000D03*
X638525000Y-145425000D03*
%TD*%
D12*
%TO.C,SW71*%
X749900000Y-207525000D03*
D13*
X755400000Y-207525000D03*
D12*
X760900000Y-207525000D03*
D14*
X750400000Y-211325000D03*
X755400000Y-213425000D03*
%TD*%
D12*
%TO.C,SW28*%
X692525000Y-156525000D03*
D13*
X698025000Y-156525000D03*
D12*
X703525000Y-156525000D03*
D14*
X693025000Y-160325000D03*
X698025000Y-162425000D03*
%TD*%
D12*
%TO.C,SW33*%
X790275000Y-156525000D03*
D13*
X795775000Y-156525000D03*
D12*
X801275000Y-156525000D03*
D14*
X790775000Y-160325000D03*
X795775000Y-162425000D03*
%TD*%
D12*
%TO.C,SW48*%
X524650000Y-190525000D03*
D13*
X530150000Y-190525000D03*
D12*
X535650000Y-190525000D03*
D14*
X525150000Y-194325000D03*
X530150000Y-196425000D03*
%TD*%
D12*
%TO.C,SW14*%
X743525000Y-139525000D03*
D13*
X749025000Y-139525000D03*
D12*
X754525000Y-139525000D03*
D14*
X744025000Y-143325000D03*
X749025000Y-145425000D03*
%TD*%
D12*
%TO.C,SW73*%
X790275000Y-207525000D03*
D13*
X795775000Y-207525000D03*
D12*
X801275000Y-207525000D03*
D14*
X790775000Y-211325000D03*
X795775000Y-213425000D03*
%TD*%
D12*
%TO.C,SW2*%
X531025000Y-139525000D03*
D13*
X536525000Y-139525000D03*
D12*
X542025000Y-139525000D03*
D14*
X531525000Y-143325000D03*
X536525000Y-145425000D03*
%TD*%
D21*
%TO.C,J2*%
X501300000Y-180964999D03*
D22*
X501300000Y-178424999D03*
X501300000Y-175885000D03*
X501300000Y-173344999D03*
X501300000Y-170804999D03*
X501300000Y-168264999D03*
X501300000Y-165724999D03*
X501300000Y-163184998D03*
X501300000Y-160644999D03*
X501300000Y-158104999D03*
X501300000Y-155564999D03*
X501300000Y-153025000D03*
X501300000Y-150484999D03*
X501300000Y-147944999D03*
X501300000Y-145404999D03*
X501300000Y-142865000D03*
X501300000Y-140324998D03*
X501300000Y-137784999D03*
X501300000Y-135244999D03*
X501300000Y-132704999D03*
%TD*%
D12*
%TO.C,SW65*%
X588400000Y-207525000D03*
D13*
X593900000Y-207525000D03*
D12*
X599400000Y-207525000D03*
D14*
X588900000Y-211325000D03*
X593900000Y-213425000D03*
%TD*%
D12*
%TO.C,SW5*%
X582025000Y-139525000D03*
D13*
X587525000Y-139525000D03*
D12*
X593025000Y-139525000D03*
D14*
X582525000Y-143325000D03*
X587525000Y-145425000D03*
%TD*%
D12*
%TO.C,SW30*%
X726525000Y-156525000D03*
D13*
X732025000Y-156525000D03*
D12*
X737525000Y-156525000D03*
D14*
X727025000Y-160325000D03*
X732025000Y-162425000D03*
%TD*%
D12*
%TO.C,SW13*%
X718025000Y-139525000D03*
D13*
X723525000Y-139525000D03*
D12*
X729025000Y-139525000D03*
D14*
X718525000Y-143325000D03*
X723525000Y-145425000D03*
%TD*%
D12*
%TO.C,SW38*%
X577775000Y-173525000D03*
D13*
X583275000Y-173525000D03*
D12*
X588775000Y-173525000D03*
D14*
X578275000Y-177325000D03*
X583275000Y-179425000D03*
%TD*%
D12*
%TO.C,SW67*%
X656400000Y-207525000D03*
D13*
X661900000Y-207525000D03*
D12*
X667400000Y-207525000D03*
D14*
X656900000Y-211325000D03*
X661900000Y-213425000D03*
%TD*%
D12*
%TO.C,SW11*%
X684025000Y-139525000D03*
D13*
X689525000Y-139525000D03*
D12*
X695025000Y-139525000D03*
D14*
X684525000Y-143325000D03*
X689525000Y-145425000D03*
%TD*%
D12*
%TO.C,SW29*%
X709525000Y-156525000D03*
D13*
X715025000Y-156525000D03*
D12*
X720525000Y-156525000D03*
D14*
X710025000Y-160325000D03*
X715025000Y-162425000D03*
%TD*%
D12*
%TO.C,SW25*%
X641525000Y-156525000D03*
D13*
X647025000Y-156525000D03*
D12*
X652525000Y-156525000D03*
D14*
X642025000Y-160325000D03*
X647025000Y-162425000D03*
%TD*%
D26*
%TO.C,REF\u002A\u002A*%
X473000000Y-194125000D03*
X467000000Y-184125000D03*
%TD*%
D12*
%TO.C,SW18*%
X518275000Y-156525000D03*
D13*
X523775000Y-156525000D03*
D12*
X529275000Y-156525000D03*
D14*
X518775000Y-160325000D03*
X523775000Y-162425000D03*
%TD*%
D12*
%TO.C,SW63*%
X537400000Y-207525000D03*
D13*
X542900000Y-207525000D03*
D12*
X548400000Y-207525000D03*
D14*
X537900000Y-211325000D03*
X542900000Y-213425000D03*
%TD*%
D12*
%TO.C,SW27*%
X675525000Y-156525000D03*
D13*
X681025000Y-156525000D03*
D12*
X686525000Y-156525000D03*
D14*
X676025000Y-160325000D03*
X681025000Y-162425000D03*
%TD*%
D27*
%TO.C,Q1*%
X472640000Y-141465000D03*
D28*
X470100000Y-158125000D03*
D29*
X472640000Y-158125000D03*
X475179999Y-158125000D03*
%TD*%
D12*
%TO.C,SW32*%
X773275000Y-156525000D03*
D13*
X778775000Y-156525000D03*
D12*
X784275000Y-156525000D03*
D14*
X773775000Y-160325000D03*
X778775000Y-162425000D03*
%TD*%
D12*
%TO.C,SW47*%
X741400000Y-173525000D03*
D13*
X746900000Y-173525000D03*
D12*
X752400000Y-173525000D03*
D14*
X741900000Y-177325000D03*
X746900000Y-179425000D03*
%TD*%
D12*
%TO.C,SW19*%
X539525000Y-156525000D03*
D13*
X545025000Y-156525000D03*
D12*
X550525000Y-156525000D03*
D14*
X540025000Y-160325000D03*
X545025000Y-162425000D03*
%TD*%
D12*
%TO.C,SW22*%
X590525000Y-156525000D03*
D13*
X596025000Y-156525000D03*
D12*
X601525000Y-156525000D03*
D14*
X591025000Y-160325000D03*
X596025000Y-162425000D03*
%TD*%
D30*
%TO.C,D2*%
X542525000Y-147175000D03*
X542525000Y-143875000D03*
%TD*%
%TO.C,D39*%
X606275000Y-181175000D03*
X606275000Y-177875000D03*
%TD*%
%TO.C,D23*%
X619025000Y-164175000D03*
X619025000Y-160875000D03*
%TD*%
%TO.C,D30*%
X739675000Y-164175000D03*
X739675000Y-160875000D03*
%TD*%
%TO.C,D55*%
X665775000Y-198175000D03*
X665775000Y-194875000D03*
%TD*%
%TO.C,D59*%
X740150000Y-198175000D03*
X740150000Y-194875000D03*
%TD*%
%TO.C,D49*%
X563775000Y-198175000D03*
X563775000Y-194875000D03*
%TD*%
%TO.C,D64*%
X570150000Y-215175000D03*
X570150000Y-211875000D03*
%TD*%
%TO.C,D8*%
X644525000Y-147175000D03*
X644525000Y-143875000D03*
%TD*%
%TO.C,D34*%
X818775000Y-164175000D03*
X818775000Y-160875000D03*
%TD*%
%TO.C,D45*%
X708275000Y-181175000D03*
X708275000Y-177875000D03*
%TD*%
%TO.C,D35*%
X531900000Y-181175000D03*
X531900000Y-177875000D03*
%TD*%
%TO.C,D53*%
X631775000Y-198175000D03*
X631775000Y-194875000D03*
%TD*%
%TO.C,D43*%
X674275000Y-181175000D03*
X674275000Y-177875000D03*
%TD*%
%TO.C,D72*%
X784775000Y-215175000D03*
X784775000Y-211875000D03*
%TD*%
%TO.C,D14*%
X755025000Y-147175000D03*
X755025000Y-143875000D03*
%TD*%
%TO.C,D44*%
X691275000Y-181175000D03*
X691275000Y-177875000D03*
%TD*%
%TO.C,D12*%
X712525000Y-147175000D03*
X712525000Y-143875000D03*
%TD*%
%TO.C,D33*%
X801775000Y-164175000D03*
X801775000Y-160875000D03*
%TD*%
%TO.C,D54*%
X645675000Y-198175000D03*
X645675000Y-194875000D03*
%TD*%
%TO.C,D48*%
X536150000Y-198175000D03*
X536150000Y-194875000D03*
%TD*%
%TO.C,D32*%
X784775000Y-164175000D03*
X784775000Y-160875000D03*
%TD*%
%TO.C,D58*%
X716775000Y-198175000D03*
X716775000Y-194875000D03*
%TD*%
%TO.C,D36*%
X555275000Y-181175000D03*
X555275000Y-177875000D03*
%TD*%
%TO.C,D41*%
X640275000Y-181175000D03*
X640275000Y-177875000D03*
%TD*%
%TO.C,D51*%
X597775000Y-198175000D03*
X597775000Y-194875000D03*
%TD*%
%TO.C,D22*%
X602025000Y-164175000D03*
X602025000Y-160875000D03*
%TD*%
%TO.C,D3*%
X559525000Y-147175000D03*
X559525000Y-143875000D03*
%TD*%
%TO.C,D46*%
X725275000Y-181175000D03*
X725275000Y-177875000D03*
%TD*%
%TO.C,D40*%
X623275000Y-181175000D03*
X623275000Y-177875000D03*
%TD*%
%TO.C,D56*%
X682775000Y-198175000D03*
X682775000Y-194875000D03*
%TD*%
%TO.C,D73*%
X801775000Y-215175000D03*
X801775000Y-211875000D03*
%TD*%
%TO.C,D25*%
X653025000Y-164175000D03*
X653025000Y-160875000D03*
%TD*%
%TO.C,D5*%
X593525000Y-147175000D03*
X593525000Y-143875000D03*
%TD*%
%TO.C,D27*%
X687025000Y-164175000D03*
X687025000Y-160875000D03*
%TD*%
%TO.C,D18*%
X529775000Y-164175000D03*
X529775000Y-160875000D03*
%TD*%
%TO.C,D4*%
X576525000Y-147175000D03*
X576525000Y-143875000D03*
%TD*%
%TO.C,D70*%
X740150000Y-215175000D03*
X740150000Y-211875000D03*
%TD*%
%TO.C,D52*%
X614775000Y-198175000D03*
X614775000Y-194875000D03*
%TD*%
%TO.C,D37*%
X572275000Y-181175000D03*
X572275000Y-177875000D03*
%TD*%
%TO.C,D13*%
X729525000Y-147175000D03*
X729525000Y-143875000D03*
%TD*%
%TO.C,D69*%
X718900000Y-215175000D03*
X718900000Y-211875000D03*
%TD*%
%TO.C,D38*%
X589275000Y-181175000D03*
X589275000Y-177875000D03*
%TD*%
%TO.C,D21*%
X585025000Y-164175000D03*
X585025000Y-160875000D03*
%TD*%
%TO.C,D71*%
X761400000Y-215175000D03*
X761400000Y-211875000D03*
%TD*%
%TO.C,D65*%
X599900000Y-215175000D03*
X599900000Y-211875000D03*
%TD*%
%TO.C,D67*%
X667900000Y-215175000D03*
X667900000Y-211875000D03*
%TD*%
%TO.C,D15*%
X784775000Y-147175000D03*
X784775000Y-143875000D03*
%TD*%
%TO.C,D10*%
X678525000Y-147175000D03*
X678525000Y-143875000D03*
%TD*%
%TO.C,D6*%
X610525000Y-147175000D03*
X610525000Y-143875000D03*
%TD*%
%TO.C,D60*%
X763525000Y-198175000D03*
X763525000Y-194875000D03*
%TD*%
%TO.C,D11*%
X695525000Y-147175000D03*
X695525000Y-143875000D03*
%TD*%
%TO.C,D62*%
X527650000Y-215175000D03*
X527650000Y-211875000D03*
%TD*%
%TO.C,D50*%
X577675000Y-198175000D03*
X577675000Y-194875000D03*
%TD*%
%TO.C,D42*%
X657275000Y-181175000D03*
X657275000Y-177875000D03*
%TD*%
%TO.C,D47*%
X752900000Y-181175000D03*
X752900000Y-177875000D03*
%TD*%
%TO.C,D1*%
X525525000Y-147175000D03*
X525525000Y-143875000D03*
%TD*%
%TO.C,D17*%
X818775000Y-147175000D03*
X818775000Y-143875000D03*
%TD*%
%TO.C,D20*%
X568025000Y-164175000D03*
X568025000Y-160875000D03*
%TD*%
%TO.C,D31*%
X762675000Y-164175000D03*
X762675000Y-160875000D03*
%TD*%
%TO.C,D26*%
X670025000Y-164175000D03*
X670025000Y-160875000D03*
%TD*%
%TO.C,D7*%
X627525000Y-147175000D03*
X627525000Y-143875000D03*
%TD*%
%TO.C,D74*%
X818775000Y-215175000D03*
X818775000Y-211875000D03*
%TD*%
%TO.C,D28*%
X704025000Y-164175000D03*
X704025000Y-160875000D03*
%TD*%
%TO.C,D19*%
X551025000Y-164175000D03*
X551025000Y-160875000D03*
%TD*%
%TO.C,D66*%
X633900000Y-215175000D03*
X633900000Y-211875000D03*
%TD*%
%TO.C,D9*%
X661525000Y-147175000D03*
X661525000Y-143875000D03*
%TD*%
%TO.C,D68*%
X697650000Y-215175000D03*
X697650000Y-211875000D03*
%TD*%
%TO.C,D57*%
X699775000Y-198175000D03*
X699775000Y-194875000D03*
%TD*%
%TO.C,D63*%
X548900000Y-215175000D03*
X548900000Y-211875000D03*
%TD*%
%TO.C,D24*%
X636025000Y-164175000D03*
X636025000Y-160875000D03*
%TD*%
%TO.C,D16*%
X801775000Y-147175000D03*
X801775000Y-143875000D03*
%TD*%
%TO.C,D29*%
X721025000Y-164175000D03*
X721025000Y-160875000D03*
%TD*%
%TO.C,D61*%
X801775000Y-198175000D03*
X801775000Y-194875000D03*
%TD*%
%LPD*%
M02*
