%TF.GenerationSoftware,KiCad,Pcbnew,8.0.1*%
%TF.CreationDate,2024-07-20T19:57:27+09:00*%
%TF.ProjectId,lowd75,6c6f7764-3735-42e6-9b69-6361645f7063,rev?*%
%TF.SameCoordinates,Original*%
%TF.FileFunction,Legend,Top*%
%TF.FilePolarity,Positive*%
%FSLAX46Y46*%
G04 Gerber Fmt 4.6, Leading zero omitted, Abs format (unit mm)*
G04 Created by KiCad (PCBNEW 8.0.1) date 2024-07-20 19:57:27*
%MOMM*%
%LPD*%
G01*
G04 APERTURE LIST*
G04 Aperture macros list*
%AMRoundRect*
0 Rectangle with rounded corners*
0 $1 Rounding radius*
0 $2 $3 $4 $5 $6 $7 $8 $9 X,Y pos of 4 corners*
0 Add a 4 corners polygon primitive as box body*
4,1,4,$2,$3,$4,$5,$6,$7,$8,$9,$2,$3,0*
0 Add four circle primitives for the rounded corners*
1,1,$1+$1,$2,$3*
1,1,$1+$1,$4,$5*
1,1,$1+$1,$6,$7*
1,1,$1+$1,$8,$9*
0 Add four rect primitives between the rounded corners*
20,1,$1+$1,$2,$3,$4,$5,0*
20,1,$1+$1,$4,$5,$6,$7,0*
20,1,$1+$1,$6,$7,$8,$9,0*
20,1,$1+$1,$8,$9,$2,$3,0*%
G04 Aperture macros list end*
%ADD10C,0.150000*%
%ADD11C,0.120000*%
%ADD12C,0.100000*%
%ADD13C,1.700000*%
%ADD14C,3.400000*%
%ADD15R,2.000000X2.000000*%
%ADD16C,2.000000*%
%ADD17R,2.500000X3.000000*%
%ADD18C,1.600000*%
%ADD19O,1.600000X1.600000*%
%ADD20R,2.200000X2.200000*%
%ADD21O,2.200000X2.200000*%
%ADD22R,1.700000X1.700000*%
%ADD23O,1.700000X1.700000*%
%ADD24RoundRect,0.250000X-0.350000X-0.625000X0.350000X-0.625000X0.350000X0.625000X-0.350000X0.625000X0*%
%ADD25O,1.200000X1.750000*%
%ADD26C,3.800000*%
%ADD27C,3.500000*%
%ADD28O,3.500000X3.500000*%
%ADD29R,1.905000X2.000000*%
%ADD30O,1.905000X2.000000*%
G04 APERTURE END LIST*
D10*
X502607200Y-202109524D02*
X502654819Y-202204762D01*
X502654819Y-202204762D02*
X502654819Y-202395238D01*
X502654819Y-202395238D02*
X502607200Y-202490476D01*
X502607200Y-202490476D02*
X502511961Y-202538095D01*
X502511961Y-202538095D02*
X502131009Y-202538095D01*
X502131009Y-202538095D02*
X502035771Y-202490476D01*
X502035771Y-202490476D02*
X501988152Y-202395238D01*
X501988152Y-202395238D02*
X501988152Y-202204762D01*
X501988152Y-202204762D02*
X502035771Y-202109524D01*
X502035771Y-202109524D02*
X502131009Y-202061905D01*
X502131009Y-202061905D02*
X502226247Y-202061905D01*
X502226247Y-202061905D02*
X502321485Y-202538095D01*
X501988152Y-201633333D02*
X502654819Y-201633333D01*
X502083390Y-201633333D02*
X502035771Y-201585714D01*
X502035771Y-201585714D02*
X501988152Y-201490476D01*
X501988152Y-201490476D02*
X501988152Y-201347619D01*
X501988152Y-201347619D02*
X502035771Y-201252381D01*
X502035771Y-201252381D02*
X502131009Y-201204762D01*
X502131009Y-201204762D02*
X502654819Y-201204762D01*
X502607200Y-200300000D02*
X502654819Y-200395238D01*
X502654819Y-200395238D02*
X502654819Y-200585714D01*
X502654819Y-200585714D02*
X502607200Y-200680952D01*
X502607200Y-200680952D02*
X502559580Y-200728571D01*
X502559580Y-200728571D02*
X502464342Y-200776190D01*
X502464342Y-200776190D02*
X502178628Y-200776190D01*
X502178628Y-200776190D02*
X502083390Y-200728571D01*
X502083390Y-200728571D02*
X502035771Y-200680952D01*
X502035771Y-200680952D02*
X501988152Y-200585714D01*
X501988152Y-200585714D02*
X501988152Y-200395238D01*
X501988152Y-200395238D02*
X502035771Y-200300000D01*
X502654819Y-199728571D02*
X502607200Y-199823809D01*
X502607200Y-199823809D02*
X502559580Y-199871428D01*
X502559580Y-199871428D02*
X502464342Y-199919047D01*
X502464342Y-199919047D02*
X502178628Y-199919047D01*
X502178628Y-199919047D02*
X502083390Y-199871428D01*
X502083390Y-199871428D02*
X502035771Y-199823809D01*
X502035771Y-199823809D02*
X501988152Y-199728571D01*
X501988152Y-199728571D02*
X501988152Y-199585714D01*
X501988152Y-199585714D02*
X502035771Y-199490476D01*
X502035771Y-199490476D02*
X502083390Y-199442857D01*
X502083390Y-199442857D02*
X502178628Y-199395238D01*
X502178628Y-199395238D02*
X502464342Y-199395238D01*
X502464342Y-199395238D02*
X502559580Y-199442857D01*
X502559580Y-199442857D02*
X502607200Y-199490476D01*
X502607200Y-199490476D02*
X502654819Y-199585714D01*
X502654819Y-199585714D02*
X502654819Y-199728571D01*
X502654819Y-198538095D02*
X501654819Y-198538095D01*
X502607200Y-198538095D02*
X502654819Y-198633333D01*
X502654819Y-198633333D02*
X502654819Y-198823809D01*
X502654819Y-198823809D02*
X502607200Y-198919047D01*
X502607200Y-198919047D02*
X502559580Y-198966666D01*
X502559580Y-198966666D02*
X502464342Y-199014285D01*
X502464342Y-199014285D02*
X502178628Y-199014285D01*
X502178628Y-199014285D02*
X502083390Y-198966666D01*
X502083390Y-198966666D02*
X502035771Y-198919047D01*
X502035771Y-198919047D02*
X501988152Y-198823809D01*
X501988152Y-198823809D02*
X501988152Y-198633333D01*
X501988152Y-198633333D02*
X502035771Y-198538095D01*
X502607200Y-197680952D02*
X502654819Y-197776190D01*
X502654819Y-197776190D02*
X502654819Y-197966666D01*
X502654819Y-197966666D02*
X502607200Y-198061904D01*
X502607200Y-198061904D02*
X502511961Y-198109523D01*
X502511961Y-198109523D02*
X502131009Y-198109523D01*
X502131009Y-198109523D02*
X502035771Y-198061904D01*
X502035771Y-198061904D02*
X501988152Y-197966666D01*
X501988152Y-197966666D02*
X501988152Y-197776190D01*
X501988152Y-197776190D02*
X502035771Y-197680952D01*
X502035771Y-197680952D02*
X502131009Y-197633333D01*
X502131009Y-197633333D02*
X502226247Y-197633333D01*
X502226247Y-197633333D02*
X502321485Y-198109523D01*
X502654819Y-197204761D02*
X501988152Y-197204761D01*
X502178628Y-197204761D02*
X502083390Y-197157142D01*
X502083390Y-197157142D02*
X502035771Y-197109523D01*
X502035771Y-197109523D02*
X501988152Y-197014285D01*
X501988152Y-197014285D02*
X501988152Y-196919047D01*
X502654819Y-196061904D02*
X502654819Y-196633332D01*
X502654819Y-196347618D02*
X501654819Y-196347618D01*
X501654819Y-196347618D02*
X501797676Y-196442856D01*
X501797676Y-196442856D02*
X501892914Y-196538094D01*
X501892914Y-196538094D02*
X501940533Y-196633332D01*
X472473333Y-131699819D02*
X472140000Y-131223628D01*
X471901905Y-131699819D02*
X471901905Y-130699819D01*
X471901905Y-130699819D02*
X472282857Y-130699819D01*
X472282857Y-130699819D02*
X472378095Y-130747438D01*
X472378095Y-130747438D02*
X472425714Y-130795057D01*
X472425714Y-130795057D02*
X472473333Y-130890295D01*
X472473333Y-130890295D02*
X472473333Y-131033152D01*
X472473333Y-131033152D02*
X472425714Y-131128390D01*
X472425714Y-131128390D02*
X472378095Y-131176009D01*
X472378095Y-131176009D02*
X472282857Y-131223628D01*
X472282857Y-131223628D02*
X471901905Y-131223628D01*
X473425714Y-131699819D02*
X472854286Y-131699819D01*
X473140000Y-131699819D02*
X473140000Y-130699819D01*
X473140000Y-130699819D02*
X473044762Y-130842676D01*
X473044762Y-130842676D02*
X472949524Y-130937914D01*
X472949524Y-130937914D02*
X472854286Y-130985533D01*
X471425714Y-161499819D02*
X471425714Y-160499819D01*
X471425714Y-160499819D02*
X471663809Y-160499819D01*
X471663809Y-160499819D02*
X471806666Y-160547438D01*
X471806666Y-160547438D02*
X471901904Y-160642676D01*
X471901904Y-160642676D02*
X471949523Y-160737914D01*
X471949523Y-160737914D02*
X471997142Y-160928390D01*
X471997142Y-160928390D02*
X471997142Y-161071247D01*
X471997142Y-161071247D02*
X471949523Y-161261723D01*
X471949523Y-161261723D02*
X471901904Y-161356961D01*
X471901904Y-161356961D02*
X471806666Y-161452200D01*
X471806666Y-161452200D02*
X471663809Y-161499819D01*
X471663809Y-161499819D02*
X471425714Y-161499819D01*
X472330476Y-160499819D02*
X472997142Y-160499819D01*
X472997142Y-160499819D02*
X472568571Y-161499819D01*
X473854285Y-160499819D02*
X473378095Y-160499819D01*
X473378095Y-160499819D02*
X473330476Y-160976009D01*
X473330476Y-160976009D02*
X473378095Y-160928390D01*
X473378095Y-160928390D02*
X473473333Y-160880771D01*
X473473333Y-160880771D02*
X473711428Y-160880771D01*
X473711428Y-160880771D02*
X473806666Y-160928390D01*
X473806666Y-160928390D02*
X473854285Y-160976009D01*
X473854285Y-160976009D02*
X473901904Y-161071247D01*
X473901904Y-161071247D02*
X473901904Y-161309342D01*
X473901904Y-161309342D02*
X473854285Y-161404580D01*
X473854285Y-161404580D02*
X473806666Y-161452200D01*
X473806666Y-161452200D02*
X473711428Y-161499819D01*
X473711428Y-161499819D02*
X473473333Y-161499819D01*
X473473333Y-161499819D02*
X473378095Y-161452200D01*
X473378095Y-161452200D02*
X473330476Y-161404580D01*
X467298095Y-161869819D02*
X467298095Y-160869819D01*
X467869523Y-161869819D02*
X467440952Y-161298390D01*
X467869523Y-160869819D02*
X467298095Y-161441247D01*
X483211666Y-129919818D02*
X483211666Y-130634103D01*
X483211666Y-130634103D02*
X483164047Y-130776960D01*
X483164047Y-130776960D02*
X483068809Y-130872199D01*
X483068809Y-130872199D02*
X482925952Y-130919818D01*
X482925952Y-130919818D02*
X482830714Y-130919818D01*
X484211666Y-130919818D02*
X483640238Y-130919818D01*
X483925952Y-130919818D02*
X483925952Y-129919818D01*
X483925952Y-129919818D02*
X483830714Y-130062675D01*
X483830714Y-130062675D02*
X483735476Y-130157913D01*
X483735476Y-130157913D02*
X483640238Y-130205532D01*
X472306666Y-165319819D02*
X472306666Y-166034104D01*
X472306666Y-166034104D02*
X472259047Y-166176961D01*
X472259047Y-166176961D02*
X472163809Y-166272200D01*
X472163809Y-166272200D02*
X472020952Y-166319819D01*
X472020952Y-166319819D02*
X471925714Y-166319819D01*
X472687619Y-165319819D02*
X473306666Y-165319819D01*
X473306666Y-165319819D02*
X472973333Y-165700771D01*
X472973333Y-165700771D02*
X473116190Y-165700771D01*
X473116190Y-165700771D02*
X473211428Y-165748390D01*
X473211428Y-165748390D02*
X473259047Y-165796009D01*
X473259047Y-165796009D02*
X473306666Y-165891247D01*
X473306666Y-165891247D02*
X473306666Y-166129342D01*
X473306666Y-166129342D02*
X473259047Y-166224580D01*
X473259047Y-166224580D02*
X473211428Y-166272200D01*
X473211428Y-166272200D02*
X473116190Y-166319819D01*
X473116190Y-166319819D02*
X472830476Y-166319819D01*
X472830476Y-166319819D02*
X472735238Y-166272200D01*
X472735238Y-166272200D02*
X472687619Y-166224580D01*
X460666666Y-211554819D02*
X460333333Y-211078628D01*
X460095238Y-211554819D02*
X460095238Y-210554819D01*
X460095238Y-210554819D02*
X460476190Y-210554819D01*
X460476190Y-210554819D02*
X460571428Y-210602438D01*
X460571428Y-210602438D02*
X460619047Y-210650057D01*
X460619047Y-210650057D02*
X460666666Y-210745295D01*
X460666666Y-210745295D02*
X460666666Y-210888152D01*
X460666666Y-210888152D02*
X460619047Y-210983390D01*
X460619047Y-210983390D02*
X460571428Y-211031009D01*
X460571428Y-211031009D02*
X460476190Y-211078628D01*
X460476190Y-211078628D02*
X460095238Y-211078628D01*
X461095238Y-211031009D02*
X461428571Y-211031009D01*
X461571428Y-211554819D02*
X461095238Y-211554819D01*
X461095238Y-211554819D02*
X461095238Y-210554819D01*
X461095238Y-210554819D02*
X461571428Y-210554819D01*
X462333333Y-211031009D02*
X462000000Y-211031009D01*
X462000000Y-211554819D02*
X462000000Y-210554819D01*
X462000000Y-210554819D02*
X462476190Y-210554819D01*
X463000000Y-210554819D02*
X463000000Y-210792914D01*
X462761905Y-210697676D02*
X463000000Y-210792914D01*
X463000000Y-210792914D02*
X463238095Y-210697676D01*
X462857143Y-210983390D02*
X463000000Y-210792914D01*
X463000000Y-210792914D02*
X463142857Y-210983390D01*
X463761905Y-210554819D02*
X463761905Y-210792914D01*
X463523810Y-210697676D02*
X463761905Y-210792914D01*
X463761905Y-210792914D02*
X464000000Y-210697676D01*
X463619048Y-210983390D02*
X463761905Y-210792914D01*
X463761905Y-210792914D02*
X463904762Y-210983390D01*
X460666666Y-130554819D02*
X460333333Y-130078628D01*
X460095238Y-130554819D02*
X460095238Y-129554819D01*
X460095238Y-129554819D02*
X460476190Y-129554819D01*
X460476190Y-129554819D02*
X460571428Y-129602438D01*
X460571428Y-129602438D02*
X460619047Y-129650057D01*
X460619047Y-129650057D02*
X460666666Y-129745295D01*
X460666666Y-129745295D02*
X460666666Y-129888152D01*
X460666666Y-129888152D02*
X460619047Y-129983390D01*
X460619047Y-129983390D02*
X460571428Y-130031009D01*
X460571428Y-130031009D02*
X460476190Y-130078628D01*
X460476190Y-130078628D02*
X460095238Y-130078628D01*
X461095238Y-130031009D02*
X461428571Y-130031009D01*
X461571428Y-130554819D02*
X461095238Y-130554819D01*
X461095238Y-130554819D02*
X461095238Y-129554819D01*
X461095238Y-129554819D02*
X461571428Y-129554819D01*
X462333333Y-130031009D02*
X462000000Y-130031009D01*
X462000000Y-130554819D02*
X462000000Y-129554819D01*
X462000000Y-129554819D02*
X462476190Y-129554819D01*
X463000000Y-129554819D02*
X463000000Y-129792914D01*
X462761905Y-129697676D02*
X463000000Y-129792914D01*
X463000000Y-129792914D02*
X463238095Y-129697676D01*
X462857143Y-129983390D02*
X463000000Y-129792914D01*
X463000000Y-129792914D02*
X463142857Y-129983390D01*
X463761905Y-129554819D02*
X463761905Y-129792914D01*
X463523810Y-129697676D02*
X463761905Y-129792914D01*
X463761905Y-129792914D02*
X464000000Y-129697676D01*
X463619048Y-129983390D02*
X463761905Y-129792914D01*
X463761905Y-129792914D02*
X463904762Y-129983390D01*
X500966666Y-183189818D02*
X500966666Y-183904103D01*
X500966666Y-183904103D02*
X500919047Y-184046960D01*
X500919047Y-184046960D02*
X500823809Y-184142199D01*
X500823809Y-184142199D02*
X500680952Y-184189818D01*
X500680952Y-184189818D02*
X500585714Y-184189818D01*
X501395238Y-183285056D02*
X501442857Y-183237437D01*
X501442857Y-183237437D02*
X501538095Y-183189818D01*
X501538095Y-183189818D02*
X501776190Y-183189818D01*
X501776190Y-183189818D02*
X501871428Y-183237437D01*
X501871428Y-183237437D02*
X501919047Y-183285056D01*
X501919047Y-183285056D02*
X501966666Y-183380294D01*
X501966666Y-183380294D02*
X501966666Y-183475532D01*
X501966666Y-183475532D02*
X501919047Y-183618389D01*
X501919047Y-183618389D02*
X501347619Y-184189818D01*
X501347619Y-184189818D02*
X501966666Y-184189818D01*
X472544761Y-138095057D02*
X472449523Y-138047438D01*
X472449523Y-138047438D02*
X472354285Y-137952200D01*
X472354285Y-137952200D02*
X472211428Y-137809342D01*
X472211428Y-137809342D02*
X472116190Y-137761723D01*
X472116190Y-137761723D02*
X472020952Y-137761723D01*
X472068571Y-137999819D02*
X471973333Y-137952200D01*
X471973333Y-137952200D02*
X471878095Y-137856961D01*
X471878095Y-137856961D02*
X471830476Y-137666485D01*
X471830476Y-137666485D02*
X471830476Y-137333152D01*
X471830476Y-137333152D02*
X471878095Y-137142676D01*
X471878095Y-137142676D02*
X471973333Y-137047438D01*
X471973333Y-137047438D02*
X472068571Y-136999819D01*
X472068571Y-136999819D02*
X472259047Y-136999819D01*
X472259047Y-136999819D02*
X472354285Y-137047438D01*
X472354285Y-137047438D02*
X472449523Y-137142676D01*
X472449523Y-137142676D02*
X472497142Y-137333152D01*
X472497142Y-137333152D02*
X472497142Y-137666485D01*
X472497142Y-137666485D02*
X472449523Y-137856961D01*
X472449523Y-137856961D02*
X472354285Y-137952200D01*
X472354285Y-137952200D02*
X472259047Y-137999819D01*
X472259047Y-137999819D02*
X472068571Y-137999819D01*
X473449523Y-137999819D02*
X472878095Y-137999819D01*
X473163809Y-137999819D02*
X473163809Y-136999819D01*
X473163809Y-136999819D02*
X473068571Y-137142676D01*
X473068571Y-137142676D02*
X472973333Y-137237914D01*
X472973333Y-137237914D02*
X472878095Y-137285533D01*
D11*
%TO.C,encoder1*%
X488700000Y-197300000D02*
X491500000Y-197300000D01*
X488700000Y-202200000D02*
X488700000Y-197300000D01*
X488700000Y-210700000D02*
X488700000Y-205800000D01*
X495000000Y-203500000D02*
X495000000Y-204500000D01*
X495500000Y-204000000D02*
X494500000Y-204000000D01*
X498800000Y-196500000D02*
X499100000Y-196200000D01*
X499100000Y-196200000D02*
X499100000Y-196800000D01*
X499100000Y-196800000D02*
X498800000Y-196500000D01*
X501300000Y-197300000D02*
X498800000Y-197300000D01*
X501300000Y-202100000D02*
X501300000Y-197300000D01*
X501300000Y-205800000D02*
X501300000Y-210700000D01*
X501300000Y-210700000D02*
X488700000Y-210700000D01*
X498000000Y-204000000D02*
G75*
G02*
X492000000Y-204000000I-3000000J0D01*
G01*
X492000000Y-204000000D02*
G75*
G02*
X498000000Y-204000000I3000000J0D01*
G01*
%TO.C,R1*%
X469370000Y-132245000D02*
X475910000Y-132245000D01*
X469370000Y-132575000D02*
X469370000Y-132245000D01*
X469370000Y-134655000D02*
X469370000Y-134985000D01*
X469370000Y-134985000D02*
X475910000Y-134985000D01*
X475910000Y-132245000D02*
X475910000Y-132575000D01*
X475910000Y-134985000D02*
X475910000Y-134655000D01*
%TO.C,D75*%
X468900000Y-163515000D02*
X469920000Y-163515000D01*
X469920000Y-162045000D02*
X469920000Y-164985000D01*
X469920000Y-164985000D02*
X475360000Y-164985000D01*
X470700000Y-162045000D02*
X470700000Y-164985000D01*
X470820000Y-162045000D02*
X470820000Y-164985000D01*
X470940000Y-162045000D02*
X470940000Y-164985000D01*
X475360000Y-162045000D02*
X469920000Y-162045000D01*
X475360000Y-164985000D02*
X475360000Y-162045000D01*
X476380000Y-163515000D02*
X475360000Y-163515000D01*
%TO.C,J1*%
X482215000Y-134505000D02*
X482215000Y-182824999D01*
X482215000Y-134505000D02*
X484875000Y-134505000D01*
X482215000Y-182824999D02*
X484875000Y-182824999D01*
X483545000Y-131904999D02*
X484875000Y-131904999D01*
X484875000Y-131904999D02*
X484875000Y-133234999D01*
X484875000Y-134505000D02*
X484875000Y-182824999D01*
%TO.C,J3*%
X469280000Y-166655000D02*
X469280000Y-167905000D01*
X469580000Y-166955000D02*
X469580000Y-171675000D01*
X469580000Y-168265000D02*
X470190000Y-168265000D01*
X469580000Y-169565000D02*
X470190000Y-169565000D01*
X469580000Y-171675000D02*
X475700000Y-171675000D01*
X470190000Y-167565000D02*
X470190000Y-171065000D01*
X470190000Y-171065000D02*
X475090000Y-171065000D01*
X470530000Y-166655000D02*
X469280000Y-166655000D01*
X471040000Y-166755000D02*
X471040000Y-166955000D01*
X471340000Y-166755000D02*
X471040000Y-166755000D01*
X471340000Y-166855000D02*
X471040000Y-166855000D01*
X471340000Y-166955000D02*
X471340000Y-166755000D01*
X472140000Y-166955000D02*
X472140000Y-167565000D01*
X472140000Y-167565000D02*
X470190000Y-167565000D01*
X472540000Y-170565000D02*
X472740000Y-170565000D01*
X472540000Y-171065000D02*
X472540000Y-170565000D01*
X472640000Y-171065000D02*
X472640000Y-170565000D01*
X472740000Y-170565000D02*
X472740000Y-171065000D01*
X473140000Y-167565000D02*
X473140000Y-166955000D01*
X475090000Y-167565000D02*
X473140000Y-167565000D01*
X475090000Y-171065000D02*
X475090000Y-167565000D01*
X475700000Y-166955000D02*
X469580000Y-166955000D01*
X475700000Y-168265000D02*
X475090000Y-168265000D01*
X475700000Y-169565000D02*
X475090000Y-169565000D01*
X475700000Y-171675000D02*
X475700000Y-166955000D01*
%TO.C,J2*%
X499970000Y-179694998D02*
X499970000Y-131374999D01*
X499970000Y-182294999D02*
X499970000Y-180964999D01*
X501300000Y-182294999D02*
X499970000Y-182294999D01*
X502630000Y-131374999D02*
X499970000Y-131374999D01*
X502630000Y-179694998D02*
X499970000Y-179694998D01*
X502630000Y-179694998D02*
X502630000Y-131374999D01*
D12*
%TO.C,REF\u002A\u002A*%
X464500000Y-179125000D02*
X475500000Y-179125000D01*
X464500000Y-199125000D02*
X464500000Y-179125000D01*
X468000000Y-206124999D02*
X468000000Y-199125000D01*
X469000000Y-175625000D02*
X469000000Y-179125000D01*
X469000000Y-175625000D02*
X471000000Y-175625000D01*
X471000000Y-175625000D02*
X471000000Y-179125000D01*
X472000000Y-206125000D02*
X468000000Y-206124999D01*
X472000000Y-206125000D02*
X472000000Y-199125000D01*
X475500000Y-179125000D02*
X475500000Y-199125000D01*
X475500000Y-199125000D02*
X464500000Y-199125000D01*
D11*
%TO.C,Q1*%
X467520000Y-138545000D02*
X467520000Y-154434999D01*
X467520000Y-138545000D02*
X477760000Y-138545000D01*
X467520000Y-154434999D02*
X477760000Y-154435000D01*
X470100000Y-154435000D02*
X470100000Y-156975000D01*
X472640000Y-154435000D02*
X472640000Y-156975000D01*
X475179999Y-154435000D02*
X475180000Y-156975000D01*
X477760000Y-138545000D02*
X477760000Y-154435000D01*
%TD*%
%LPC*%
D13*
%TO.C,SW42*%
X645775000Y-173525000D03*
D14*
X651275000Y-173525000D03*
D13*
X656775000Y-173525000D03*
%TD*%
%TO.C,SW44*%
X679775000Y-173525000D03*
D14*
X685275000Y-173525000D03*
D13*
X690775000Y-173525000D03*
%TD*%
%TO.C,SW16*%
X790275000Y-139525000D03*
D14*
X795775000Y-139525000D03*
D13*
X801275000Y-139525000D03*
%TD*%
D15*
%TO.C,encoder1*%
X497500000Y-196500000D03*
D16*
X492500000Y-196500000D03*
X495000000Y-196500000D03*
D17*
X500600000Y-204000000D03*
X489400000Y-204000000D03*
%TD*%
D13*
%TO.C,SW41*%
X628775000Y-173525000D03*
D14*
X634275000Y-173525000D03*
D13*
X639775000Y-173525000D03*
%TD*%
%TO.C,SW26*%
X658525000Y-156525000D03*
D14*
X664025000Y-156525000D03*
D13*
X669525000Y-156525000D03*
%TD*%
D18*
%TO.C,R1*%
X468830000Y-133615000D03*
D19*
X476450000Y-133615000D03*
%TD*%
D13*
%TO.C,SW39*%
X594775000Y-173525000D03*
D14*
X600275000Y-173525000D03*
D13*
X605775000Y-173525000D03*
%TD*%
%TO.C,SW24*%
X624525000Y-156525000D03*
D14*
X630025000Y-156525000D03*
D13*
X635525000Y-156525000D03*
%TD*%
%TO.C,SW45*%
X696775000Y-173525000D03*
D14*
X702275000Y-173525000D03*
D13*
X707775000Y-173525000D03*
%TD*%
%TO.C,SW66*%
X622400000Y-207525000D03*
D14*
X627900000Y-207525000D03*
D13*
X633400000Y-207525000D03*
%TD*%
%TO.C,SW12*%
X701025000Y-139525000D03*
D14*
X706525000Y-139525000D03*
D13*
X712025000Y-139525000D03*
%TD*%
%TO.C,SW20*%
X556525000Y-156525000D03*
D14*
X562025000Y-156525000D03*
D13*
X567525000Y-156525000D03*
%TD*%
%TO.C,SW54*%
X637275000Y-190525000D03*
D14*
X642775000Y-190525000D03*
D13*
X648275000Y-190525000D03*
%TD*%
%TO.C,SW1*%
X514025000Y-139525000D03*
D14*
X519525000Y-139525000D03*
D13*
X525025000Y-139525000D03*
%TD*%
%TO.C,SW40*%
X611775000Y-173525000D03*
D14*
X617275000Y-173525000D03*
D13*
X622775000Y-173525000D03*
%TD*%
%TO.C,SW23*%
X607525000Y-156525000D03*
D14*
X613025000Y-156525000D03*
D13*
X618525000Y-156525000D03*
%TD*%
%TO.C,SW35*%
X520400000Y-173525000D03*
D14*
X525900000Y-173525000D03*
D13*
X531400000Y-173525000D03*
%TD*%
D20*
%TO.C,D75*%
X467560000Y-163515000D03*
D21*
X477720000Y-163515000D03*
%TD*%
D13*
%TO.C,SW7*%
X616025000Y-139525000D03*
D14*
X621525000Y-139525000D03*
D13*
X627025000Y-139525000D03*
%TD*%
%TO.C,SW60*%
X752025000Y-190525000D03*
D14*
X757525000Y-190525000D03*
D13*
X763025000Y-190525000D03*
%TD*%
%TO.C,SW21*%
X573525000Y-156525000D03*
D14*
X579025000Y-156525000D03*
D13*
X584525000Y-156525000D03*
%TD*%
%TO.C,SW9*%
X650025000Y-139525000D03*
D14*
X655525000Y-139525000D03*
D13*
X661025000Y-139525000D03*
%TD*%
%TO.C,SW70*%
X728650000Y-207525000D03*
D14*
X734150000Y-207525000D03*
D13*
X739650000Y-207525000D03*
%TD*%
%TO.C,SW4*%
X565025000Y-139525000D03*
D14*
X570525000Y-139525000D03*
D13*
X576025000Y-139525000D03*
%TD*%
%TO.C,SW3*%
X548025000Y-139525000D03*
D14*
X553525000Y-139525000D03*
D13*
X559025000Y-139525000D03*
%TD*%
%TO.C,SW51*%
X586275000Y-190525000D03*
D14*
X591775000Y-190525000D03*
D13*
X597275000Y-190525000D03*
%TD*%
%TO.C,SW64*%
X558650000Y-207525000D03*
D14*
X564150000Y-207525000D03*
D13*
X569650000Y-207525000D03*
%TD*%
%TO.C,SW74*%
X807275000Y-207525000D03*
D14*
X812775000Y-207525000D03*
D13*
X818275000Y-207525000D03*
%TD*%
%TO.C,SW15*%
X773275000Y-139525000D03*
D14*
X778775000Y-139525000D03*
D13*
X784275000Y-139525000D03*
%TD*%
%TO.C,SW31*%
X747775000Y-156525000D03*
D14*
X753275000Y-156525000D03*
D13*
X758775000Y-156525000D03*
%TD*%
%TO.C,SW68*%
X686150000Y-207525000D03*
D14*
X691650000Y-207525000D03*
D13*
X697150000Y-207525000D03*
%TD*%
%TO.C,SW36*%
X543775000Y-173525000D03*
D14*
X549275000Y-173525000D03*
D13*
X554775000Y-173525000D03*
%TD*%
%TO.C,SW72*%
X773275000Y-207525000D03*
D14*
X778775000Y-207525000D03*
D13*
X784275000Y-207525000D03*
%TD*%
%TO.C,SW46*%
X713775000Y-173525000D03*
D14*
X719275000Y-173525000D03*
D13*
X724775000Y-173525000D03*
%TD*%
%TO.C,SW53*%
X620275000Y-190525000D03*
D14*
X625775000Y-190525000D03*
D13*
X631275000Y-190525000D03*
%TD*%
%TO.C,SW49*%
X552275000Y-190525000D03*
D14*
X557775000Y-190525000D03*
D13*
X563275000Y-190525000D03*
%TD*%
%TO.C,SW62*%
X516150000Y-207525000D03*
D14*
X521650000Y-207525000D03*
D13*
X527150000Y-207525000D03*
%TD*%
%TO.C,SW69*%
X707400000Y-207525000D03*
D14*
X712900000Y-207525000D03*
D13*
X718400000Y-207525000D03*
%TD*%
%TO.C,SW52*%
X603275000Y-190525000D03*
D14*
X608775000Y-190525000D03*
D13*
X614275000Y-190525000D03*
%TD*%
D22*
%TO.C,J1*%
X483545000Y-133234999D03*
D23*
X483545000Y-135774999D03*
X483545000Y-138314998D03*
X483545000Y-140854999D03*
X483545000Y-143394999D03*
X483545000Y-145934999D03*
X483545000Y-148474999D03*
X483545000Y-151015000D03*
X483545000Y-153554999D03*
X483545000Y-156094999D03*
X483545000Y-158634999D03*
X483545000Y-161174998D03*
X483545000Y-163714999D03*
X483545000Y-166254999D03*
X483545000Y-168794999D03*
X483545000Y-171334998D03*
X483545000Y-173875000D03*
X483545000Y-176414999D03*
X483545000Y-178954999D03*
X483545000Y-181494999D03*
%TD*%
D13*
%TO.C,SW6*%
X599025000Y-139525000D03*
D14*
X604525000Y-139525000D03*
D13*
X610025000Y-139525000D03*
%TD*%
%TO.C,SW50*%
X569275000Y-190525000D03*
D14*
X574775000Y-190525000D03*
D13*
X580275000Y-190525000D03*
%TD*%
D24*
%TO.C,J3*%
X471640000Y-168765000D03*
D25*
X473640000Y-168765000D03*
%TD*%
D13*
%TO.C,SW57*%
X688275000Y-190525000D03*
D14*
X693775000Y-190525000D03*
D13*
X699275000Y-190525000D03*
%TD*%
D26*
%TO.C,REF\u002A\u002A*%
X462000000Y-214000000D03*
%TD*%
D13*
%TO.C,SW59*%
X728650000Y-190525000D03*
D14*
X734150000Y-190525000D03*
D13*
X739650000Y-190525000D03*
%TD*%
%TO.C,SW43*%
X662775000Y-173525000D03*
D14*
X668275000Y-173525000D03*
D13*
X673775000Y-173525000D03*
%TD*%
%TO.C,SW56*%
X671275000Y-190525000D03*
D14*
X676775000Y-190525000D03*
D13*
X682275000Y-190525000D03*
%TD*%
%TO.C,SW10*%
X667025000Y-139525000D03*
D14*
X672525000Y-139525000D03*
D13*
X678025000Y-139525000D03*
%TD*%
%TO.C,SW55*%
X654275000Y-190525000D03*
D14*
X659775000Y-190525000D03*
D13*
X665275000Y-190525000D03*
%TD*%
%TO.C,SW58*%
X705275000Y-190525000D03*
D14*
X710775000Y-190525000D03*
D13*
X716275000Y-190525000D03*
%TD*%
%TO.C,SW17*%
X807275000Y-139525000D03*
D14*
X812775000Y-139525000D03*
D13*
X818275000Y-139525000D03*
%TD*%
%TO.C,SW37*%
X560775000Y-173525000D03*
D14*
X566275000Y-173525000D03*
D13*
X571775000Y-173525000D03*
%TD*%
%TO.C,SW61*%
X790275000Y-190525000D03*
D14*
X795775000Y-190525000D03*
D13*
X801275000Y-190525000D03*
%TD*%
%TO.C,SW34*%
X807275000Y-156525000D03*
D14*
X812775000Y-156525000D03*
D13*
X818275000Y-156525000D03*
%TD*%
D26*
%TO.C,REF\u002A\u002A*%
X462000000Y-133000000D03*
%TD*%
D13*
%TO.C,SW8*%
X633025000Y-139525000D03*
D14*
X638525000Y-139525000D03*
D13*
X644025000Y-139525000D03*
%TD*%
%TO.C,SW71*%
X749900000Y-207525000D03*
D14*
X755400000Y-207525000D03*
D13*
X760900000Y-207525000D03*
%TD*%
%TO.C,SW28*%
X692525000Y-156525000D03*
D14*
X698025000Y-156525000D03*
D13*
X703525000Y-156525000D03*
%TD*%
%TO.C,SW33*%
X790275000Y-156525000D03*
D14*
X795775000Y-156525000D03*
D13*
X801275000Y-156525000D03*
%TD*%
%TO.C,SW48*%
X524650000Y-190525000D03*
D14*
X530150000Y-190525000D03*
D13*
X535650000Y-190525000D03*
%TD*%
%TO.C,SW14*%
X743525000Y-139525000D03*
D14*
X749025000Y-139525000D03*
D13*
X754525000Y-139525000D03*
%TD*%
%TO.C,SW73*%
X790275000Y-207525000D03*
D14*
X795775000Y-207525000D03*
D13*
X801275000Y-207525000D03*
%TD*%
%TO.C,SW2*%
X531025000Y-139525000D03*
D14*
X536525000Y-139525000D03*
D13*
X542025000Y-139525000D03*
%TD*%
D22*
%TO.C,J2*%
X501300000Y-180964999D03*
D23*
X501300000Y-178424999D03*
X501300000Y-175885000D03*
X501300000Y-173344999D03*
X501300000Y-170804999D03*
X501300000Y-168264999D03*
X501300000Y-165724999D03*
X501300000Y-163184998D03*
X501300000Y-160644999D03*
X501300000Y-158104999D03*
X501300000Y-155564999D03*
X501300000Y-153025000D03*
X501300000Y-150484999D03*
X501300000Y-147944999D03*
X501300000Y-145404999D03*
X501300000Y-142865000D03*
X501300000Y-140324998D03*
X501300000Y-137784999D03*
X501300000Y-135244999D03*
X501300000Y-132704999D03*
%TD*%
D13*
%TO.C,SW65*%
X588400000Y-207525000D03*
D14*
X593900000Y-207525000D03*
D13*
X599400000Y-207525000D03*
%TD*%
%TO.C,SW5*%
X582025000Y-139525000D03*
D14*
X587525000Y-139525000D03*
D13*
X593025000Y-139525000D03*
%TD*%
%TO.C,SW30*%
X726525000Y-156525000D03*
D14*
X732025000Y-156525000D03*
D13*
X737525000Y-156525000D03*
%TD*%
%TO.C,SW13*%
X718025000Y-139525000D03*
D14*
X723525000Y-139525000D03*
D13*
X729025000Y-139525000D03*
%TD*%
%TO.C,SW38*%
X577775000Y-173525000D03*
D14*
X583275000Y-173525000D03*
D13*
X588775000Y-173525000D03*
%TD*%
%TO.C,SW67*%
X656400000Y-207525000D03*
D14*
X661900000Y-207525000D03*
D13*
X667400000Y-207525000D03*
%TD*%
%TO.C,SW11*%
X684025000Y-139525000D03*
D14*
X689525000Y-139525000D03*
D13*
X695025000Y-139525000D03*
%TD*%
%TO.C,SW29*%
X709525000Y-156525000D03*
D14*
X715025000Y-156525000D03*
D13*
X720525000Y-156525000D03*
%TD*%
%TO.C,SW25*%
X641525000Y-156525000D03*
D14*
X647025000Y-156525000D03*
D13*
X652525000Y-156525000D03*
%TD*%
D27*
%TO.C,REF\u002A\u002A*%
X473000000Y-194125000D03*
X467000000Y-184125000D03*
%TD*%
D13*
%TO.C,SW18*%
X518275000Y-156525000D03*
D14*
X523775000Y-156525000D03*
D13*
X529275000Y-156525000D03*
%TD*%
%TO.C,SW63*%
X537400000Y-207525000D03*
D14*
X542900000Y-207525000D03*
D13*
X548400000Y-207525000D03*
%TD*%
%TO.C,SW27*%
X675525000Y-156525000D03*
D14*
X681025000Y-156525000D03*
D13*
X686525000Y-156525000D03*
%TD*%
D28*
%TO.C,Q1*%
X472640000Y-141465000D03*
D29*
X470100000Y-158125000D03*
D30*
X472640000Y-158125000D03*
X475179999Y-158125000D03*
%TD*%
D13*
%TO.C,SW32*%
X773275000Y-156525000D03*
D14*
X778775000Y-156525000D03*
D13*
X784275000Y-156525000D03*
%TD*%
%TO.C,SW47*%
X741400000Y-173525000D03*
D14*
X746900000Y-173525000D03*
D13*
X752400000Y-173525000D03*
%TD*%
%TO.C,SW19*%
X539525000Y-156525000D03*
D14*
X545025000Y-156525000D03*
D13*
X550525000Y-156525000D03*
%TD*%
%TO.C,SW22*%
X590525000Y-156525000D03*
D14*
X596025000Y-156525000D03*
D13*
X601525000Y-156525000D03*
%TD*%
%LPD*%
M02*
