M48
; DRILL file {KiCad 8.0.1} date 2024-07-20T19:57:27+0900
; FORMAT={-:-/ absolute / inch / decimal}
; #@! TF.CreationDate,2024-07-20T19:57:27+09:00
; #@! TF.GenerationSoftware,Kicad,Pcbnew,8.0.1
; #@! TF.FileFunction,Plated,1,2,PTH
FMAT,2
INCH
; #@! TA.AperFunction,Plated,PTH,ViaDrill
T1C0.0118
; #@! TA.AperFunction,Plated,PTH,ComponentDrill
T2C0.0295
; #@! TA.AperFunction,Plated,PTH,ComponentDrill
T3C0.0315
; #@! TA.AperFunction,Plated,PTH,ComponentDrill
T4C0.0394
; #@! TA.AperFunction,Plated,PTH,ComponentDrill
T5C0.0433
; #@! TA.AperFunction,Plated,PTH,ComponentDrill
T6C0.0472
; #@! TA.AperFunction,Plated,PTH,ComponentDrill
T7C0.0787
; #@! TA.AperFunction,Plated,PTH,ComponentDrill
T8C0.0866
%
G90
G05
T1
X18.7953Y-6.2254
X19.4882Y-7.6575
X19.9606Y-7.7953
X19.9606Y-8.4715
X20.0496Y-5.8724
X20.0719Y-5.8947
X20.0935Y-5.9203
X20.1201Y-5.9477
X20.1407Y-5.9715
X20.1624Y-5.999
X20.185Y-6.0226
X20.2096Y-6.063
X20.2333Y-5.7874
X20.3937Y-6.4567
X20.5846Y-7.1654
X22.5994Y-6.4961
X23.4754Y-6.5354
X23.938Y-6.5748
X24.6073Y-6.6142
X25.2766Y-6.6535
X25.9459Y-6.6929
X26.372Y-6.0689
X27.002Y-6.0295
X27.6407Y-5.999
X28.2884Y-5.9774
X29.2923Y-5.9469
X30.503Y-5.9213
X31.1722Y-5.8967
X31.8415Y-5.8701
T2
X18.5685Y-6.6443
X18.6472Y-6.6443
T3
X18.4579Y-5.2604
X18.7579Y-5.2604
T4
X19.0372Y-5.2455
X19.0372Y-5.3455
X19.0372Y-5.4455
X19.0372Y-5.5455
X19.0372Y-5.6455
X19.0372Y-5.7455
X19.0372Y-5.8455
X19.0372Y-5.9455
X19.0372Y-6.0455
X19.0372Y-6.1455
X19.0372Y-6.2455
X19.0372Y-6.3455
X19.0372Y-6.4455
X19.0372Y-6.5455
X19.0372Y-6.6455
X19.0372Y-6.7455
X19.0372Y-6.8455
X19.0372Y-6.9455
X19.0372Y-7.0455
X19.0372Y-7.1455
X19.3898Y-7.7362
X19.4882Y-7.7362
X19.5866Y-7.7362
X19.7362Y-5.2246
X19.7362Y-5.3246
X19.7362Y-5.4246
X19.7362Y-5.5246
X19.7362Y-5.6246
X19.7362Y-5.7246
X19.7362Y-5.8246
X19.7362Y-5.9246
X19.7362Y-6.0246
X19.7362Y-6.1246
X19.7362Y-6.2246
X19.7362Y-6.3246
X19.7362Y-6.4246
X19.7362Y-6.5246
X19.7362Y-6.6246
X19.7362Y-6.7246
X19.7362Y-6.8246
X19.7362Y-6.9246
X19.7362Y-7.0246
X19.7362Y-7.1246
T5
X18.4079Y-6.4376
X18.5079Y-6.2254
X18.6079Y-6.2254
X18.7079Y-6.2254
X18.8079Y-6.4376
T6
X20.2569Y-5.6427
X20.3406Y-8.3199
X20.4242Y-6.312
X20.4537Y-5.7254
X20.5079Y-6.9813
X20.5374Y-8.4026
X20.6211Y-6.3947
X20.6752Y-7.6506
X20.7047Y-7.064
X20.872Y-7.7333
X20.9262Y-5.6427
X21.123Y-5.7254
X21.1772Y-8.3199
X21.2608Y-6.312
X21.374Y-8.4026
X21.4281Y-6.9813
X21.4577Y-6.3947
X21.5955Y-5.6427
X21.625Y-7.064
X21.7628Y-7.6506
X21.7923Y-5.7254
X21.9301Y-6.312
X21.9596Y-7.7333
X22.0138Y-8.3199
X22.0974Y-6.9813
X22.127Y-6.3947
X22.2106Y-8.4026
X22.2648Y-5.6427
X22.2943Y-7.064
X22.4321Y-7.6506
X22.4616Y-5.7254
X22.5994Y-6.312
X22.6289Y-7.7333
X22.7667Y-6.9813
X22.7963Y-6.3947
X22.9341Y-5.6427
X22.9636Y-7.064
X23.1014Y-7.6506
X23.1309Y-5.7254
X23.185Y-8.3199
X23.2687Y-6.312
X23.2982Y-7.7333
X23.3819Y-8.4026
X23.436Y-6.9813
X23.4656Y-6.3947
X23.6033Y-5.6427
X23.6329Y-7.064
X23.7707Y-7.6506
X23.8002Y-5.7254
X23.938Y-6.312
X23.9675Y-7.7333
X24.1053Y-6.9813
X24.1348Y-6.3947
X24.2726Y-5.6427
X24.3022Y-7.064
X24.44Y-7.6506
X24.4695Y-5.7254
X24.5236Y-8.3199
X24.6073Y-6.312
X24.6368Y-7.7333
X24.7205Y-8.4026
X24.7746Y-6.9813
X24.8041Y-6.3947
X24.9419Y-5.6427
X24.9715Y-7.064
X25.1093Y-7.6506
X25.1388Y-5.7254
X25.2766Y-6.312
X25.3061Y-7.7333
X25.4439Y-6.9813
X25.4734Y-6.3947
X25.6112Y-5.6427
X25.6407Y-7.064
X25.7785Y-7.6506
X25.8081Y-5.7254
X25.8622Y-8.3199
X25.9459Y-6.312
X25.9754Y-7.7333
X26.0591Y-8.4026
X26.1132Y-6.9813
X26.1427Y-6.3947
X26.2805Y-5.6427
X26.31Y-7.064
X26.4478Y-7.6506
X26.4774Y-5.7254
X26.6152Y-6.312
X26.6447Y-7.7333
X26.7825Y-6.9813
X26.812Y-6.3947
X26.9498Y-5.6427
X26.9793Y-7.064
X27.0335Y-8.3199
X27.1171Y-7.6506
X27.1467Y-5.7254
X27.2303Y-8.4026
X27.2844Y-6.312
X27.314Y-7.7333
X27.4518Y-6.9813
X27.4813Y-6.3947
X27.6191Y-5.6427
X27.6486Y-7.064
X27.7864Y-7.6506
X27.8159Y-5.7254
X27.8701Y-8.3199
X27.9537Y-6.312
X27.9833Y-7.7333
X28.0669Y-8.4026
X28.1211Y-6.9813
X28.1506Y-6.3947
X28.2884Y-5.6427
X28.3179Y-7.064
X28.4852Y-5.7254
X28.623Y-6.312
X28.7067Y-7.6506
X28.7067Y-8.3199
X28.8199Y-6.3947
X28.9035Y-7.7333
X28.9035Y-8.4026
X29.2087Y-6.9813
X29.2923Y-5.6427
X29.4055Y-7.064
X29.4596Y-6.312
X29.4892Y-5.7254
X29.5433Y-8.3199
X29.627Y-7.6506
X29.6565Y-6.3947
X29.7402Y-8.4026
X29.8238Y-7.7333
X30.4636Y-5.6427
X30.4636Y-6.312
X30.4636Y-8.3199
X30.6604Y-5.7254
X30.6604Y-6.3947
X30.6604Y-8.4026
X31.1329Y-5.6427
X31.1329Y-6.312
X31.1329Y-7.6506
X31.1329Y-8.3199
X31.3297Y-5.7254
X31.3297Y-6.3947
X31.3297Y-7.7333
X31.3297Y-8.4026
X31.8022Y-5.6427
X31.8022Y-6.312
X31.8022Y-8.3199
X31.999Y-5.7254
X31.999Y-6.3947
X31.999Y-8.4026
T8
X18.189Y-5.2362
X18.189Y-8.4252
X18.3858Y-7.249
X18.622Y-7.6427
T7
G00X19.2677Y-8.0217
M15
G01X19.2677Y-8.0413
M16
G05
G00X19.7087Y-8.0217
M15
G01X19.7087Y-8.0413
M16
G05
M30
