M48
; DRILL file {KiCad 8.0.1} date 2024-07-20T19:57:27+0900
; FORMAT={-:-/ absolute / inch / decimal}
; #@! TF.CreationDate,2024-07-20T19:57:27+09:00
; #@! TF.GenerationSoftware,Kicad,Pcbnew,8.0.1
; #@! TF.FileFunction,NonPlated,1,2,NPTH
FMAT,2
INCH
; #@! TA.AperFunction,NonPlated,NPTH,ComponentDrill
T1C0.0669
; #@! TA.AperFunction,NonPlated,NPTH,ComponentDrill
T2C0.1339
; #@! TA.AperFunction,NonPlated,NPTH,ComponentDrill
T3C0.1378
%
G90
G05
T1
X20.2372Y-5.4931
X20.3209Y-8.1703
X20.4045Y-6.1624
X20.4882Y-6.8317
X20.6555Y-7.501
X20.6703Y-5.4931
X20.7539Y-8.1703
X20.8376Y-6.1624
X20.9065Y-5.4931
X20.9213Y-6.8317
X21.0886Y-7.501
X21.1575Y-8.1703
X21.2411Y-6.1624
X21.3396Y-5.4931
X21.4085Y-6.8317
X21.5758Y-5.4931
X21.5906Y-8.1703
X21.6742Y-6.1624
X21.7431Y-7.501
X21.8415Y-6.8317
X21.9104Y-6.1624
X21.9941Y-8.1703
X22.0089Y-5.4931
X22.0778Y-6.8317
X22.1762Y-7.501
X22.2451Y-5.4931
X22.3435Y-6.1624
X22.4124Y-7.501
X22.4272Y-8.1703
X22.5108Y-6.8317
X22.5797Y-6.1624
X22.6781Y-5.4931
X22.747Y-6.8317
X22.8455Y-7.501
X22.9144Y-5.4931
X23.0128Y-6.1624
X23.0817Y-7.501
X23.1654Y-8.1703
X23.1801Y-6.8317
X23.249Y-6.1624
X23.3474Y-5.4931
X23.4163Y-6.8317
X23.5148Y-7.501
X23.5837Y-5.4931
X23.5984Y-8.1703
X23.6821Y-6.1624
X23.751Y-7.501
X23.8494Y-6.8317
X23.9183Y-6.1624
X24.0167Y-5.4931
X24.0856Y-6.8317
X24.1841Y-7.501
X24.253Y-5.4931
X24.3514Y-6.1624
X24.4203Y-7.501
X24.5039Y-8.1703
X24.5187Y-6.8317
X24.5876Y-6.1624
X24.686Y-5.4931
X24.7549Y-6.8317
X24.8533Y-7.501
X24.9222Y-5.4931
X24.937Y-8.1703
X25.0207Y-6.1624
X25.0896Y-7.501
X25.188Y-6.8317
X25.2569Y-6.1624
X25.3553Y-5.4931
X25.4242Y-6.8317
X25.5226Y-7.501
X25.5915Y-5.4931
X25.69Y-6.1624
X25.7589Y-7.501
X25.8425Y-8.1703
X25.8573Y-6.8317
X25.9262Y-6.1624
X26.0246Y-5.4931
X26.0935Y-6.8317
X26.1919Y-7.501
X26.2608Y-5.4931
X26.2756Y-8.1703
X26.3593Y-6.1624
X26.4281Y-7.501
X26.5266Y-6.8317
X26.5955Y-6.1624
X26.6939Y-5.4931
X26.7628Y-6.8317
X26.8612Y-7.501
X26.9301Y-5.4931
X27.0138Y-8.1703
X27.0285Y-6.1624
X27.0974Y-7.501
X27.1959Y-6.8317
X27.2648Y-6.1624
X27.3632Y-5.4931
X27.4321Y-6.8317
X27.4469Y-8.1703
X27.5305Y-7.501
X27.5994Y-5.4931
X27.6978Y-6.1624
X27.7667Y-7.501
X27.8504Y-8.1703
X27.8652Y-6.8317
X27.9341Y-6.1624
X28.0325Y-5.4931
X28.1014Y-6.8317
X28.1998Y-7.501
X28.2687Y-5.4931
X28.2835Y-8.1703
X28.3671Y-6.1624
X28.5344Y-6.8317
X28.6033Y-6.1624
X28.687Y-7.501
X28.687Y-8.1703
X28.7018Y-5.4931
X29.0364Y-6.1624
X29.1201Y-7.501
X29.1201Y-8.1703
X29.189Y-6.8317
X29.2726Y-5.4931
X29.44Y-6.1624
X29.5236Y-8.1703
X29.6073Y-7.501
X29.622Y-6.8317
X29.7057Y-5.4931
X29.873Y-6.1624
X29.9567Y-8.1703
X30.0404Y-7.501
X30.4439Y-5.4931
X30.4439Y-6.1624
X30.4439Y-8.1703
X30.877Y-5.4931
X30.877Y-6.1624
X30.877Y-8.1703
X31.1132Y-5.4931
X31.1132Y-6.1624
X31.1132Y-7.501
X31.1132Y-8.1703
X31.5463Y-5.4931
X31.5463Y-6.1624
X31.5463Y-7.501
X31.5463Y-8.1703
X31.7825Y-5.4931
X31.7825Y-6.1624
X31.7825Y-8.1703
X32.2156Y-5.4931
X32.2156Y-6.1624
X32.2156Y-8.1703
T2
X20.4537Y-5.4931
X20.5374Y-8.1703
X20.6211Y-6.1624
X20.7047Y-6.8317
X20.872Y-7.501
X21.123Y-5.4931
X21.374Y-8.1703
X21.4577Y-6.1624
X21.625Y-6.8317
X21.7923Y-5.4931
X21.9596Y-7.501
X22.127Y-6.1624
X22.2106Y-8.1703
X22.2943Y-6.8317
X22.4616Y-5.4931
X22.6289Y-7.501
X22.7963Y-6.1624
X22.9636Y-6.8317
X23.1309Y-5.4931
X23.2982Y-7.501
X23.3819Y-8.1703
X23.4656Y-6.1624
X23.6329Y-6.8317
X23.8002Y-5.4931
X23.9675Y-7.501
X24.1348Y-6.1624
X24.3022Y-6.8317
X24.4695Y-5.4931
X24.6368Y-7.501
X24.7205Y-8.1703
X24.8041Y-6.1624
X24.9715Y-6.8317
X25.1388Y-5.4931
X25.3061Y-7.501
X25.4734Y-6.1624
X25.6407Y-6.8317
X25.8081Y-5.4931
X25.9754Y-7.501
X26.0591Y-8.1703
X26.1427Y-6.1624
X26.31Y-6.8317
X26.4774Y-5.4931
X26.6447Y-7.501
X26.812Y-6.1624
X26.9793Y-6.8317
X27.1467Y-5.4931
X27.2303Y-8.1703
X27.314Y-7.501
X27.4813Y-6.1624
X27.6486Y-6.8317
X27.8159Y-5.4931
X27.9833Y-7.501
X28.0669Y-8.1703
X28.1506Y-6.1624
X28.3179Y-6.8317
X28.4852Y-5.4931
X28.8199Y-6.1624
X28.9035Y-7.501
X28.9035Y-8.1703
X29.4055Y-6.8317
X29.4892Y-5.4931
X29.6565Y-6.1624
X29.7402Y-8.1703
X29.8238Y-7.501
X30.6604Y-5.4931
X30.6604Y-6.1624
X30.6604Y-8.1703
X31.3297Y-5.4931
X31.3297Y-6.1624
X31.3297Y-7.501
X31.3297Y-8.1703
X31.999Y-5.4931
X31.999Y-6.1624
X31.999Y-8.1703
T3
X18.6079Y-5.5695
M30
