%TF.GenerationSoftware,KiCad,Pcbnew,8.0.1*%
%TF.CreationDate,2024-07-20T19:57:27+09:00*%
%TF.ProjectId,lowd75,6c6f7764-3735-42e6-9b69-6361645f7063,rev?*%
%TF.SameCoordinates,Original*%
%TF.FileFunction,Other,Comment*%
%FSLAX46Y46*%
G04 Gerber Fmt 4.6, Leading zero omitted, Abs format (unit mm)*
G04 Created by KiCad (PCBNEW 8.0.1) date 2024-07-20 19:57:27*
%MOMM*%
%LPD*%
G01*
G04 APERTURE LIST*
%ADD10C,0.150000*%
%ADD11C,0.100000*%
G04 APERTURE END LIST*
D10*
X743977380Y-146432200D02*
X744120237Y-146479819D01*
X744120237Y-146479819D02*
X744358332Y-146479819D01*
X744358332Y-146479819D02*
X744453570Y-146432200D01*
X744453570Y-146432200D02*
X744501189Y-146384580D01*
X744501189Y-146384580D02*
X744548808Y-146289342D01*
X744548808Y-146289342D02*
X744548808Y-146194104D01*
X744548808Y-146194104D02*
X744501189Y-146098866D01*
X744501189Y-146098866D02*
X744453570Y-146051247D01*
X744453570Y-146051247D02*
X744358332Y-146003628D01*
X744358332Y-146003628D02*
X744167856Y-145956009D01*
X744167856Y-145956009D02*
X744072618Y-145908390D01*
X744072618Y-145908390D02*
X744024999Y-145860771D01*
X744024999Y-145860771D02*
X743977380Y-145765533D01*
X743977380Y-145765533D02*
X743977380Y-145670295D01*
X743977380Y-145670295D02*
X744024999Y-145575057D01*
X744024999Y-145575057D02*
X744072618Y-145527438D01*
X744072618Y-145527438D02*
X744167856Y-145479819D01*
X744167856Y-145479819D02*
X744405951Y-145479819D01*
X744405951Y-145479819D02*
X744548808Y-145527438D01*
X744834523Y-145479819D02*
X745405951Y-145479819D01*
X745120237Y-146479819D02*
X745120237Y-145479819D01*
X745691666Y-146194104D02*
X746167856Y-146194104D01*
X745596428Y-146479819D02*
X745929761Y-145479819D01*
X745929761Y-145479819D02*
X746263094Y-146479819D01*
X746929761Y-145956009D02*
X747072618Y-146003628D01*
X747072618Y-146003628D02*
X747120237Y-146051247D01*
X747120237Y-146051247D02*
X747167856Y-146146485D01*
X747167856Y-146146485D02*
X747167856Y-146289342D01*
X747167856Y-146289342D02*
X747120237Y-146384580D01*
X747120237Y-146384580D02*
X747072618Y-146432200D01*
X747072618Y-146432200D02*
X746977380Y-146479819D01*
X746977380Y-146479819D02*
X746596428Y-146479819D01*
X746596428Y-146479819D02*
X746596428Y-145479819D01*
X746596428Y-145479819D02*
X746929761Y-145479819D01*
X746929761Y-145479819D02*
X747024999Y-145527438D01*
X747024999Y-145527438D02*
X747072618Y-145575057D01*
X747072618Y-145575057D02*
X747120237Y-145670295D01*
X747120237Y-145670295D02*
X747120237Y-145765533D01*
X747120237Y-145765533D02*
X747072618Y-145860771D01*
X747072618Y-145860771D02*
X747024999Y-145908390D01*
X747024999Y-145908390D02*
X746929761Y-145956009D01*
X746929761Y-145956009D02*
X746596428Y-145956009D01*
X747358333Y-146575057D02*
X748120237Y-146575057D01*
X748786904Y-146432200D02*
X748691666Y-146479819D01*
X748691666Y-146479819D02*
X748501190Y-146479819D01*
X748501190Y-146479819D02*
X748405952Y-146432200D01*
X748405952Y-146432200D02*
X748358333Y-146384580D01*
X748358333Y-146384580D02*
X748310714Y-146289342D01*
X748310714Y-146289342D02*
X748310714Y-146003628D01*
X748310714Y-146003628D02*
X748358333Y-145908390D01*
X748358333Y-145908390D02*
X748405952Y-145860771D01*
X748405952Y-145860771D02*
X748501190Y-145813152D01*
X748501190Y-145813152D02*
X748691666Y-145813152D01*
X748691666Y-145813152D02*
X748786904Y-145860771D01*
X749215476Y-146479819D02*
X749215476Y-145479819D01*
X749644047Y-146479819D02*
X749644047Y-145956009D01*
X749644047Y-145956009D02*
X749596428Y-145860771D01*
X749596428Y-145860771D02*
X749501190Y-145813152D01*
X749501190Y-145813152D02*
X749358333Y-145813152D01*
X749358333Y-145813152D02*
X749263095Y-145860771D01*
X749263095Y-145860771D02*
X749215476Y-145908390D01*
X750263095Y-146479819D02*
X750167857Y-146432200D01*
X750167857Y-146432200D02*
X750120238Y-146384580D01*
X750120238Y-146384580D02*
X750072619Y-146289342D01*
X750072619Y-146289342D02*
X750072619Y-146003628D01*
X750072619Y-146003628D02*
X750120238Y-145908390D01*
X750120238Y-145908390D02*
X750167857Y-145860771D01*
X750167857Y-145860771D02*
X750263095Y-145813152D01*
X750263095Y-145813152D02*
X750405952Y-145813152D01*
X750405952Y-145813152D02*
X750501190Y-145860771D01*
X750501190Y-145860771D02*
X750548809Y-145908390D01*
X750548809Y-145908390D02*
X750596428Y-146003628D01*
X750596428Y-146003628D02*
X750596428Y-146289342D01*
X750596428Y-146289342D02*
X750548809Y-146384580D01*
X750548809Y-146384580D02*
X750501190Y-146432200D01*
X750501190Y-146432200D02*
X750405952Y-146479819D01*
X750405952Y-146479819D02*
X750263095Y-146479819D01*
X751453571Y-146432200D02*
X751358333Y-146479819D01*
X751358333Y-146479819D02*
X751167857Y-146479819D01*
X751167857Y-146479819D02*
X751072619Y-146432200D01*
X751072619Y-146432200D02*
X751025000Y-146384580D01*
X751025000Y-146384580D02*
X750977381Y-146289342D01*
X750977381Y-146289342D02*
X750977381Y-146003628D01*
X750977381Y-146003628D02*
X751025000Y-145908390D01*
X751025000Y-145908390D02*
X751072619Y-145860771D01*
X751072619Y-145860771D02*
X751167857Y-145813152D01*
X751167857Y-145813152D02*
X751358333Y-145813152D01*
X751358333Y-145813152D02*
X751453571Y-145860771D01*
X751644048Y-146575057D02*
X752405952Y-146575057D01*
X752596429Y-145575057D02*
X752644048Y-145527438D01*
X752644048Y-145527438D02*
X752739286Y-145479819D01*
X752739286Y-145479819D02*
X752977381Y-145479819D01*
X752977381Y-145479819D02*
X753072619Y-145527438D01*
X753072619Y-145527438D02*
X753120238Y-145575057D01*
X753120238Y-145575057D02*
X753167857Y-145670295D01*
X753167857Y-145670295D02*
X753167857Y-145765533D01*
X753167857Y-145765533D02*
X753120238Y-145908390D01*
X753120238Y-145908390D02*
X752548810Y-146479819D01*
X752548810Y-146479819D02*
X753167857Y-146479819D01*
X754025000Y-145813152D02*
X754025000Y-146479819D01*
X753596429Y-145813152D02*
X753596429Y-146336961D01*
X753596429Y-146336961D02*
X753644048Y-146432200D01*
X753644048Y-146432200D02*
X753739286Y-146479819D01*
X753739286Y-146479819D02*
X753882143Y-146479819D01*
X753882143Y-146479819D02*
X753977381Y-146432200D01*
X753977381Y-146432200D02*
X754025000Y-146384580D01*
X741405951Y-147456009D02*
X741739284Y-147456009D01*
X741882141Y-147979819D02*
X741405951Y-147979819D01*
X741405951Y-147979819D02*
X741405951Y-146979819D01*
X741405951Y-146979819D02*
X741882141Y-146979819D01*
X742739284Y-147932200D02*
X742644046Y-147979819D01*
X742644046Y-147979819D02*
X742453570Y-147979819D01*
X742453570Y-147979819D02*
X742358332Y-147932200D01*
X742358332Y-147932200D02*
X742310713Y-147884580D01*
X742310713Y-147884580D02*
X742263094Y-147789342D01*
X742263094Y-147789342D02*
X742263094Y-147503628D01*
X742263094Y-147503628D02*
X742310713Y-147408390D01*
X742310713Y-147408390D02*
X742358332Y-147360771D01*
X742358332Y-147360771D02*
X742453570Y-147313152D01*
X742453570Y-147313152D02*
X742644046Y-147313152D01*
X742644046Y-147313152D02*
X742739284Y-147360771D01*
X743310713Y-147979819D02*
X743215475Y-147932200D01*
X743215475Y-147932200D02*
X743167856Y-147884580D01*
X743167856Y-147884580D02*
X743120237Y-147789342D01*
X743120237Y-147789342D02*
X743120237Y-147503628D01*
X743120237Y-147503628D02*
X743167856Y-147408390D01*
X743167856Y-147408390D02*
X743215475Y-147360771D01*
X743215475Y-147360771D02*
X743310713Y-147313152D01*
X743310713Y-147313152D02*
X743453570Y-147313152D01*
X743453570Y-147313152D02*
X743548808Y-147360771D01*
X743548808Y-147360771D02*
X743596427Y-147408390D01*
X743596427Y-147408390D02*
X743644046Y-147503628D01*
X743644046Y-147503628D02*
X743644046Y-147789342D01*
X743644046Y-147789342D02*
X743596427Y-147884580D01*
X743596427Y-147884580D02*
X743548808Y-147932200D01*
X743548808Y-147932200D02*
X743453570Y-147979819D01*
X743453570Y-147979819D02*
X743310713Y-147979819D01*
X744024999Y-147075057D02*
X744072618Y-147027438D01*
X744072618Y-147027438D02*
X744167856Y-146979819D01*
X744167856Y-146979819D02*
X744405951Y-146979819D01*
X744405951Y-146979819D02*
X744501189Y-147027438D01*
X744501189Y-147027438D02*
X744548808Y-147075057D01*
X744548808Y-147075057D02*
X744596427Y-147170295D01*
X744596427Y-147170295D02*
X744596427Y-147265533D01*
X744596427Y-147265533D02*
X744548808Y-147408390D01*
X744548808Y-147408390D02*
X743977380Y-147979819D01*
X743977380Y-147979819D02*
X744596427Y-147979819D01*
X745024999Y-147884580D02*
X745072618Y-147932200D01*
X745072618Y-147932200D02*
X745024999Y-147979819D01*
X745024999Y-147979819D02*
X744977380Y-147932200D01*
X744977380Y-147932200D02*
X745024999Y-147884580D01*
X745024999Y-147884580D02*
X745024999Y-147979819D01*
X745501189Y-146979819D02*
X745501189Y-147789342D01*
X745501189Y-147789342D02*
X745548808Y-147884580D01*
X745548808Y-147884580D02*
X745596427Y-147932200D01*
X745596427Y-147932200D02*
X745691665Y-147979819D01*
X745691665Y-147979819D02*
X745882141Y-147979819D01*
X745882141Y-147979819D02*
X745977379Y-147932200D01*
X745977379Y-147932200D02*
X746024998Y-147884580D01*
X746024998Y-147884580D02*
X746072617Y-147789342D01*
X746072617Y-147789342D02*
X746072617Y-146979819D01*
X746501189Y-147932200D02*
X746596427Y-147979819D01*
X746596427Y-147979819D02*
X746786903Y-147979819D01*
X746786903Y-147979819D02*
X746882141Y-147932200D01*
X746882141Y-147932200D02*
X746929760Y-147836961D01*
X746929760Y-147836961D02*
X746929760Y-147789342D01*
X746929760Y-147789342D02*
X746882141Y-147694104D01*
X746882141Y-147694104D02*
X746786903Y-147646485D01*
X746786903Y-147646485D02*
X746644046Y-147646485D01*
X746644046Y-147646485D02*
X746548808Y-147598866D01*
X746548808Y-147598866D02*
X746501189Y-147503628D01*
X746501189Y-147503628D02*
X746501189Y-147456009D01*
X746501189Y-147456009D02*
X746548808Y-147360771D01*
X746548808Y-147360771D02*
X746644046Y-147313152D01*
X746644046Y-147313152D02*
X746786903Y-147313152D01*
X746786903Y-147313152D02*
X746882141Y-147360771D01*
X747739284Y-147932200D02*
X747644046Y-147979819D01*
X747644046Y-147979819D02*
X747453570Y-147979819D01*
X747453570Y-147979819D02*
X747358332Y-147932200D01*
X747358332Y-147932200D02*
X747310713Y-147836961D01*
X747310713Y-147836961D02*
X747310713Y-147456009D01*
X747310713Y-147456009D02*
X747358332Y-147360771D01*
X747358332Y-147360771D02*
X747453570Y-147313152D01*
X747453570Y-147313152D02*
X747644046Y-147313152D01*
X747644046Y-147313152D02*
X747739284Y-147360771D01*
X747739284Y-147360771D02*
X747786903Y-147456009D01*
X747786903Y-147456009D02*
X747786903Y-147551247D01*
X747786903Y-147551247D02*
X747310713Y-147646485D01*
X748215475Y-147884580D02*
X748263094Y-147932200D01*
X748263094Y-147932200D02*
X748215475Y-147979819D01*
X748215475Y-147979819D02*
X748167856Y-147932200D01*
X748167856Y-147932200D02*
X748215475Y-147884580D01*
X748215475Y-147884580D02*
X748215475Y-147979819D01*
X748215475Y-147360771D02*
X748263094Y-147408390D01*
X748263094Y-147408390D02*
X748215475Y-147456009D01*
X748215475Y-147456009D02*
X748167856Y-147408390D01*
X748167856Y-147408390D02*
X748215475Y-147360771D01*
X748215475Y-147360771D02*
X748215475Y-147456009D01*
X749453570Y-147313152D02*
X749453570Y-148313152D01*
X749453570Y-147360771D02*
X749548808Y-147313152D01*
X749548808Y-147313152D02*
X749739284Y-147313152D01*
X749739284Y-147313152D02*
X749834522Y-147360771D01*
X749834522Y-147360771D02*
X749882141Y-147408390D01*
X749882141Y-147408390D02*
X749929760Y-147503628D01*
X749929760Y-147503628D02*
X749929760Y-147789342D01*
X749929760Y-147789342D02*
X749882141Y-147884580D01*
X749882141Y-147884580D02*
X749834522Y-147932200D01*
X749834522Y-147932200D02*
X749739284Y-147979819D01*
X749739284Y-147979819D02*
X749548808Y-147979819D01*
X749548808Y-147979819D02*
X749453570Y-147932200D01*
X750501189Y-147979819D02*
X750405951Y-147932200D01*
X750405951Y-147932200D02*
X750358332Y-147836961D01*
X750358332Y-147836961D02*
X750358332Y-146979819D01*
X751310713Y-147979819D02*
X751310713Y-147456009D01*
X751310713Y-147456009D02*
X751263094Y-147360771D01*
X751263094Y-147360771D02*
X751167856Y-147313152D01*
X751167856Y-147313152D02*
X750977380Y-147313152D01*
X750977380Y-147313152D02*
X750882142Y-147360771D01*
X751310713Y-147932200D02*
X751215475Y-147979819D01*
X751215475Y-147979819D02*
X750977380Y-147979819D01*
X750977380Y-147979819D02*
X750882142Y-147932200D01*
X750882142Y-147932200D02*
X750834523Y-147836961D01*
X750834523Y-147836961D02*
X750834523Y-147741723D01*
X750834523Y-147741723D02*
X750882142Y-147646485D01*
X750882142Y-147646485D02*
X750977380Y-147598866D01*
X750977380Y-147598866D02*
X751215475Y-147598866D01*
X751215475Y-147598866D02*
X751310713Y-147551247D01*
X751644047Y-147313152D02*
X752024999Y-147313152D01*
X751786904Y-146979819D02*
X751786904Y-147836961D01*
X751786904Y-147836961D02*
X751834523Y-147932200D01*
X751834523Y-147932200D02*
X751929761Y-147979819D01*
X751929761Y-147979819D02*
X752024999Y-147979819D01*
X752739285Y-147932200D02*
X752644047Y-147979819D01*
X752644047Y-147979819D02*
X752453571Y-147979819D01*
X752453571Y-147979819D02*
X752358333Y-147932200D01*
X752358333Y-147932200D02*
X752310714Y-147836961D01*
X752310714Y-147836961D02*
X752310714Y-147456009D01*
X752310714Y-147456009D02*
X752358333Y-147360771D01*
X752358333Y-147360771D02*
X752453571Y-147313152D01*
X752453571Y-147313152D02*
X752644047Y-147313152D01*
X752644047Y-147313152D02*
X752739285Y-147360771D01*
X752739285Y-147360771D02*
X752786904Y-147456009D01*
X752786904Y-147456009D02*
X752786904Y-147551247D01*
X752786904Y-147551247D02*
X752310714Y-147646485D01*
X754405952Y-147932200D02*
X754310714Y-147979819D01*
X754310714Y-147979819D02*
X754120238Y-147979819D01*
X754120238Y-147979819D02*
X754025000Y-147932200D01*
X754025000Y-147932200D02*
X753977381Y-147884580D01*
X753977381Y-147884580D02*
X753929762Y-147789342D01*
X753929762Y-147789342D02*
X753929762Y-147503628D01*
X753929762Y-147503628D02*
X753977381Y-147408390D01*
X753977381Y-147408390D02*
X754025000Y-147360771D01*
X754025000Y-147360771D02*
X754120238Y-147313152D01*
X754120238Y-147313152D02*
X754310714Y-147313152D01*
X754310714Y-147313152D02*
X754405952Y-147360771D01*
X755263095Y-147313152D02*
X755263095Y-147979819D01*
X754834524Y-147313152D02*
X754834524Y-147836961D01*
X754834524Y-147836961D02*
X754882143Y-147932200D01*
X754882143Y-147932200D02*
X754977381Y-147979819D01*
X754977381Y-147979819D02*
X755120238Y-147979819D01*
X755120238Y-147979819D02*
X755215476Y-147932200D01*
X755215476Y-147932200D02*
X755263095Y-147884580D01*
X755596429Y-147313152D02*
X755977381Y-147313152D01*
X755739286Y-146979819D02*
X755739286Y-147836961D01*
X755739286Y-147836961D02*
X755786905Y-147932200D01*
X755786905Y-147932200D02*
X755882143Y-147979819D01*
X755882143Y-147979819D02*
X755977381Y-147979819D01*
X756263096Y-147932200D02*
X756358334Y-147979819D01*
X756358334Y-147979819D02*
X756548810Y-147979819D01*
X756548810Y-147979819D02*
X756644048Y-147932200D01*
X756644048Y-147932200D02*
X756691667Y-147836961D01*
X756691667Y-147836961D02*
X756691667Y-147789342D01*
X756691667Y-147789342D02*
X756644048Y-147694104D01*
X756644048Y-147694104D02*
X756548810Y-147646485D01*
X756548810Y-147646485D02*
X756405953Y-147646485D01*
X756405953Y-147646485D02*
X756310715Y-147598866D01*
X756310715Y-147598866D02*
X756263096Y-147503628D01*
X756263096Y-147503628D02*
X756263096Y-147456009D01*
X756263096Y-147456009D02*
X756310715Y-147360771D01*
X756310715Y-147360771D02*
X756405953Y-147313152D01*
X756405953Y-147313152D02*
X756548810Y-147313152D01*
X756548810Y-147313152D02*
X756644048Y-147360771D01*
X650632142Y-169279819D02*
X650155952Y-169279819D01*
X650155952Y-169279819D02*
X650155952Y-168279819D01*
X650965476Y-168756009D02*
X651298809Y-168756009D01*
X651441666Y-169279819D02*
X650965476Y-169279819D01*
X650965476Y-169279819D02*
X650965476Y-168279819D01*
X650965476Y-168279819D02*
X651441666Y-168279819D01*
X651870238Y-169279819D02*
X651870238Y-168279819D01*
X651870238Y-168279819D02*
X652108333Y-168279819D01*
X652108333Y-168279819D02*
X652251190Y-168327438D01*
X652251190Y-168327438D02*
X652346428Y-168422676D01*
X652346428Y-168422676D02*
X652394047Y-168517914D01*
X652394047Y-168517914D02*
X652441666Y-168708390D01*
X652441666Y-168708390D02*
X652441666Y-168851247D01*
X652441666Y-168851247D02*
X652394047Y-169041723D01*
X652394047Y-169041723D02*
X652346428Y-169136961D01*
X652346428Y-169136961D02*
X652251190Y-169232200D01*
X652251190Y-169232200D02*
X652108333Y-169279819D01*
X652108333Y-169279819D02*
X651870238Y-169279819D01*
X684632142Y-169279819D02*
X684155952Y-169279819D01*
X684155952Y-169279819D02*
X684155952Y-168279819D01*
X684965476Y-168756009D02*
X685298809Y-168756009D01*
X685441666Y-169279819D02*
X684965476Y-169279819D01*
X684965476Y-169279819D02*
X684965476Y-168279819D01*
X684965476Y-168279819D02*
X685441666Y-168279819D01*
X685870238Y-169279819D02*
X685870238Y-168279819D01*
X685870238Y-168279819D02*
X686108333Y-168279819D01*
X686108333Y-168279819D02*
X686251190Y-168327438D01*
X686251190Y-168327438D02*
X686346428Y-168422676D01*
X686346428Y-168422676D02*
X686394047Y-168517914D01*
X686394047Y-168517914D02*
X686441666Y-168708390D01*
X686441666Y-168708390D02*
X686441666Y-168851247D01*
X686441666Y-168851247D02*
X686394047Y-169041723D01*
X686394047Y-169041723D02*
X686346428Y-169136961D01*
X686346428Y-169136961D02*
X686251190Y-169232200D01*
X686251190Y-169232200D02*
X686108333Y-169279819D01*
X686108333Y-169279819D02*
X685870238Y-169279819D01*
X795132142Y-135279819D02*
X794655952Y-135279819D01*
X794655952Y-135279819D02*
X794655952Y-134279819D01*
X795465476Y-134756009D02*
X795798809Y-134756009D01*
X795941666Y-135279819D02*
X795465476Y-135279819D01*
X795465476Y-135279819D02*
X795465476Y-134279819D01*
X795465476Y-134279819D02*
X795941666Y-134279819D01*
X796370238Y-135279819D02*
X796370238Y-134279819D01*
X796370238Y-134279819D02*
X796608333Y-134279819D01*
X796608333Y-134279819D02*
X796751190Y-134327438D01*
X796751190Y-134327438D02*
X796846428Y-134422676D01*
X796846428Y-134422676D02*
X796894047Y-134517914D01*
X796894047Y-134517914D02*
X796941666Y-134708390D01*
X796941666Y-134708390D02*
X796941666Y-134851247D01*
X796941666Y-134851247D02*
X796894047Y-135041723D01*
X796894047Y-135041723D02*
X796846428Y-135136961D01*
X796846428Y-135136961D02*
X796751190Y-135232200D01*
X796751190Y-135232200D02*
X796608333Y-135279819D01*
X796608333Y-135279819D02*
X796370238Y-135279819D01*
X633632142Y-169279819D02*
X633155952Y-169279819D01*
X633155952Y-169279819D02*
X633155952Y-168279819D01*
X633965476Y-168756009D02*
X634298809Y-168756009D01*
X634441666Y-169279819D02*
X633965476Y-169279819D01*
X633965476Y-169279819D02*
X633965476Y-168279819D01*
X633965476Y-168279819D02*
X634441666Y-168279819D01*
X634870238Y-169279819D02*
X634870238Y-168279819D01*
X634870238Y-168279819D02*
X635108333Y-168279819D01*
X635108333Y-168279819D02*
X635251190Y-168327438D01*
X635251190Y-168327438D02*
X635346428Y-168422676D01*
X635346428Y-168422676D02*
X635394047Y-168517914D01*
X635394047Y-168517914D02*
X635441666Y-168708390D01*
X635441666Y-168708390D02*
X635441666Y-168851247D01*
X635441666Y-168851247D02*
X635394047Y-169041723D01*
X635394047Y-169041723D02*
X635346428Y-169136961D01*
X635346428Y-169136961D02*
X635251190Y-169232200D01*
X635251190Y-169232200D02*
X635108333Y-169279819D01*
X635108333Y-169279819D02*
X634870238Y-169279819D01*
X663382142Y-152279819D02*
X662905952Y-152279819D01*
X662905952Y-152279819D02*
X662905952Y-151279819D01*
X663715476Y-151756009D02*
X664048809Y-151756009D01*
X664191666Y-152279819D02*
X663715476Y-152279819D01*
X663715476Y-152279819D02*
X663715476Y-151279819D01*
X663715476Y-151279819D02*
X664191666Y-151279819D01*
X664620238Y-152279819D02*
X664620238Y-151279819D01*
X664620238Y-151279819D02*
X664858333Y-151279819D01*
X664858333Y-151279819D02*
X665001190Y-151327438D01*
X665001190Y-151327438D02*
X665096428Y-151422676D01*
X665096428Y-151422676D02*
X665144047Y-151517914D01*
X665144047Y-151517914D02*
X665191666Y-151708390D01*
X665191666Y-151708390D02*
X665191666Y-151851247D01*
X665191666Y-151851247D02*
X665144047Y-152041723D01*
X665144047Y-152041723D02*
X665096428Y-152136961D01*
X665096428Y-152136961D02*
X665001190Y-152232200D01*
X665001190Y-152232200D02*
X664858333Y-152279819D01*
X664858333Y-152279819D02*
X664620238Y-152279819D01*
X599632142Y-169279819D02*
X599155952Y-169279819D01*
X599155952Y-169279819D02*
X599155952Y-168279819D01*
X599965476Y-168756009D02*
X600298809Y-168756009D01*
X600441666Y-169279819D02*
X599965476Y-169279819D01*
X599965476Y-169279819D02*
X599965476Y-168279819D01*
X599965476Y-168279819D02*
X600441666Y-168279819D01*
X600870238Y-169279819D02*
X600870238Y-168279819D01*
X600870238Y-168279819D02*
X601108333Y-168279819D01*
X601108333Y-168279819D02*
X601251190Y-168327438D01*
X601251190Y-168327438D02*
X601346428Y-168422676D01*
X601346428Y-168422676D02*
X601394047Y-168517914D01*
X601394047Y-168517914D02*
X601441666Y-168708390D01*
X601441666Y-168708390D02*
X601441666Y-168851247D01*
X601441666Y-168851247D02*
X601394047Y-169041723D01*
X601394047Y-169041723D02*
X601346428Y-169136961D01*
X601346428Y-169136961D02*
X601251190Y-169232200D01*
X601251190Y-169232200D02*
X601108333Y-169279819D01*
X601108333Y-169279819D02*
X600870238Y-169279819D01*
X629382142Y-152279819D02*
X628905952Y-152279819D01*
X628905952Y-152279819D02*
X628905952Y-151279819D01*
X629715476Y-151756009D02*
X630048809Y-151756009D01*
X630191666Y-152279819D02*
X629715476Y-152279819D01*
X629715476Y-152279819D02*
X629715476Y-151279819D01*
X629715476Y-151279819D02*
X630191666Y-151279819D01*
X630620238Y-152279819D02*
X630620238Y-151279819D01*
X630620238Y-151279819D02*
X630858333Y-151279819D01*
X630858333Y-151279819D02*
X631001190Y-151327438D01*
X631001190Y-151327438D02*
X631096428Y-151422676D01*
X631096428Y-151422676D02*
X631144047Y-151517914D01*
X631144047Y-151517914D02*
X631191666Y-151708390D01*
X631191666Y-151708390D02*
X631191666Y-151851247D01*
X631191666Y-151851247D02*
X631144047Y-152041723D01*
X631144047Y-152041723D02*
X631096428Y-152136961D01*
X631096428Y-152136961D02*
X631001190Y-152232200D01*
X631001190Y-152232200D02*
X630858333Y-152279819D01*
X630858333Y-152279819D02*
X630620238Y-152279819D01*
X701632142Y-169279819D02*
X701155952Y-169279819D01*
X701155952Y-169279819D02*
X701155952Y-168279819D01*
X701965476Y-168756009D02*
X702298809Y-168756009D01*
X702441666Y-169279819D02*
X701965476Y-169279819D01*
X701965476Y-169279819D02*
X701965476Y-168279819D01*
X701965476Y-168279819D02*
X702441666Y-168279819D01*
X702870238Y-169279819D02*
X702870238Y-168279819D01*
X702870238Y-168279819D02*
X703108333Y-168279819D01*
X703108333Y-168279819D02*
X703251190Y-168327438D01*
X703251190Y-168327438D02*
X703346428Y-168422676D01*
X703346428Y-168422676D02*
X703394047Y-168517914D01*
X703394047Y-168517914D02*
X703441666Y-168708390D01*
X703441666Y-168708390D02*
X703441666Y-168851247D01*
X703441666Y-168851247D02*
X703394047Y-169041723D01*
X703394047Y-169041723D02*
X703346428Y-169136961D01*
X703346428Y-169136961D02*
X703251190Y-169232200D01*
X703251190Y-169232200D02*
X703108333Y-169279819D01*
X703108333Y-169279819D02*
X702870238Y-169279819D01*
X627257142Y-203279819D02*
X626780952Y-203279819D01*
X626780952Y-203279819D02*
X626780952Y-202279819D01*
X627590476Y-202756009D02*
X627923809Y-202756009D01*
X628066666Y-203279819D02*
X627590476Y-203279819D01*
X627590476Y-203279819D02*
X627590476Y-202279819D01*
X627590476Y-202279819D02*
X628066666Y-202279819D01*
X628495238Y-203279819D02*
X628495238Y-202279819D01*
X628495238Y-202279819D02*
X628733333Y-202279819D01*
X628733333Y-202279819D02*
X628876190Y-202327438D01*
X628876190Y-202327438D02*
X628971428Y-202422676D01*
X628971428Y-202422676D02*
X629019047Y-202517914D01*
X629019047Y-202517914D02*
X629066666Y-202708390D01*
X629066666Y-202708390D02*
X629066666Y-202851247D01*
X629066666Y-202851247D02*
X629019047Y-203041723D01*
X629019047Y-203041723D02*
X628971428Y-203136961D01*
X628971428Y-203136961D02*
X628876190Y-203232200D01*
X628876190Y-203232200D02*
X628733333Y-203279819D01*
X628733333Y-203279819D02*
X628495238Y-203279819D01*
X705882142Y-135279819D02*
X705405952Y-135279819D01*
X705405952Y-135279819D02*
X705405952Y-134279819D01*
X706215476Y-134756009D02*
X706548809Y-134756009D01*
X706691666Y-135279819D02*
X706215476Y-135279819D01*
X706215476Y-135279819D02*
X706215476Y-134279819D01*
X706215476Y-134279819D02*
X706691666Y-134279819D01*
X707120238Y-135279819D02*
X707120238Y-134279819D01*
X707120238Y-134279819D02*
X707358333Y-134279819D01*
X707358333Y-134279819D02*
X707501190Y-134327438D01*
X707501190Y-134327438D02*
X707596428Y-134422676D01*
X707596428Y-134422676D02*
X707644047Y-134517914D01*
X707644047Y-134517914D02*
X707691666Y-134708390D01*
X707691666Y-134708390D02*
X707691666Y-134851247D01*
X707691666Y-134851247D02*
X707644047Y-135041723D01*
X707644047Y-135041723D02*
X707596428Y-135136961D01*
X707596428Y-135136961D02*
X707501190Y-135232200D01*
X707501190Y-135232200D02*
X707358333Y-135279819D01*
X707358333Y-135279819D02*
X707120238Y-135279819D01*
X561382142Y-152279819D02*
X560905952Y-152279819D01*
X560905952Y-152279819D02*
X560905952Y-151279819D01*
X561715476Y-151756009D02*
X562048809Y-151756009D01*
X562191666Y-152279819D02*
X561715476Y-152279819D01*
X561715476Y-152279819D02*
X561715476Y-151279819D01*
X561715476Y-151279819D02*
X562191666Y-151279819D01*
X562620238Y-152279819D02*
X562620238Y-151279819D01*
X562620238Y-151279819D02*
X562858333Y-151279819D01*
X562858333Y-151279819D02*
X563001190Y-151327438D01*
X563001190Y-151327438D02*
X563096428Y-151422676D01*
X563096428Y-151422676D02*
X563144047Y-151517914D01*
X563144047Y-151517914D02*
X563191666Y-151708390D01*
X563191666Y-151708390D02*
X563191666Y-151851247D01*
X563191666Y-151851247D02*
X563144047Y-152041723D01*
X563144047Y-152041723D02*
X563096428Y-152136961D01*
X563096428Y-152136961D02*
X563001190Y-152232200D01*
X563001190Y-152232200D02*
X562858333Y-152279819D01*
X562858333Y-152279819D02*
X562620238Y-152279819D01*
X642132142Y-186279819D02*
X641655952Y-186279819D01*
X641655952Y-186279819D02*
X641655952Y-185279819D01*
X642465476Y-185756009D02*
X642798809Y-185756009D01*
X642941666Y-186279819D02*
X642465476Y-186279819D01*
X642465476Y-186279819D02*
X642465476Y-185279819D01*
X642465476Y-185279819D02*
X642941666Y-185279819D01*
X643370238Y-186279819D02*
X643370238Y-185279819D01*
X643370238Y-185279819D02*
X643608333Y-185279819D01*
X643608333Y-185279819D02*
X643751190Y-185327438D01*
X643751190Y-185327438D02*
X643846428Y-185422676D01*
X643846428Y-185422676D02*
X643894047Y-185517914D01*
X643894047Y-185517914D02*
X643941666Y-185708390D01*
X643941666Y-185708390D02*
X643941666Y-185851247D01*
X643941666Y-185851247D02*
X643894047Y-186041723D01*
X643894047Y-186041723D02*
X643846428Y-186136961D01*
X643846428Y-186136961D02*
X643751190Y-186232200D01*
X643751190Y-186232200D02*
X643608333Y-186279819D01*
X643608333Y-186279819D02*
X643370238Y-186279819D01*
X518882142Y-135279819D02*
X518405952Y-135279819D01*
X518405952Y-135279819D02*
X518405952Y-134279819D01*
X519215476Y-134756009D02*
X519548809Y-134756009D01*
X519691666Y-135279819D02*
X519215476Y-135279819D01*
X519215476Y-135279819D02*
X519215476Y-134279819D01*
X519215476Y-134279819D02*
X519691666Y-134279819D01*
X520120238Y-135279819D02*
X520120238Y-134279819D01*
X520120238Y-134279819D02*
X520358333Y-134279819D01*
X520358333Y-134279819D02*
X520501190Y-134327438D01*
X520501190Y-134327438D02*
X520596428Y-134422676D01*
X520596428Y-134422676D02*
X520644047Y-134517914D01*
X520644047Y-134517914D02*
X520691666Y-134708390D01*
X520691666Y-134708390D02*
X520691666Y-134851247D01*
X520691666Y-134851247D02*
X520644047Y-135041723D01*
X520644047Y-135041723D02*
X520596428Y-135136961D01*
X520596428Y-135136961D02*
X520501190Y-135232200D01*
X520501190Y-135232200D02*
X520358333Y-135279819D01*
X520358333Y-135279819D02*
X520120238Y-135279819D01*
X616632142Y-169279819D02*
X616155952Y-169279819D01*
X616155952Y-169279819D02*
X616155952Y-168279819D01*
X616965476Y-168756009D02*
X617298809Y-168756009D01*
X617441666Y-169279819D02*
X616965476Y-169279819D01*
X616965476Y-169279819D02*
X616965476Y-168279819D01*
X616965476Y-168279819D02*
X617441666Y-168279819D01*
X617870238Y-169279819D02*
X617870238Y-168279819D01*
X617870238Y-168279819D02*
X618108333Y-168279819D01*
X618108333Y-168279819D02*
X618251190Y-168327438D01*
X618251190Y-168327438D02*
X618346428Y-168422676D01*
X618346428Y-168422676D02*
X618394047Y-168517914D01*
X618394047Y-168517914D02*
X618441666Y-168708390D01*
X618441666Y-168708390D02*
X618441666Y-168851247D01*
X618441666Y-168851247D02*
X618394047Y-169041723D01*
X618394047Y-169041723D02*
X618346428Y-169136961D01*
X618346428Y-169136961D02*
X618251190Y-169232200D01*
X618251190Y-169232200D02*
X618108333Y-169279819D01*
X618108333Y-169279819D02*
X617870238Y-169279819D01*
X612382142Y-152279819D02*
X611905952Y-152279819D01*
X611905952Y-152279819D02*
X611905952Y-151279819D01*
X612715476Y-151756009D02*
X613048809Y-151756009D01*
X613191666Y-152279819D02*
X612715476Y-152279819D01*
X612715476Y-152279819D02*
X612715476Y-151279819D01*
X612715476Y-151279819D02*
X613191666Y-151279819D01*
X613620238Y-152279819D02*
X613620238Y-151279819D01*
X613620238Y-151279819D02*
X613858333Y-151279819D01*
X613858333Y-151279819D02*
X614001190Y-151327438D01*
X614001190Y-151327438D02*
X614096428Y-151422676D01*
X614096428Y-151422676D02*
X614144047Y-151517914D01*
X614144047Y-151517914D02*
X614191666Y-151708390D01*
X614191666Y-151708390D02*
X614191666Y-151851247D01*
X614191666Y-151851247D02*
X614144047Y-152041723D01*
X614144047Y-152041723D02*
X614096428Y-152136961D01*
X614096428Y-152136961D02*
X614001190Y-152232200D01*
X614001190Y-152232200D02*
X613858333Y-152279819D01*
X613858333Y-152279819D02*
X613620238Y-152279819D01*
X525257142Y-169279819D02*
X524780952Y-169279819D01*
X524780952Y-169279819D02*
X524780952Y-168279819D01*
X525590476Y-168756009D02*
X525923809Y-168756009D01*
X526066666Y-169279819D02*
X525590476Y-169279819D01*
X525590476Y-169279819D02*
X525590476Y-168279819D01*
X525590476Y-168279819D02*
X526066666Y-168279819D01*
X526495238Y-169279819D02*
X526495238Y-168279819D01*
X526495238Y-168279819D02*
X526733333Y-168279819D01*
X526733333Y-168279819D02*
X526876190Y-168327438D01*
X526876190Y-168327438D02*
X526971428Y-168422676D01*
X526971428Y-168422676D02*
X527019047Y-168517914D01*
X527019047Y-168517914D02*
X527066666Y-168708390D01*
X527066666Y-168708390D02*
X527066666Y-168851247D01*
X527066666Y-168851247D02*
X527019047Y-169041723D01*
X527019047Y-169041723D02*
X526971428Y-169136961D01*
X526971428Y-169136961D02*
X526876190Y-169232200D01*
X526876190Y-169232200D02*
X526733333Y-169279819D01*
X526733333Y-169279819D02*
X526495238Y-169279819D01*
X620882142Y-135279819D02*
X620405952Y-135279819D01*
X620405952Y-135279819D02*
X620405952Y-134279819D01*
X621215476Y-134756009D02*
X621548809Y-134756009D01*
X621691666Y-135279819D02*
X621215476Y-135279819D01*
X621215476Y-135279819D02*
X621215476Y-134279819D01*
X621215476Y-134279819D02*
X621691666Y-134279819D01*
X622120238Y-135279819D02*
X622120238Y-134279819D01*
X622120238Y-134279819D02*
X622358333Y-134279819D01*
X622358333Y-134279819D02*
X622501190Y-134327438D01*
X622501190Y-134327438D02*
X622596428Y-134422676D01*
X622596428Y-134422676D02*
X622644047Y-134517914D01*
X622644047Y-134517914D02*
X622691666Y-134708390D01*
X622691666Y-134708390D02*
X622691666Y-134851247D01*
X622691666Y-134851247D02*
X622644047Y-135041723D01*
X622644047Y-135041723D02*
X622596428Y-135136961D01*
X622596428Y-135136961D02*
X622501190Y-135232200D01*
X622501190Y-135232200D02*
X622358333Y-135279819D01*
X622358333Y-135279819D02*
X622120238Y-135279819D01*
X756882142Y-186279819D02*
X756405952Y-186279819D01*
X756405952Y-186279819D02*
X756405952Y-185279819D01*
X757215476Y-185756009D02*
X757548809Y-185756009D01*
X757691666Y-186279819D02*
X757215476Y-186279819D01*
X757215476Y-186279819D02*
X757215476Y-185279819D01*
X757215476Y-185279819D02*
X757691666Y-185279819D01*
X758120238Y-186279819D02*
X758120238Y-185279819D01*
X758120238Y-185279819D02*
X758358333Y-185279819D01*
X758358333Y-185279819D02*
X758501190Y-185327438D01*
X758501190Y-185327438D02*
X758596428Y-185422676D01*
X758596428Y-185422676D02*
X758644047Y-185517914D01*
X758644047Y-185517914D02*
X758691666Y-185708390D01*
X758691666Y-185708390D02*
X758691666Y-185851247D01*
X758691666Y-185851247D02*
X758644047Y-186041723D01*
X758644047Y-186041723D02*
X758596428Y-186136961D01*
X758596428Y-186136961D02*
X758501190Y-186232200D01*
X758501190Y-186232200D02*
X758358333Y-186279819D01*
X758358333Y-186279819D02*
X758120238Y-186279819D01*
X578382142Y-152279819D02*
X577905952Y-152279819D01*
X577905952Y-152279819D02*
X577905952Y-151279819D01*
X578715476Y-151756009D02*
X579048809Y-151756009D01*
X579191666Y-152279819D02*
X578715476Y-152279819D01*
X578715476Y-152279819D02*
X578715476Y-151279819D01*
X578715476Y-151279819D02*
X579191666Y-151279819D01*
X579620238Y-152279819D02*
X579620238Y-151279819D01*
X579620238Y-151279819D02*
X579858333Y-151279819D01*
X579858333Y-151279819D02*
X580001190Y-151327438D01*
X580001190Y-151327438D02*
X580096428Y-151422676D01*
X580096428Y-151422676D02*
X580144047Y-151517914D01*
X580144047Y-151517914D02*
X580191666Y-151708390D01*
X580191666Y-151708390D02*
X580191666Y-151851247D01*
X580191666Y-151851247D02*
X580144047Y-152041723D01*
X580144047Y-152041723D02*
X580096428Y-152136961D01*
X580096428Y-152136961D02*
X580001190Y-152232200D01*
X580001190Y-152232200D02*
X579858333Y-152279819D01*
X579858333Y-152279819D02*
X579620238Y-152279819D01*
X654882142Y-135279819D02*
X654405952Y-135279819D01*
X654405952Y-135279819D02*
X654405952Y-134279819D01*
X655215476Y-134756009D02*
X655548809Y-134756009D01*
X655691666Y-135279819D02*
X655215476Y-135279819D01*
X655215476Y-135279819D02*
X655215476Y-134279819D01*
X655215476Y-134279819D02*
X655691666Y-134279819D01*
X656120238Y-135279819D02*
X656120238Y-134279819D01*
X656120238Y-134279819D02*
X656358333Y-134279819D01*
X656358333Y-134279819D02*
X656501190Y-134327438D01*
X656501190Y-134327438D02*
X656596428Y-134422676D01*
X656596428Y-134422676D02*
X656644047Y-134517914D01*
X656644047Y-134517914D02*
X656691666Y-134708390D01*
X656691666Y-134708390D02*
X656691666Y-134851247D01*
X656691666Y-134851247D02*
X656644047Y-135041723D01*
X656644047Y-135041723D02*
X656596428Y-135136961D01*
X656596428Y-135136961D02*
X656501190Y-135232200D01*
X656501190Y-135232200D02*
X656358333Y-135279819D01*
X656358333Y-135279819D02*
X656120238Y-135279819D01*
X733507142Y-203279819D02*
X733030952Y-203279819D01*
X733030952Y-203279819D02*
X733030952Y-202279819D01*
X733840476Y-202756009D02*
X734173809Y-202756009D01*
X734316666Y-203279819D02*
X733840476Y-203279819D01*
X733840476Y-203279819D02*
X733840476Y-202279819D01*
X733840476Y-202279819D02*
X734316666Y-202279819D01*
X734745238Y-203279819D02*
X734745238Y-202279819D01*
X734745238Y-202279819D02*
X734983333Y-202279819D01*
X734983333Y-202279819D02*
X735126190Y-202327438D01*
X735126190Y-202327438D02*
X735221428Y-202422676D01*
X735221428Y-202422676D02*
X735269047Y-202517914D01*
X735269047Y-202517914D02*
X735316666Y-202708390D01*
X735316666Y-202708390D02*
X735316666Y-202851247D01*
X735316666Y-202851247D02*
X735269047Y-203041723D01*
X735269047Y-203041723D02*
X735221428Y-203136961D01*
X735221428Y-203136961D02*
X735126190Y-203232200D01*
X735126190Y-203232200D02*
X734983333Y-203279819D01*
X734983333Y-203279819D02*
X734745238Y-203279819D01*
X588852380Y-214432200D02*
X588995237Y-214479819D01*
X588995237Y-214479819D02*
X589233332Y-214479819D01*
X589233332Y-214479819D02*
X589328570Y-214432200D01*
X589328570Y-214432200D02*
X589376189Y-214384580D01*
X589376189Y-214384580D02*
X589423808Y-214289342D01*
X589423808Y-214289342D02*
X589423808Y-214194104D01*
X589423808Y-214194104D02*
X589376189Y-214098866D01*
X589376189Y-214098866D02*
X589328570Y-214051247D01*
X589328570Y-214051247D02*
X589233332Y-214003628D01*
X589233332Y-214003628D02*
X589042856Y-213956009D01*
X589042856Y-213956009D02*
X588947618Y-213908390D01*
X588947618Y-213908390D02*
X588899999Y-213860771D01*
X588899999Y-213860771D02*
X588852380Y-213765533D01*
X588852380Y-213765533D02*
X588852380Y-213670295D01*
X588852380Y-213670295D02*
X588899999Y-213575057D01*
X588899999Y-213575057D02*
X588947618Y-213527438D01*
X588947618Y-213527438D02*
X589042856Y-213479819D01*
X589042856Y-213479819D02*
X589280951Y-213479819D01*
X589280951Y-213479819D02*
X589423808Y-213527438D01*
X589709523Y-213479819D02*
X590280951Y-213479819D01*
X589995237Y-214479819D02*
X589995237Y-213479819D01*
X590566666Y-214194104D02*
X591042856Y-214194104D01*
X590471428Y-214479819D02*
X590804761Y-213479819D01*
X590804761Y-213479819D02*
X591138094Y-214479819D01*
X591804761Y-213956009D02*
X591947618Y-214003628D01*
X591947618Y-214003628D02*
X591995237Y-214051247D01*
X591995237Y-214051247D02*
X592042856Y-214146485D01*
X592042856Y-214146485D02*
X592042856Y-214289342D01*
X592042856Y-214289342D02*
X591995237Y-214384580D01*
X591995237Y-214384580D02*
X591947618Y-214432200D01*
X591947618Y-214432200D02*
X591852380Y-214479819D01*
X591852380Y-214479819D02*
X591471428Y-214479819D01*
X591471428Y-214479819D02*
X591471428Y-213479819D01*
X591471428Y-213479819D02*
X591804761Y-213479819D01*
X591804761Y-213479819D02*
X591899999Y-213527438D01*
X591899999Y-213527438D02*
X591947618Y-213575057D01*
X591947618Y-213575057D02*
X591995237Y-213670295D01*
X591995237Y-213670295D02*
X591995237Y-213765533D01*
X591995237Y-213765533D02*
X591947618Y-213860771D01*
X591947618Y-213860771D02*
X591899999Y-213908390D01*
X591899999Y-213908390D02*
X591804761Y-213956009D01*
X591804761Y-213956009D02*
X591471428Y-213956009D01*
X592233333Y-214575057D02*
X592995237Y-214575057D01*
X593661904Y-214432200D02*
X593566666Y-214479819D01*
X593566666Y-214479819D02*
X593376190Y-214479819D01*
X593376190Y-214479819D02*
X593280952Y-214432200D01*
X593280952Y-214432200D02*
X593233333Y-214384580D01*
X593233333Y-214384580D02*
X593185714Y-214289342D01*
X593185714Y-214289342D02*
X593185714Y-214003628D01*
X593185714Y-214003628D02*
X593233333Y-213908390D01*
X593233333Y-213908390D02*
X593280952Y-213860771D01*
X593280952Y-213860771D02*
X593376190Y-213813152D01*
X593376190Y-213813152D02*
X593566666Y-213813152D01*
X593566666Y-213813152D02*
X593661904Y-213860771D01*
X594090476Y-214479819D02*
X594090476Y-213479819D01*
X594519047Y-214479819D02*
X594519047Y-213956009D01*
X594519047Y-213956009D02*
X594471428Y-213860771D01*
X594471428Y-213860771D02*
X594376190Y-213813152D01*
X594376190Y-213813152D02*
X594233333Y-213813152D01*
X594233333Y-213813152D02*
X594138095Y-213860771D01*
X594138095Y-213860771D02*
X594090476Y-213908390D01*
X595138095Y-214479819D02*
X595042857Y-214432200D01*
X595042857Y-214432200D02*
X594995238Y-214384580D01*
X594995238Y-214384580D02*
X594947619Y-214289342D01*
X594947619Y-214289342D02*
X594947619Y-214003628D01*
X594947619Y-214003628D02*
X594995238Y-213908390D01*
X594995238Y-213908390D02*
X595042857Y-213860771D01*
X595042857Y-213860771D02*
X595138095Y-213813152D01*
X595138095Y-213813152D02*
X595280952Y-213813152D01*
X595280952Y-213813152D02*
X595376190Y-213860771D01*
X595376190Y-213860771D02*
X595423809Y-213908390D01*
X595423809Y-213908390D02*
X595471428Y-214003628D01*
X595471428Y-214003628D02*
X595471428Y-214289342D01*
X595471428Y-214289342D02*
X595423809Y-214384580D01*
X595423809Y-214384580D02*
X595376190Y-214432200D01*
X595376190Y-214432200D02*
X595280952Y-214479819D01*
X595280952Y-214479819D02*
X595138095Y-214479819D01*
X596328571Y-214432200D02*
X596233333Y-214479819D01*
X596233333Y-214479819D02*
X596042857Y-214479819D01*
X596042857Y-214479819D02*
X595947619Y-214432200D01*
X595947619Y-214432200D02*
X595900000Y-214384580D01*
X595900000Y-214384580D02*
X595852381Y-214289342D01*
X595852381Y-214289342D02*
X595852381Y-214003628D01*
X595852381Y-214003628D02*
X595900000Y-213908390D01*
X595900000Y-213908390D02*
X595947619Y-213860771D01*
X595947619Y-213860771D02*
X596042857Y-213813152D01*
X596042857Y-213813152D02*
X596233333Y-213813152D01*
X596233333Y-213813152D02*
X596328571Y-213860771D01*
X596519048Y-214575057D02*
X597280952Y-214575057D01*
X597471429Y-213575057D02*
X597519048Y-213527438D01*
X597519048Y-213527438D02*
X597614286Y-213479819D01*
X597614286Y-213479819D02*
X597852381Y-213479819D01*
X597852381Y-213479819D02*
X597947619Y-213527438D01*
X597947619Y-213527438D02*
X597995238Y-213575057D01*
X597995238Y-213575057D02*
X598042857Y-213670295D01*
X598042857Y-213670295D02*
X598042857Y-213765533D01*
X598042857Y-213765533D02*
X597995238Y-213908390D01*
X597995238Y-213908390D02*
X597423810Y-214479819D01*
X597423810Y-214479819D02*
X598042857Y-214479819D01*
X598900000Y-213813152D02*
X598900000Y-214479819D01*
X598471429Y-213813152D02*
X598471429Y-214336961D01*
X598471429Y-214336961D02*
X598519048Y-214432200D01*
X598519048Y-214432200D02*
X598614286Y-214479819D01*
X598614286Y-214479819D02*
X598757143Y-214479819D01*
X598757143Y-214479819D02*
X598852381Y-214432200D01*
X598852381Y-214432200D02*
X598900000Y-214384580D01*
X586280951Y-215456009D02*
X586614284Y-215456009D01*
X586757141Y-215979819D02*
X586280951Y-215979819D01*
X586280951Y-215979819D02*
X586280951Y-214979819D01*
X586280951Y-214979819D02*
X586757141Y-214979819D01*
X587614284Y-215932200D02*
X587519046Y-215979819D01*
X587519046Y-215979819D02*
X587328570Y-215979819D01*
X587328570Y-215979819D02*
X587233332Y-215932200D01*
X587233332Y-215932200D02*
X587185713Y-215884580D01*
X587185713Y-215884580D02*
X587138094Y-215789342D01*
X587138094Y-215789342D02*
X587138094Y-215503628D01*
X587138094Y-215503628D02*
X587185713Y-215408390D01*
X587185713Y-215408390D02*
X587233332Y-215360771D01*
X587233332Y-215360771D02*
X587328570Y-215313152D01*
X587328570Y-215313152D02*
X587519046Y-215313152D01*
X587519046Y-215313152D02*
X587614284Y-215360771D01*
X588185713Y-215979819D02*
X588090475Y-215932200D01*
X588090475Y-215932200D02*
X588042856Y-215884580D01*
X588042856Y-215884580D02*
X587995237Y-215789342D01*
X587995237Y-215789342D02*
X587995237Y-215503628D01*
X587995237Y-215503628D02*
X588042856Y-215408390D01*
X588042856Y-215408390D02*
X588090475Y-215360771D01*
X588090475Y-215360771D02*
X588185713Y-215313152D01*
X588185713Y-215313152D02*
X588328570Y-215313152D01*
X588328570Y-215313152D02*
X588423808Y-215360771D01*
X588423808Y-215360771D02*
X588471427Y-215408390D01*
X588471427Y-215408390D02*
X588519046Y-215503628D01*
X588519046Y-215503628D02*
X588519046Y-215789342D01*
X588519046Y-215789342D02*
X588471427Y-215884580D01*
X588471427Y-215884580D02*
X588423808Y-215932200D01*
X588423808Y-215932200D02*
X588328570Y-215979819D01*
X588328570Y-215979819D02*
X588185713Y-215979819D01*
X588899999Y-215075057D02*
X588947618Y-215027438D01*
X588947618Y-215027438D02*
X589042856Y-214979819D01*
X589042856Y-214979819D02*
X589280951Y-214979819D01*
X589280951Y-214979819D02*
X589376189Y-215027438D01*
X589376189Y-215027438D02*
X589423808Y-215075057D01*
X589423808Y-215075057D02*
X589471427Y-215170295D01*
X589471427Y-215170295D02*
X589471427Y-215265533D01*
X589471427Y-215265533D02*
X589423808Y-215408390D01*
X589423808Y-215408390D02*
X588852380Y-215979819D01*
X588852380Y-215979819D02*
X589471427Y-215979819D01*
X589899999Y-215884580D02*
X589947618Y-215932200D01*
X589947618Y-215932200D02*
X589899999Y-215979819D01*
X589899999Y-215979819D02*
X589852380Y-215932200D01*
X589852380Y-215932200D02*
X589899999Y-215884580D01*
X589899999Y-215884580D02*
X589899999Y-215979819D01*
X590376189Y-214979819D02*
X590376189Y-215789342D01*
X590376189Y-215789342D02*
X590423808Y-215884580D01*
X590423808Y-215884580D02*
X590471427Y-215932200D01*
X590471427Y-215932200D02*
X590566665Y-215979819D01*
X590566665Y-215979819D02*
X590757141Y-215979819D01*
X590757141Y-215979819D02*
X590852379Y-215932200D01*
X590852379Y-215932200D02*
X590899998Y-215884580D01*
X590899998Y-215884580D02*
X590947617Y-215789342D01*
X590947617Y-215789342D02*
X590947617Y-214979819D01*
X591376189Y-215932200D02*
X591471427Y-215979819D01*
X591471427Y-215979819D02*
X591661903Y-215979819D01*
X591661903Y-215979819D02*
X591757141Y-215932200D01*
X591757141Y-215932200D02*
X591804760Y-215836961D01*
X591804760Y-215836961D02*
X591804760Y-215789342D01*
X591804760Y-215789342D02*
X591757141Y-215694104D01*
X591757141Y-215694104D02*
X591661903Y-215646485D01*
X591661903Y-215646485D02*
X591519046Y-215646485D01*
X591519046Y-215646485D02*
X591423808Y-215598866D01*
X591423808Y-215598866D02*
X591376189Y-215503628D01*
X591376189Y-215503628D02*
X591376189Y-215456009D01*
X591376189Y-215456009D02*
X591423808Y-215360771D01*
X591423808Y-215360771D02*
X591519046Y-215313152D01*
X591519046Y-215313152D02*
X591661903Y-215313152D01*
X591661903Y-215313152D02*
X591757141Y-215360771D01*
X592614284Y-215932200D02*
X592519046Y-215979819D01*
X592519046Y-215979819D02*
X592328570Y-215979819D01*
X592328570Y-215979819D02*
X592233332Y-215932200D01*
X592233332Y-215932200D02*
X592185713Y-215836961D01*
X592185713Y-215836961D02*
X592185713Y-215456009D01*
X592185713Y-215456009D02*
X592233332Y-215360771D01*
X592233332Y-215360771D02*
X592328570Y-215313152D01*
X592328570Y-215313152D02*
X592519046Y-215313152D01*
X592519046Y-215313152D02*
X592614284Y-215360771D01*
X592614284Y-215360771D02*
X592661903Y-215456009D01*
X592661903Y-215456009D02*
X592661903Y-215551247D01*
X592661903Y-215551247D02*
X592185713Y-215646485D01*
X593090475Y-215884580D02*
X593138094Y-215932200D01*
X593138094Y-215932200D02*
X593090475Y-215979819D01*
X593090475Y-215979819D02*
X593042856Y-215932200D01*
X593042856Y-215932200D02*
X593090475Y-215884580D01*
X593090475Y-215884580D02*
X593090475Y-215979819D01*
X593090475Y-215360771D02*
X593138094Y-215408390D01*
X593138094Y-215408390D02*
X593090475Y-215456009D01*
X593090475Y-215456009D02*
X593042856Y-215408390D01*
X593042856Y-215408390D02*
X593090475Y-215360771D01*
X593090475Y-215360771D02*
X593090475Y-215456009D01*
X594328570Y-215313152D02*
X594328570Y-216313152D01*
X594328570Y-215360771D02*
X594423808Y-215313152D01*
X594423808Y-215313152D02*
X594614284Y-215313152D01*
X594614284Y-215313152D02*
X594709522Y-215360771D01*
X594709522Y-215360771D02*
X594757141Y-215408390D01*
X594757141Y-215408390D02*
X594804760Y-215503628D01*
X594804760Y-215503628D02*
X594804760Y-215789342D01*
X594804760Y-215789342D02*
X594757141Y-215884580D01*
X594757141Y-215884580D02*
X594709522Y-215932200D01*
X594709522Y-215932200D02*
X594614284Y-215979819D01*
X594614284Y-215979819D02*
X594423808Y-215979819D01*
X594423808Y-215979819D02*
X594328570Y-215932200D01*
X595376189Y-215979819D02*
X595280951Y-215932200D01*
X595280951Y-215932200D02*
X595233332Y-215836961D01*
X595233332Y-215836961D02*
X595233332Y-214979819D01*
X596185713Y-215979819D02*
X596185713Y-215456009D01*
X596185713Y-215456009D02*
X596138094Y-215360771D01*
X596138094Y-215360771D02*
X596042856Y-215313152D01*
X596042856Y-215313152D02*
X595852380Y-215313152D01*
X595852380Y-215313152D02*
X595757142Y-215360771D01*
X596185713Y-215932200D02*
X596090475Y-215979819D01*
X596090475Y-215979819D02*
X595852380Y-215979819D01*
X595852380Y-215979819D02*
X595757142Y-215932200D01*
X595757142Y-215932200D02*
X595709523Y-215836961D01*
X595709523Y-215836961D02*
X595709523Y-215741723D01*
X595709523Y-215741723D02*
X595757142Y-215646485D01*
X595757142Y-215646485D02*
X595852380Y-215598866D01*
X595852380Y-215598866D02*
X596090475Y-215598866D01*
X596090475Y-215598866D02*
X596185713Y-215551247D01*
X596519047Y-215313152D02*
X596899999Y-215313152D01*
X596661904Y-214979819D02*
X596661904Y-215836961D01*
X596661904Y-215836961D02*
X596709523Y-215932200D01*
X596709523Y-215932200D02*
X596804761Y-215979819D01*
X596804761Y-215979819D02*
X596899999Y-215979819D01*
X597614285Y-215932200D02*
X597519047Y-215979819D01*
X597519047Y-215979819D02*
X597328571Y-215979819D01*
X597328571Y-215979819D02*
X597233333Y-215932200D01*
X597233333Y-215932200D02*
X597185714Y-215836961D01*
X597185714Y-215836961D02*
X597185714Y-215456009D01*
X597185714Y-215456009D02*
X597233333Y-215360771D01*
X597233333Y-215360771D02*
X597328571Y-215313152D01*
X597328571Y-215313152D02*
X597519047Y-215313152D01*
X597519047Y-215313152D02*
X597614285Y-215360771D01*
X597614285Y-215360771D02*
X597661904Y-215456009D01*
X597661904Y-215456009D02*
X597661904Y-215551247D01*
X597661904Y-215551247D02*
X597185714Y-215646485D01*
X599280952Y-215932200D02*
X599185714Y-215979819D01*
X599185714Y-215979819D02*
X598995238Y-215979819D01*
X598995238Y-215979819D02*
X598900000Y-215932200D01*
X598900000Y-215932200D02*
X598852381Y-215884580D01*
X598852381Y-215884580D02*
X598804762Y-215789342D01*
X598804762Y-215789342D02*
X598804762Y-215503628D01*
X598804762Y-215503628D02*
X598852381Y-215408390D01*
X598852381Y-215408390D02*
X598900000Y-215360771D01*
X598900000Y-215360771D02*
X598995238Y-215313152D01*
X598995238Y-215313152D02*
X599185714Y-215313152D01*
X599185714Y-215313152D02*
X599280952Y-215360771D01*
X600138095Y-215313152D02*
X600138095Y-215979819D01*
X599709524Y-215313152D02*
X599709524Y-215836961D01*
X599709524Y-215836961D02*
X599757143Y-215932200D01*
X599757143Y-215932200D02*
X599852381Y-215979819D01*
X599852381Y-215979819D02*
X599995238Y-215979819D01*
X599995238Y-215979819D02*
X600090476Y-215932200D01*
X600090476Y-215932200D02*
X600138095Y-215884580D01*
X600471429Y-215313152D02*
X600852381Y-215313152D01*
X600614286Y-214979819D02*
X600614286Y-215836961D01*
X600614286Y-215836961D02*
X600661905Y-215932200D01*
X600661905Y-215932200D02*
X600757143Y-215979819D01*
X600757143Y-215979819D02*
X600852381Y-215979819D01*
X601138096Y-215932200D02*
X601233334Y-215979819D01*
X601233334Y-215979819D02*
X601423810Y-215979819D01*
X601423810Y-215979819D02*
X601519048Y-215932200D01*
X601519048Y-215932200D02*
X601566667Y-215836961D01*
X601566667Y-215836961D02*
X601566667Y-215789342D01*
X601566667Y-215789342D02*
X601519048Y-215694104D01*
X601519048Y-215694104D02*
X601423810Y-215646485D01*
X601423810Y-215646485D02*
X601280953Y-215646485D01*
X601280953Y-215646485D02*
X601185715Y-215598866D01*
X601185715Y-215598866D02*
X601138096Y-215503628D01*
X601138096Y-215503628D02*
X601138096Y-215456009D01*
X601138096Y-215456009D02*
X601185715Y-215360771D01*
X601185715Y-215360771D02*
X601280953Y-215313152D01*
X601280953Y-215313152D02*
X601423810Y-215313152D01*
X601423810Y-215313152D02*
X601519048Y-215360771D01*
X569882142Y-135279819D02*
X569405952Y-135279819D01*
X569405952Y-135279819D02*
X569405952Y-134279819D01*
X570215476Y-134756009D02*
X570548809Y-134756009D01*
X570691666Y-135279819D02*
X570215476Y-135279819D01*
X570215476Y-135279819D02*
X570215476Y-134279819D01*
X570215476Y-134279819D02*
X570691666Y-134279819D01*
X571120238Y-135279819D02*
X571120238Y-134279819D01*
X571120238Y-134279819D02*
X571358333Y-134279819D01*
X571358333Y-134279819D02*
X571501190Y-134327438D01*
X571501190Y-134327438D02*
X571596428Y-134422676D01*
X571596428Y-134422676D02*
X571644047Y-134517914D01*
X571644047Y-134517914D02*
X571691666Y-134708390D01*
X571691666Y-134708390D02*
X571691666Y-134851247D01*
X571691666Y-134851247D02*
X571644047Y-135041723D01*
X571644047Y-135041723D02*
X571596428Y-135136961D01*
X571596428Y-135136961D02*
X571501190Y-135232200D01*
X571501190Y-135232200D02*
X571358333Y-135279819D01*
X571358333Y-135279819D02*
X571120238Y-135279819D01*
X552882142Y-135279819D02*
X552405952Y-135279819D01*
X552405952Y-135279819D02*
X552405952Y-134279819D01*
X553215476Y-134756009D02*
X553548809Y-134756009D01*
X553691666Y-135279819D02*
X553215476Y-135279819D01*
X553215476Y-135279819D02*
X553215476Y-134279819D01*
X553215476Y-134279819D02*
X553691666Y-134279819D01*
X554120238Y-135279819D02*
X554120238Y-134279819D01*
X554120238Y-134279819D02*
X554358333Y-134279819D01*
X554358333Y-134279819D02*
X554501190Y-134327438D01*
X554501190Y-134327438D02*
X554596428Y-134422676D01*
X554596428Y-134422676D02*
X554644047Y-134517914D01*
X554644047Y-134517914D02*
X554691666Y-134708390D01*
X554691666Y-134708390D02*
X554691666Y-134851247D01*
X554691666Y-134851247D02*
X554644047Y-135041723D01*
X554644047Y-135041723D02*
X554596428Y-135136961D01*
X554596428Y-135136961D02*
X554501190Y-135232200D01*
X554501190Y-135232200D02*
X554358333Y-135279819D01*
X554358333Y-135279819D02*
X554120238Y-135279819D01*
X591132142Y-186279819D02*
X590655952Y-186279819D01*
X590655952Y-186279819D02*
X590655952Y-185279819D01*
X591465476Y-185756009D02*
X591798809Y-185756009D01*
X591941666Y-186279819D02*
X591465476Y-186279819D01*
X591465476Y-186279819D02*
X591465476Y-185279819D01*
X591465476Y-185279819D02*
X591941666Y-185279819D01*
X592370238Y-186279819D02*
X592370238Y-185279819D01*
X592370238Y-185279819D02*
X592608333Y-185279819D01*
X592608333Y-185279819D02*
X592751190Y-185327438D01*
X592751190Y-185327438D02*
X592846428Y-185422676D01*
X592846428Y-185422676D02*
X592894047Y-185517914D01*
X592894047Y-185517914D02*
X592941666Y-185708390D01*
X592941666Y-185708390D02*
X592941666Y-185851247D01*
X592941666Y-185851247D02*
X592894047Y-186041723D01*
X592894047Y-186041723D02*
X592846428Y-186136961D01*
X592846428Y-186136961D02*
X592751190Y-186232200D01*
X592751190Y-186232200D02*
X592608333Y-186279819D01*
X592608333Y-186279819D02*
X592370238Y-186279819D01*
X563507142Y-203279819D02*
X563030952Y-203279819D01*
X563030952Y-203279819D02*
X563030952Y-202279819D01*
X563840476Y-202756009D02*
X564173809Y-202756009D01*
X564316666Y-203279819D02*
X563840476Y-203279819D01*
X563840476Y-203279819D02*
X563840476Y-202279819D01*
X563840476Y-202279819D02*
X564316666Y-202279819D01*
X564745238Y-203279819D02*
X564745238Y-202279819D01*
X564745238Y-202279819D02*
X564983333Y-202279819D01*
X564983333Y-202279819D02*
X565126190Y-202327438D01*
X565126190Y-202327438D02*
X565221428Y-202422676D01*
X565221428Y-202422676D02*
X565269047Y-202517914D01*
X565269047Y-202517914D02*
X565316666Y-202708390D01*
X565316666Y-202708390D02*
X565316666Y-202851247D01*
X565316666Y-202851247D02*
X565269047Y-203041723D01*
X565269047Y-203041723D02*
X565221428Y-203136961D01*
X565221428Y-203136961D02*
X565126190Y-203232200D01*
X565126190Y-203232200D02*
X564983333Y-203279819D01*
X564983333Y-203279819D02*
X564745238Y-203279819D01*
X525102380Y-197432200D02*
X525245237Y-197479819D01*
X525245237Y-197479819D02*
X525483332Y-197479819D01*
X525483332Y-197479819D02*
X525578570Y-197432200D01*
X525578570Y-197432200D02*
X525626189Y-197384580D01*
X525626189Y-197384580D02*
X525673808Y-197289342D01*
X525673808Y-197289342D02*
X525673808Y-197194104D01*
X525673808Y-197194104D02*
X525626189Y-197098866D01*
X525626189Y-197098866D02*
X525578570Y-197051247D01*
X525578570Y-197051247D02*
X525483332Y-197003628D01*
X525483332Y-197003628D02*
X525292856Y-196956009D01*
X525292856Y-196956009D02*
X525197618Y-196908390D01*
X525197618Y-196908390D02*
X525149999Y-196860771D01*
X525149999Y-196860771D02*
X525102380Y-196765533D01*
X525102380Y-196765533D02*
X525102380Y-196670295D01*
X525102380Y-196670295D02*
X525149999Y-196575057D01*
X525149999Y-196575057D02*
X525197618Y-196527438D01*
X525197618Y-196527438D02*
X525292856Y-196479819D01*
X525292856Y-196479819D02*
X525530951Y-196479819D01*
X525530951Y-196479819D02*
X525673808Y-196527438D01*
X525959523Y-196479819D02*
X526530951Y-196479819D01*
X526245237Y-197479819D02*
X526245237Y-196479819D01*
X526816666Y-197194104D02*
X527292856Y-197194104D01*
X526721428Y-197479819D02*
X527054761Y-196479819D01*
X527054761Y-196479819D02*
X527388094Y-197479819D01*
X528054761Y-196956009D02*
X528197618Y-197003628D01*
X528197618Y-197003628D02*
X528245237Y-197051247D01*
X528245237Y-197051247D02*
X528292856Y-197146485D01*
X528292856Y-197146485D02*
X528292856Y-197289342D01*
X528292856Y-197289342D02*
X528245237Y-197384580D01*
X528245237Y-197384580D02*
X528197618Y-197432200D01*
X528197618Y-197432200D02*
X528102380Y-197479819D01*
X528102380Y-197479819D02*
X527721428Y-197479819D01*
X527721428Y-197479819D02*
X527721428Y-196479819D01*
X527721428Y-196479819D02*
X528054761Y-196479819D01*
X528054761Y-196479819D02*
X528149999Y-196527438D01*
X528149999Y-196527438D02*
X528197618Y-196575057D01*
X528197618Y-196575057D02*
X528245237Y-196670295D01*
X528245237Y-196670295D02*
X528245237Y-196765533D01*
X528245237Y-196765533D02*
X528197618Y-196860771D01*
X528197618Y-196860771D02*
X528149999Y-196908390D01*
X528149999Y-196908390D02*
X528054761Y-196956009D01*
X528054761Y-196956009D02*
X527721428Y-196956009D01*
X528483333Y-197575057D02*
X529245237Y-197575057D01*
X529911904Y-197432200D02*
X529816666Y-197479819D01*
X529816666Y-197479819D02*
X529626190Y-197479819D01*
X529626190Y-197479819D02*
X529530952Y-197432200D01*
X529530952Y-197432200D02*
X529483333Y-197384580D01*
X529483333Y-197384580D02*
X529435714Y-197289342D01*
X529435714Y-197289342D02*
X529435714Y-197003628D01*
X529435714Y-197003628D02*
X529483333Y-196908390D01*
X529483333Y-196908390D02*
X529530952Y-196860771D01*
X529530952Y-196860771D02*
X529626190Y-196813152D01*
X529626190Y-196813152D02*
X529816666Y-196813152D01*
X529816666Y-196813152D02*
X529911904Y-196860771D01*
X530340476Y-197479819D02*
X530340476Y-196479819D01*
X530769047Y-197479819D02*
X530769047Y-196956009D01*
X530769047Y-196956009D02*
X530721428Y-196860771D01*
X530721428Y-196860771D02*
X530626190Y-196813152D01*
X530626190Y-196813152D02*
X530483333Y-196813152D01*
X530483333Y-196813152D02*
X530388095Y-196860771D01*
X530388095Y-196860771D02*
X530340476Y-196908390D01*
X531388095Y-197479819D02*
X531292857Y-197432200D01*
X531292857Y-197432200D02*
X531245238Y-197384580D01*
X531245238Y-197384580D02*
X531197619Y-197289342D01*
X531197619Y-197289342D02*
X531197619Y-197003628D01*
X531197619Y-197003628D02*
X531245238Y-196908390D01*
X531245238Y-196908390D02*
X531292857Y-196860771D01*
X531292857Y-196860771D02*
X531388095Y-196813152D01*
X531388095Y-196813152D02*
X531530952Y-196813152D01*
X531530952Y-196813152D02*
X531626190Y-196860771D01*
X531626190Y-196860771D02*
X531673809Y-196908390D01*
X531673809Y-196908390D02*
X531721428Y-197003628D01*
X531721428Y-197003628D02*
X531721428Y-197289342D01*
X531721428Y-197289342D02*
X531673809Y-197384580D01*
X531673809Y-197384580D02*
X531626190Y-197432200D01*
X531626190Y-197432200D02*
X531530952Y-197479819D01*
X531530952Y-197479819D02*
X531388095Y-197479819D01*
X532578571Y-197432200D02*
X532483333Y-197479819D01*
X532483333Y-197479819D02*
X532292857Y-197479819D01*
X532292857Y-197479819D02*
X532197619Y-197432200D01*
X532197619Y-197432200D02*
X532150000Y-197384580D01*
X532150000Y-197384580D02*
X532102381Y-197289342D01*
X532102381Y-197289342D02*
X532102381Y-197003628D01*
X532102381Y-197003628D02*
X532150000Y-196908390D01*
X532150000Y-196908390D02*
X532197619Y-196860771D01*
X532197619Y-196860771D02*
X532292857Y-196813152D01*
X532292857Y-196813152D02*
X532483333Y-196813152D01*
X532483333Y-196813152D02*
X532578571Y-196860771D01*
X532769048Y-197575057D02*
X533530952Y-197575057D01*
X533721429Y-196575057D02*
X533769048Y-196527438D01*
X533769048Y-196527438D02*
X533864286Y-196479819D01*
X533864286Y-196479819D02*
X534102381Y-196479819D01*
X534102381Y-196479819D02*
X534197619Y-196527438D01*
X534197619Y-196527438D02*
X534245238Y-196575057D01*
X534245238Y-196575057D02*
X534292857Y-196670295D01*
X534292857Y-196670295D02*
X534292857Y-196765533D01*
X534292857Y-196765533D02*
X534245238Y-196908390D01*
X534245238Y-196908390D02*
X533673810Y-197479819D01*
X533673810Y-197479819D02*
X534292857Y-197479819D01*
X535150000Y-196813152D02*
X535150000Y-197479819D01*
X534721429Y-196813152D02*
X534721429Y-197336961D01*
X534721429Y-197336961D02*
X534769048Y-197432200D01*
X534769048Y-197432200D02*
X534864286Y-197479819D01*
X534864286Y-197479819D02*
X535007143Y-197479819D01*
X535007143Y-197479819D02*
X535102381Y-197432200D01*
X535102381Y-197432200D02*
X535150000Y-197384580D01*
X522530951Y-198456009D02*
X522864284Y-198456009D01*
X523007141Y-198979819D02*
X522530951Y-198979819D01*
X522530951Y-198979819D02*
X522530951Y-197979819D01*
X522530951Y-197979819D02*
X523007141Y-197979819D01*
X523864284Y-198932200D02*
X523769046Y-198979819D01*
X523769046Y-198979819D02*
X523578570Y-198979819D01*
X523578570Y-198979819D02*
X523483332Y-198932200D01*
X523483332Y-198932200D02*
X523435713Y-198884580D01*
X523435713Y-198884580D02*
X523388094Y-198789342D01*
X523388094Y-198789342D02*
X523388094Y-198503628D01*
X523388094Y-198503628D02*
X523435713Y-198408390D01*
X523435713Y-198408390D02*
X523483332Y-198360771D01*
X523483332Y-198360771D02*
X523578570Y-198313152D01*
X523578570Y-198313152D02*
X523769046Y-198313152D01*
X523769046Y-198313152D02*
X523864284Y-198360771D01*
X524435713Y-198979819D02*
X524340475Y-198932200D01*
X524340475Y-198932200D02*
X524292856Y-198884580D01*
X524292856Y-198884580D02*
X524245237Y-198789342D01*
X524245237Y-198789342D02*
X524245237Y-198503628D01*
X524245237Y-198503628D02*
X524292856Y-198408390D01*
X524292856Y-198408390D02*
X524340475Y-198360771D01*
X524340475Y-198360771D02*
X524435713Y-198313152D01*
X524435713Y-198313152D02*
X524578570Y-198313152D01*
X524578570Y-198313152D02*
X524673808Y-198360771D01*
X524673808Y-198360771D02*
X524721427Y-198408390D01*
X524721427Y-198408390D02*
X524769046Y-198503628D01*
X524769046Y-198503628D02*
X524769046Y-198789342D01*
X524769046Y-198789342D02*
X524721427Y-198884580D01*
X524721427Y-198884580D02*
X524673808Y-198932200D01*
X524673808Y-198932200D02*
X524578570Y-198979819D01*
X524578570Y-198979819D02*
X524435713Y-198979819D01*
X525149999Y-198075057D02*
X525197618Y-198027438D01*
X525197618Y-198027438D02*
X525292856Y-197979819D01*
X525292856Y-197979819D02*
X525530951Y-197979819D01*
X525530951Y-197979819D02*
X525626189Y-198027438D01*
X525626189Y-198027438D02*
X525673808Y-198075057D01*
X525673808Y-198075057D02*
X525721427Y-198170295D01*
X525721427Y-198170295D02*
X525721427Y-198265533D01*
X525721427Y-198265533D02*
X525673808Y-198408390D01*
X525673808Y-198408390D02*
X525102380Y-198979819D01*
X525102380Y-198979819D02*
X525721427Y-198979819D01*
X526149999Y-198884580D02*
X526197618Y-198932200D01*
X526197618Y-198932200D02*
X526149999Y-198979819D01*
X526149999Y-198979819D02*
X526102380Y-198932200D01*
X526102380Y-198932200D02*
X526149999Y-198884580D01*
X526149999Y-198884580D02*
X526149999Y-198979819D01*
X526626189Y-197979819D02*
X526626189Y-198789342D01*
X526626189Y-198789342D02*
X526673808Y-198884580D01*
X526673808Y-198884580D02*
X526721427Y-198932200D01*
X526721427Y-198932200D02*
X526816665Y-198979819D01*
X526816665Y-198979819D02*
X527007141Y-198979819D01*
X527007141Y-198979819D02*
X527102379Y-198932200D01*
X527102379Y-198932200D02*
X527149998Y-198884580D01*
X527149998Y-198884580D02*
X527197617Y-198789342D01*
X527197617Y-198789342D02*
X527197617Y-197979819D01*
X527626189Y-198932200D02*
X527721427Y-198979819D01*
X527721427Y-198979819D02*
X527911903Y-198979819D01*
X527911903Y-198979819D02*
X528007141Y-198932200D01*
X528007141Y-198932200D02*
X528054760Y-198836961D01*
X528054760Y-198836961D02*
X528054760Y-198789342D01*
X528054760Y-198789342D02*
X528007141Y-198694104D01*
X528007141Y-198694104D02*
X527911903Y-198646485D01*
X527911903Y-198646485D02*
X527769046Y-198646485D01*
X527769046Y-198646485D02*
X527673808Y-198598866D01*
X527673808Y-198598866D02*
X527626189Y-198503628D01*
X527626189Y-198503628D02*
X527626189Y-198456009D01*
X527626189Y-198456009D02*
X527673808Y-198360771D01*
X527673808Y-198360771D02*
X527769046Y-198313152D01*
X527769046Y-198313152D02*
X527911903Y-198313152D01*
X527911903Y-198313152D02*
X528007141Y-198360771D01*
X528864284Y-198932200D02*
X528769046Y-198979819D01*
X528769046Y-198979819D02*
X528578570Y-198979819D01*
X528578570Y-198979819D02*
X528483332Y-198932200D01*
X528483332Y-198932200D02*
X528435713Y-198836961D01*
X528435713Y-198836961D02*
X528435713Y-198456009D01*
X528435713Y-198456009D02*
X528483332Y-198360771D01*
X528483332Y-198360771D02*
X528578570Y-198313152D01*
X528578570Y-198313152D02*
X528769046Y-198313152D01*
X528769046Y-198313152D02*
X528864284Y-198360771D01*
X528864284Y-198360771D02*
X528911903Y-198456009D01*
X528911903Y-198456009D02*
X528911903Y-198551247D01*
X528911903Y-198551247D02*
X528435713Y-198646485D01*
X529340475Y-198884580D02*
X529388094Y-198932200D01*
X529388094Y-198932200D02*
X529340475Y-198979819D01*
X529340475Y-198979819D02*
X529292856Y-198932200D01*
X529292856Y-198932200D02*
X529340475Y-198884580D01*
X529340475Y-198884580D02*
X529340475Y-198979819D01*
X529340475Y-198360771D02*
X529388094Y-198408390D01*
X529388094Y-198408390D02*
X529340475Y-198456009D01*
X529340475Y-198456009D02*
X529292856Y-198408390D01*
X529292856Y-198408390D02*
X529340475Y-198360771D01*
X529340475Y-198360771D02*
X529340475Y-198456009D01*
X530578570Y-198313152D02*
X530578570Y-199313152D01*
X530578570Y-198360771D02*
X530673808Y-198313152D01*
X530673808Y-198313152D02*
X530864284Y-198313152D01*
X530864284Y-198313152D02*
X530959522Y-198360771D01*
X530959522Y-198360771D02*
X531007141Y-198408390D01*
X531007141Y-198408390D02*
X531054760Y-198503628D01*
X531054760Y-198503628D02*
X531054760Y-198789342D01*
X531054760Y-198789342D02*
X531007141Y-198884580D01*
X531007141Y-198884580D02*
X530959522Y-198932200D01*
X530959522Y-198932200D02*
X530864284Y-198979819D01*
X530864284Y-198979819D02*
X530673808Y-198979819D01*
X530673808Y-198979819D02*
X530578570Y-198932200D01*
X531626189Y-198979819D02*
X531530951Y-198932200D01*
X531530951Y-198932200D02*
X531483332Y-198836961D01*
X531483332Y-198836961D02*
X531483332Y-197979819D01*
X532435713Y-198979819D02*
X532435713Y-198456009D01*
X532435713Y-198456009D02*
X532388094Y-198360771D01*
X532388094Y-198360771D02*
X532292856Y-198313152D01*
X532292856Y-198313152D02*
X532102380Y-198313152D01*
X532102380Y-198313152D02*
X532007142Y-198360771D01*
X532435713Y-198932200D02*
X532340475Y-198979819D01*
X532340475Y-198979819D02*
X532102380Y-198979819D01*
X532102380Y-198979819D02*
X532007142Y-198932200D01*
X532007142Y-198932200D02*
X531959523Y-198836961D01*
X531959523Y-198836961D02*
X531959523Y-198741723D01*
X531959523Y-198741723D02*
X532007142Y-198646485D01*
X532007142Y-198646485D02*
X532102380Y-198598866D01*
X532102380Y-198598866D02*
X532340475Y-198598866D01*
X532340475Y-198598866D02*
X532435713Y-198551247D01*
X532769047Y-198313152D02*
X533149999Y-198313152D01*
X532911904Y-197979819D02*
X532911904Y-198836961D01*
X532911904Y-198836961D02*
X532959523Y-198932200D01*
X532959523Y-198932200D02*
X533054761Y-198979819D01*
X533054761Y-198979819D02*
X533149999Y-198979819D01*
X533864285Y-198932200D02*
X533769047Y-198979819D01*
X533769047Y-198979819D02*
X533578571Y-198979819D01*
X533578571Y-198979819D02*
X533483333Y-198932200D01*
X533483333Y-198932200D02*
X533435714Y-198836961D01*
X533435714Y-198836961D02*
X533435714Y-198456009D01*
X533435714Y-198456009D02*
X533483333Y-198360771D01*
X533483333Y-198360771D02*
X533578571Y-198313152D01*
X533578571Y-198313152D02*
X533769047Y-198313152D01*
X533769047Y-198313152D02*
X533864285Y-198360771D01*
X533864285Y-198360771D02*
X533911904Y-198456009D01*
X533911904Y-198456009D02*
X533911904Y-198551247D01*
X533911904Y-198551247D02*
X533435714Y-198646485D01*
X535530952Y-198932200D02*
X535435714Y-198979819D01*
X535435714Y-198979819D02*
X535245238Y-198979819D01*
X535245238Y-198979819D02*
X535150000Y-198932200D01*
X535150000Y-198932200D02*
X535102381Y-198884580D01*
X535102381Y-198884580D02*
X535054762Y-198789342D01*
X535054762Y-198789342D02*
X535054762Y-198503628D01*
X535054762Y-198503628D02*
X535102381Y-198408390D01*
X535102381Y-198408390D02*
X535150000Y-198360771D01*
X535150000Y-198360771D02*
X535245238Y-198313152D01*
X535245238Y-198313152D02*
X535435714Y-198313152D01*
X535435714Y-198313152D02*
X535530952Y-198360771D01*
X536388095Y-198313152D02*
X536388095Y-198979819D01*
X535959524Y-198313152D02*
X535959524Y-198836961D01*
X535959524Y-198836961D02*
X536007143Y-198932200D01*
X536007143Y-198932200D02*
X536102381Y-198979819D01*
X536102381Y-198979819D02*
X536245238Y-198979819D01*
X536245238Y-198979819D02*
X536340476Y-198932200D01*
X536340476Y-198932200D02*
X536388095Y-198884580D01*
X536721429Y-198313152D02*
X537102381Y-198313152D01*
X536864286Y-197979819D02*
X536864286Y-198836961D01*
X536864286Y-198836961D02*
X536911905Y-198932200D01*
X536911905Y-198932200D02*
X537007143Y-198979819D01*
X537007143Y-198979819D02*
X537102381Y-198979819D01*
X537388096Y-198932200D02*
X537483334Y-198979819D01*
X537483334Y-198979819D02*
X537673810Y-198979819D01*
X537673810Y-198979819D02*
X537769048Y-198932200D01*
X537769048Y-198932200D02*
X537816667Y-198836961D01*
X537816667Y-198836961D02*
X537816667Y-198789342D01*
X537816667Y-198789342D02*
X537769048Y-198694104D01*
X537769048Y-198694104D02*
X537673810Y-198646485D01*
X537673810Y-198646485D02*
X537530953Y-198646485D01*
X537530953Y-198646485D02*
X537435715Y-198598866D01*
X537435715Y-198598866D02*
X537388096Y-198503628D01*
X537388096Y-198503628D02*
X537388096Y-198456009D01*
X537388096Y-198456009D02*
X537435715Y-198360771D01*
X537435715Y-198360771D02*
X537530953Y-198313152D01*
X537530953Y-198313152D02*
X537673810Y-198313152D01*
X537673810Y-198313152D02*
X537769048Y-198360771D01*
X812132142Y-203279819D02*
X811655952Y-203279819D01*
X811655952Y-203279819D02*
X811655952Y-202279819D01*
X812465476Y-202756009D02*
X812798809Y-202756009D01*
X812941666Y-203279819D02*
X812465476Y-203279819D01*
X812465476Y-203279819D02*
X812465476Y-202279819D01*
X812465476Y-202279819D02*
X812941666Y-202279819D01*
X813370238Y-203279819D02*
X813370238Y-202279819D01*
X813370238Y-202279819D02*
X813608333Y-202279819D01*
X813608333Y-202279819D02*
X813751190Y-202327438D01*
X813751190Y-202327438D02*
X813846428Y-202422676D01*
X813846428Y-202422676D02*
X813894047Y-202517914D01*
X813894047Y-202517914D02*
X813941666Y-202708390D01*
X813941666Y-202708390D02*
X813941666Y-202851247D01*
X813941666Y-202851247D02*
X813894047Y-203041723D01*
X813894047Y-203041723D02*
X813846428Y-203136961D01*
X813846428Y-203136961D02*
X813751190Y-203232200D01*
X813751190Y-203232200D02*
X813608333Y-203279819D01*
X813608333Y-203279819D02*
X813370238Y-203279819D01*
X778132142Y-135279819D02*
X777655952Y-135279819D01*
X777655952Y-135279819D02*
X777655952Y-134279819D01*
X778465476Y-134756009D02*
X778798809Y-134756009D01*
X778941666Y-135279819D02*
X778465476Y-135279819D01*
X778465476Y-135279819D02*
X778465476Y-134279819D01*
X778465476Y-134279819D02*
X778941666Y-134279819D01*
X779370238Y-135279819D02*
X779370238Y-134279819D01*
X779370238Y-134279819D02*
X779608333Y-134279819D01*
X779608333Y-134279819D02*
X779751190Y-134327438D01*
X779751190Y-134327438D02*
X779846428Y-134422676D01*
X779846428Y-134422676D02*
X779894047Y-134517914D01*
X779894047Y-134517914D02*
X779941666Y-134708390D01*
X779941666Y-134708390D02*
X779941666Y-134851247D01*
X779941666Y-134851247D02*
X779894047Y-135041723D01*
X779894047Y-135041723D02*
X779846428Y-135136961D01*
X779846428Y-135136961D02*
X779751190Y-135232200D01*
X779751190Y-135232200D02*
X779608333Y-135279819D01*
X779608333Y-135279819D02*
X779370238Y-135279819D01*
X752632142Y-152279819D02*
X752155952Y-152279819D01*
X752155952Y-152279819D02*
X752155952Y-151279819D01*
X752965476Y-151756009D02*
X753298809Y-151756009D01*
X753441666Y-152279819D02*
X752965476Y-152279819D01*
X752965476Y-152279819D02*
X752965476Y-151279819D01*
X752965476Y-151279819D02*
X753441666Y-151279819D01*
X753870238Y-152279819D02*
X753870238Y-151279819D01*
X753870238Y-151279819D02*
X754108333Y-151279819D01*
X754108333Y-151279819D02*
X754251190Y-151327438D01*
X754251190Y-151327438D02*
X754346428Y-151422676D01*
X754346428Y-151422676D02*
X754394047Y-151517914D01*
X754394047Y-151517914D02*
X754441666Y-151708390D01*
X754441666Y-151708390D02*
X754441666Y-151851247D01*
X754441666Y-151851247D02*
X754394047Y-152041723D01*
X754394047Y-152041723D02*
X754346428Y-152136961D01*
X754346428Y-152136961D02*
X754251190Y-152232200D01*
X754251190Y-152232200D02*
X754108333Y-152279819D01*
X754108333Y-152279819D02*
X753870238Y-152279819D01*
X691007142Y-203279819D02*
X690530952Y-203279819D01*
X690530952Y-203279819D02*
X690530952Y-202279819D01*
X691340476Y-202756009D02*
X691673809Y-202756009D01*
X691816666Y-203279819D02*
X691340476Y-203279819D01*
X691340476Y-203279819D02*
X691340476Y-202279819D01*
X691340476Y-202279819D02*
X691816666Y-202279819D01*
X692245238Y-203279819D02*
X692245238Y-202279819D01*
X692245238Y-202279819D02*
X692483333Y-202279819D01*
X692483333Y-202279819D02*
X692626190Y-202327438D01*
X692626190Y-202327438D02*
X692721428Y-202422676D01*
X692721428Y-202422676D02*
X692769047Y-202517914D01*
X692769047Y-202517914D02*
X692816666Y-202708390D01*
X692816666Y-202708390D02*
X692816666Y-202851247D01*
X692816666Y-202851247D02*
X692769047Y-203041723D01*
X692769047Y-203041723D02*
X692721428Y-203136961D01*
X692721428Y-203136961D02*
X692626190Y-203232200D01*
X692626190Y-203232200D02*
X692483333Y-203279819D01*
X692483333Y-203279819D02*
X692245238Y-203279819D01*
X548632142Y-169279819D02*
X548155952Y-169279819D01*
X548155952Y-169279819D02*
X548155952Y-168279819D01*
X548965476Y-168756009D02*
X549298809Y-168756009D01*
X549441666Y-169279819D02*
X548965476Y-169279819D01*
X548965476Y-169279819D02*
X548965476Y-168279819D01*
X548965476Y-168279819D02*
X549441666Y-168279819D01*
X549870238Y-169279819D02*
X549870238Y-168279819D01*
X549870238Y-168279819D02*
X550108333Y-168279819D01*
X550108333Y-168279819D02*
X550251190Y-168327438D01*
X550251190Y-168327438D02*
X550346428Y-168422676D01*
X550346428Y-168422676D02*
X550394047Y-168517914D01*
X550394047Y-168517914D02*
X550441666Y-168708390D01*
X550441666Y-168708390D02*
X550441666Y-168851247D01*
X550441666Y-168851247D02*
X550394047Y-169041723D01*
X550394047Y-169041723D02*
X550346428Y-169136961D01*
X550346428Y-169136961D02*
X550251190Y-169232200D01*
X550251190Y-169232200D02*
X550108333Y-169279819D01*
X550108333Y-169279819D02*
X549870238Y-169279819D01*
X778132142Y-203279819D02*
X777655952Y-203279819D01*
X777655952Y-203279819D02*
X777655952Y-202279819D01*
X778465476Y-202756009D02*
X778798809Y-202756009D01*
X778941666Y-203279819D02*
X778465476Y-203279819D01*
X778465476Y-203279819D02*
X778465476Y-202279819D01*
X778465476Y-202279819D02*
X778941666Y-202279819D01*
X779370238Y-203279819D02*
X779370238Y-202279819D01*
X779370238Y-202279819D02*
X779608333Y-202279819D01*
X779608333Y-202279819D02*
X779751190Y-202327438D01*
X779751190Y-202327438D02*
X779846428Y-202422676D01*
X779846428Y-202422676D02*
X779894047Y-202517914D01*
X779894047Y-202517914D02*
X779941666Y-202708390D01*
X779941666Y-202708390D02*
X779941666Y-202851247D01*
X779941666Y-202851247D02*
X779894047Y-203041723D01*
X779894047Y-203041723D02*
X779846428Y-203136961D01*
X779846428Y-203136961D02*
X779751190Y-203232200D01*
X779751190Y-203232200D02*
X779608333Y-203279819D01*
X779608333Y-203279819D02*
X779370238Y-203279819D01*
X718632142Y-169279819D02*
X718155952Y-169279819D01*
X718155952Y-169279819D02*
X718155952Y-168279819D01*
X718965476Y-168756009D02*
X719298809Y-168756009D01*
X719441666Y-169279819D02*
X718965476Y-169279819D01*
X718965476Y-169279819D02*
X718965476Y-168279819D01*
X718965476Y-168279819D02*
X719441666Y-168279819D01*
X719870238Y-169279819D02*
X719870238Y-168279819D01*
X719870238Y-168279819D02*
X720108333Y-168279819D01*
X720108333Y-168279819D02*
X720251190Y-168327438D01*
X720251190Y-168327438D02*
X720346428Y-168422676D01*
X720346428Y-168422676D02*
X720394047Y-168517914D01*
X720394047Y-168517914D02*
X720441666Y-168708390D01*
X720441666Y-168708390D02*
X720441666Y-168851247D01*
X720441666Y-168851247D02*
X720394047Y-169041723D01*
X720394047Y-169041723D02*
X720346428Y-169136961D01*
X720346428Y-169136961D02*
X720251190Y-169232200D01*
X720251190Y-169232200D02*
X720108333Y-169279819D01*
X720108333Y-169279819D02*
X719870238Y-169279819D01*
X625132142Y-186279819D02*
X624655952Y-186279819D01*
X624655952Y-186279819D02*
X624655952Y-185279819D01*
X625465476Y-185756009D02*
X625798809Y-185756009D01*
X625941666Y-186279819D02*
X625465476Y-186279819D01*
X625465476Y-186279819D02*
X625465476Y-185279819D01*
X625465476Y-185279819D02*
X625941666Y-185279819D01*
X626370238Y-186279819D02*
X626370238Y-185279819D01*
X626370238Y-185279819D02*
X626608333Y-185279819D01*
X626608333Y-185279819D02*
X626751190Y-185327438D01*
X626751190Y-185327438D02*
X626846428Y-185422676D01*
X626846428Y-185422676D02*
X626894047Y-185517914D01*
X626894047Y-185517914D02*
X626941666Y-185708390D01*
X626941666Y-185708390D02*
X626941666Y-185851247D01*
X626941666Y-185851247D02*
X626894047Y-186041723D01*
X626894047Y-186041723D02*
X626846428Y-186136961D01*
X626846428Y-186136961D02*
X626751190Y-186232200D01*
X626751190Y-186232200D02*
X626608333Y-186279819D01*
X626608333Y-186279819D02*
X626370238Y-186279819D01*
X557132142Y-186279819D02*
X556655952Y-186279819D01*
X556655952Y-186279819D02*
X556655952Y-185279819D01*
X557465476Y-185756009D02*
X557798809Y-185756009D01*
X557941666Y-186279819D02*
X557465476Y-186279819D01*
X557465476Y-186279819D02*
X557465476Y-185279819D01*
X557465476Y-185279819D02*
X557941666Y-185279819D01*
X558370238Y-186279819D02*
X558370238Y-185279819D01*
X558370238Y-185279819D02*
X558608333Y-185279819D01*
X558608333Y-185279819D02*
X558751190Y-185327438D01*
X558751190Y-185327438D02*
X558846428Y-185422676D01*
X558846428Y-185422676D02*
X558894047Y-185517914D01*
X558894047Y-185517914D02*
X558941666Y-185708390D01*
X558941666Y-185708390D02*
X558941666Y-185851247D01*
X558941666Y-185851247D02*
X558894047Y-186041723D01*
X558894047Y-186041723D02*
X558846428Y-186136961D01*
X558846428Y-186136961D02*
X558751190Y-186232200D01*
X558751190Y-186232200D02*
X558608333Y-186279819D01*
X558608333Y-186279819D02*
X558370238Y-186279819D01*
X521007142Y-203279819D02*
X520530952Y-203279819D01*
X520530952Y-203279819D02*
X520530952Y-202279819D01*
X521340476Y-202756009D02*
X521673809Y-202756009D01*
X521816666Y-203279819D02*
X521340476Y-203279819D01*
X521340476Y-203279819D02*
X521340476Y-202279819D01*
X521340476Y-202279819D02*
X521816666Y-202279819D01*
X522245238Y-203279819D02*
X522245238Y-202279819D01*
X522245238Y-202279819D02*
X522483333Y-202279819D01*
X522483333Y-202279819D02*
X522626190Y-202327438D01*
X522626190Y-202327438D02*
X522721428Y-202422676D01*
X522721428Y-202422676D02*
X522769047Y-202517914D01*
X522769047Y-202517914D02*
X522816666Y-202708390D01*
X522816666Y-202708390D02*
X522816666Y-202851247D01*
X522816666Y-202851247D02*
X522769047Y-203041723D01*
X522769047Y-203041723D02*
X522721428Y-203136961D01*
X522721428Y-203136961D02*
X522626190Y-203232200D01*
X522626190Y-203232200D02*
X522483333Y-203279819D01*
X522483333Y-203279819D02*
X522245238Y-203279819D01*
X712257142Y-203279819D02*
X711780952Y-203279819D01*
X711780952Y-203279819D02*
X711780952Y-202279819D01*
X712590476Y-202756009D02*
X712923809Y-202756009D01*
X713066666Y-203279819D02*
X712590476Y-203279819D01*
X712590476Y-203279819D02*
X712590476Y-202279819D01*
X712590476Y-202279819D02*
X713066666Y-202279819D01*
X713495238Y-203279819D02*
X713495238Y-202279819D01*
X713495238Y-202279819D02*
X713733333Y-202279819D01*
X713733333Y-202279819D02*
X713876190Y-202327438D01*
X713876190Y-202327438D02*
X713971428Y-202422676D01*
X713971428Y-202422676D02*
X714019047Y-202517914D01*
X714019047Y-202517914D02*
X714066666Y-202708390D01*
X714066666Y-202708390D02*
X714066666Y-202851247D01*
X714066666Y-202851247D02*
X714019047Y-203041723D01*
X714019047Y-203041723D02*
X713971428Y-203136961D01*
X713971428Y-203136961D02*
X713876190Y-203232200D01*
X713876190Y-203232200D02*
X713733333Y-203279819D01*
X713733333Y-203279819D02*
X713495238Y-203279819D01*
X608132142Y-186279819D02*
X607655952Y-186279819D01*
X607655952Y-186279819D02*
X607655952Y-185279819D01*
X608465476Y-185756009D02*
X608798809Y-185756009D01*
X608941666Y-186279819D02*
X608465476Y-186279819D01*
X608465476Y-186279819D02*
X608465476Y-185279819D01*
X608465476Y-185279819D02*
X608941666Y-185279819D01*
X609370238Y-186279819D02*
X609370238Y-185279819D01*
X609370238Y-185279819D02*
X609608333Y-185279819D01*
X609608333Y-185279819D02*
X609751190Y-185327438D01*
X609751190Y-185327438D02*
X609846428Y-185422676D01*
X609846428Y-185422676D02*
X609894047Y-185517914D01*
X609894047Y-185517914D02*
X609941666Y-185708390D01*
X609941666Y-185708390D02*
X609941666Y-185851247D01*
X609941666Y-185851247D02*
X609894047Y-186041723D01*
X609894047Y-186041723D02*
X609846428Y-186136961D01*
X609846428Y-186136961D02*
X609751190Y-186232200D01*
X609751190Y-186232200D02*
X609608333Y-186279819D01*
X609608333Y-186279819D02*
X609370238Y-186279819D01*
X603882142Y-135279819D02*
X603405952Y-135279819D01*
X603405952Y-135279819D02*
X603405952Y-134279819D01*
X604215476Y-134756009D02*
X604548809Y-134756009D01*
X604691666Y-135279819D02*
X604215476Y-135279819D01*
X604215476Y-135279819D02*
X604215476Y-134279819D01*
X604215476Y-134279819D02*
X604691666Y-134279819D01*
X605120238Y-135279819D02*
X605120238Y-134279819D01*
X605120238Y-134279819D02*
X605358333Y-134279819D01*
X605358333Y-134279819D02*
X605501190Y-134327438D01*
X605501190Y-134327438D02*
X605596428Y-134422676D01*
X605596428Y-134422676D02*
X605644047Y-134517914D01*
X605644047Y-134517914D02*
X605691666Y-134708390D01*
X605691666Y-134708390D02*
X605691666Y-134851247D01*
X605691666Y-134851247D02*
X605644047Y-135041723D01*
X605644047Y-135041723D02*
X605596428Y-135136961D01*
X605596428Y-135136961D02*
X605501190Y-135232200D01*
X605501190Y-135232200D02*
X605358333Y-135279819D01*
X605358333Y-135279819D02*
X605120238Y-135279819D01*
X574132142Y-186279819D02*
X573655952Y-186279819D01*
X573655952Y-186279819D02*
X573655952Y-185279819D01*
X574465476Y-185756009D02*
X574798809Y-185756009D01*
X574941666Y-186279819D02*
X574465476Y-186279819D01*
X574465476Y-186279819D02*
X574465476Y-185279819D01*
X574465476Y-185279819D02*
X574941666Y-185279819D01*
X575370238Y-186279819D02*
X575370238Y-185279819D01*
X575370238Y-185279819D02*
X575608333Y-185279819D01*
X575608333Y-185279819D02*
X575751190Y-185327438D01*
X575751190Y-185327438D02*
X575846428Y-185422676D01*
X575846428Y-185422676D02*
X575894047Y-185517914D01*
X575894047Y-185517914D02*
X575941666Y-185708390D01*
X575941666Y-185708390D02*
X575941666Y-185851247D01*
X575941666Y-185851247D02*
X575894047Y-186041723D01*
X575894047Y-186041723D02*
X575846428Y-186136961D01*
X575846428Y-186136961D02*
X575751190Y-186232200D01*
X575751190Y-186232200D02*
X575608333Y-186279819D01*
X575608333Y-186279819D02*
X575370238Y-186279819D01*
X693132142Y-186279819D02*
X692655952Y-186279819D01*
X692655952Y-186279819D02*
X692655952Y-185279819D01*
X693465476Y-185756009D02*
X693798809Y-185756009D01*
X693941666Y-186279819D02*
X693465476Y-186279819D01*
X693465476Y-186279819D02*
X693465476Y-185279819D01*
X693465476Y-185279819D02*
X693941666Y-185279819D01*
X694370238Y-186279819D02*
X694370238Y-185279819D01*
X694370238Y-185279819D02*
X694608333Y-185279819D01*
X694608333Y-185279819D02*
X694751190Y-185327438D01*
X694751190Y-185327438D02*
X694846428Y-185422676D01*
X694846428Y-185422676D02*
X694894047Y-185517914D01*
X694894047Y-185517914D02*
X694941666Y-185708390D01*
X694941666Y-185708390D02*
X694941666Y-185851247D01*
X694941666Y-185851247D02*
X694894047Y-186041723D01*
X694894047Y-186041723D02*
X694846428Y-186136961D01*
X694846428Y-186136961D02*
X694751190Y-186232200D01*
X694751190Y-186232200D02*
X694608333Y-186279819D01*
X694608333Y-186279819D02*
X694370238Y-186279819D01*
X733507142Y-186279819D02*
X733030952Y-186279819D01*
X733030952Y-186279819D02*
X733030952Y-185279819D01*
X733840476Y-185756009D02*
X734173809Y-185756009D01*
X734316666Y-186279819D02*
X733840476Y-186279819D01*
X733840476Y-186279819D02*
X733840476Y-185279819D01*
X733840476Y-185279819D02*
X734316666Y-185279819D01*
X734745238Y-186279819D02*
X734745238Y-185279819D01*
X734745238Y-185279819D02*
X734983333Y-185279819D01*
X734983333Y-185279819D02*
X735126190Y-185327438D01*
X735126190Y-185327438D02*
X735221428Y-185422676D01*
X735221428Y-185422676D02*
X735269047Y-185517914D01*
X735269047Y-185517914D02*
X735316666Y-185708390D01*
X735316666Y-185708390D02*
X735316666Y-185851247D01*
X735316666Y-185851247D02*
X735269047Y-186041723D01*
X735269047Y-186041723D02*
X735221428Y-186136961D01*
X735221428Y-186136961D02*
X735126190Y-186232200D01*
X735126190Y-186232200D02*
X734983333Y-186279819D01*
X734983333Y-186279819D02*
X734745238Y-186279819D01*
X667632142Y-169279819D02*
X667155952Y-169279819D01*
X667155952Y-169279819D02*
X667155952Y-168279819D01*
X667965476Y-168756009D02*
X668298809Y-168756009D01*
X668441666Y-169279819D02*
X667965476Y-169279819D01*
X667965476Y-169279819D02*
X667965476Y-168279819D01*
X667965476Y-168279819D02*
X668441666Y-168279819D01*
X668870238Y-169279819D02*
X668870238Y-168279819D01*
X668870238Y-168279819D02*
X669108333Y-168279819D01*
X669108333Y-168279819D02*
X669251190Y-168327438D01*
X669251190Y-168327438D02*
X669346428Y-168422676D01*
X669346428Y-168422676D02*
X669394047Y-168517914D01*
X669394047Y-168517914D02*
X669441666Y-168708390D01*
X669441666Y-168708390D02*
X669441666Y-168851247D01*
X669441666Y-168851247D02*
X669394047Y-169041723D01*
X669394047Y-169041723D02*
X669346428Y-169136961D01*
X669346428Y-169136961D02*
X669251190Y-169232200D01*
X669251190Y-169232200D02*
X669108333Y-169279819D01*
X669108333Y-169279819D02*
X668870238Y-169279819D01*
X676132142Y-186279819D02*
X675655952Y-186279819D01*
X675655952Y-186279819D02*
X675655952Y-185279819D01*
X676465476Y-185756009D02*
X676798809Y-185756009D01*
X676941666Y-186279819D02*
X676465476Y-186279819D01*
X676465476Y-186279819D02*
X676465476Y-185279819D01*
X676465476Y-185279819D02*
X676941666Y-185279819D01*
X677370238Y-186279819D02*
X677370238Y-185279819D01*
X677370238Y-185279819D02*
X677608333Y-185279819D01*
X677608333Y-185279819D02*
X677751190Y-185327438D01*
X677751190Y-185327438D02*
X677846428Y-185422676D01*
X677846428Y-185422676D02*
X677894047Y-185517914D01*
X677894047Y-185517914D02*
X677941666Y-185708390D01*
X677941666Y-185708390D02*
X677941666Y-185851247D01*
X677941666Y-185851247D02*
X677894047Y-186041723D01*
X677894047Y-186041723D02*
X677846428Y-186136961D01*
X677846428Y-186136961D02*
X677751190Y-186232200D01*
X677751190Y-186232200D02*
X677608333Y-186279819D01*
X677608333Y-186279819D02*
X677370238Y-186279819D01*
X671882142Y-135279819D02*
X671405952Y-135279819D01*
X671405952Y-135279819D02*
X671405952Y-134279819D01*
X672215476Y-134756009D02*
X672548809Y-134756009D01*
X672691666Y-135279819D02*
X672215476Y-135279819D01*
X672215476Y-135279819D02*
X672215476Y-134279819D01*
X672215476Y-134279819D02*
X672691666Y-134279819D01*
X673120238Y-135279819D02*
X673120238Y-134279819D01*
X673120238Y-134279819D02*
X673358333Y-134279819D01*
X673358333Y-134279819D02*
X673501190Y-134327438D01*
X673501190Y-134327438D02*
X673596428Y-134422676D01*
X673596428Y-134422676D02*
X673644047Y-134517914D01*
X673644047Y-134517914D02*
X673691666Y-134708390D01*
X673691666Y-134708390D02*
X673691666Y-134851247D01*
X673691666Y-134851247D02*
X673644047Y-135041723D01*
X673644047Y-135041723D02*
X673596428Y-135136961D01*
X673596428Y-135136961D02*
X673501190Y-135232200D01*
X673501190Y-135232200D02*
X673358333Y-135279819D01*
X673358333Y-135279819D02*
X673120238Y-135279819D01*
X659132142Y-186279819D02*
X658655952Y-186279819D01*
X658655952Y-186279819D02*
X658655952Y-185279819D01*
X659465476Y-185756009D02*
X659798809Y-185756009D01*
X659941666Y-186279819D02*
X659465476Y-186279819D01*
X659465476Y-186279819D02*
X659465476Y-185279819D01*
X659465476Y-185279819D02*
X659941666Y-185279819D01*
X660370238Y-186279819D02*
X660370238Y-185279819D01*
X660370238Y-185279819D02*
X660608333Y-185279819D01*
X660608333Y-185279819D02*
X660751190Y-185327438D01*
X660751190Y-185327438D02*
X660846428Y-185422676D01*
X660846428Y-185422676D02*
X660894047Y-185517914D01*
X660894047Y-185517914D02*
X660941666Y-185708390D01*
X660941666Y-185708390D02*
X660941666Y-185851247D01*
X660941666Y-185851247D02*
X660894047Y-186041723D01*
X660894047Y-186041723D02*
X660846428Y-186136961D01*
X660846428Y-186136961D02*
X660751190Y-186232200D01*
X660751190Y-186232200D02*
X660608333Y-186279819D01*
X660608333Y-186279819D02*
X660370238Y-186279819D01*
X710132142Y-186279819D02*
X709655952Y-186279819D01*
X709655952Y-186279819D02*
X709655952Y-185279819D01*
X710465476Y-185756009D02*
X710798809Y-185756009D01*
X710941666Y-186279819D02*
X710465476Y-186279819D01*
X710465476Y-186279819D02*
X710465476Y-185279819D01*
X710465476Y-185279819D02*
X710941666Y-185279819D01*
X711370238Y-186279819D02*
X711370238Y-185279819D01*
X711370238Y-185279819D02*
X711608333Y-185279819D01*
X711608333Y-185279819D02*
X711751190Y-185327438D01*
X711751190Y-185327438D02*
X711846428Y-185422676D01*
X711846428Y-185422676D02*
X711894047Y-185517914D01*
X711894047Y-185517914D02*
X711941666Y-185708390D01*
X711941666Y-185708390D02*
X711941666Y-185851247D01*
X711941666Y-185851247D02*
X711894047Y-186041723D01*
X711894047Y-186041723D02*
X711846428Y-186136961D01*
X711846428Y-186136961D02*
X711751190Y-186232200D01*
X711751190Y-186232200D02*
X711608333Y-186279819D01*
X711608333Y-186279819D02*
X711370238Y-186279819D01*
X812132142Y-135279819D02*
X811655952Y-135279819D01*
X811655952Y-135279819D02*
X811655952Y-134279819D01*
X812465476Y-134756009D02*
X812798809Y-134756009D01*
X812941666Y-135279819D02*
X812465476Y-135279819D01*
X812465476Y-135279819D02*
X812465476Y-134279819D01*
X812465476Y-134279819D02*
X812941666Y-134279819D01*
X813370238Y-135279819D02*
X813370238Y-134279819D01*
X813370238Y-134279819D02*
X813608333Y-134279819D01*
X813608333Y-134279819D02*
X813751190Y-134327438D01*
X813751190Y-134327438D02*
X813846428Y-134422676D01*
X813846428Y-134422676D02*
X813894047Y-134517914D01*
X813894047Y-134517914D02*
X813941666Y-134708390D01*
X813941666Y-134708390D02*
X813941666Y-134851247D01*
X813941666Y-134851247D02*
X813894047Y-135041723D01*
X813894047Y-135041723D02*
X813846428Y-135136961D01*
X813846428Y-135136961D02*
X813751190Y-135232200D01*
X813751190Y-135232200D02*
X813608333Y-135279819D01*
X813608333Y-135279819D02*
X813370238Y-135279819D01*
X565632142Y-169279819D02*
X565155952Y-169279819D01*
X565155952Y-169279819D02*
X565155952Y-168279819D01*
X565965476Y-168756009D02*
X566298809Y-168756009D01*
X566441666Y-169279819D02*
X565965476Y-169279819D01*
X565965476Y-169279819D02*
X565965476Y-168279819D01*
X565965476Y-168279819D02*
X566441666Y-168279819D01*
X566870238Y-169279819D02*
X566870238Y-168279819D01*
X566870238Y-168279819D02*
X567108333Y-168279819D01*
X567108333Y-168279819D02*
X567251190Y-168327438D01*
X567251190Y-168327438D02*
X567346428Y-168422676D01*
X567346428Y-168422676D02*
X567394047Y-168517914D01*
X567394047Y-168517914D02*
X567441666Y-168708390D01*
X567441666Y-168708390D02*
X567441666Y-168851247D01*
X567441666Y-168851247D02*
X567394047Y-169041723D01*
X567394047Y-169041723D02*
X567346428Y-169136961D01*
X567346428Y-169136961D02*
X567251190Y-169232200D01*
X567251190Y-169232200D02*
X567108333Y-169279819D01*
X567108333Y-169279819D02*
X566870238Y-169279819D01*
X795132142Y-186279819D02*
X794655952Y-186279819D01*
X794655952Y-186279819D02*
X794655952Y-185279819D01*
X795465476Y-185756009D02*
X795798809Y-185756009D01*
X795941666Y-186279819D02*
X795465476Y-186279819D01*
X795465476Y-186279819D02*
X795465476Y-185279819D01*
X795465476Y-185279819D02*
X795941666Y-185279819D01*
X796370238Y-186279819D02*
X796370238Y-185279819D01*
X796370238Y-185279819D02*
X796608333Y-185279819D01*
X796608333Y-185279819D02*
X796751190Y-185327438D01*
X796751190Y-185327438D02*
X796846428Y-185422676D01*
X796846428Y-185422676D02*
X796894047Y-185517914D01*
X796894047Y-185517914D02*
X796941666Y-185708390D01*
X796941666Y-185708390D02*
X796941666Y-185851247D01*
X796941666Y-185851247D02*
X796894047Y-186041723D01*
X796894047Y-186041723D02*
X796846428Y-186136961D01*
X796846428Y-186136961D02*
X796751190Y-186232200D01*
X796751190Y-186232200D02*
X796608333Y-186279819D01*
X796608333Y-186279819D02*
X796370238Y-186279819D01*
X812132142Y-152279819D02*
X811655952Y-152279819D01*
X811655952Y-152279819D02*
X811655952Y-151279819D01*
X812465476Y-151756009D02*
X812798809Y-151756009D01*
X812941666Y-152279819D02*
X812465476Y-152279819D01*
X812465476Y-152279819D02*
X812465476Y-151279819D01*
X812465476Y-151279819D02*
X812941666Y-151279819D01*
X813370238Y-152279819D02*
X813370238Y-151279819D01*
X813370238Y-151279819D02*
X813608333Y-151279819D01*
X813608333Y-151279819D02*
X813751190Y-151327438D01*
X813751190Y-151327438D02*
X813846428Y-151422676D01*
X813846428Y-151422676D02*
X813894047Y-151517914D01*
X813894047Y-151517914D02*
X813941666Y-151708390D01*
X813941666Y-151708390D02*
X813941666Y-151851247D01*
X813941666Y-151851247D02*
X813894047Y-152041723D01*
X813894047Y-152041723D02*
X813846428Y-152136961D01*
X813846428Y-152136961D02*
X813751190Y-152232200D01*
X813751190Y-152232200D02*
X813608333Y-152279819D01*
X813608333Y-152279819D02*
X813370238Y-152279819D01*
X637882142Y-135279819D02*
X637405952Y-135279819D01*
X637405952Y-135279819D02*
X637405952Y-134279819D01*
X638215476Y-134756009D02*
X638548809Y-134756009D01*
X638691666Y-135279819D02*
X638215476Y-135279819D01*
X638215476Y-135279819D02*
X638215476Y-134279819D01*
X638215476Y-134279819D02*
X638691666Y-134279819D01*
X639120238Y-135279819D02*
X639120238Y-134279819D01*
X639120238Y-134279819D02*
X639358333Y-134279819D01*
X639358333Y-134279819D02*
X639501190Y-134327438D01*
X639501190Y-134327438D02*
X639596428Y-134422676D01*
X639596428Y-134422676D02*
X639644047Y-134517914D01*
X639644047Y-134517914D02*
X639691666Y-134708390D01*
X639691666Y-134708390D02*
X639691666Y-134851247D01*
X639691666Y-134851247D02*
X639644047Y-135041723D01*
X639644047Y-135041723D02*
X639596428Y-135136961D01*
X639596428Y-135136961D02*
X639501190Y-135232200D01*
X639501190Y-135232200D02*
X639358333Y-135279819D01*
X639358333Y-135279819D02*
X639120238Y-135279819D01*
X754757142Y-203279819D02*
X754280952Y-203279819D01*
X754280952Y-203279819D02*
X754280952Y-202279819D01*
X755090476Y-202756009D02*
X755423809Y-202756009D01*
X755566666Y-203279819D02*
X755090476Y-203279819D01*
X755090476Y-203279819D02*
X755090476Y-202279819D01*
X755090476Y-202279819D02*
X755566666Y-202279819D01*
X755995238Y-203279819D02*
X755995238Y-202279819D01*
X755995238Y-202279819D02*
X756233333Y-202279819D01*
X756233333Y-202279819D02*
X756376190Y-202327438D01*
X756376190Y-202327438D02*
X756471428Y-202422676D01*
X756471428Y-202422676D02*
X756519047Y-202517914D01*
X756519047Y-202517914D02*
X756566666Y-202708390D01*
X756566666Y-202708390D02*
X756566666Y-202851247D01*
X756566666Y-202851247D02*
X756519047Y-203041723D01*
X756519047Y-203041723D02*
X756471428Y-203136961D01*
X756471428Y-203136961D02*
X756376190Y-203232200D01*
X756376190Y-203232200D02*
X756233333Y-203279819D01*
X756233333Y-203279819D02*
X755995238Y-203279819D01*
X697382142Y-152279819D02*
X696905952Y-152279819D01*
X696905952Y-152279819D02*
X696905952Y-151279819D01*
X697715476Y-151756009D02*
X698048809Y-151756009D01*
X698191666Y-152279819D02*
X697715476Y-152279819D01*
X697715476Y-152279819D02*
X697715476Y-151279819D01*
X697715476Y-151279819D02*
X698191666Y-151279819D01*
X698620238Y-152279819D02*
X698620238Y-151279819D01*
X698620238Y-151279819D02*
X698858333Y-151279819D01*
X698858333Y-151279819D02*
X699001190Y-151327438D01*
X699001190Y-151327438D02*
X699096428Y-151422676D01*
X699096428Y-151422676D02*
X699144047Y-151517914D01*
X699144047Y-151517914D02*
X699191666Y-151708390D01*
X699191666Y-151708390D02*
X699191666Y-151851247D01*
X699191666Y-151851247D02*
X699144047Y-152041723D01*
X699144047Y-152041723D02*
X699096428Y-152136961D01*
X699096428Y-152136961D02*
X699001190Y-152232200D01*
X699001190Y-152232200D02*
X698858333Y-152279819D01*
X698858333Y-152279819D02*
X698620238Y-152279819D01*
X795132142Y-152279819D02*
X794655952Y-152279819D01*
X794655952Y-152279819D02*
X794655952Y-151279819D01*
X795465476Y-151756009D02*
X795798809Y-151756009D01*
X795941666Y-152279819D02*
X795465476Y-152279819D01*
X795465476Y-152279819D02*
X795465476Y-151279819D01*
X795465476Y-151279819D02*
X795941666Y-151279819D01*
X796370238Y-152279819D02*
X796370238Y-151279819D01*
X796370238Y-151279819D02*
X796608333Y-151279819D01*
X796608333Y-151279819D02*
X796751190Y-151327438D01*
X796751190Y-151327438D02*
X796846428Y-151422676D01*
X796846428Y-151422676D02*
X796894047Y-151517914D01*
X796894047Y-151517914D02*
X796941666Y-151708390D01*
X796941666Y-151708390D02*
X796941666Y-151851247D01*
X796941666Y-151851247D02*
X796894047Y-152041723D01*
X796894047Y-152041723D02*
X796846428Y-152136961D01*
X796846428Y-152136961D02*
X796751190Y-152232200D01*
X796751190Y-152232200D02*
X796608333Y-152279819D01*
X796608333Y-152279819D02*
X796370238Y-152279819D01*
X529507142Y-186279819D02*
X529030952Y-186279819D01*
X529030952Y-186279819D02*
X529030952Y-185279819D01*
X529840476Y-185756009D02*
X530173809Y-185756009D01*
X530316666Y-186279819D02*
X529840476Y-186279819D01*
X529840476Y-186279819D02*
X529840476Y-185279819D01*
X529840476Y-185279819D02*
X530316666Y-185279819D01*
X530745238Y-186279819D02*
X530745238Y-185279819D01*
X530745238Y-185279819D02*
X530983333Y-185279819D01*
X530983333Y-185279819D02*
X531126190Y-185327438D01*
X531126190Y-185327438D02*
X531221428Y-185422676D01*
X531221428Y-185422676D02*
X531269047Y-185517914D01*
X531269047Y-185517914D02*
X531316666Y-185708390D01*
X531316666Y-185708390D02*
X531316666Y-185851247D01*
X531316666Y-185851247D02*
X531269047Y-186041723D01*
X531269047Y-186041723D02*
X531221428Y-186136961D01*
X531221428Y-186136961D02*
X531126190Y-186232200D01*
X531126190Y-186232200D02*
X530983333Y-186279819D01*
X530983333Y-186279819D02*
X530745238Y-186279819D01*
X748382142Y-135279819D02*
X747905952Y-135279819D01*
X747905952Y-135279819D02*
X747905952Y-134279819D01*
X748715476Y-134756009D02*
X749048809Y-134756009D01*
X749191666Y-135279819D02*
X748715476Y-135279819D01*
X748715476Y-135279819D02*
X748715476Y-134279819D01*
X748715476Y-134279819D02*
X749191666Y-134279819D01*
X749620238Y-135279819D02*
X749620238Y-134279819D01*
X749620238Y-134279819D02*
X749858333Y-134279819D01*
X749858333Y-134279819D02*
X750001190Y-134327438D01*
X750001190Y-134327438D02*
X750096428Y-134422676D01*
X750096428Y-134422676D02*
X750144047Y-134517914D01*
X750144047Y-134517914D02*
X750191666Y-134708390D01*
X750191666Y-134708390D02*
X750191666Y-134851247D01*
X750191666Y-134851247D02*
X750144047Y-135041723D01*
X750144047Y-135041723D02*
X750096428Y-135136961D01*
X750096428Y-135136961D02*
X750001190Y-135232200D01*
X750001190Y-135232200D02*
X749858333Y-135279819D01*
X749858333Y-135279819D02*
X749620238Y-135279819D01*
X795132142Y-203279819D02*
X794655952Y-203279819D01*
X794655952Y-203279819D02*
X794655952Y-202279819D01*
X795465476Y-202756009D02*
X795798809Y-202756009D01*
X795941666Y-203279819D02*
X795465476Y-203279819D01*
X795465476Y-203279819D02*
X795465476Y-202279819D01*
X795465476Y-202279819D02*
X795941666Y-202279819D01*
X796370238Y-203279819D02*
X796370238Y-202279819D01*
X796370238Y-202279819D02*
X796608333Y-202279819D01*
X796608333Y-202279819D02*
X796751190Y-202327438D01*
X796751190Y-202327438D02*
X796846428Y-202422676D01*
X796846428Y-202422676D02*
X796894047Y-202517914D01*
X796894047Y-202517914D02*
X796941666Y-202708390D01*
X796941666Y-202708390D02*
X796941666Y-202851247D01*
X796941666Y-202851247D02*
X796894047Y-203041723D01*
X796894047Y-203041723D02*
X796846428Y-203136961D01*
X796846428Y-203136961D02*
X796751190Y-203232200D01*
X796751190Y-203232200D02*
X796608333Y-203279819D01*
X796608333Y-203279819D02*
X796370238Y-203279819D01*
X535882142Y-135279819D02*
X535405952Y-135279819D01*
X535405952Y-135279819D02*
X535405952Y-134279819D01*
X536215476Y-134756009D02*
X536548809Y-134756009D01*
X536691666Y-135279819D02*
X536215476Y-135279819D01*
X536215476Y-135279819D02*
X536215476Y-134279819D01*
X536215476Y-134279819D02*
X536691666Y-134279819D01*
X537120238Y-135279819D02*
X537120238Y-134279819D01*
X537120238Y-134279819D02*
X537358333Y-134279819D01*
X537358333Y-134279819D02*
X537501190Y-134327438D01*
X537501190Y-134327438D02*
X537596428Y-134422676D01*
X537596428Y-134422676D02*
X537644047Y-134517914D01*
X537644047Y-134517914D02*
X537691666Y-134708390D01*
X537691666Y-134708390D02*
X537691666Y-134851247D01*
X537691666Y-134851247D02*
X537644047Y-135041723D01*
X537644047Y-135041723D02*
X537596428Y-135136961D01*
X537596428Y-135136961D02*
X537501190Y-135232200D01*
X537501190Y-135232200D02*
X537358333Y-135279819D01*
X537358333Y-135279819D02*
X537120238Y-135279819D01*
X593257142Y-203279819D02*
X592780952Y-203279819D01*
X592780952Y-203279819D02*
X592780952Y-202279819D01*
X593590476Y-202756009D02*
X593923809Y-202756009D01*
X594066666Y-203279819D02*
X593590476Y-203279819D01*
X593590476Y-203279819D02*
X593590476Y-202279819D01*
X593590476Y-202279819D02*
X594066666Y-202279819D01*
X594495238Y-203279819D02*
X594495238Y-202279819D01*
X594495238Y-202279819D02*
X594733333Y-202279819D01*
X594733333Y-202279819D02*
X594876190Y-202327438D01*
X594876190Y-202327438D02*
X594971428Y-202422676D01*
X594971428Y-202422676D02*
X595019047Y-202517914D01*
X595019047Y-202517914D02*
X595066666Y-202708390D01*
X595066666Y-202708390D02*
X595066666Y-202851247D01*
X595066666Y-202851247D02*
X595019047Y-203041723D01*
X595019047Y-203041723D02*
X594971428Y-203136961D01*
X594971428Y-203136961D02*
X594876190Y-203232200D01*
X594876190Y-203232200D02*
X594733333Y-203279819D01*
X594733333Y-203279819D02*
X594495238Y-203279819D01*
X586882142Y-135279819D02*
X586405952Y-135279819D01*
X586405952Y-135279819D02*
X586405952Y-134279819D01*
X587215476Y-134756009D02*
X587548809Y-134756009D01*
X587691666Y-135279819D02*
X587215476Y-135279819D01*
X587215476Y-135279819D02*
X587215476Y-134279819D01*
X587215476Y-134279819D02*
X587691666Y-134279819D01*
X588120238Y-135279819D02*
X588120238Y-134279819D01*
X588120238Y-134279819D02*
X588358333Y-134279819D01*
X588358333Y-134279819D02*
X588501190Y-134327438D01*
X588501190Y-134327438D02*
X588596428Y-134422676D01*
X588596428Y-134422676D02*
X588644047Y-134517914D01*
X588644047Y-134517914D02*
X588691666Y-134708390D01*
X588691666Y-134708390D02*
X588691666Y-134851247D01*
X588691666Y-134851247D02*
X588644047Y-135041723D01*
X588644047Y-135041723D02*
X588596428Y-135136961D01*
X588596428Y-135136961D02*
X588501190Y-135232200D01*
X588501190Y-135232200D02*
X588358333Y-135279819D01*
X588358333Y-135279819D02*
X588120238Y-135279819D01*
X731382142Y-152279819D02*
X730905952Y-152279819D01*
X730905952Y-152279819D02*
X730905952Y-151279819D01*
X731715476Y-151756009D02*
X732048809Y-151756009D01*
X732191666Y-152279819D02*
X731715476Y-152279819D01*
X731715476Y-152279819D02*
X731715476Y-151279819D01*
X731715476Y-151279819D02*
X732191666Y-151279819D01*
X732620238Y-152279819D02*
X732620238Y-151279819D01*
X732620238Y-151279819D02*
X732858333Y-151279819D01*
X732858333Y-151279819D02*
X733001190Y-151327438D01*
X733001190Y-151327438D02*
X733096428Y-151422676D01*
X733096428Y-151422676D02*
X733144047Y-151517914D01*
X733144047Y-151517914D02*
X733191666Y-151708390D01*
X733191666Y-151708390D02*
X733191666Y-151851247D01*
X733191666Y-151851247D02*
X733144047Y-152041723D01*
X733144047Y-152041723D02*
X733096428Y-152136961D01*
X733096428Y-152136961D02*
X733001190Y-152232200D01*
X733001190Y-152232200D02*
X732858333Y-152279819D01*
X732858333Y-152279819D02*
X732620238Y-152279819D01*
X722882142Y-135279819D02*
X722405952Y-135279819D01*
X722405952Y-135279819D02*
X722405952Y-134279819D01*
X723215476Y-134756009D02*
X723548809Y-134756009D01*
X723691666Y-135279819D02*
X723215476Y-135279819D01*
X723215476Y-135279819D02*
X723215476Y-134279819D01*
X723215476Y-134279819D02*
X723691666Y-134279819D01*
X724120238Y-135279819D02*
X724120238Y-134279819D01*
X724120238Y-134279819D02*
X724358333Y-134279819D01*
X724358333Y-134279819D02*
X724501190Y-134327438D01*
X724501190Y-134327438D02*
X724596428Y-134422676D01*
X724596428Y-134422676D02*
X724644047Y-134517914D01*
X724644047Y-134517914D02*
X724691666Y-134708390D01*
X724691666Y-134708390D02*
X724691666Y-134851247D01*
X724691666Y-134851247D02*
X724644047Y-135041723D01*
X724644047Y-135041723D02*
X724596428Y-135136961D01*
X724596428Y-135136961D02*
X724501190Y-135232200D01*
X724501190Y-135232200D02*
X724358333Y-135279819D01*
X724358333Y-135279819D02*
X724120238Y-135279819D01*
X656852380Y-214432200D02*
X656995237Y-214479819D01*
X656995237Y-214479819D02*
X657233332Y-214479819D01*
X657233332Y-214479819D02*
X657328570Y-214432200D01*
X657328570Y-214432200D02*
X657376189Y-214384580D01*
X657376189Y-214384580D02*
X657423808Y-214289342D01*
X657423808Y-214289342D02*
X657423808Y-214194104D01*
X657423808Y-214194104D02*
X657376189Y-214098866D01*
X657376189Y-214098866D02*
X657328570Y-214051247D01*
X657328570Y-214051247D02*
X657233332Y-214003628D01*
X657233332Y-214003628D02*
X657042856Y-213956009D01*
X657042856Y-213956009D02*
X656947618Y-213908390D01*
X656947618Y-213908390D02*
X656899999Y-213860771D01*
X656899999Y-213860771D02*
X656852380Y-213765533D01*
X656852380Y-213765533D02*
X656852380Y-213670295D01*
X656852380Y-213670295D02*
X656899999Y-213575057D01*
X656899999Y-213575057D02*
X656947618Y-213527438D01*
X656947618Y-213527438D02*
X657042856Y-213479819D01*
X657042856Y-213479819D02*
X657280951Y-213479819D01*
X657280951Y-213479819D02*
X657423808Y-213527438D01*
X657709523Y-213479819D02*
X658280951Y-213479819D01*
X657995237Y-214479819D02*
X657995237Y-213479819D01*
X658566666Y-214194104D02*
X659042856Y-214194104D01*
X658471428Y-214479819D02*
X658804761Y-213479819D01*
X658804761Y-213479819D02*
X659138094Y-214479819D01*
X659804761Y-213956009D02*
X659947618Y-214003628D01*
X659947618Y-214003628D02*
X659995237Y-214051247D01*
X659995237Y-214051247D02*
X660042856Y-214146485D01*
X660042856Y-214146485D02*
X660042856Y-214289342D01*
X660042856Y-214289342D02*
X659995237Y-214384580D01*
X659995237Y-214384580D02*
X659947618Y-214432200D01*
X659947618Y-214432200D02*
X659852380Y-214479819D01*
X659852380Y-214479819D02*
X659471428Y-214479819D01*
X659471428Y-214479819D02*
X659471428Y-213479819D01*
X659471428Y-213479819D02*
X659804761Y-213479819D01*
X659804761Y-213479819D02*
X659899999Y-213527438D01*
X659899999Y-213527438D02*
X659947618Y-213575057D01*
X659947618Y-213575057D02*
X659995237Y-213670295D01*
X659995237Y-213670295D02*
X659995237Y-213765533D01*
X659995237Y-213765533D02*
X659947618Y-213860771D01*
X659947618Y-213860771D02*
X659899999Y-213908390D01*
X659899999Y-213908390D02*
X659804761Y-213956009D01*
X659804761Y-213956009D02*
X659471428Y-213956009D01*
X660233333Y-214575057D02*
X660995237Y-214575057D01*
X661661904Y-214432200D02*
X661566666Y-214479819D01*
X661566666Y-214479819D02*
X661376190Y-214479819D01*
X661376190Y-214479819D02*
X661280952Y-214432200D01*
X661280952Y-214432200D02*
X661233333Y-214384580D01*
X661233333Y-214384580D02*
X661185714Y-214289342D01*
X661185714Y-214289342D02*
X661185714Y-214003628D01*
X661185714Y-214003628D02*
X661233333Y-213908390D01*
X661233333Y-213908390D02*
X661280952Y-213860771D01*
X661280952Y-213860771D02*
X661376190Y-213813152D01*
X661376190Y-213813152D02*
X661566666Y-213813152D01*
X661566666Y-213813152D02*
X661661904Y-213860771D01*
X662090476Y-214479819D02*
X662090476Y-213479819D01*
X662519047Y-214479819D02*
X662519047Y-213956009D01*
X662519047Y-213956009D02*
X662471428Y-213860771D01*
X662471428Y-213860771D02*
X662376190Y-213813152D01*
X662376190Y-213813152D02*
X662233333Y-213813152D01*
X662233333Y-213813152D02*
X662138095Y-213860771D01*
X662138095Y-213860771D02*
X662090476Y-213908390D01*
X663138095Y-214479819D02*
X663042857Y-214432200D01*
X663042857Y-214432200D02*
X662995238Y-214384580D01*
X662995238Y-214384580D02*
X662947619Y-214289342D01*
X662947619Y-214289342D02*
X662947619Y-214003628D01*
X662947619Y-214003628D02*
X662995238Y-213908390D01*
X662995238Y-213908390D02*
X663042857Y-213860771D01*
X663042857Y-213860771D02*
X663138095Y-213813152D01*
X663138095Y-213813152D02*
X663280952Y-213813152D01*
X663280952Y-213813152D02*
X663376190Y-213860771D01*
X663376190Y-213860771D02*
X663423809Y-213908390D01*
X663423809Y-213908390D02*
X663471428Y-214003628D01*
X663471428Y-214003628D02*
X663471428Y-214289342D01*
X663471428Y-214289342D02*
X663423809Y-214384580D01*
X663423809Y-214384580D02*
X663376190Y-214432200D01*
X663376190Y-214432200D02*
X663280952Y-214479819D01*
X663280952Y-214479819D02*
X663138095Y-214479819D01*
X664328571Y-214432200D02*
X664233333Y-214479819D01*
X664233333Y-214479819D02*
X664042857Y-214479819D01*
X664042857Y-214479819D02*
X663947619Y-214432200D01*
X663947619Y-214432200D02*
X663900000Y-214384580D01*
X663900000Y-214384580D02*
X663852381Y-214289342D01*
X663852381Y-214289342D02*
X663852381Y-214003628D01*
X663852381Y-214003628D02*
X663900000Y-213908390D01*
X663900000Y-213908390D02*
X663947619Y-213860771D01*
X663947619Y-213860771D02*
X664042857Y-213813152D01*
X664042857Y-213813152D02*
X664233333Y-213813152D01*
X664233333Y-213813152D02*
X664328571Y-213860771D01*
X664519048Y-214575057D02*
X665280952Y-214575057D01*
X665471429Y-213575057D02*
X665519048Y-213527438D01*
X665519048Y-213527438D02*
X665614286Y-213479819D01*
X665614286Y-213479819D02*
X665852381Y-213479819D01*
X665852381Y-213479819D02*
X665947619Y-213527438D01*
X665947619Y-213527438D02*
X665995238Y-213575057D01*
X665995238Y-213575057D02*
X666042857Y-213670295D01*
X666042857Y-213670295D02*
X666042857Y-213765533D01*
X666042857Y-213765533D02*
X665995238Y-213908390D01*
X665995238Y-213908390D02*
X665423810Y-214479819D01*
X665423810Y-214479819D02*
X666042857Y-214479819D01*
X666900000Y-213813152D02*
X666900000Y-214479819D01*
X666471429Y-213813152D02*
X666471429Y-214336961D01*
X666471429Y-214336961D02*
X666519048Y-214432200D01*
X666519048Y-214432200D02*
X666614286Y-214479819D01*
X666614286Y-214479819D02*
X666757143Y-214479819D01*
X666757143Y-214479819D02*
X666852381Y-214432200D01*
X666852381Y-214432200D02*
X666900000Y-214384580D01*
X654280951Y-215456009D02*
X654614284Y-215456009D01*
X654757141Y-215979819D02*
X654280951Y-215979819D01*
X654280951Y-215979819D02*
X654280951Y-214979819D01*
X654280951Y-214979819D02*
X654757141Y-214979819D01*
X655614284Y-215932200D02*
X655519046Y-215979819D01*
X655519046Y-215979819D02*
X655328570Y-215979819D01*
X655328570Y-215979819D02*
X655233332Y-215932200D01*
X655233332Y-215932200D02*
X655185713Y-215884580D01*
X655185713Y-215884580D02*
X655138094Y-215789342D01*
X655138094Y-215789342D02*
X655138094Y-215503628D01*
X655138094Y-215503628D02*
X655185713Y-215408390D01*
X655185713Y-215408390D02*
X655233332Y-215360771D01*
X655233332Y-215360771D02*
X655328570Y-215313152D01*
X655328570Y-215313152D02*
X655519046Y-215313152D01*
X655519046Y-215313152D02*
X655614284Y-215360771D01*
X656185713Y-215979819D02*
X656090475Y-215932200D01*
X656090475Y-215932200D02*
X656042856Y-215884580D01*
X656042856Y-215884580D02*
X655995237Y-215789342D01*
X655995237Y-215789342D02*
X655995237Y-215503628D01*
X655995237Y-215503628D02*
X656042856Y-215408390D01*
X656042856Y-215408390D02*
X656090475Y-215360771D01*
X656090475Y-215360771D02*
X656185713Y-215313152D01*
X656185713Y-215313152D02*
X656328570Y-215313152D01*
X656328570Y-215313152D02*
X656423808Y-215360771D01*
X656423808Y-215360771D02*
X656471427Y-215408390D01*
X656471427Y-215408390D02*
X656519046Y-215503628D01*
X656519046Y-215503628D02*
X656519046Y-215789342D01*
X656519046Y-215789342D02*
X656471427Y-215884580D01*
X656471427Y-215884580D02*
X656423808Y-215932200D01*
X656423808Y-215932200D02*
X656328570Y-215979819D01*
X656328570Y-215979819D02*
X656185713Y-215979819D01*
X656899999Y-215075057D02*
X656947618Y-215027438D01*
X656947618Y-215027438D02*
X657042856Y-214979819D01*
X657042856Y-214979819D02*
X657280951Y-214979819D01*
X657280951Y-214979819D02*
X657376189Y-215027438D01*
X657376189Y-215027438D02*
X657423808Y-215075057D01*
X657423808Y-215075057D02*
X657471427Y-215170295D01*
X657471427Y-215170295D02*
X657471427Y-215265533D01*
X657471427Y-215265533D02*
X657423808Y-215408390D01*
X657423808Y-215408390D02*
X656852380Y-215979819D01*
X656852380Y-215979819D02*
X657471427Y-215979819D01*
X657899999Y-215884580D02*
X657947618Y-215932200D01*
X657947618Y-215932200D02*
X657899999Y-215979819D01*
X657899999Y-215979819D02*
X657852380Y-215932200D01*
X657852380Y-215932200D02*
X657899999Y-215884580D01*
X657899999Y-215884580D02*
X657899999Y-215979819D01*
X658376189Y-214979819D02*
X658376189Y-215789342D01*
X658376189Y-215789342D02*
X658423808Y-215884580D01*
X658423808Y-215884580D02*
X658471427Y-215932200D01*
X658471427Y-215932200D02*
X658566665Y-215979819D01*
X658566665Y-215979819D02*
X658757141Y-215979819D01*
X658757141Y-215979819D02*
X658852379Y-215932200D01*
X658852379Y-215932200D02*
X658899998Y-215884580D01*
X658899998Y-215884580D02*
X658947617Y-215789342D01*
X658947617Y-215789342D02*
X658947617Y-214979819D01*
X659376189Y-215932200D02*
X659471427Y-215979819D01*
X659471427Y-215979819D02*
X659661903Y-215979819D01*
X659661903Y-215979819D02*
X659757141Y-215932200D01*
X659757141Y-215932200D02*
X659804760Y-215836961D01*
X659804760Y-215836961D02*
X659804760Y-215789342D01*
X659804760Y-215789342D02*
X659757141Y-215694104D01*
X659757141Y-215694104D02*
X659661903Y-215646485D01*
X659661903Y-215646485D02*
X659519046Y-215646485D01*
X659519046Y-215646485D02*
X659423808Y-215598866D01*
X659423808Y-215598866D02*
X659376189Y-215503628D01*
X659376189Y-215503628D02*
X659376189Y-215456009D01*
X659376189Y-215456009D02*
X659423808Y-215360771D01*
X659423808Y-215360771D02*
X659519046Y-215313152D01*
X659519046Y-215313152D02*
X659661903Y-215313152D01*
X659661903Y-215313152D02*
X659757141Y-215360771D01*
X660614284Y-215932200D02*
X660519046Y-215979819D01*
X660519046Y-215979819D02*
X660328570Y-215979819D01*
X660328570Y-215979819D02*
X660233332Y-215932200D01*
X660233332Y-215932200D02*
X660185713Y-215836961D01*
X660185713Y-215836961D02*
X660185713Y-215456009D01*
X660185713Y-215456009D02*
X660233332Y-215360771D01*
X660233332Y-215360771D02*
X660328570Y-215313152D01*
X660328570Y-215313152D02*
X660519046Y-215313152D01*
X660519046Y-215313152D02*
X660614284Y-215360771D01*
X660614284Y-215360771D02*
X660661903Y-215456009D01*
X660661903Y-215456009D02*
X660661903Y-215551247D01*
X660661903Y-215551247D02*
X660185713Y-215646485D01*
X661090475Y-215884580D02*
X661138094Y-215932200D01*
X661138094Y-215932200D02*
X661090475Y-215979819D01*
X661090475Y-215979819D02*
X661042856Y-215932200D01*
X661042856Y-215932200D02*
X661090475Y-215884580D01*
X661090475Y-215884580D02*
X661090475Y-215979819D01*
X661090475Y-215360771D02*
X661138094Y-215408390D01*
X661138094Y-215408390D02*
X661090475Y-215456009D01*
X661090475Y-215456009D02*
X661042856Y-215408390D01*
X661042856Y-215408390D02*
X661090475Y-215360771D01*
X661090475Y-215360771D02*
X661090475Y-215456009D01*
X662328570Y-215313152D02*
X662328570Y-216313152D01*
X662328570Y-215360771D02*
X662423808Y-215313152D01*
X662423808Y-215313152D02*
X662614284Y-215313152D01*
X662614284Y-215313152D02*
X662709522Y-215360771D01*
X662709522Y-215360771D02*
X662757141Y-215408390D01*
X662757141Y-215408390D02*
X662804760Y-215503628D01*
X662804760Y-215503628D02*
X662804760Y-215789342D01*
X662804760Y-215789342D02*
X662757141Y-215884580D01*
X662757141Y-215884580D02*
X662709522Y-215932200D01*
X662709522Y-215932200D02*
X662614284Y-215979819D01*
X662614284Y-215979819D02*
X662423808Y-215979819D01*
X662423808Y-215979819D02*
X662328570Y-215932200D01*
X663376189Y-215979819D02*
X663280951Y-215932200D01*
X663280951Y-215932200D02*
X663233332Y-215836961D01*
X663233332Y-215836961D02*
X663233332Y-214979819D01*
X664185713Y-215979819D02*
X664185713Y-215456009D01*
X664185713Y-215456009D02*
X664138094Y-215360771D01*
X664138094Y-215360771D02*
X664042856Y-215313152D01*
X664042856Y-215313152D02*
X663852380Y-215313152D01*
X663852380Y-215313152D02*
X663757142Y-215360771D01*
X664185713Y-215932200D02*
X664090475Y-215979819D01*
X664090475Y-215979819D02*
X663852380Y-215979819D01*
X663852380Y-215979819D02*
X663757142Y-215932200D01*
X663757142Y-215932200D02*
X663709523Y-215836961D01*
X663709523Y-215836961D02*
X663709523Y-215741723D01*
X663709523Y-215741723D02*
X663757142Y-215646485D01*
X663757142Y-215646485D02*
X663852380Y-215598866D01*
X663852380Y-215598866D02*
X664090475Y-215598866D01*
X664090475Y-215598866D02*
X664185713Y-215551247D01*
X664519047Y-215313152D02*
X664899999Y-215313152D01*
X664661904Y-214979819D02*
X664661904Y-215836961D01*
X664661904Y-215836961D02*
X664709523Y-215932200D01*
X664709523Y-215932200D02*
X664804761Y-215979819D01*
X664804761Y-215979819D02*
X664899999Y-215979819D01*
X665614285Y-215932200D02*
X665519047Y-215979819D01*
X665519047Y-215979819D02*
X665328571Y-215979819D01*
X665328571Y-215979819D02*
X665233333Y-215932200D01*
X665233333Y-215932200D02*
X665185714Y-215836961D01*
X665185714Y-215836961D02*
X665185714Y-215456009D01*
X665185714Y-215456009D02*
X665233333Y-215360771D01*
X665233333Y-215360771D02*
X665328571Y-215313152D01*
X665328571Y-215313152D02*
X665519047Y-215313152D01*
X665519047Y-215313152D02*
X665614285Y-215360771D01*
X665614285Y-215360771D02*
X665661904Y-215456009D01*
X665661904Y-215456009D02*
X665661904Y-215551247D01*
X665661904Y-215551247D02*
X665185714Y-215646485D01*
X667280952Y-215932200D02*
X667185714Y-215979819D01*
X667185714Y-215979819D02*
X666995238Y-215979819D01*
X666995238Y-215979819D02*
X666900000Y-215932200D01*
X666900000Y-215932200D02*
X666852381Y-215884580D01*
X666852381Y-215884580D02*
X666804762Y-215789342D01*
X666804762Y-215789342D02*
X666804762Y-215503628D01*
X666804762Y-215503628D02*
X666852381Y-215408390D01*
X666852381Y-215408390D02*
X666900000Y-215360771D01*
X666900000Y-215360771D02*
X666995238Y-215313152D01*
X666995238Y-215313152D02*
X667185714Y-215313152D01*
X667185714Y-215313152D02*
X667280952Y-215360771D01*
X668138095Y-215313152D02*
X668138095Y-215979819D01*
X667709524Y-215313152D02*
X667709524Y-215836961D01*
X667709524Y-215836961D02*
X667757143Y-215932200D01*
X667757143Y-215932200D02*
X667852381Y-215979819D01*
X667852381Y-215979819D02*
X667995238Y-215979819D01*
X667995238Y-215979819D02*
X668090476Y-215932200D01*
X668090476Y-215932200D02*
X668138095Y-215884580D01*
X668471429Y-215313152D02*
X668852381Y-215313152D01*
X668614286Y-214979819D02*
X668614286Y-215836961D01*
X668614286Y-215836961D02*
X668661905Y-215932200D01*
X668661905Y-215932200D02*
X668757143Y-215979819D01*
X668757143Y-215979819D02*
X668852381Y-215979819D01*
X669138096Y-215932200D02*
X669233334Y-215979819D01*
X669233334Y-215979819D02*
X669423810Y-215979819D01*
X669423810Y-215979819D02*
X669519048Y-215932200D01*
X669519048Y-215932200D02*
X669566667Y-215836961D01*
X669566667Y-215836961D02*
X669566667Y-215789342D01*
X669566667Y-215789342D02*
X669519048Y-215694104D01*
X669519048Y-215694104D02*
X669423810Y-215646485D01*
X669423810Y-215646485D02*
X669280953Y-215646485D01*
X669280953Y-215646485D02*
X669185715Y-215598866D01*
X669185715Y-215598866D02*
X669138096Y-215503628D01*
X669138096Y-215503628D02*
X669138096Y-215456009D01*
X669138096Y-215456009D02*
X669185715Y-215360771D01*
X669185715Y-215360771D02*
X669280953Y-215313152D01*
X669280953Y-215313152D02*
X669423810Y-215313152D01*
X669423810Y-215313152D02*
X669519048Y-215360771D01*
X582632142Y-169279819D02*
X582155952Y-169279819D01*
X582155952Y-169279819D02*
X582155952Y-168279819D01*
X582965476Y-168756009D02*
X583298809Y-168756009D01*
X583441666Y-169279819D02*
X582965476Y-169279819D01*
X582965476Y-169279819D02*
X582965476Y-168279819D01*
X582965476Y-168279819D02*
X583441666Y-168279819D01*
X583870238Y-169279819D02*
X583870238Y-168279819D01*
X583870238Y-168279819D02*
X584108333Y-168279819D01*
X584108333Y-168279819D02*
X584251190Y-168327438D01*
X584251190Y-168327438D02*
X584346428Y-168422676D01*
X584346428Y-168422676D02*
X584394047Y-168517914D01*
X584394047Y-168517914D02*
X584441666Y-168708390D01*
X584441666Y-168708390D02*
X584441666Y-168851247D01*
X584441666Y-168851247D02*
X584394047Y-169041723D01*
X584394047Y-169041723D02*
X584346428Y-169136961D01*
X584346428Y-169136961D02*
X584251190Y-169232200D01*
X584251190Y-169232200D02*
X584108333Y-169279819D01*
X584108333Y-169279819D02*
X583870238Y-169279819D01*
X661257142Y-203279819D02*
X660780952Y-203279819D01*
X660780952Y-203279819D02*
X660780952Y-202279819D01*
X661590476Y-202756009D02*
X661923809Y-202756009D01*
X662066666Y-203279819D02*
X661590476Y-203279819D01*
X661590476Y-203279819D02*
X661590476Y-202279819D01*
X661590476Y-202279819D02*
X662066666Y-202279819D01*
X662495238Y-203279819D02*
X662495238Y-202279819D01*
X662495238Y-202279819D02*
X662733333Y-202279819D01*
X662733333Y-202279819D02*
X662876190Y-202327438D01*
X662876190Y-202327438D02*
X662971428Y-202422676D01*
X662971428Y-202422676D02*
X663019047Y-202517914D01*
X663019047Y-202517914D02*
X663066666Y-202708390D01*
X663066666Y-202708390D02*
X663066666Y-202851247D01*
X663066666Y-202851247D02*
X663019047Y-203041723D01*
X663019047Y-203041723D02*
X662971428Y-203136961D01*
X662971428Y-203136961D02*
X662876190Y-203232200D01*
X662876190Y-203232200D02*
X662733333Y-203279819D01*
X662733333Y-203279819D02*
X662495238Y-203279819D01*
X741852380Y-180432200D02*
X741995237Y-180479819D01*
X741995237Y-180479819D02*
X742233332Y-180479819D01*
X742233332Y-180479819D02*
X742328570Y-180432200D01*
X742328570Y-180432200D02*
X742376189Y-180384580D01*
X742376189Y-180384580D02*
X742423808Y-180289342D01*
X742423808Y-180289342D02*
X742423808Y-180194104D01*
X742423808Y-180194104D02*
X742376189Y-180098866D01*
X742376189Y-180098866D02*
X742328570Y-180051247D01*
X742328570Y-180051247D02*
X742233332Y-180003628D01*
X742233332Y-180003628D02*
X742042856Y-179956009D01*
X742042856Y-179956009D02*
X741947618Y-179908390D01*
X741947618Y-179908390D02*
X741899999Y-179860771D01*
X741899999Y-179860771D02*
X741852380Y-179765533D01*
X741852380Y-179765533D02*
X741852380Y-179670295D01*
X741852380Y-179670295D02*
X741899999Y-179575057D01*
X741899999Y-179575057D02*
X741947618Y-179527438D01*
X741947618Y-179527438D02*
X742042856Y-179479819D01*
X742042856Y-179479819D02*
X742280951Y-179479819D01*
X742280951Y-179479819D02*
X742423808Y-179527438D01*
X742709523Y-179479819D02*
X743280951Y-179479819D01*
X742995237Y-180479819D02*
X742995237Y-179479819D01*
X743566666Y-180194104D02*
X744042856Y-180194104D01*
X743471428Y-180479819D02*
X743804761Y-179479819D01*
X743804761Y-179479819D02*
X744138094Y-180479819D01*
X744804761Y-179956009D02*
X744947618Y-180003628D01*
X744947618Y-180003628D02*
X744995237Y-180051247D01*
X744995237Y-180051247D02*
X745042856Y-180146485D01*
X745042856Y-180146485D02*
X745042856Y-180289342D01*
X745042856Y-180289342D02*
X744995237Y-180384580D01*
X744995237Y-180384580D02*
X744947618Y-180432200D01*
X744947618Y-180432200D02*
X744852380Y-180479819D01*
X744852380Y-180479819D02*
X744471428Y-180479819D01*
X744471428Y-180479819D02*
X744471428Y-179479819D01*
X744471428Y-179479819D02*
X744804761Y-179479819D01*
X744804761Y-179479819D02*
X744899999Y-179527438D01*
X744899999Y-179527438D02*
X744947618Y-179575057D01*
X744947618Y-179575057D02*
X744995237Y-179670295D01*
X744995237Y-179670295D02*
X744995237Y-179765533D01*
X744995237Y-179765533D02*
X744947618Y-179860771D01*
X744947618Y-179860771D02*
X744899999Y-179908390D01*
X744899999Y-179908390D02*
X744804761Y-179956009D01*
X744804761Y-179956009D02*
X744471428Y-179956009D01*
X745233333Y-180575057D02*
X745995237Y-180575057D01*
X746661904Y-180432200D02*
X746566666Y-180479819D01*
X746566666Y-180479819D02*
X746376190Y-180479819D01*
X746376190Y-180479819D02*
X746280952Y-180432200D01*
X746280952Y-180432200D02*
X746233333Y-180384580D01*
X746233333Y-180384580D02*
X746185714Y-180289342D01*
X746185714Y-180289342D02*
X746185714Y-180003628D01*
X746185714Y-180003628D02*
X746233333Y-179908390D01*
X746233333Y-179908390D02*
X746280952Y-179860771D01*
X746280952Y-179860771D02*
X746376190Y-179813152D01*
X746376190Y-179813152D02*
X746566666Y-179813152D01*
X746566666Y-179813152D02*
X746661904Y-179860771D01*
X747090476Y-180479819D02*
X747090476Y-179479819D01*
X747519047Y-180479819D02*
X747519047Y-179956009D01*
X747519047Y-179956009D02*
X747471428Y-179860771D01*
X747471428Y-179860771D02*
X747376190Y-179813152D01*
X747376190Y-179813152D02*
X747233333Y-179813152D01*
X747233333Y-179813152D02*
X747138095Y-179860771D01*
X747138095Y-179860771D02*
X747090476Y-179908390D01*
X748138095Y-180479819D02*
X748042857Y-180432200D01*
X748042857Y-180432200D02*
X747995238Y-180384580D01*
X747995238Y-180384580D02*
X747947619Y-180289342D01*
X747947619Y-180289342D02*
X747947619Y-180003628D01*
X747947619Y-180003628D02*
X747995238Y-179908390D01*
X747995238Y-179908390D02*
X748042857Y-179860771D01*
X748042857Y-179860771D02*
X748138095Y-179813152D01*
X748138095Y-179813152D02*
X748280952Y-179813152D01*
X748280952Y-179813152D02*
X748376190Y-179860771D01*
X748376190Y-179860771D02*
X748423809Y-179908390D01*
X748423809Y-179908390D02*
X748471428Y-180003628D01*
X748471428Y-180003628D02*
X748471428Y-180289342D01*
X748471428Y-180289342D02*
X748423809Y-180384580D01*
X748423809Y-180384580D02*
X748376190Y-180432200D01*
X748376190Y-180432200D02*
X748280952Y-180479819D01*
X748280952Y-180479819D02*
X748138095Y-180479819D01*
X749328571Y-180432200D02*
X749233333Y-180479819D01*
X749233333Y-180479819D02*
X749042857Y-180479819D01*
X749042857Y-180479819D02*
X748947619Y-180432200D01*
X748947619Y-180432200D02*
X748900000Y-180384580D01*
X748900000Y-180384580D02*
X748852381Y-180289342D01*
X748852381Y-180289342D02*
X748852381Y-180003628D01*
X748852381Y-180003628D02*
X748900000Y-179908390D01*
X748900000Y-179908390D02*
X748947619Y-179860771D01*
X748947619Y-179860771D02*
X749042857Y-179813152D01*
X749042857Y-179813152D02*
X749233333Y-179813152D01*
X749233333Y-179813152D02*
X749328571Y-179860771D01*
X749519048Y-180575057D02*
X750280952Y-180575057D01*
X750471429Y-179575057D02*
X750519048Y-179527438D01*
X750519048Y-179527438D02*
X750614286Y-179479819D01*
X750614286Y-179479819D02*
X750852381Y-179479819D01*
X750852381Y-179479819D02*
X750947619Y-179527438D01*
X750947619Y-179527438D02*
X750995238Y-179575057D01*
X750995238Y-179575057D02*
X751042857Y-179670295D01*
X751042857Y-179670295D02*
X751042857Y-179765533D01*
X751042857Y-179765533D02*
X750995238Y-179908390D01*
X750995238Y-179908390D02*
X750423810Y-180479819D01*
X750423810Y-180479819D02*
X751042857Y-180479819D01*
X751900000Y-179813152D02*
X751900000Y-180479819D01*
X751471429Y-179813152D02*
X751471429Y-180336961D01*
X751471429Y-180336961D02*
X751519048Y-180432200D01*
X751519048Y-180432200D02*
X751614286Y-180479819D01*
X751614286Y-180479819D02*
X751757143Y-180479819D01*
X751757143Y-180479819D02*
X751852381Y-180432200D01*
X751852381Y-180432200D02*
X751900000Y-180384580D01*
X739280951Y-181456009D02*
X739614284Y-181456009D01*
X739757141Y-181979819D02*
X739280951Y-181979819D01*
X739280951Y-181979819D02*
X739280951Y-180979819D01*
X739280951Y-180979819D02*
X739757141Y-180979819D01*
X740614284Y-181932200D02*
X740519046Y-181979819D01*
X740519046Y-181979819D02*
X740328570Y-181979819D01*
X740328570Y-181979819D02*
X740233332Y-181932200D01*
X740233332Y-181932200D02*
X740185713Y-181884580D01*
X740185713Y-181884580D02*
X740138094Y-181789342D01*
X740138094Y-181789342D02*
X740138094Y-181503628D01*
X740138094Y-181503628D02*
X740185713Y-181408390D01*
X740185713Y-181408390D02*
X740233332Y-181360771D01*
X740233332Y-181360771D02*
X740328570Y-181313152D01*
X740328570Y-181313152D02*
X740519046Y-181313152D01*
X740519046Y-181313152D02*
X740614284Y-181360771D01*
X741185713Y-181979819D02*
X741090475Y-181932200D01*
X741090475Y-181932200D02*
X741042856Y-181884580D01*
X741042856Y-181884580D02*
X740995237Y-181789342D01*
X740995237Y-181789342D02*
X740995237Y-181503628D01*
X740995237Y-181503628D02*
X741042856Y-181408390D01*
X741042856Y-181408390D02*
X741090475Y-181360771D01*
X741090475Y-181360771D02*
X741185713Y-181313152D01*
X741185713Y-181313152D02*
X741328570Y-181313152D01*
X741328570Y-181313152D02*
X741423808Y-181360771D01*
X741423808Y-181360771D02*
X741471427Y-181408390D01*
X741471427Y-181408390D02*
X741519046Y-181503628D01*
X741519046Y-181503628D02*
X741519046Y-181789342D01*
X741519046Y-181789342D02*
X741471427Y-181884580D01*
X741471427Y-181884580D02*
X741423808Y-181932200D01*
X741423808Y-181932200D02*
X741328570Y-181979819D01*
X741328570Y-181979819D02*
X741185713Y-181979819D01*
X741899999Y-181075057D02*
X741947618Y-181027438D01*
X741947618Y-181027438D02*
X742042856Y-180979819D01*
X742042856Y-180979819D02*
X742280951Y-180979819D01*
X742280951Y-180979819D02*
X742376189Y-181027438D01*
X742376189Y-181027438D02*
X742423808Y-181075057D01*
X742423808Y-181075057D02*
X742471427Y-181170295D01*
X742471427Y-181170295D02*
X742471427Y-181265533D01*
X742471427Y-181265533D02*
X742423808Y-181408390D01*
X742423808Y-181408390D02*
X741852380Y-181979819D01*
X741852380Y-181979819D02*
X742471427Y-181979819D01*
X742899999Y-181884580D02*
X742947618Y-181932200D01*
X742947618Y-181932200D02*
X742899999Y-181979819D01*
X742899999Y-181979819D02*
X742852380Y-181932200D01*
X742852380Y-181932200D02*
X742899999Y-181884580D01*
X742899999Y-181884580D02*
X742899999Y-181979819D01*
X743376189Y-180979819D02*
X743376189Y-181789342D01*
X743376189Y-181789342D02*
X743423808Y-181884580D01*
X743423808Y-181884580D02*
X743471427Y-181932200D01*
X743471427Y-181932200D02*
X743566665Y-181979819D01*
X743566665Y-181979819D02*
X743757141Y-181979819D01*
X743757141Y-181979819D02*
X743852379Y-181932200D01*
X743852379Y-181932200D02*
X743899998Y-181884580D01*
X743899998Y-181884580D02*
X743947617Y-181789342D01*
X743947617Y-181789342D02*
X743947617Y-180979819D01*
X744376189Y-181932200D02*
X744471427Y-181979819D01*
X744471427Y-181979819D02*
X744661903Y-181979819D01*
X744661903Y-181979819D02*
X744757141Y-181932200D01*
X744757141Y-181932200D02*
X744804760Y-181836961D01*
X744804760Y-181836961D02*
X744804760Y-181789342D01*
X744804760Y-181789342D02*
X744757141Y-181694104D01*
X744757141Y-181694104D02*
X744661903Y-181646485D01*
X744661903Y-181646485D02*
X744519046Y-181646485D01*
X744519046Y-181646485D02*
X744423808Y-181598866D01*
X744423808Y-181598866D02*
X744376189Y-181503628D01*
X744376189Y-181503628D02*
X744376189Y-181456009D01*
X744376189Y-181456009D02*
X744423808Y-181360771D01*
X744423808Y-181360771D02*
X744519046Y-181313152D01*
X744519046Y-181313152D02*
X744661903Y-181313152D01*
X744661903Y-181313152D02*
X744757141Y-181360771D01*
X745614284Y-181932200D02*
X745519046Y-181979819D01*
X745519046Y-181979819D02*
X745328570Y-181979819D01*
X745328570Y-181979819D02*
X745233332Y-181932200D01*
X745233332Y-181932200D02*
X745185713Y-181836961D01*
X745185713Y-181836961D02*
X745185713Y-181456009D01*
X745185713Y-181456009D02*
X745233332Y-181360771D01*
X745233332Y-181360771D02*
X745328570Y-181313152D01*
X745328570Y-181313152D02*
X745519046Y-181313152D01*
X745519046Y-181313152D02*
X745614284Y-181360771D01*
X745614284Y-181360771D02*
X745661903Y-181456009D01*
X745661903Y-181456009D02*
X745661903Y-181551247D01*
X745661903Y-181551247D02*
X745185713Y-181646485D01*
X746090475Y-181884580D02*
X746138094Y-181932200D01*
X746138094Y-181932200D02*
X746090475Y-181979819D01*
X746090475Y-181979819D02*
X746042856Y-181932200D01*
X746042856Y-181932200D02*
X746090475Y-181884580D01*
X746090475Y-181884580D02*
X746090475Y-181979819D01*
X746090475Y-181360771D02*
X746138094Y-181408390D01*
X746138094Y-181408390D02*
X746090475Y-181456009D01*
X746090475Y-181456009D02*
X746042856Y-181408390D01*
X746042856Y-181408390D02*
X746090475Y-181360771D01*
X746090475Y-181360771D02*
X746090475Y-181456009D01*
X747328570Y-181313152D02*
X747328570Y-182313152D01*
X747328570Y-181360771D02*
X747423808Y-181313152D01*
X747423808Y-181313152D02*
X747614284Y-181313152D01*
X747614284Y-181313152D02*
X747709522Y-181360771D01*
X747709522Y-181360771D02*
X747757141Y-181408390D01*
X747757141Y-181408390D02*
X747804760Y-181503628D01*
X747804760Y-181503628D02*
X747804760Y-181789342D01*
X747804760Y-181789342D02*
X747757141Y-181884580D01*
X747757141Y-181884580D02*
X747709522Y-181932200D01*
X747709522Y-181932200D02*
X747614284Y-181979819D01*
X747614284Y-181979819D02*
X747423808Y-181979819D01*
X747423808Y-181979819D02*
X747328570Y-181932200D01*
X748376189Y-181979819D02*
X748280951Y-181932200D01*
X748280951Y-181932200D02*
X748233332Y-181836961D01*
X748233332Y-181836961D02*
X748233332Y-180979819D01*
X749185713Y-181979819D02*
X749185713Y-181456009D01*
X749185713Y-181456009D02*
X749138094Y-181360771D01*
X749138094Y-181360771D02*
X749042856Y-181313152D01*
X749042856Y-181313152D02*
X748852380Y-181313152D01*
X748852380Y-181313152D02*
X748757142Y-181360771D01*
X749185713Y-181932200D02*
X749090475Y-181979819D01*
X749090475Y-181979819D02*
X748852380Y-181979819D01*
X748852380Y-181979819D02*
X748757142Y-181932200D01*
X748757142Y-181932200D02*
X748709523Y-181836961D01*
X748709523Y-181836961D02*
X748709523Y-181741723D01*
X748709523Y-181741723D02*
X748757142Y-181646485D01*
X748757142Y-181646485D02*
X748852380Y-181598866D01*
X748852380Y-181598866D02*
X749090475Y-181598866D01*
X749090475Y-181598866D02*
X749185713Y-181551247D01*
X749519047Y-181313152D02*
X749899999Y-181313152D01*
X749661904Y-180979819D02*
X749661904Y-181836961D01*
X749661904Y-181836961D02*
X749709523Y-181932200D01*
X749709523Y-181932200D02*
X749804761Y-181979819D01*
X749804761Y-181979819D02*
X749899999Y-181979819D01*
X750614285Y-181932200D02*
X750519047Y-181979819D01*
X750519047Y-181979819D02*
X750328571Y-181979819D01*
X750328571Y-181979819D02*
X750233333Y-181932200D01*
X750233333Y-181932200D02*
X750185714Y-181836961D01*
X750185714Y-181836961D02*
X750185714Y-181456009D01*
X750185714Y-181456009D02*
X750233333Y-181360771D01*
X750233333Y-181360771D02*
X750328571Y-181313152D01*
X750328571Y-181313152D02*
X750519047Y-181313152D01*
X750519047Y-181313152D02*
X750614285Y-181360771D01*
X750614285Y-181360771D02*
X750661904Y-181456009D01*
X750661904Y-181456009D02*
X750661904Y-181551247D01*
X750661904Y-181551247D02*
X750185714Y-181646485D01*
X752280952Y-181932200D02*
X752185714Y-181979819D01*
X752185714Y-181979819D02*
X751995238Y-181979819D01*
X751995238Y-181979819D02*
X751900000Y-181932200D01*
X751900000Y-181932200D02*
X751852381Y-181884580D01*
X751852381Y-181884580D02*
X751804762Y-181789342D01*
X751804762Y-181789342D02*
X751804762Y-181503628D01*
X751804762Y-181503628D02*
X751852381Y-181408390D01*
X751852381Y-181408390D02*
X751900000Y-181360771D01*
X751900000Y-181360771D02*
X751995238Y-181313152D01*
X751995238Y-181313152D02*
X752185714Y-181313152D01*
X752185714Y-181313152D02*
X752280952Y-181360771D01*
X753138095Y-181313152D02*
X753138095Y-181979819D01*
X752709524Y-181313152D02*
X752709524Y-181836961D01*
X752709524Y-181836961D02*
X752757143Y-181932200D01*
X752757143Y-181932200D02*
X752852381Y-181979819D01*
X752852381Y-181979819D02*
X752995238Y-181979819D01*
X752995238Y-181979819D02*
X753090476Y-181932200D01*
X753090476Y-181932200D02*
X753138095Y-181884580D01*
X753471429Y-181313152D02*
X753852381Y-181313152D01*
X753614286Y-180979819D02*
X753614286Y-181836961D01*
X753614286Y-181836961D02*
X753661905Y-181932200D01*
X753661905Y-181932200D02*
X753757143Y-181979819D01*
X753757143Y-181979819D02*
X753852381Y-181979819D01*
X754138096Y-181932200D02*
X754233334Y-181979819D01*
X754233334Y-181979819D02*
X754423810Y-181979819D01*
X754423810Y-181979819D02*
X754519048Y-181932200D01*
X754519048Y-181932200D02*
X754566667Y-181836961D01*
X754566667Y-181836961D02*
X754566667Y-181789342D01*
X754566667Y-181789342D02*
X754519048Y-181694104D01*
X754519048Y-181694104D02*
X754423810Y-181646485D01*
X754423810Y-181646485D02*
X754280953Y-181646485D01*
X754280953Y-181646485D02*
X754185715Y-181598866D01*
X754185715Y-181598866D02*
X754138096Y-181503628D01*
X754138096Y-181503628D02*
X754138096Y-181456009D01*
X754138096Y-181456009D02*
X754185715Y-181360771D01*
X754185715Y-181360771D02*
X754280953Y-181313152D01*
X754280953Y-181313152D02*
X754423810Y-181313152D01*
X754423810Y-181313152D02*
X754519048Y-181360771D01*
X688882142Y-135279819D02*
X688405952Y-135279819D01*
X688405952Y-135279819D02*
X688405952Y-134279819D01*
X689215476Y-134756009D02*
X689548809Y-134756009D01*
X689691666Y-135279819D02*
X689215476Y-135279819D01*
X689215476Y-135279819D02*
X689215476Y-134279819D01*
X689215476Y-134279819D02*
X689691666Y-134279819D01*
X690120238Y-135279819D02*
X690120238Y-134279819D01*
X690120238Y-134279819D02*
X690358333Y-134279819D01*
X690358333Y-134279819D02*
X690501190Y-134327438D01*
X690501190Y-134327438D02*
X690596428Y-134422676D01*
X690596428Y-134422676D02*
X690644047Y-134517914D01*
X690644047Y-134517914D02*
X690691666Y-134708390D01*
X690691666Y-134708390D02*
X690691666Y-134851247D01*
X690691666Y-134851247D02*
X690644047Y-135041723D01*
X690644047Y-135041723D02*
X690596428Y-135136961D01*
X690596428Y-135136961D02*
X690501190Y-135232200D01*
X690501190Y-135232200D02*
X690358333Y-135279819D01*
X690358333Y-135279819D02*
X690120238Y-135279819D01*
X714382142Y-152279819D02*
X713905952Y-152279819D01*
X713905952Y-152279819D02*
X713905952Y-151279819D01*
X714715476Y-151756009D02*
X715048809Y-151756009D01*
X715191666Y-152279819D02*
X714715476Y-152279819D01*
X714715476Y-152279819D02*
X714715476Y-151279819D01*
X714715476Y-151279819D02*
X715191666Y-151279819D01*
X715620238Y-152279819D02*
X715620238Y-151279819D01*
X715620238Y-151279819D02*
X715858333Y-151279819D01*
X715858333Y-151279819D02*
X716001190Y-151327438D01*
X716001190Y-151327438D02*
X716096428Y-151422676D01*
X716096428Y-151422676D02*
X716144047Y-151517914D01*
X716144047Y-151517914D02*
X716191666Y-151708390D01*
X716191666Y-151708390D02*
X716191666Y-151851247D01*
X716191666Y-151851247D02*
X716144047Y-152041723D01*
X716144047Y-152041723D02*
X716096428Y-152136961D01*
X716096428Y-152136961D02*
X716001190Y-152232200D01*
X716001190Y-152232200D02*
X715858333Y-152279819D01*
X715858333Y-152279819D02*
X715620238Y-152279819D01*
X646382142Y-152279819D02*
X645905952Y-152279819D01*
X645905952Y-152279819D02*
X645905952Y-151279819D01*
X646715476Y-151756009D02*
X647048809Y-151756009D01*
X647191666Y-152279819D02*
X646715476Y-152279819D01*
X646715476Y-152279819D02*
X646715476Y-151279819D01*
X646715476Y-151279819D02*
X647191666Y-151279819D01*
X647620238Y-152279819D02*
X647620238Y-151279819D01*
X647620238Y-151279819D02*
X647858333Y-151279819D01*
X647858333Y-151279819D02*
X648001190Y-151327438D01*
X648001190Y-151327438D02*
X648096428Y-151422676D01*
X648096428Y-151422676D02*
X648144047Y-151517914D01*
X648144047Y-151517914D02*
X648191666Y-151708390D01*
X648191666Y-151708390D02*
X648191666Y-151851247D01*
X648191666Y-151851247D02*
X648144047Y-152041723D01*
X648144047Y-152041723D02*
X648096428Y-152136961D01*
X648096428Y-152136961D02*
X648001190Y-152232200D01*
X648001190Y-152232200D02*
X647858333Y-152279819D01*
X647858333Y-152279819D02*
X647620238Y-152279819D01*
X523132142Y-152279819D02*
X522655952Y-152279819D01*
X522655952Y-152279819D02*
X522655952Y-151279819D01*
X523465476Y-151756009D02*
X523798809Y-151756009D01*
X523941666Y-152279819D02*
X523465476Y-152279819D01*
X523465476Y-152279819D02*
X523465476Y-151279819D01*
X523465476Y-151279819D02*
X523941666Y-151279819D01*
X524370238Y-152279819D02*
X524370238Y-151279819D01*
X524370238Y-151279819D02*
X524608333Y-151279819D01*
X524608333Y-151279819D02*
X524751190Y-151327438D01*
X524751190Y-151327438D02*
X524846428Y-151422676D01*
X524846428Y-151422676D02*
X524894047Y-151517914D01*
X524894047Y-151517914D02*
X524941666Y-151708390D01*
X524941666Y-151708390D02*
X524941666Y-151851247D01*
X524941666Y-151851247D02*
X524894047Y-152041723D01*
X524894047Y-152041723D02*
X524846428Y-152136961D01*
X524846428Y-152136961D02*
X524751190Y-152232200D01*
X524751190Y-152232200D02*
X524608333Y-152279819D01*
X524608333Y-152279819D02*
X524370238Y-152279819D01*
X542257142Y-203279819D02*
X541780952Y-203279819D01*
X541780952Y-203279819D02*
X541780952Y-202279819D01*
X542590476Y-202756009D02*
X542923809Y-202756009D01*
X543066666Y-203279819D02*
X542590476Y-203279819D01*
X542590476Y-203279819D02*
X542590476Y-202279819D01*
X542590476Y-202279819D02*
X543066666Y-202279819D01*
X543495238Y-203279819D02*
X543495238Y-202279819D01*
X543495238Y-202279819D02*
X543733333Y-202279819D01*
X543733333Y-202279819D02*
X543876190Y-202327438D01*
X543876190Y-202327438D02*
X543971428Y-202422676D01*
X543971428Y-202422676D02*
X544019047Y-202517914D01*
X544019047Y-202517914D02*
X544066666Y-202708390D01*
X544066666Y-202708390D02*
X544066666Y-202851247D01*
X544066666Y-202851247D02*
X544019047Y-203041723D01*
X544019047Y-203041723D02*
X543971428Y-203136961D01*
X543971428Y-203136961D02*
X543876190Y-203232200D01*
X543876190Y-203232200D02*
X543733333Y-203279819D01*
X543733333Y-203279819D02*
X543495238Y-203279819D01*
X680382142Y-152279819D02*
X679905952Y-152279819D01*
X679905952Y-152279819D02*
X679905952Y-151279819D01*
X680715476Y-151756009D02*
X681048809Y-151756009D01*
X681191666Y-152279819D02*
X680715476Y-152279819D01*
X680715476Y-152279819D02*
X680715476Y-151279819D01*
X680715476Y-151279819D02*
X681191666Y-151279819D01*
X681620238Y-152279819D02*
X681620238Y-151279819D01*
X681620238Y-151279819D02*
X681858333Y-151279819D01*
X681858333Y-151279819D02*
X682001190Y-151327438D01*
X682001190Y-151327438D02*
X682096428Y-151422676D01*
X682096428Y-151422676D02*
X682144047Y-151517914D01*
X682144047Y-151517914D02*
X682191666Y-151708390D01*
X682191666Y-151708390D02*
X682191666Y-151851247D01*
X682191666Y-151851247D02*
X682144047Y-152041723D01*
X682144047Y-152041723D02*
X682096428Y-152136961D01*
X682096428Y-152136961D02*
X682001190Y-152232200D01*
X682001190Y-152232200D02*
X681858333Y-152279819D01*
X681858333Y-152279819D02*
X681620238Y-152279819D01*
X778132142Y-152279819D02*
X777655952Y-152279819D01*
X777655952Y-152279819D02*
X777655952Y-151279819D01*
X778465476Y-151756009D02*
X778798809Y-151756009D01*
X778941666Y-152279819D02*
X778465476Y-152279819D01*
X778465476Y-152279819D02*
X778465476Y-151279819D01*
X778465476Y-151279819D02*
X778941666Y-151279819D01*
X779370238Y-152279819D02*
X779370238Y-151279819D01*
X779370238Y-151279819D02*
X779608333Y-151279819D01*
X779608333Y-151279819D02*
X779751190Y-151327438D01*
X779751190Y-151327438D02*
X779846428Y-151422676D01*
X779846428Y-151422676D02*
X779894047Y-151517914D01*
X779894047Y-151517914D02*
X779941666Y-151708390D01*
X779941666Y-151708390D02*
X779941666Y-151851247D01*
X779941666Y-151851247D02*
X779894047Y-152041723D01*
X779894047Y-152041723D02*
X779846428Y-152136961D01*
X779846428Y-152136961D02*
X779751190Y-152232200D01*
X779751190Y-152232200D02*
X779608333Y-152279819D01*
X779608333Y-152279819D02*
X779370238Y-152279819D01*
X746257142Y-169279819D02*
X745780952Y-169279819D01*
X745780952Y-169279819D02*
X745780952Y-168279819D01*
X746590476Y-168756009D02*
X746923809Y-168756009D01*
X747066666Y-169279819D02*
X746590476Y-169279819D01*
X746590476Y-169279819D02*
X746590476Y-168279819D01*
X746590476Y-168279819D02*
X747066666Y-168279819D01*
X747495238Y-169279819D02*
X747495238Y-168279819D01*
X747495238Y-168279819D02*
X747733333Y-168279819D01*
X747733333Y-168279819D02*
X747876190Y-168327438D01*
X747876190Y-168327438D02*
X747971428Y-168422676D01*
X747971428Y-168422676D02*
X748019047Y-168517914D01*
X748019047Y-168517914D02*
X748066666Y-168708390D01*
X748066666Y-168708390D02*
X748066666Y-168851247D01*
X748066666Y-168851247D02*
X748019047Y-169041723D01*
X748019047Y-169041723D02*
X747971428Y-169136961D01*
X747971428Y-169136961D02*
X747876190Y-169232200D01*
X747876190Y-169232200D02*
X747733333Y-169279819D01*
X747733333Y-169279819D02*
X747495238Y-169279819D01*
X544382142Y-152279819D02*
X543905952Y-152279819D01*
X543905952Y-152279819D02*
X543905952Y-151279819D01*
X544715476Y-151756009D02*
X545048809Y-151756009D01*
X545191666Y-152279819D02*
X544715476Y-152279819D01*
X544715476Y-152279819D02*
X544715476Y-151279819D01*
X544715476Y-151279819D02*
X545191666Y-151279819D01*
X545620238Y-152279819D02*
X545620238Y-151279819D01*
X545620238Y-151279819D02*
X545858333Y-151279819D01*
X545858333Y-151279819D02*
X546001190Y-151327438D01*
X546001190Y-151327438D02*
X546096428Y-151422676D01*
X546096428Y-151422676D02*
X546144047Y-151517914D01*
X546144047Y-151517914D02*
X546191666Y-151708390D01*
X546191666Y-151708390D02*
X546191666Y-151851247D01*
X546191666Y-151851247D02*
X546144047Y-152041723D01*
X546144047Y-152041723D02*
X546096428Y-152136961D01*
X546096428Y-152136961D02*
X546001190Y-152232200D01*
X546001190Y-152232200D02*
X545858333Y-152279819D01*
X545858333Y-152279819D02*
X545620238Y-152279819D01*
X595382142Y-152279819D02*
X594905952Y-152279819D01*
X594905952Y-152279819D02*
X594905952Y-151279819D01*
X595715476Y-151756009D02*
X596048809Y-151756009D01*
X596191666Y-152279819D02*
X595715476Y-152279819D01*
X595715476Y-152279819D02*
X595715476Y-151279819D01*
X595715476Y-151279819D02*
X596191666Y-151279819D01*
X596620238Y-152279819D02*
X596620238Y-151279819D01*
X596620238Y-151279819D02*
X596858333Y-151279819D01*
X596858333Y-151279819D02*
X597001190Y-151327438D01*
X597001190Y-151327438D02*
X597096428Y-151422676D01*
X597096428Y-151422676D02*
X597144047Y-151517914D01*
X597144047Y-151517914D02*
X597191666Y-151708390D01*
X597191666Y-151708390D02*
X597191666Y-151851247D01*
X597191666Y-151851247D02*
X597144047Y-152041723D01*
X597144047Y-152041723D02*
X597096428Y-152136961D01*
X597096428Y-152136961D02*
X597001190Y-152232200D01*
X597001190Y-152232200D02*
X596858333Y-152279819D01*
X596858333Y-152279819D02*
X596620238Y-152279819D01*
%TO.C,SW42*%
D11*
X648775000Y-167250000D02*
X653775000Y-167250000D01*
X653775000Y-170400000D01*
X648775000Y-170400000D01*
X648775000Y-167250000D01*
%TO.C,SW44*%
X682775000Y-167250000D02*
X687775000Y-167250000D01*
X687775000Y-170400000D01*
X682775000Y-170400000D01*
X682775000Y-167250000D01*
%TO.C,SW16*%
X793275000Y-133250000D02*
X798275000Y-133250000D01*
X798275000Y-136400000D01*
X793275000Y-136400000D01*
X793275000Y-133250000D01*
%TO.C,SW41*%
X631775000Y-167250000D02*
X636775000Y-167250000D01*
X636775000Y-170400000D01*
X631775000Y-170400000D01*
X631775000Y-167250000D01*
%TO.C,SW26*%
X661525000Y-150250000D02*
X666525000Y-150250000D01*
X666525000Y-153400000D01*
X661525000Y-153400000D01*
X661525000Y-150250000D01*
%TO.C,SW39*%
X597775000Y-167250000D02*
X602775000Y-167250000D01*
X602775000Y-170400000D01*
X597775000Y-170400000D01*
X597775000Y-167250000D01*
%TO.C,SW24*%
X627525000Y-150250000D02*
X632525000Y-150250000D01*
X632525000Y-153400000D01*
X627525000Y-153400000D01*
X627525000Y-150250000D01*
%TO.C,SW45*%
X699775000Y-167250000D02*
X704775000Y-167250000D01*
X704775000Y-170400000D01*
X699775000Y-170400000D01*
X699775000Y-167250000D01*
%TO.C,SW66*%
X625400000Y-201250000D02*
X630400000Y-201250000D01*
X630400000Y-204400000D01*
X625400000Y-204400000D01*
X625400000Y-201250000D01*
%TO.C,SW12*%
X704025000Y-133250000D02*
X709025000Y-133250000D01*
X709025000Y-136400000D01*
X704025000Y-136400000D01*
X704025000Y-133250000D01*
%TO.C,SW20*%
X559525000Y-150250000D02*
X564525000Y-150250000D01*
X564525000Y-153400000D01*
X559525000Y-153400000D01*
X559525000Y-150250000D01*
%TO.C,SW54*%
X640275000Y-184250000D02*
X645275000Y-184250000D01*
X645275000Y-187400000D01*
X640275000Y-187400000D01*
X640275000Y-184250000D01*
%TO.C,SW1*%
X517025000Y-133250000D02*
X522025000Y-133250000D01*
X522025000Y-136400000D01*
X517025000Y-136400000D01*
X517025000Y-133250000D01*
%TO.C,SW40*%
X614775000Y-167250000D02*
X619775000Y-167250000D01*
X619775000Y-170400000D01*
X614775000Y-170400000D01*
X614775000Y-167250000D01*
%TO.C,SW23*%
X610525000Y-150250000D02*
X615525000Y-150250000D01*
X615525000Y-153400000D01*
X610525000Y-153400000D01*
X610525000Y-150250000D01*
%TO.C,SW35*%
X523400000Y-167250000D02*
X528400000Y-167250000D01*
X528400000Y-170400000D01*
X523400000Y-170400000D01*
X523400000Y-167250000D01*
%TO.C,SW7*%
X619025000Y-133250000D02*
X624025000Y-133250000D01*
X624025000Y-136400000D01*
X619025000Y-136400000D01*
X619025000Y-133250000D01*
%TO.C,SW60*%
X755025000Y-184250000D02*
X760025000Y-184250000D01*
X760025000Y-187400000D01*
X755025000Y-187400000D01*
X755025000Y-184250000D01*
%TO.C,SW21*%
X576525000Y-150250000D02*
X581525000Y-150250000D01*
X581525000Y-153400000D01*
X576525000Y-153400000D01*
X576525000Y-150250000D01*
%TO.C,SW9*%
X653025000Y-133250000D02*
X658025000Y-133250000D01*
X658025000Y-136400000D01*
X653025000Y-136400000D01*
X653025000Y-133250000D01*
%TO.C,SW70*%
X731650000Y-201250000D02*
X736650000Y-201250000D01*
X736650000Y-204400000D01*
X731650000Y-204400000D01*
X731650000Y-201250000D01*
%TO.C,SW4*%
X568025000Y-133250000D02*
X573025000Y-133250000D01*
X573025000Y-136400000D01*
X568025000Y-136400000D01*
X568025000Y-133250000D01*
%TO.C,SW3*%
X551025000Y-133250000D02*
X556025000Y-133250000D01*
X556025000Y-136400000D01*
X551025000Y-136400000D01*
X551025000Y-133250000D01*
%TO.C,SW51*%
X589275000Y-184250000D02*
X594275000Y-184250000D01*
X594275000Y-187400000D01*
X589275000Y-187400000D01*
X589275000Y-184250000D01*
%TO.C,SW64*%
X561650000Y-201250000D02*
X566650000Y-201250000D01*
X566650000Y-204400000D01*
X561650000Y-204400000D01*
X561650000Y-201250000D01*
%TO.C,SW74*%
X810275000Y-201250000D02*
X815275000Y-201250000D01*
X815275000Y-204400000D01*
X810275000Y-204400000D01*
X810275000Y-201250000D01*
%TO.C,SW15*%
X776275000Y-133250000D02*
X781275000Y-133250000D01*
X781275000Y-136400000D01*
X776275000Y-136400000D01*
X776275000Y-133250000D01*
%TO.C,SW31*%
X750775000Y-150250000D02*
X755775000Y-150250000D01*
X755775000Y-153400000D01*
X750775000Y-153400000D01*
X750775000Y-150250000D01*
%TO.C,SW68*%
X689150000Y-201250000D02*
X694150000Y-201250000D01*
X694150000Y-204400000D01*
X689150000Y-204400000D01*
X689150000Y-201250000D01*
%TO.C,SW36*%
X546775000Y-167250000D02*
X551775000Y-167250000D01*
X551775000Y-170400000D01*
X546775000Y-170400000D01*
X546775000Y-167250000D01*
%TO.C,SW72*%
X776275000Y-201250000D02*
X781275000Y-201250000D01*
X781275000Y-204400000D01*
X776275000Y-204400000D01*
X776275000Y-201250000D01*
%TO.C,SW46*%
X716775000Y-167250000D02*
X721775000Y-167250000D01*
X721775000Y-170400000D01*
X716775000Y-170400000D01*
X716775000Y-167250000D01*
%TO.C,SW53*%
X623275000Y-184250000D02*
X628275000Y-184250000D01*
X628275000Y-187400000D01*
X623275000Y-187400000D01*
X623275000Y-184250000D01*
%TO.C,SW49*%
X555275000Y-184250000D02*
X560275000Y-184250000D01*
X560275000Y-187400000D01*
X555275000Y-187400000D01*
X555275000Y-184250000D01*
%TO.C,SW62*%
X519150000Y-201250000D02*
X524150000Y-201250000D01*
X524150000Y-204400000D01*
X519150000Y-204400000D01*
X519150000Y-201250000D01*
%TO.C,SW69*%
X710400000Y-201250000D02*
X715400000Y-201250000D01*
X715400000Y-204400000D01*
X710400000Y-204400000D01*
X710400000Y-201250000D01*
%TO.C,SW52*%
X606275000Y-184250000D02*
X611275000Y-184250000D01*
X611275000Y-187400000D01*
X606275000Y-187400000D01*
X606275000Y-184250000D01*
%TO.C,SW6*%
X602025000Y-133250000D02*
X607025000Y-133250000D01*
X607025000Y-136400000D01*
X602025000Y-136400000D01*
X602025000Y-133250000D01*
%TO.C,SW50*%
X572275000Y-184250000D02*
X577275000Y-184250000D01*
X577275000Y-187400000D01*
X572275000Y-187400000D01*
X572275000Y-184250000D01*
%TO.C,SW57*%
X691275000Y-184250000D02*
X696275000Y-184250000D01*
X696275000Y-187400000D01*
X691275000Y-187400000D01*
X691275000Y-184250000D01*
D10*
%TO.C,REF\u002A\u002A*%
X463900000Y-214000000D02*
G75*
G02*
X460100000Y-214000000I-1900000J0D01*
G01*
X460100000Y-214000000D02*
G75*
G02*
X463900000Y-214000000I1900000J0D01*
G01*
%TO.C,SW59*%
D11*
X731650000Y-184250000D02*
X736650000Y-184250000D01*
X736650000Y-187400000D01*
X731650000Y-187400000D01*
X731650000Y-184250000D01*
%TO.C,SW43*%
X665775000Y-167250000D02*
X670775000Y-167250000D01*
X670775000Y-170400000D01*
X665775000Y-170400000D01*
X665775000Y-167250000D01*
%TO.C,SW56*%
X674275000Y-184250000D02*
X679275000Y-184250000D01*
X679275000Y-187400000D01*
X674275000Y-187400000D01*
X674275000Y-184250000D01*
%TO.C,SW10*%
X670025000Y-133250000D02*
X675025000Y-133250000D01*
X675025000Y-136400000D01*
X670025000Y-136400000D01*
X670025000Y-133250000D01*
%TO.C,SW55*%
X657275000Y-184250000D02*
X662275000Y-184250000D01*
X662275000Y-187400000D01*
X657275000Y-187400000D01*
X657275000Y-184250000D01*
%TO.C,SW58*%
X708275000Y-184250000D02*
X713275000Y-184250000D01*
X713275000Y-187400000D01*
X708275000Y-187400000D01*
X708275000Y-184250000D01*
%TO.C,SW17*%
X810275000Y-133250000D02*
X815275000Y-133250000D01*
X815275000Y-136400000D01*
X810275000Y-136400000D01*
X810275000Y-133250000D01*
%TO.C,SW37*%
X563775000Y-167250000D02*
X568775000Y-167250000D01*
X568775000Y-170400000D01*
X563775000Y-170400000D01*
X563775000Y-167250000D01*
%TO.C,SW61*%
X793275000Y-184250000D02*
X798275000Y-184250000D01*
X798275000Y-187400000D01*
X793275000Y-187400000D01*
X793275000Y-184250000D01*
%TO.C,SW34*%
X810275000Y-150250000D02*
X815275000Y-150250000D01*
X815275000Y-153400000D01*
X810275000Y-153400000D01*
X810275000Y-150250000D01*
D10*
%TO.C,REF\u002A\u002A*%
X463900000Y-133000000D02*
G75*
G02*
X460100000Y-133000000I-1900000J0D01*
G01*
X460100000Y-133000000D02*
G75*
G02*
X463900000Y-133000000I1900000J0D01*
G01*
%TO.C,SW8*%
D11*
X636025000Y-133250000D02*
X641025000Y-133250000D01*
X641025000Y-136400000D01*
X636025000Y-136400000D01*
X636025000Y-133250000D01*
%TO.C,SW71*%
X752900000Y-201250000D02*
X757900000Y-201250000D01*
X757900000Y-204400000D01*
X752900000Y-204400000D01*
X752900000Y-201250000D01*
%TO.C,SW28*%
X695525000Y-150250000D02*
X700525000Y-150250000D01*
X700525000Y-153400000D01*
X695525000Y-153400000D01*
X695525000Y-150250000D01*
%TO.C,SW33*%
X793275000Y-150250000D02*
X798275000Y-150250000D01*
X798275000Y-153400000D01*
X793275000Y-153400000D01*
X793275000Y-150250000D01*
%TO.C,SW48*%
X527650000Y-184250000D02*
X532650000Y-184250000D01*
X532650000Y-187400000D01*
X527650000Y-187400000D01*
X527650000Y-184250000D01*
%TO.C,SW14*%
X746525000Y-133250000D02*
X751525000Y-133250000D01*
X751525000Y-136400000D01*
X746525000Y-136400000D01*
X746525000Y-133250000D01*
%TO.C,SW73*%
X793275000Y-201250000D02*
X798275000Y-201250000D01*
X798275000Y-204400000D01*
X793275000Y-204400000D01*
X793275000Y-201250000D01*
%TO.C,SW2*%
X534025000Y-133250000D02*
X539025000Y-133250000D01*
X539025000Y-136400000D01*
X534025000Y-136400000D01*
X534025000Y-133250000D01*
%TO.C,SW65*%
X591400000Y-201250000D02*
X596400000Y-201250000D01*
X596400000Y-204400000D01*
X591400000Y-204400000D01*
X591400000Y-201250000D01*
%TO.C,SW5*%
X585025000Y-133250000D02*
X590025000Y-133250000D01*
X590025000Y-136400000D01*
X585025000Y-136400000D01*
X585025000Y-133250000D01*
%TO.C,SW30*%
X729525000Y-150250000D02*
X734525000Y-150250000D01*
X734525000Y-153400000D01*
X729525000Y-153400000D01*
X729525000Y-150250000D01*
%TO.C,SW13*%
X721025000Y-133250000D02*
X726025000Y-133250000D01*
X726025000Y-136400000D01*
X721025000Y-136400000D01*
X721025000Y-133250000D01*
%TO.C,SW38*%
X580775000Y-167250000D02*
X585775000Y-167250000D01*
X585775000Y-170400000D01*
X580775000Y-170400000D01*
X580775000Y-167250000D01*
%TO.C,SW67*%
X659400000Y-201250000D02*
X664400000Y-201250000D01*
X664400000Y-204400000D01*
X659400000Y-204400000D01*
X659400000Y-201250000D01*
%TO.C,SW11*%
X687025000Y-133250000D02*
X692025000Y-133250000D01*
X692025000Y-136400000D01*
X687025000Y-136400000D01*
X687025000Y-133250000D01*
%TO.C,SW29*%
X712525000Y-150250000D02*
X717525000Y-150250000D01*
X717525000Y-153400000D01*
X712525000Y-153400000D01*
X712525000Y-150250000D01*
%TO.C,SW25*%
X644525000Y-150250000D02*
X649525000Y-150250000D01*
X649525000Y-153400000D01*
X644525000Y-153400000D01*
X644525000Y-150250000D01*
D10*
%TO.C,REF\u002A\u002A*%
X468750000Y-184125000D02*
G75*
G02*
X465250000Y-184125000I-1750000J0D01*
G01*
X465250000Y-184125000D02*
G75*
G02*
X468750000Y-184125000I1750000J0D01*
G01*
X474750000Y-194125000D02*
G75*
G02*
X471250000Y-194125000I-1750000J0D01*
G01*
X471250000Y-194125000D02*
G75*
G02*
X474750000Y-194125000I1750000J0D01*
G01*
%TO.C,SW18*%
D11*
X521275000Y-150250000D02*
X526275000Y-150250000D01*
X526275000Y-153400000D01*
X521275000Y-153400000D01*
X521275000Y-150250000D01*
%TO.C,SW63*%
X540400000Y-201250000D02*
X545400000Y-201250000D01*
X545400000Y-204400000D01*
X540400000Y-204400000D01*
X540400000Y-201250000D01*
%TO.C,SW27*%
X678525000Y-150250000D02*
X683525000Y-150250000D01*
X683525000Y-153400000D01*
X678525000Y-153400000D01*
X678525000Y-150250000D01*
%TO.C,SW32*%
X776275000Y-150250000D02*
X781275000Y-150250000D01*
X781275000Y-153400000D01*
X776275000Y-153400000D01*
X776275000Y-150250000D01*
%TO.C,SW47*%
X744400000Y-167250000D02*
X749400000Y-167250000D01*
X749400000Y-170400000D01*
X744400000Y-170400000D01*
X744400000Y-167250000D01*
%TO.C,SW19*%
X542525000Y-150250000D02*
X547525000Y-150250000D01*
X547525000Y-153400000D01*
X542525000Y-153400000D01*
X542525000Y-150250000D01*
%TO.C,SW22*%
X593525000Y-150250000D02*
X598525000Y-150250000D01*
X598525000Y-153400000D01*
X593525000Y-153400000D01*
X593525000Y-150250000D01*
%TD*%
M02*
