%TF.GenerationSoftware,KiCad,Pcbnew,8.0.1*%
%TF.CreationDate,2024-07-20T19:57:27+09:00*%
%TF.ProjectId,lowd75,6c6f7764-3735-42e6-9b69-6361645f7063,rev?*%
%TF.SameCoordinates,Original*%
%TF.FileFunction,Paste,Bot*%
%TF.FilePolarity,Positive*%
%FSLAX46Y46*%
G04 Gerber Fmt 4.6, Leading zero omitted, Abs format (unit mm)*
G04 Created by KiCad (PCBNEW 8.0.1) date 2024-07-20 19:57:27*
%MOMM*%
%LPD*%
G01*
G04 APERTURE LIST*
G04 Aperture macros list*
%AMRoundRect*
0 Rectangle with rounded corners*
0 $1 Rounding radius*
0 $2 $3 $4 $5 $6 $7 $8 $9 X,Y pos of 4 corners*
0 Add a 4 corners polygon primitive as box body*
4,1,4,$2,$3,$4,$5,$6,$7,$8,$9,$2,$3,0*
0 Add four circle primitives for the rounded corners*
1,1,$1+$1,$2,$3*
1,1,$1+$1,$4,$5*
1,1,$1+$1,$6,$7*
1,1,$1+$1,$8,$9*
0 Add four rect primitives between the rounded corners*
20,1,$1+$1,$2,$3,$4,$5,0*
20,1,$1+$1,$4,$5,$6,$7,0*
20,1,$1+$1,$6,$7,$8,$9,0*
20,1,$1+$1,$8,$9,$2,$3,0*%
G04 Aperture macros list end*
%ADD10RoundRect,0.225000X0.375000X-0.225000X0.375000X0.225000X-0.375000X0.225000X-0.375000X-0.225000X0*%
G04 APERTURE END LIST*
D10*
%TO.C,D2*%
X542525000Y-147175000D03*
X542525000Y-143875000D03*
%TD*%
%TO.C,D39*%
X606275000Y-181175000D03*
X606275000Y-177875000D03*
%TD*%
%TO.C,D23*%
X619025000Y-164175000D03*
X619025000Y-160875000D03*
%TD*%
%TO.C,D30*%
X739675000Y-164175000D03*
X739675000Y-160875000D03*
%TD*%
%TO.C,D55*%
X665775000Y-198175000D03*
X665775000Y-194875000D03*
%TD*%
%TO.C,D59*%
X740150000Y-198175000D03*
X740150000Y-194875000D03*
%TD*%
%TO.C,D49*%
X563775000Y-198175000D03*
X563775000Y-194875000D03*
%TD*%
%TO.C,D64*%
X570150000Y-215175000D03*
X570150000Y-211875000D03*
%TD*%
%TO.C,D8*%
X644525000Y-147175000D03*
X644525000Y-143875000D03*
%TD*%
%TO.C,D34*%
X818775000Y-164175000D03*
X818775000Y-160875000D03*
%TD*%
%TO.C,D45*%
X708275000Y-181175000D03*
X708275000Y-177875000D03*
%TD*%
%TO.C,D35*%
X531900000Y-181175000D03*
X531900000Y-177875000D03*
%TD*%
%TO.C,D53*%
X631775000Y-198175000D03*
X631775000Y-194875000D03*
%TD*%
%TO.C,D43*%
X674275000Y-181175000D03*
X674275000Y-177875000D03*
%TD*%
%TO.C,D72*%
X784775000Y-215175000D03*
X784775000Y-211875000D03*
%TD*%
%TO.C,D14*%
X755025000Y-147175000D03*
X755025000Y-143875000D03*
%TD*%
%TO.C,D44*%
X691275000Y-181175000D03*
X691275000Y-177875000D03*
%TD*%
%TO.C,D12*%
X712525000Y-147175000D03*
X712525000Y-143875000D03*
%TD*%
%TO.C,D33*%
X801775000Y-164175000D03*
X801775000Y-160875000D03*
%TD*%
%TO.C,D54*%
X645675000Y-198175000D03*
X645675000Y-194875000D03*
%TD*%
%TO.C,D48*%
X536150000Y-198175000D03*
X536150000Y-194875000D03*
%TD*%
%TO.C,D32*%
X784775000Y-164175000D03*
X784775000Y-160875000D03*
%TD*%
%TO.C,D58*%
X716775000Y-198175000D03*
X716775000Y-194875000D03*
%TD*%
%TO.C,D36*%
X555275000Y-181175000D03*
X555275000Y-177875000D03*
%TD*%
%TO.C,D41*%
X640275000Y-181175000D03*
X640275000Y-177875000D03*
%TD*%
%TO.C,D51*%
X597775000Y-198175000D03*
X597775000Y-194875000D03*
%TD*%
%TO.C,D22*%
X602025000Y-164175000D03*
X602025000Y-160875000D03*
%TD*%
%TO.C,D3*%
X559525000Y-147175000D03*
X559525000Y-143875000D03*
%TD*%
%TO.C,D46*%
X725275000Y-181175000D03*
X725275000Y-177875000D03*
%TD*%
%TO.C,D40*%
X623275000Y-181175000D03*
X623275000Y-177875000D03*
%TD*%
%TO.C,D56*%
X682775000Y-198175000D03*
X682775000Y-194875000D03*
%TD*%
%TO.C,D73*%
X801775000Y-215175000D03*
X801775000Y-211875000D03*
%TD*%
%TO.C,D25*%
X653025000Y-164175000D03*
X653025000Y-160875000D03*
%TD*%
%TO.C,D5*%
X593525000Y-147175000D03*
X593525000Y-143875000D03*
%TD*%
%TO.C,D27*%
X687025000Y-164175000D03*
X687025000Y-160875000D03*
%TD*%
%TO.C,D18*%
X529775000Y-164175000D03*
X529775000Y-160875000D03*
%TD*%
%TO.C,D4*%
X576525000Y-147175000D03*
X576525000Y-143875000D03*
%TD*%
%TO.C,D70*%
X740150000Y-215175000D03*
X740150000Y-211875000D03*
%TD*%
%TO.C,D52*%
X614775000Y-198175000D03*
X614775000Y-194875000D03*
%TD*%
%TO.C,D37*%
X572275000Y-181175000D03*
X572275000Y-177875000D03*
%TD*%
%TO.C,D13*%
X729525000Y-147175000D03*
X729525000Y-143875000D03*
%TD*%
%TO.C,D69*%
X718900000Y-215175000D03*
X718900000Y-211875000D03*
%TD*%
%TO.C,D38*%
X589275000Y-181175000D03*
X589275000Y-177875000D03*
%TD*%
%TO.C,D21*%
X585025000Y-164175000D03*
X585025000Y-160875000D03*
%TD*%
%TO.C,D71*%
X761400000Y-215175000D03*
X761400000Y-211875000D03*
%TD*%
%TO.C,D65*%
X599900000Y-215175000D03*
X599900000Y-211875000D03*
%TD*%
%TO.C,D67*%
X667900000Y-215175000D03*
X667900000Y-211875000D03*
%TD*%
%TO.C,D15*%
X784775000Y-147175000D03*
X784775000Y-143875000D03*
%TD*%
%TO.C,D10*%
X678525000Y-147175000D03*
X678525000Y-143875000D03*
%TD*%
%TO.C,D6*%
X610525000Y-147175000D03*
X610525000Y-143875000D03*
%TD*%
%TO.C,D60*%
X763525000Y-198175000D03*
X763525000Y-194875000D03*
%TD*%
%TO.C,D11*%
X695525000Y-147175000D03*
X695525000Y-143875000D03*
%TD*%
%TO.C,D62*%
X527650000Y-215175000D03*
X527650000Y-211875000D03*
%TD*%
%TO.C,D50*%
X577675000Y-198175000D03*
X577675000Y-194875000D03*
%TD*%
%TO.C,D42*%
X657275000Y-181175000D03*
X657275000Y-177875000D03*
%TD*%
%TO.C,D47*%
X752900000Y-181175000D03*
X752900000Y-177875000D03*
%TD*%
%TO.C,D1*%
X525525000Y-147175000D03*
X525525000Y-143875000D03*
%TD*%
%TO.C,D17*%
X818775000Y-147175000D03*
X818775000Y-143875000D03*
%TD*%
%TO.C,D20*%
X568025000Y-164175000D03*
X568025000Y-160875000D03*
%TD*%
%TO.C,D31*%
X762675000Y-164175000D03*
X762675000Y-160875000D03*
%TD*%
%TO.C,D26*%
X670025000Y-164175000D03*
X670025000Y-160875000D03*
%TD*%
%TO.C,D7*%
X627525000Y-147175000D03*
X627525000Y-143875000D03*
%TD*%
%TO.C,D74*%
X818775000Y-215175000D03*
X818775000Y-211875000D03*
%TD*%
%TO.C,D28*%
X704025000Y-164175000D03*
X704025000Y-160875000D03*
%TD*%
%TO.C,D19*%
X551025000Y-164175000D03*
X551025000Y-160875000D03*
%TD*%
%TO.C,D66*%
X633900000Y-215175000D03*
X633900000Y-211875000D03*
%TD*%
%TO.C,D9*%
X661525000Y-147175000D03*
X661525000Y-143875000D03*
%TD*%
%TO.C,D68*%
X697650000Y-215175000D03*
X697650000Y-211875000D03*
%TD*%
%TO.C,D57*%
X699775000Y-198175000D03*
X699775000Y-194875000D03*
%TD*%
%TO.C,D63*%
X548900000Y-215175000D03*
X548900000Y-211875000D03*
%TD*%
%TO.C,D24*%
X636025000Y-164175000D03*
X636025000Y-160875000D03*
%TD*%
%TO.C,D16*%
X801775000Y-147175000D03*
X801775000Y-143875000D03*
%TD*%
%TO.C,D29*%
X721025000Y-164175000D03*
X721025000Y-160875000D03*
%TD*%
%TO.C,D61*%
X801775000Y-198175000D03*
X801775000Y-194875000D03*
%TD*%
M02*
