0
SECTION
2
HEADER
9
$INSUNITS
70
4
0
ENDSEC
0
SECTION
2
TABLES
0
TABLE
2
LTYPE
0
LTYPE
72
65
70
64
2
CONTINUOUS
3
______
73
0
40
0
0
ENDTAB
0
TABLE
2
LAYER
0
ENDTAB
0
ENDSEC
0
SECTION
2
ENTITIES
0
LINE
8
0
10
2
20
-1.5
11
15
21
-1.5
0
LINE
8
0
10
2
20
-15.5
11
15
21
-15.5
0
LINE
8
0
10
1.5
20
-2
11
1.5
21
-15
0
LINE
8
0
10
15.5
20
-2
11
15.5
21
-15
0
ARC
8
0
10
2
20
-2
40
0.5
50
90
51
180
0
ARC
8
0
10
15
20
-2
40
0.5
50
0
51
90
0
ARC
8
0
10
2
20
-15
40
0.5
50
180
51
270
0
ARC
8
0
10
15
20
-15
40
0.5
50
270
51
0
0
LINE
8
0
10
19
20
-1.5
11
32
21
-1.5
0
LINE
8
0
10
19
20
-15.5
11
32
21
-15.5
0
LINE
8
0
10
18.5
20
-2
11
18.5
21
-15
0
LINE
8
0
10
32.5
20
-2
11
32.5
21
-15
0
ARC
8
0
10
19
20
-2
40
0.5
50
90
51
180
0
ARC
8
0
10
32
20
-2
40
0.5
50
0
51
90
0
ARC
8
0
10
19
20
-15
40
0.5
50
180
51
270
0
ARC
8
0
10
32
20
-15
40
0.5
50
270
51
0
0
LINE
8
0
10
36
20
-1.5
11
49
21
-1.5
0
LINE
8
0
10
36
20
-15.5
11
49
21
-15.5
0
LINE
8
0
10
35.5
20
-2
11
35.5
21
-15
0
LINE
8
0
10
49.5
20
-2
11
49.5
21
-15
0
ARC
8
0
10
36
20
-2
40
0.5
50
90
51
180
0
ARC
8
0
10
49
20
-2
40
0.5
50
0
51
90
0
ARC
8
0
10
36
20
-15
40
0.5
50
180
51
270
0
ARC
8
0
10
49
20
-15
40
0.5
50
270
51
0
0
LINE
8
0
10
53
20
-1.5
11
66
21
-1.5
0
LINE
8
0
10
53
20
-15.5
11
66
21
-15.5
0
LINE
8
0
10
52.5
20
-2
11
52.5
21
-15
0
LINE
8
0
10
66.5
20
-2
11
66.5
21
-15
0
ARC
8
0
10
53
20
-2
40
0.5
50
90
51
180
0
ARC
8
0
10
66
20
-2
40
0.5
50
0
51
90
0
ARC
8
0
10
53
20
-15
40
0.5
50
180
51
270
0
ARC
8
0
10
66
20
-15
40
0.5
50
270
51
0
0
LINE
8
0
10
70
20
-1.5
11
83
21
-1.5
0
LINE
8
0
10
70
20
-15.5
11
83
21
-15.5
0
LINE
8
0
10
69.5
20
-2
11
69.5
21
-15
0
LINE
8
0
10
83.5
20
-2
11
83.5
21
-15
0
ARC
8
0
10
70
20
-2
40
0.5
50
90
51
180
0
ARC
8
0
10
83
20
-2
40
0.5
50
0
51
90
0
ARC
8
0
10
70
20
-15
40
0.5
50
180
51
270
0
ARC
8
0
10
83
20
-15
40
0.5
50
270
51
0
0
LINE
8
0
10
87
20
-1.5
11
100
21
-1.5
0
LINE
8
0
10
87
20
-15.5
11
100
21
-15.5
0
LINE
8
0
10
86.5
20
-2
11
86.5
21
-15
0
LINE
8
0
10
100.5
20
-2
11
100.5
21
-15
0
ARC
8
0
10
87
20
-2
40
0.5
50
90
51
180
0
ARC
8
0
10
100
20
-2
40
0.5
50
0
51
90
0
ARC
8
0
10
87
20
-15
40
0.5
50
180
51
270
0
ARC
8
0
10
100
20
-15
40
0.5
50
270
51
0
0
LINE
8
0
10
104
20
-1.5
11
117
21
-1.5
0
LINE
8
0
10
104
20
-15.5
11
117
21
-15.5
0
LINE
8
0
10
103.5
20
-2
11
103.5
21
-15
0
LINE
8
0
10
117.5
20
-2
11
117.5
21
-15
0
ARC
8
0
10
104
20
-2
40
0.5
50
90
51
180
0
ARC
8
0
10
117
20
-2
40
0.5
50
0
51
90
0
ARC
8
0
10
104
20
-15
40
0.5
50
180
51
270
0
ARC
8
0
10
117
20
-15
40
0.5
50
270
51
0
0
LINE
8
0
10
121
20
-1.5
11
134
21
-1.5
0
LINE
8
0
10
121
20
-15.5
11
134
21
-15.5
0
LINE
8
0
10
120.5
20
-2
11
120.5
21
-15
0
LINE
8
0
10
134.5
20
-2
11
134.5
21
-15
0
ARC
8
0
10
121
20
-2
40
0.5
50
90
51
180
0
ARC
8
0
10
134
20
-2
40
0.5
50
0
51
90
0
ARC
8
0
10
121
20
-15
40
0.5
50
180
51
270
0
ARC
8
0
10
134
20
-15
40
0.5
50
270
51
0
0
LINE
8
0
10
138
20
-1.5
11
151
21
-1.5
0
LINE
8
0
10
138
20
-15.5
11
151
21
-15.5
0
LINE
8
0
10
137.5
20
-2
11
137.5
21
-15
0
LINE
8
0
10
151.5
20
-2
11
151.5
21
-15
0
ARC
8
0
10
138
20
-2
40
0.5
50
90
51
180
0
ARC
8
0
10
151
20
-2
40
0.5
50
0
51
90
0
ARC
8
0
10
138
20
-15
40
0.5
50
180
51
270
0
ARC
8
0
10
151
20
-15
40
0.5
50
270
51
0
0
LINE
8
0
10
155
20
-1.5
11
168
21
-1.5
0
LINE
8
0
10
155
20
-15.5
11
168
21
-15.5
0
LINE
8
0
10
154.5
20
-2
11
154.5
21
-15
0
LINE
8
0
10
168.5
20
-2
11
168.5
21
-15
0
ARC
8
0
10
155
20
-2
40
0.5
50
90
51
180
0
ARC
8
0
10
168
20
-2
40
0.5
50
0
51
90
0
ARC
8
0
10
155
20
-15
40
0.5
50
180
51
270
0
ARC
8
0
10
168
20
-15
40
0.5
50
270
51
0
0
LINE
8
0
10
172
20
-1.5
11
185
21
-1.5
0
LINE
8
0
10
172
20
-15.5
11
185
21
-15.5
0
LINE
8
0
10
171.5
20
-2
11
171.5
21
-15
0
LINE
8
0
10
185.5
20
-2
11
185.5
21
-15
0
ARC
8
0
10
172
20
-2
40
0.5
50
90
51
180
0
ARC
8
0
10
185
20
-2
40
0.5
50
0
51
90
0
ARC
8
0
10
172
20
-15
40
0.5
50
180
51
270
0
ARC
8
0
10
185
20
-15
40
0.5
50
270
51
0
0
LINE
8
0
10
189
20
-1.5
11
202
21
-1.5
0
LINE
8
0
10
189
20
-15.5
11
202
21
-15.5
0
LINE
8
0
10
188.5
20
-2
11
188.5
21
-15
0
LINE
8
0
10
202.5
20
-2
11
202.5
21
-15
0
ARC
8
0
10
189
20
-2
40
0.5
50
90
51
180
0
ARC
8
0
10
202
20
-2
40
0.5
50
0
51
90
0
ARC
8
0
10
189
20
-15
40
0.5
50
180
51
270
0
ARC
8
0
10
202
20
-15
40
0.5
50
270
51
0
0
LINE
8
0
10
206
20
-1.5
11
219
21
-1.5
0
LINE
8
0
10
206
20
-15.5
11
219
21
-15.5
0
LINE
8
0
10
205.5
20
-2
11
205.5
21
-15
0
LINE
8
0
10
219.5
20
-2
11
219.5
21
-15
0
ARC
8
0
10
206
20
-2
40
0.5
50
90
51
180
0
ARC
8
0
10
219
20
-2
40
0.5
50
0
51
90
0
ARC
8
0
10
206
20
-15
40
0.5
50
180
51
270
0
ARC
8
0
10
219
20
-15
40
0.5
50
270
51
0
0
LINE
8
0
10
231.5
20
-1.5
11
244.5
21
-1.5
0
LINE
8
0
10
231.5
20
-15.5
11
244.5
21
-15.5
0
LINE
8
0
10
231
20
-2
11
231
21
-15
0
LINE
8
0
10
245
20
-2
11
245
21
-15
0
ARC
8
0
10
231.5
20
-2
40
0.5
50
90
51
180
0
ARC
8
0
10
244.5
20
-2
40
0.5
50
0
51
90
0
ARC
8
0
10
231.5
20
-15
40
0.5
50
180
51
270
0
ARC
8
0
10
244.5
20
-15
40
0.5
50
270
51
0
0
LINE
8
0
10
261.25
20
-1.5
11
274.25
21
-1.5
0
LINE
8
0
10
261.25
20
-15.5
11
274.25
21
-15.5
0
LINE
8
0
10
260.75
20
-2
11
260.75
21
-15
0
LINE
8
0
10
274.75
20
-2
11
274.75
21
-15
0
ARC
8
0
10
261.25
20
-2
40
0.5
50
90
51
180
0
ARC
8
0
10
274.25
20
-2
40
0.5
50
0
51
90
0
ARC
8
0
10
261.25
20
-15
40
0.5
50
180
51
270
0
ARC
8
0
10
274.25
20
-15
40
0.5
50
270
51
0
0
LINE
8
0
10
278.25
20
-1.5
11
291.25
21
-1.5
0
LINE
8
0
10
278.25
20
-15.5
11
291.25
21
-15.5
0
LINE
8
0
10
277.75
20
-2
11
277.75
21
-15
0
LINE
8
0
10
291.75
20
-2
11
291.75
21
-15
0
ARC
8
0
10
278.25
20
-2
40
0.5
50
90
51
180
0
ARC
8
0
10
291.25
20
-2
40
0.5
50
0
51
90
0
ARC
8
0
10
278.25
20
-15
40
0.5
50
180
51
270
0
ARC
8
0
10
291.25
20
-15
40
0.5
50
270
51
0
0
LINE
8
0
10
295.25
20
-1.5
11
308.25
21
-1.5
0
LINE
8
0
10
295.25
20
-15.5
11
308.25
21
-15.5
0
LINE
8
0
10
294.75
20
-2
11
294.75
21
-15
0
LINE
8
0
10
308.75
20
-2
11
308.75
21
-15
0
ARC
8
0
10
295.25
20
-2
40
0.5
50
90
51
180
0
ARC
8
0
10
308.25
20
-2
40
0.5
50
0
51
90
0
ARC
8
0
10
295.25
20
-15
40
0.5
50
180
51
270
0
ARC
8
0
10
308.25
20
-15
40
0.5
50
270
51
0
0
LINE
8
0
10
6.25
20
-18.5
11
19.25
21
-18.5
0
LINE
8
0
10
6.25
20
-32.5
11
19.25
21
-32.5
0
LINE
8
0
10
5.75
20
-19
11
5.75
21
-32
0
LINE
8
0
10
19.75
20
-19
11
19.75
21
-32
0
ARC
8
0
10
6.25
20
-19
40
0.5
50
90
51
180
0
ARC
8
0
10
19.25
20
-19
40
0.5
50
0
51
90
0
ARC
8
0
10
6.25
20
-32
40
0.5
50
180
51
270
0
ARC
8
0
10
19.25
20
-32
40
0.5
50
270
51
0
0
LINE
8
0
10
27.5
20
-18.5
11
40.5
21
-18.5
0
LINE
8
0
10
27.5
20
-32.5
11
40.5
21
-32.5
0
LINE
8
0
10
27
20
-19
11
27
21
-32
0
LINE
8
0
10
41
20
-19
11
41
21
-32
0
ARC
8
0
10
27.5
20
-19
40
0.5
50
90
51
180
0
ARC
8
0
10
40.5
20
-19
40
0.5
50
0
51
90
0
ARC
8
0
10
27.5
20
-32
40
0.5
50
180
51
270
0
ARC
8
0
10
40.5
20
-32
40
0.5
50
270
51
0
0
LINE
8
0
10
44.5
20
-18.5
11
57.5
21
-18.5
0
LINE
8
0
10
44.5
20
-32.5
11
57.5
21
-32.5
0
LINE
8
0
10
44
20
-19
11
44
21
-32
0
LINE
8
0
10
58
20
-19
11
58
21
-32
0
ARC
8
0
10
44.5
20
-19
40
0.5
50
90
51
180
0
ARC
8
0
10
57.5
20
-19
40
0.5
50
0
51
90
0
ARC
8
0
10
44.5
20
-32
40
0.5
50
180
51
270
0
ARC
8
0
10
57.5
20
-32
40
0.5
50
270
51
0
0
LINE
8
0
10
61.5
20
-18.5
11
74.5
21
-18.5
0
LINE
8
0
10
61.5
20
-32.5
11
74.5
21
-32.5
0
LINE
8
0
10
61
20
-19
11
61
21
-32
0
LINE
8
0
10
75
20
-19
11
75
21
-32
0
ARC
8
0
10
61.5
20
-19
40
0.5
50
90
51
180
0
ARC
8
0
10
74.5
20
-19
40
0.5
50
0
51
90
0
ARC
8
0
10
61.5
20
-32
40
0.5
50
180
51
270
0
ARC
8
0
10
74.5
20
-32
40
0.5
50
270
51
0
0
LINE
8
0
10
78.5
20
-18.5
11
91.5
21
-18.5
0
LINE
8
0
10
78.5
20
-32.5
11
91.5
21
-32.5
0
LINE
8
0
10
78
20
-19
11
78
21
-32
0
LINE
8
0
10
92
20
-19
11
92
21
-32
0
ARC
8
0
10
78.5
20
-19
40
0.5
50
90
51
180
0
ARC
8
0
10
91.5
20
-19
40
0.5
50
0
51
90
0
ARC
8
0
10
78.5
20
-32
40
0.5
50
180
51
270
0
ARC
8
0
10
91.5
20
-32
40
0.5
50
270
51
0
0
LINE
8
0
10
95.5
20
-18.5
11
108.5
21
-18.5
0
LINE
8
0
10
95.5
20
-32.5
11
108.5
21
-32.5
0
LINE
8
0
10
95
20
-19
11
95
21
-32
0
LINE
8
0
10
109
20
-19
11
109
21
-32
0
ARC
8
0
10
95.5
20
-19
40
0.5
50
90
51
180
0
ARC
8
0
10
108.5
20
-19
40
0.5
50
0
51
90
0
ARC
8
0
10
95.5
20
-32
40
0.5
50
180
51
270
0
ARC
8
0
10
108.5
20
-32
40
0.5
50
270
51
0
0
LINE
8
0
10
112.5
20
-18.5
11
125.5
21
-18.5
0
LINE
8
0
10
112.5
20
-32.5
11
125.5
21
-32.5
0
LINE
8
0
10
112
20
-19
11
112
21
-32
0
LINE
8
0
10
126
20
-19
11
126
21
-32
0
ARC
8
0
10
112.5
20
-19
40
0.5
50
90
51
180
0
ARC
8
0
10
125.5
20
-19
40
0.5
50
0
51
90
0
ARC
8
0
10
112.5
20
-32
40
0.5
50
180
51
270
0
ARC
8
0
10
125.5
20
-32
40
0.5
50
270
51
0
0
LINE
8
0
10
129.5
20
-18.5
11
142.5
21
-18.5
0
LINE
8
0
10
129.5
20
-32.5
11
142.5
21
-32.5
0
LINE
8
0
10
129
20
-19
11
129
21
-32
0
LINE
8
0
10
143
20
-19
11
143
21
-32
0
ARC
8
0
10
129.5
20
-19
40
0.5
50
90
51
180
0
ARC
8
0
10
142.5
20
-19
40
0.5
50
0
51
90
0
ARC
8
0
10
129.5
20
-32
40
0.5
50
180
51
270
0
ARC
8
0
10
142.5
20
-32
40
0.5
50
270
51
0
0
LINE
8
0
10
146.5
20
-18.5
11
159.5
21
-18.5
0
LINE
8
0
10
146.5
20
-32.5
11
159.5
21
-32.5
0
LINE
8
0
10
146
20
-19
11
146
21
-32
0
LINE
8
0
10
160
20
-19
11
160
21
-32
0
ARC
8
0
10
146.5
20
-19
40
0.5
50
90
51
180
0
ARC
8
0
10
159.5
20
-19
40
0.5
50
0
51
90
0
ARC
8
0
10
146.5
20
-32
40
0.5
50
180
51
270
0
ARC
8
0
10
159.5
20
-32
40
0.5
50
270
51
0
0
LINE
8
0
10
163.5
20
-18.5
11
176.5
21
-18.5
0
LINE
8
0
10
163.5
20
-32.5
11
176.5
21
-32.5
0
LINE
8
0
10
163
20
-19
11
163
21
-32
0
LINE
8
0
10
177
20
-19
11
177
21
-32
0
ARC
8
0
10
163.5
20
-19
40
0.5
50
90
51
180
0
ARC
8
0
10
176.5
20
-19
40
0.5
50
0
51
90
0
ARC
8
0
10
163.5
20
-32
40
0.5
50
180
51
270
0
ARC
8
0
10
176.5
20
-32
40
0.5
50
270
51
0
0
LINE
8
0
10
180.5
20
-18.5
11
193.5
21
-18.5
0
LINE
8
0
10
180.5
20
-32.5
11
193.5
21
-32.5
0
LINE
8
0
10
180
20
-19
11
180
21
-32
0
LINE
8
0
10
194
20
-19
11
194
21
-32
0
ARC
8
0
10
180.5
20
-19
40
0.5
50
90
51
180
0
ARC
8
0
10
193.5
20
-19
40
0.5
50
0
51
90
0
ARC
8
0
10
180.5
20
-32
40
0.5
50
180
51
270
0
ARC
8
0
10
193.5
20
-32
40
0.5
50
270
51
0
0
LINE
8
0
10
197.5
20
-18.5
11
210.5
21
-18.5
0
LINE
8
0
10
197.5
20
-32.5
11
210.5
21
-32.5
0
LINE
8
0
10
197
20
-19
11
197
21
-32
0
LINE
8
0
10
211
20
-19
11
211
21
-32
0
ARC
8
0
10
197.5
20
-19
40
0.5
50
90
51
180
0
ARC
8
0
10
210.5
20
-19
40
0.5
50
0
51
90
0
ARC
8
0
10
197.5
20
-32
40
0.5
50
180
51
270
0
ARC
8
0
10
210.5
20
-32
40
0.5
50
270
51
0
0
LINE
8
0
10
214.5
20
-18.5
11
227.5
21
-18.5
0
LINE
8
0
10
214.5
20
-32.5
11
227.5
21
-32.5
0
LINE
8
0
10
214
20
-19
11
214
21
-32
0
LINE
8
0
10
228
20
-19
11
228
21
-32
0
ARC
8
0
10
214.5
20
-19
40
0.5
50
90
51
180
0
ARC
8
0
10
227.5
20
-19
40
0.5
50
0
51
90
0
ARC
8
0
10
214.5
20
-32
40
0.5
50
180
51
270
0
ARC
8
0
10
227.5
20
-32
40
0.5
50
270
51
0
0
LINE
8
0
10
235.75
20
-18.5
11
248.75
21
-18.5
0
LINE
8
0
10
235.75
20
-32.5
11
248.75
21
-32.5
0
LINE
8
0
10
235.25
20
-19
11
235.25
21
-32
0
LINE
8
0
10
249.25
20
-19
11
249.25
21
-32
0
ARC
8
0
10
235.75
20
-19
40
0.5
50
90
51
180
0
ARC
8
0
10
248.75
20
-19
40
0.5
50
0
51
90
0
ARC
8
0
10
235.75
20
-32
40
0.5
50
180
51
270
0
ARC
8
0
10
248.75
20
-32
40
0.5
50
270
51
0
0
LINE
8
0
10
261.25
20
-18.5
11
274.25
21
-18.5
0
LINE
8
0
10
261.25
20
-32.5
11
274.25
21
-32.5
0
LINE
8
0
10
260.75
20
-19
11
260.75
21
-32
0
LINE
8
0
10
274.75
20
-19
11
274.75
21
-32
0
ARC
8
0
10
261.25
20
-19
40
0.5
50
90
51
180
0
ARC
8
0
10
274.25
20
-19
40
0.5
50
0
51
90
0
ARC
8
0
10
261.25
20
-32
40
0.5
50
180
51
270
0
ARC
8
0
10
274.25
20
-32
40
0.5
50
270
51
0
0
LINE
8
0
10
278.25
20
-18.5
11
291.25
21
-18.5
0
LINE
8
0
10
278.25
20
-32.5
11
291.25
21
-32.5
0
LINE
8
0
10
277.75
20
-19
11
277.75
21
-32
0
LINE
8
0
10
291.75
20
-19
11
291.75
21
-32
0
ARC
8
0
10
278.25
20
-19
40
0.5
50
90
51
180
0
ARC
8
0
10
291.25
20
-19
40
0.5
50
0
51
90
0
ARC
8
0
10
278.25
20
-32
40
0.5
50
180
51
270
0
ARC
8
0
10
291.25
20
-32
40
0.5
50
270
51
0
0
LINE
8
0
10
295.25
20
-18.5
11
308.25
21
-18.5
0
LINE
8
0
10
295.25
20
-32.5
11
308.25
21
-32.5
0
LINE
8
0
10
294.75
20
-19
11
294.75
21
-32
0
LINE
8
0
10
308.75
20
-19
11
308.75
21
-32
0
ARC
8
0
10
295.25
20
-19
40
0.5
50
90
51
180
0
ARC
8
0
10
308.25
20
-19
40
0.5
50
0
51
90
0
ARC
8
0
10
295.25
20
-32
40
0.5
50
180
51
270
0
ARC
8
0
10
308.25
20
-32
40
0.5
50
270
51
0
0
LINE
8
0
10
8.375
20
-35.5
11
21.375
21
-35.5
0
LINE
8
0
10
8.375
20
-49.5
11
21.375
21
-49.5
0
LINE
8
0
10
7.875
20
-36
11
7.875
21
-49
0
LINE
8
0
10
21.875
20
-36
11
21.875
21
-49
0
ARC
8
0
10
8.375
20
-36
40
0.5
50
90
51
180
0
ARC
8
0
10
21.375
20
-36
40
0.5
50
0
51
90
0
ARC
8
0
10
8.375
20
-49
40
0.5
50
180
51
270
0
ARC
8
0
10
21.375
20
-49
40
0.5
50
270
51
0
0
LINE
8
0
10
31.75
20
-35.5
11
44.75
21
-35.5
0
LINE
8
0
10
31.75
20
-49.5
11
44.75
21
-49.5
0
LINE
8
0
10
31.25
20
-36
11
31.25
21
-49
0
LINE
8
0
10
45.25
20
-36
11
45.25
21
-49
0
ARC
8
0
10
31.75
20
-36
40
0.5
50
90
51
180
0
ARC
8
0
10
44.75
20
-36
40
0.5
50
0
51
90
0
ARC
8
0
10
31.75
20
-49
40
0.5
50
180
51
270
0
ARC
8
0
10
44.75
20
-49
40
0.5
50
270
51
0
0
LINE
8
0
10
48.75
20
-35.5
11
61.75
21
-35.5
0
LINE
8
0
10
48.75
20
-49.5
11
61.75
21
-49.5
0
LINE
8
0
10
48.25
20
-36
11
48.25
21
-49
0
LINE
8
0
10
62.25
20
-36
11
62.25
21
-49
0
ARC
8
0
10
48.75
20
-36
40
0.5
50
90
51
180
0
ARC
8
0
10
61.75
20
-36
40
0.5
50
0
51
90
0
ARC
8
0
10
48.75
20
-49
40
0.5
50
180
51
270
0
ARC
8
0
10
61.75
20
-49
40
0.5
50
270
51
0
0
LINE
8
0
10
65.75
20
-35.5
11
78.75
21
-35.5
0
LINE
8
0
10
65.75
20
-49.5
11
78.75
21
-49.5
0
LINE
8
0
10
65.25
20
-36
11
65.25
21
-49
0
LINE
8
0
10
79.25
20
-36
11
79.25
21
-49
0
ARC
8
0
10
65.75
20
-36
40
0.5
50
90
51
180
0
ARC
8
0
10
78.75
20
-36
40
0.5
50
0
51
90
0
ARC
8
0
10
65.75
20
-49
40
0.5
50
180
51
270
0
ARC
8
0
10
78.75
20
-49
40
0.5
50
270
51
0
0
LINE
8
0
10
82.75
20
-35.5
11
95.75
21
-35.5
0
LINE
8
0
10
82.75
20
-49.5
11
95.75
21
-49.5
0
LINE
8
0
10
82.25
20
-36
11
82.25
21
-49
0
LINE
8
0
10
96.25
20
-36
11
96.25
21
-49
0
ARC
8
0
10
82.75
20
-36
40
0.5
50
90
51
180
0
ARC
8
0
10
95.75
20
-36
40
0.5
50
0
51
90
0
ARC
8
0
10
82.75
20
-49
40
0.5
50
180
51
270
0
ARC
8
0
10
95.75
20
-49
40
0.5
50
270
51
0
0
LINE
8
0
10
99.75
20
-35.5
11
112.75
21
-35.5
0
LINE
8
0
10
99.75
20
-49.5
11
112.75
21
-49.5
0
LINE
8
0
10
99.25
20
-36
11
99.25
21
-49
0
LINE
8
0
10
113.25
20
-36
11
113.25
21
-49
0
ARC
8
0
10
99.75
20
-36
40
0.5
50
90
51
180
0
ARC
8
0
10
112.75
20
-36
40
0.5
50
0
51
90
0
ARC
8
0
10
99.75
20
-49
40
0.5
50
180
51
270
0
ARC
8
0
10
112.75
20
-49
40
0.5
50
270
51
0
0
LINE
8
0
10
116.75
20
-35.5
11
129.75
21
-35.5
0
LINE
8
0
10
116.75
20
-49.5
11
129.75
21
-49.5
0
LINE
8
0
10
116.25
20
-36
11
116.25
21
-49
0
LINE
8
0
10
130.25
20
-36
11
130.25
21
-49
0
ARC
8
0
10
116.75
20
-36
40
0.5
50
90
51
180
0
ARC
8
0
10
129.75
20
-36
40
0.5
50
0
51
90
0
ARC
8
0
10
116.75
20
-49
40
0.5
50
180
51
270
0
ARC
8
0
10
129.75
20
-49
40
0.5
50
270
51
0
0
LINE
8
0
10
133.75
20
-35.5
11
146.75
21
-35.5
0
LINE
8
0
10
133.75
20
-49.5
11
146.75
21
-49.5
0
LINE
8
0
10
133.25
20
-36
11
133.25
21
-49
0
LINE
8
0
10
147.25
20
-36
11
147.25
21
-49
0
ARC
8
0
10
133.75
20
-36
40
0.5
50
90
51
180
0
ARC
8
0
10
146.75
20
-36
40
0.5
50
0
51
90
0
ARC
8
0
10
133.75
20
-49
40
0.5
50
180
51
270
0
ARC
8
0
10
146.75
20
-49
40
0.5
50
270
51
0
0
LINE
8
0
10
150.75
20
-35.5
11
163.75
21
-35.5
0
LINE
8
0
10
150.75
20
-49.5
11
163.75
21
-49.5
0
LINE
8
0
10
150.25
20
-36
11
150.25
21
-49
0
LINE
8
0
10
164.25
20
-36
11
164.25
21
-49
0
ARC
8
0
10
150.75
20
-36
40
0.5
50
90
51
180
0
ARC
8
0
10
163.75
20
-36
40
0.5
50
0
51
90
0
ARC
8
0
10
150.75
20
-49
40
0.5
50
180
51
270
0
ARC
8
0
10
163.75
20
-49
40
0.5
50
270
51
0
0
LINE
8
0
10
167.75
20
-35.5
11
180.75
21
-35.5
0
LINE
8
0
10
167.75
20
-49.5
11
180.75
21
-49.5
0
LINE
8
0
10
167.25
20
-36
11
167.25
21
-49
0
LINE
8
0
10
181.25
20
-36
11
181.25
21
-49
0
ARC
8
0
10
167.75
20
-36
40
0.5
50
90
51
180
0
ARC
8
0
10
180.75
20
-36
40
0.5
50
0
51
90
0
ARC
8
0
10
167.75
20
-49
40
0.5
50
180
51
270
0
ARC
8
0
10
180.75
20
-49
40
0.5
50
270
51
0
0
LINE
8
0
10
184.75
20
-35.5
11
197.75
21
-35.5
0
LINE
8
0
10
184.75
20
-49.5
11
197.75
21
-49.5
0
LINE
8
0
10
184.25
20
-36
11
184.25
21
-49
0
LINE
8
0
10
198.25
20
-36
11
198.25
21
-49
0
ARC
8
0
10
184.75
20
-36
40
0.5
50
90
51
180
0
ARC
8
0
10
197.75
20
-36
40
0.5
50
0
51
90
0
ARC
8
0
10
184.75
20
-49
40
0.5
50
180
51
270
0
ARC
8
0
10
197.75
20
-49
40
0.5
50
270
51
0
0
LINE
8
0
10
201.75
20
-35.5
11
214.75
21
-35.5
0
LINE
8
0
10
201.75
20
-49.5
11
214.75
21
-49.5
0
LINE
8
0
10
201.25
20
-36
11
201.25
21
-49
0
LINE
8
0
10
215.25
20
-36
11
215.25
21
-49
0
ARC
8
0
10
201.75
20
-36
40
0.5
50
90
51
180
0
ARC
8
0
10
214.75
20
-36
40
0.5
50
0
51
90
0
ARC
8
0
10
201.75
20
-49
40
0.5
50
180
51
270
0
ARC
8
0
10
214.75
20
-49
40
0.5
50
270
51
0
0
LINE
8
0
10
229.375
20
-35.5
11
242.375
21
-35.5
0
LINE
8
0
10
229.375
20
-49.5
11
242.375
21
-49.5
0
LINE
8
0
10
228.875
20
-36
11
228.875
21
-49
0
LINE
8
0
10
242.875
20
-36
11
242.875
21
-49
0
ARC
8
0
10
229.375
20
-36
40
0.5
50
90
51
180
0
ARC
8
0
10
242.375
20
-36
40
0.5
50
0
51
90
0
ARC
8
0
10
229.375
20
-49
40
0.5
50
180
51
270
0
ARC
8
0
10
242.375
20
-49
40
0.5
50
270
51
0
0
LINE
8
0
10
12.625
20
-52.5
11
25.625
21
-52.5
0
LINE
8
0
10
12.625
20
-66.5
11
25.625
21
-66.5
0
LINE
8
0
10
12.125
20
-53
11
12.125
21
-66
0
LINE
8
0
10
26.125
20
-53
11
26.125
21
-66
0
ARC
8
0
10
12.625
20
-53
40
0.5
50
90
51
180
0
ARC
8
0
10
25.625
20
-53
40
0.5
50
0
51
90
0
ARC
8
0
10
12.625
20
-66
40
0.5
50
180
51
270
0
ARC
8
0
10
25.625
20
-66
40
0.5
50
270
51
0
0
LINE
8
0
10
40.25
20
-52.5
11
53.25
21
-52.5
0
LINE
8
0
10
40.25
20
-66.5
11
53.25
21
-66.5
0
LINE
8
0
10
39.75
20
-53
11
39.75
21
-66
0
LINE
8
0
10
53.75
20
-53
11
53.75
21
-66
0
ARC
8
0
10
40.25
20
-53
40
0.5
50
90
51
180
0
ARC
8
0
10
53.25
20
-53
40
0.5
50
0
51
90
0
ARC
8
0
10
40.25
20
-66
40
0.5
50
180
51
270
0
ARC
8
0
10
53.25
20
-66
40
0.5
50
270
51
0
0
LINE
8
0
10
57.25
20
-52.5
11
70.25
21
-52.5
0
LINE
8
0
10
57.25
20
-66.5
11
70.25
21
-66.5
0
LINE
8
0
10
56.75
20
-53
11
56.75
21
-66
0
LINE
8
0
10
70.75
20
-53
11
70.75
21
-66
0
ARC
8
0
10
57.25
20
-53
40
0.5
50
90
51
180
0
ARC
8
0
10
70.25
20
-53
40
0.5
50
0
51
90
0
ARC
8
0
10
57.25
20
-66
40
0.5
50
180
51
270
0
ARC
8
0
10
70.25
20
-66
40
0.5
50
270
51
0
0
LINE
8
0
10
74.25
20
-52.5
11
87.25
21
-52.5
0
LINE
8
0
10
74.25
20
-66.5
11
87.25
21
-66.5
0
LINE
8
0
10
73.75
20
-53
11
73.75
21
-66
0
LINE
8
0
10
87.75
20
-53
11
87.75
21
-66
0
ARC
8
0
10
74.25
20
-53
40
0.5
50
90
51
180
0
ARC
8
0
10
87.25
20
-53
40
0.5
50
0
51
90
0
ARC
8
0
10
74.25
20
-66
40
0.5
50
180
51
270
0
ARC
8
0
10
87.25
20
-66
40
0.5
50
270
51
0
0
LINE
8
0
10
91.25
20
-52.5
11
104.25
21
-52.5
0
LINE
8
0
10
91.25
20
-66.5
11
104.25
21
-66.5
0
LINE
8
0
10
90.75
20
-53
11
90.75
21
-66
0
LINE
8
0
10
104.75
20
-53
11
104.75
21
-66
0
ARC
8
0
10
91.25
20
-53
40
0.5
50
90
51
180
0
ARC
8
0
10
104.25
20
-53
40
0.5
50
0
51
90
0
ARC
8
0
10
91.25
20
-66
40
0.5
50
180
51
270
0
ARC
8
0
10
104.25
20
-66
40
0.5
50
270
51
0
0
LINE
8
0
10
108.25
20
-52.5
11
121.25
21
-52.5
0
LINE
8
0
10
108.25
20
-66.5
11
121.25
21
-66.5
0
LINE
8
0
10
107.75
20
-53
11
107.75
21
-66
0
LINE
8
0
10
121.75
20
-53
11
121.75
21
-66
0
ARC
8
0
10
108.25
20
-53
40
0.5
50
90
51
180
0
ARC
8
0
10
121.25
20
-53
40
0.5
50
0
51
90
0
ARC
8
0
10
108.25
20
-66
40
0.5
50
180
51
270
0
ARC
8
0
10
121.25
20
-66
40
0.5
50
270
51
0
0
LINE
8
0
10
125.25
20
-52.5
11
138.25
21
-52.5
0
LINE
8
0
10
125.25
20
-66.5
11
138.25
21
-66.5
0
LINE
8
0
10
124.75
20
-53
11
124.75
21
-66
0
LINE
8
0
10
138.75
20
-53
11
138.75
21
-66
0
ARC
8
0
10
125.25
20
-53
40
0.5
50
90
51
180
0
ARC
8
0
10
138.25
20
-53
40
0.5
50
0
51
90
0
ARC
8
0
10
125.25
20
-66
40
0.5
50
180
51
270
0
ARC
8
0
10
138.25
20
-66
40
0.5
50
270
51
0
0
LINE
8
0
10
142.25
20
-52.5
11
155.25
21
-52.5
0
LINE
8
0
10
142.25
20
-66.5
11
155.25
21
-66.5
0
LINE
8
0
10
141.75
20
-53
11
141.75
21
-66
0
LINE
8
0
10
155.75
20
-53
11
155.75
21
-66
0
ARC
8
0
10
142.25
20
-53
40
0.5
50
90
51
180
0
ARC
8
0
10
155.25
20
-53
40
0.5
50
0
51
90
0
ARC
8
0
10
142.25
20
-66
40
0.5
50
180
51
270
0
ARC
8
0
10
155.25
20
-66
40
0.5
50
270
51
0
0
LINE
8
0
10
159.25
20
-52.5
11
172.25
21
-52.5
0
LINE
8
0
10
159.25
20
-66.5
11
172.25
21
-66.5
0
LINE
8
0
10
158.75
20
-53
11
158.75
21
-66
0
LINE
8
0
10
172.75
20
-53
11
172.75
21
-66
0
ARC
8
0
10
159.25
20
-53
40
0.5
50
90
51
180
0
ARC
8
0
10
172.25
20
-53
40
0.5
50
0
51
90
0
ARC
8
0
10
159.25
20
-66
40
0.5
50
180
51
270
0
ARC
8
0
10
172.25
20
-66
40
0.5
50
270
51
0
0
LINE
8
0
10
176.25
20
-52.5
11
189.25
21
-52.5
0
LINE
8
0
10
176.25
20
-66.5
11
189.25
21
-66.5
0
LINE
8
0
10
175.75
20
-53
11
175.75
21
-66
0
LINE
8
0
10
189.75
20
-53
11
189.75
21
-66
0
ARC
8
0
10
176.25
20
-53
40
0.5
50
90
51
180
0
ARC
8
0
10
189.25
20
-53
40
0.5
50
0
51
90
0
ARC
8
0
10
176.25
20
-66
40
0.5
50
180
51
270
0
ARC
8
0
10
189.25
20
-66
40
0.5
50
270
51
0
0
LINE
8
0
10
193.25
20
-52.5
11
206.25
21
-52.5
0
LINE
8
0
10
193.25
20
-66.5
11
206.25
21
-66.5
0
LINE
8
0
10
192.75
20
-53
11
192.75
21
-66
0
LINE
8
0
10
206.75
20
-53
11
206.75
21
-66
0
ARC
8
0
10
193.25
20
-53
40
0.5
50
90
51
180
0
ARC
8
0
10
206.25
20
-53
40
0.5
50
0
51
90
0
ARC
8
0
10
193.25
20
-66
40
0.5
50
180
51
270
0
ARC
8
0
10
206.25
20
-66
40
0.5
50
270
51
0
0
LINE
8
0
10
216.625
20
-52.5
11
229.625
21
-52.5
0
LINE
8
0
10
216.625
20
-66.5
11
229.625
21
-66.5
0
LINE
8
0
10
216.125
20
-53
11
216.125
21
-66
0
LINE
8
0
10
230.125
20
-53
11
230.125
21
-66
0
ARC
8
0
10
216.625
20
-53
40
0.5
50
90
51
180
0
ARC
8
0
10
229.625
20
-53
40
0.5
50
0
51
90
0
ARC
8
0
10
216.625
20
-66
40
0.5
50
180
51
270
0
ARC
8
0
10
229.625
20
-66
40
0.5
50
270
51
0
0
LINE
8
0
10
240
20
-52.5
11
253
21
-52.5
0
LINE
8
0
10
240
20
-66.5
11
253
21
-66.5
0
LINE
8
0
10
239.5
20
-53
11
239.5
21
-66
0
LINE
8
0
10
253.5
20
-53
11
253.5
21
-66
0
ARC
8
0
10
240
20
-53
40
0.5
50
90
51
180
0
ARC
8
0
10
253
20
-53
40
0.5
50
0
51
90
0
ARC
8
0
10
240
20
-66
40
0.5
50
180
51
270
0
ARC
8
0
10
253
20
-66
40
0.5
50
270
51
0
0
LINE
8
0
10
278.25
20
-52.5
11
291.25
21
-52.5
0
LINE
8
0
10
278.25
20
-66.5
11
291.25
21
-66.5
0
LINE
8
0
10
277.75
20
-53
11
277.75
21
-66
0
LINE
8
0
10
291.75
20
-53
11
291.75
21
-66
0
ARC
8
0
10
278.25
20
-53
40
0.5
50
90
51
180
0
ARC
8
0
10
291.25
20
-53
40
0.5
50
0
51
90
0
ARC
8
0
10
278.25
20
-66
40
0.5
50
180
51
270
0
ARC
8
0
10
291.25
20
-66
40
0.5
50
270
51
0
0
LINE
8
0
10
4.125
20
-69.5
11
17.125
21
-69.5
0
LINE
8
0
10
4.125
20
-83.5
11
17.125
21
-83.5
0
LINE
8
0
10
3.625
20
-70
11
3.625
21
-83
0
LINE
8
0
10
17.625
20
-70
11
17.625
21
-83
0
ARC
8
0
10
4.125
20
-70
40
0.5
50
90
51
180
0
ARC
8
0
10
17.125
20
-70
40
0.5
50
0
51
90
0
ARC
8
0
10
4.125
20
-83
40
0.5
50
180
51
270
0
ARC
8
0
10
17.125
20
-83
40
0.5
50
270
51
0
0
LINE
8
0
10
25.375
20
-69.5
11
38.375
21
-69.5
0
LINE
8
0
10
25.375
20
-83.5
11
38.375
21
-83.5
0
LINE
8
0
10
24.875
20
-70
11
24.875
21
-83
0
LINE
8
0
10
38.875
20
-70
11
38.875
21
-83
0
ARC
8
0
10
25.375
20
-70
40
0.5
50
90
51
180
0
ARC
8
0
10
38.375
20
-70
40
0.5
50
0
51
90
0
ARC
8
0
10
25.375
20
-83
40
0.5
50
180
51
270
0
ARC
8
0
10
38.375
20
-83
40
0.5
50
270
51
0
0
LINE
8
0
10
46.625
20
-69.5
11
59.625
21
-69.5
0
LINE
8
0
10
46.625
20
-83.5
11
59.625
21
-83.5
0
LINE
8
0
10
46.125
20
-70
11
46.125
21
-83
0
LINE
8
0
10
60.125
20
-70
11
60.125
21
-83
0
ARC
8
0
10
46.625
20
-70
40
0.5
50
90
51
180
0
ARC
8
0
10
59.625
20
-70
40
0.5
50
0
51
90
0
ARC
8
0
10
46.625
20
-83
40
0.5
50
180
51
270
0
ARC
8
0
10
59.625
20
-83
40
0.5
50
270
51
0
0
LINE
8
0
10
76.375
20
-69.5
11
89.375
21
-69.5
0
LINE
8
0
10
76.375
20
-83.5
11
89.375
21
-83.5
0
LINE
8
0
10
75.875
20
-70
11
75.875
21
-83
0
LINE
8
0
10
89.875
20
-70
11
89.875
21
-83
0
ARC
8
0
10
76.375
20
-70
40
0.5
50
90
51
180
0
ARC
8
0
10
89.375
20
-70
40
0.5
50
0
51
90
0
ARC
8
0
10
76.375
20
-83
40
0.5
50
180
51
270
0
ARC
8
0
10
89.375
20
-83
40
0.5
50
270
51
0
0
LINE
8
0
10
110.375
20
-69.5
11
123.375
21
-69.5
0
LINE
8
0
10
110.375
20
-83.5
11
123.375
21
-83.5
0
LINE
8
0
10
109.875
20
-70
11
109.875
21
-83
0
LINE
8
0
10
123.875
20
-70
11
123.875
21
-83
0
ARC
8
0
10
110.375
20
-70
40
0.5
50
90
51
180
0
ARC
8
0
10
123.375
20
-70
40
0.5
50
0
51
90
0
ARC
8
0
10
110.375
20
-83
40
0.5
50
180
51
270
0
ARC
8
0
10
123.375
20
-83
40
0.5
50
270
51
0
0
LINE
8
0
10
144.375
20
-69.5
11
157.375
21
-69.5
0
LINE
8
0
10
144.375
20
-83.5
11
157.375
21
-83.5
0
LINE
8
0
10
143.875
20
-70
11
143.875
21
-83
0
LINE
8
0
10
157.875
20
-70
11
157.875
21
-83
0
ARC
8
0
10
144.375
20
-70
40
0.5
50
90
51
180
0
ARC
8
0
10
157.375
20
-70
40
0.5
50
0
51
90
0
ARC
8
0
10
144.375
20
-83
40
0.5
50
180
51
270
0
ARC
8
0
10
157.375
20
-83
40
0.5
50
270
51
0
0
LINE
8
0
10
174.125
20
-69.5
11
187.125
21
-69.5
0
LINE
8
0
10
174.125
20
-83.5
11
187.125
21
-83.5
0
LINE
8
0
10
173.625
20
-70
11
173.625
21
-83
0
LINE
8
0
10
187.625
20
-70
11
187.625
21
-83
0
ARC
8
0
10
174.125
20
-70
40
0.5
50
90
51
180
0
ARC
8
0
10
187.125
20
-70
40
0.5
50
0
51
90
0
ARC
8
0
10
174.125
20
-83
40
0.5
50
180
51
270
0
ARC
8
0
10
187.125
20
-83
40
0.5
50
270
51
0
0
LINE
8
0
10
195.375
20
-69.5
11
208.375
21
-69.5
0
LINE
8
0
10
195.375
20
-83.5
11
208.375
21
-83.5
0
LINE
8
0
10
194.875
20
-70
11
194.875
21
-83
0
LINE
8
0
10
208.875
20
-70
11
208.875
21
-83
0
ARC
8
0
10
195.375
20
-70
40
0.5
50
90
51
180
0
ARC
8
0
10
208.375
20
-70
40
0.5
50
0
51
90
0
ARC
8
0
10
195.375
20
-83
40
0.5
50
180
51
270
0
ARC
8
0
10
208.375
20
-83
40
0.5
50
270
51
0
0
LINE
8
0
10
216.625
20
-69.5
11
229.625
21
-69.5
0
LINE
8
0
10
216.625
20
-83.5
11
229.625
21
-83.5
0
LINE
8
0
10
216.125
20
-70
11
216.125
21
-83
0
LINE
8
0
10
230.125
20
-70
11
230.125
21
-83
0
ARC
8
0
10
216.625
20
-70
40
0.5
50
90
51
180
0
ARC
8
0
10
229.625
20
-70
40
0.5
50
0
51
90
0
ARC
8
0
10
216.625
20
-83
40
0.5
50
180
51
270
0
ARC
8
0
10
229.625
20
-83
40
0.5
50
270
51
0
0
LINE
8
0
10
237.875
20
-69.5
11
250.875
21
-69.5
0
LINE
8
0
10
237.875
20
-83.5
11
250.875
21
-83.5
0
LINE
8
0
10
237.375
20
-70
11
237.375
21
-83
0
LINE
8
0
10
251.375
20
-70
11
251.375
21
-83
0
ARC
8
0
10
237.875
20
-70
40
0.5
50
90
51
180
0
ARC
8
0
10
250.875
20
-70
40
0.5
50
0
51
90
0
ARC
8
0
10
237.875
20
-83
40
0.5
50
180
51
270
0
ARC
8
0
10
250.875
20
-83
40
0.5
50
270
51
0
0
LINE
8
0
10
261.25
20
-69.5
11
274.25
21
-69.5
0
LINE
8
0
10
261.25
20
-83.5
11
274.25
21
-83.5
0
LINE
8
0
10
260.75
20
-70
11
260.75
21
-83
0
LINE
8
0
10
274.75
20
-70
11
274.75
21
-83
0
ARC
8
0
10
261.25
20
-70
40
0.5
50
90
51
180
0
ARC
8
0
10
274.25
20
-70
40
0.5
50
0
51
90
0
ARC
8
0
10
261.25
20
-83
40
0.5
50
180
51
270
0
ARC
8
0
10
274.25
20
-83
40
0.5
50
270
51
0
0
LINE
8
0
10
278.25
20
-69.5
11
291.25
21
-69.5
0
LINE
8
0
10
278.25
20
-83.5
11
291.25
21
-83.5
0
LINE
8
0
10
277.75
20
-70
11
277.75
21
-83
0
LINE
8
0
10
291.75
20
-70
11
291.75
21
-83
0
ARC
8
0
10
278.25
20
-70
40
0.5
50
90
51
180
0
ARC
8
0
10
291.25
20
-70
40
0.5
50
0
51
90
0
ARC
8
0
10
278.25
20
-83
40
0.5
50
180
51
270
0
ARC
8
0
10
291.25
20
-83
40
0.5
50
270
51
0
0
LINE
8
0
10
295.25
20
-69.5
11
308.25
21
-69.5
0
LINE
8
0
10
295.25
20
-83.5
11
308.25
21
-83.5
0
LINE
8
0
10
294.75
20
-70
11
294.75
21
-83
0
LINE
8
0
10
308.75
20
-70
11
308.75
21
-83
0
ARC
8
0
10
295.25
20
-70
40
0.5
50
90
51
180
0
ARC
8
0
10
308.25
20
-70
40
0.5
50
0
51
90
0
ARC
8
0
10
295.25
20
-83
40
0.5
50
180
51
270
0
ARC
8
0
10
308.25
20
-83
40
0.5
50
270
51
0
0
LINE
8
0
10
0
20
-85
11
310.25
21
-85
0
LINE
8
0
10
0
20
0
11
310.25
21
0
0
LINE
8
0
10
0
20
-85
11
0
21
0
0
LINE
8
0
10
310.25
20
-85
11
310.25
21
0
0
ENDSEC
0
EOF